<?xml version="1.0" standalone="no"?>
<!DOCTYPE svg PUBLIC "-//W3C//DTD SVG 1.1//EN" "http://www.w3.org/Graphics/SVG/1.1/DTD/svg11.dtd" >
<svg xmlns="http://www.w3.org/2000/svg">
<metadata>
Created by FontPrep 20130207 at Tue Sep  9 22:12:06 2014
 By Rye Skelton
(c)2013 Optimo.
</metadata>
<defs>
<font id="1a4c10eeacc188c4a18294755cd99f20" horiz-adv-x='1024' >
  <font-face 
    font-family="PxGrotesk-Light"
    font-weight="300"
    font-stretch="normal"
    units-per-em="2048"
    panose-1="2 6 3 3 3 0 0 2 0 4"
    ascent="1649"
    descent="-399"
    x-height="1044"
    cap-height="1393"
    bbox="-389 -432 2167 2179"
    underline-thickness="102"
    underline-position="-102"
    unicode-range="U+000D-FB02"
  />
<missing-glyph horiz-adv-x="1318" 
d="M102 1595h101l-101 -100v100zM1217 0h-101l101 100v-100zM614 0h-100l68 68h100zM629 1520l76 75h100l-78 -77q-37 4 -57 4zM809 1499l96 96h101l-127 -127q-35 19 -70 31zM1098 1186l119 119v-101l-107 -106q0 31 -12 88zM414 0h-101l197 197v-101zM1036 1325l181 180
v-100l-144 -143q-14 30 -37 63zM102 893v100l115 115l94 -6zM940 1430l166 165h100l-213 -213q-26 25 -53 48zM1016 0h-101l302 301v-100zM102 1395l201 200h100l-301 -301v101zM774 575q0 57 36 93q12 14 88 67q75 53 116 93q68 66 86 159l117 117v-100l-443 -443v14z
M102 1194l402 401h100l-90 -90q-110 -29 -190 -109t-111 -192l-111 -110v100zM524 535h23l-445 -445v100l422 422v-77zM786 272l431 430v-100l-431 -430v100zM639 1245h16l-553 -553v101l304 303l79 -4q0 59 41 106t113 47zM786 68v4l431 430v-101l-402 -401h-100l67 68h4z
M657 344l560 559v-100l-459 -459h-101zM510 344v-47l-297 -297h-100l534 535h101l-191 -191h-47zM813 1071q0 -41 -28 -77t-86 -82t-74 -62q-47 -45 -74 -111l-449 -448v100l711 711v-31zM102 492v100l633 633q33 -18 53 -47z" />
    <glyph glyph-name="fi" unicode="fi" horiz-adv-x="1136" 
d="M958 1372v-141h-141v141h141zM954 0h-133v928h-442v-928h-133v928h-174v116h174v349h383v-117h-250v-232h575v-1044z" />
    <glyph glyph-name="fl" unicode="fl" horiz-adv-x="1140" 
d="M379 1276v-232h229v-116h-229v-928h-133v928h-174v116h174v349h708v-1393h-133v1276h-442z" />
    <glyph glyph-name=".notdef" horiz-adv-x="1318" 
d="M102 1595h101l-101 -100v100zM1217 0h-101l101 100v-100zM614 0h-100l68 68h100zM629 1520l76 75h100l-78 -77q-37 4 -57 4zM809 1499l96 96h101l-127 -127q-35 19 -70 31zM1098 1186l119 119v-101l-107 -106q0 31 -12 88zM414 0h-101l197 197v-101zM1036 1325l181 180
v-100l-144 -143q-14 30 -37 63zM102 893v100l115 115l94 -6zM940 1430l166 165h100l-213 -213q-26 25 -53 48zM1016 0h-101l302 301v-100zM102 1395l201 200h100l-301 -301v101zM774 575q0 57 36 93q12 14 88 67q75 53 116 93q68 66 86 159l117 117v-100l-443 -443v14z
M102 1194l402 401h100l-90 -90q-110 -29 -190 -109t-111 -192l-111 -110v100zM524 535h23l-445 -445v100l422 422v-77zM786 272l431 430v-100l-431 -430v100zM639 1245h16l-553 -553v101l304 303l79 -4q0 59 41 106t113 47zM786 68v4l431 430v-101l-402 -401h-100l67 68h4z
M657 344l560 559v-100l-459 -459h-101zM510 344v-47l-297 -297h-100l534 535h101l-191 -191h-47zM813 1071q0 -41 -28 -77t-86 -82t-74 -62q-47 -45 -74 -111l-449 -448v100l711 711v-31zM102 492v100l633 633q33 -18 53 -47z" />
    <glyph glyph-name=".null" horiz-adv-x="0" 
 />
    <glyph glyph-name="nonmarkingreturn" horiz-adv-x="681" 
 />
    <glyph glyph-name="NULL" horiz-adv-x="0" 
 />
    <glyph glyph-name="NULL" horiz-adv-x="0" 
 />
    <glyph glyph-name="CR" unicode="&#xd;" horiz-adv-x="0" 
 />
    <glyph glyph-name="space" unicode=" " horiz-adv-x="536" 
 />
    <glyph glyph-name="exclam" unicode="!" horiz-adv-x="534" 
d="M201 1393h133v-764l-37 -305h-59l-37 305v764zM354 174v-174h-174v174h174z" />
    <glyph glyph-name="quotedbl" unicode="&#x22;" horiz-adv-x="729" 
d="M557 1423v-536h-115v536h115zM287 1423v-536h-115v536h115z" />
    <glyph glyph-name="numbersign" unicode="#" horiz-adv-x="1241" 
d="M516 938l-67 -483h276l68 483h-277zM1073 455v-107h-254l-49 -348h-113l50 348h-277l-49 -348h-113l49 348h-198v107h215l72 483h-240v106h254l51 349h113l-52 -349h277l51 349h113l-51 -349h200v-106h-215l-71 -483h237z" />
    <glyph glyph-name="dollar" unicode="$" horiz-adv-x="1167" 
d="M276 1050q0 -106 64 -164t186 -91v501q-106 -12 -178 -76t-72 -170zM926 362q0 111 -60 166t-182 86l-55 15v-533q129 10 213 82t84 184zM526 1587h103v-168q162 -16 266 -117t117 -278h-133q-18 240 -250 270v-524l96 -25q164 -41 251 -130t87 -255t-126 -272t-308 -117
v-166h-103v168q-180 15 -293 119t-129 303h134q8 -135 86 -210t202 -89v557l-75 21q-152 37 -230 136t-78 248q1 149 109 250t274 113v166z" />
    <glyph glyph-name="percent" unicode="%" horiz-adv-x="1597" 
d="M1231 68q73 0 113 40t40 111v279q0 70 -41 110t-113 41q-72 0 -112 -41q-41 -41 -41 -110v-279q0 -71 41 -111t113 -40zM1493 358q0 -375 -262 -374q-262 0 -262 374t262 375q262 0 262 -375zM367 743q73 0 113 40t40 112v279q0 70 -41 110t-113 41q-72 0 -112 -41
q-41 -41 -41 -110v-279q0 -70 41 -111t113 -41zM629 1034q0 -375 -262 -375t-263 375q0 375 262 375t263 -375zM307 0l873 1393h110l-872 -1393h-111z" />
    <glyph glyph-name="ampersand" unicode="&#x26;" horiz-adv-x="1232" 
d="M731 1140q0 81 -49 125t-134 44t-137 -47q-53 -48 -53 -116t40 -132t124 -168q106 84 158 148q51 65 51 146zM270 408v-111q0 -95 73 -151t173 -56q203 0 326 129l-344 443l-166 -132q-62 -48 -62 -122zM866 403v340h131v-507l185 -236h-168l-96 123q-166 -147 -400 -148
q-180 -1 -286 97t-105 272q0 112 47 188t143 152l101 80q-74 92 -104 133t-58 105t-29 124q-1 131 93 214t235 83q141 1 224 -77t83 -199t-66 -211t-196 -193l262 -340h4z" />
    <glyph glyph-name="quotesingle" unicode="'" horiz-adv-x="458" 
d="M287 1423v-536h-115v536h115z" />
    <glyph glyph-name="parenleft" unicode="(" horiz-adv-x="614" 
d="M260 774v-430q0 -313 285 -692h-113q-150 196 -228 408t-77 499q0 287 78 500t227 407h113q-285 -385 -285 -692z" />
    <glyph glyph-name="parenright" unicode=")" horiz-adv-x="612" 
d="M354 344v430q0 307 -284 692h112q150 -196 228 -408t78 -499t-78 -500t-228 -407h-112q284 379 284 692z" />
    <glyph glyph-name="asterisk" unicode="*" horiz-adv-x="958" 
d="M514 696h-70v287l-249 -143l-35 61l248 143l-248 144l35 61l249 -143v287h70v-287l250 143l35 -61l-250 -144l250 -143l-35 -61l-250 143v-287z" />
    <glyph glyph-name="plus" unicode="+" 
d="M557 469h-465v106h465v469h115v-469h465v-106h-465v-469h-115v469z" />
    <glyph glyph-name="comma" unicode="," horiz-adv-x="501" 
d="M338 174v-174l-100 -174h-74l94 174h-94v174h174z" />
    <glyph glyph-name="hyphen" unicode="-" horiz-adv-x="901" 
d="M164 492v126h573v-126h-573z" />
    <glyph glyph-name="period" unicode="." horiz-adv-x="501" 
d="M338 174v-174h-174v174h174z" />
    <glyph glyph-name="slash" unicode="/" horiz-adv-x="888" 
d="M834 1393l-639 -1393h-140l639 1393h140z" />
    <glyph glyph-name="zero" unicode="0" 
d="M934 424v545q0 153 -87 243t-233 90t-232 -90q-87 -90 -87 -243v-545q0 -154 87 -244t232 -90t233 90q87 90 87 244zM1087 696q0 -423 -138 -588q-117 -139 -335 -139q-408 0 -461 495q-11 101 -12 232q0 421 139 589q116 138 334 138q408 0 462 -494q11 -102 11 -233z
" />
    <glyph glyph-name="one" unicode="1" 
d="M250 0v121h358v987h-358v121h358v164h133v-1272h318v-121h-809z" />
    <glyph glyph-name="two" unicode="2" 
d="M315 121h750v-121h-899v150l571 557q59 59 88 93q78 91 77 221t-75 206q-73 76 -207 76t-218 -83t-89 -227h-137q4 193 129 312t319 119t306 -108t110 -292q0 -98 -39 -186t-77 -130t-109 -110l-500 -473v-4z" />
    <glyph glyph-name="three" unicode="3" 
d="M741 653h-319v121h305q82 0 126 46t44 118v133q0 104 -76 169t-212 65t-216 -75t-84 -194h-137q4 162 122 275t318 113t317 -107q118 -106 118 -275q0 -221 -181 -323q207 -94 207 -340q0 -184 -129 -297t-334 -113t-337 111t-134 315h137q2 -147 94 -227t234 -80
q141 0 231 75q89 75 89 179v147q0 72 -50 118t-133 46z" />
    <glyph glyph-name="four" unicode="4" 
d="M752 477v707l-476 -707h476zM885 0h-133v356h-617v121l615 916h135v-916h200v-121h-200v-356z" />
    <glyph glyph-name="five" unicode="5" 
d="M985 1393v-121h-633l-33 -508q119 172 325 172t322 -128t116 -349t-126 -355t-334 -135t-325 103t-139 303h137q16 -135 98 -211t219 -76t227 80q89 80 89 203v178q0 119 -84 193t-226 75q-96 -1 -177 -57t-124 -150h-137l53 783h752z" />
    <glyph glyph-name="six" unicode="6" 
d="M623 86q147 0 235 90t88 217v119q0 123 -87 204t-237 81t-236 -81q-87 -81 -87 -204v-119q1 -127 89 -217t235 -90zM623 -31q-266 0 -372 177q-105 177 -106 518q0 562 251 704q99 55 265 55t274 -96t126 -270h-137q-33 248 -295 248q-156 0 -243 -109t-87 -274v-181
q113 174 338 174q225 1 344 -125t119 -316t-111 -339q-55 -74 -150 -120t-216 -46z" />
    <glyph glyph-name="seven" unicode="7" 
d="M184 1272v121h885v-121l-590 -1272h-149l594 1272h-740z" />
    <glyph glyph-name="eight" unicode="8" 
d="M285 444v-135q0 -94 87 -156q86 -63 242 -63t243 62t87 157v135q0 94 -87 156t-243 62t-242 -62t-87 -156zM903 979v117q0 88 -79 147t-210 59t-210 -58q-79 -60 -78 -148v-117q0 -90 77 -149q78 -58 211 -58t211 58t78 149zM614 -31q-205 -1 -342 103t-137 301
q0 129 69 219t195 133q-223 90 -223 322q0 170 127 273t311 103t312 -103t127 -273q0 -231 -224 -322q127 -43 196 -133t69 -219q0 -197 -138 -301t-342 -103z" />
    <glyph glyph-name="nine" unicode="9" 
d="M604 1305q-147 -1 -235 -91t-88 -217v-116q0 -123 87 -204q86 -81 236 -81t237 81t87 204v118q0 125 -88 215t-236 91zM600 1423q270 0 376 -175t105 -517q0 -454 -143 -627q-114 -135 -321 -135q-207 1 -321 99t-132 270h137q14 -110 92 -180q77 -70 219 -70t229 106
t87 273v184q-113 -174 -361 -174q-211 0 -325 126t-115 316q0 190 112 339q54 73 148 119t213 46z" />
    <glyph glyph-name="colon" unicode=":" horiz-adv-x="501" 
d="M338 1044v-174h-174v174h174zM338 174v-174h-174v174h174z" />
    <glyph glyph-name="semicolon" unicode=";" horiz-adv-x="501" 
d="M338 174v-174l-100 -174h-74l94 174h-94v174h174zM338 1044v-174h-174v174h174z" />
    <glyph glyph-name="less" unicode="&#x3c;" 
d="M1120 1044v-122l-934 -400l934 -399v-123l-1044 449v147z" />
    <glyph glyph-name="equal" unicode="=" 
d="M1137 258h-1045v107h1045v-107zM1137 680h-1045v106h1045v-106z" />
    <glyph glyph-name="greater" unicode="&#x3e;" 
d="M106 922v122l1045 -448v-147l-1045 -449v123l934 399z" />
    <glyph glyph-name="question" unicode="?" horiz-adv-x="1015" 
d="M780 1062q0 100 -72 172t-197 73q-126 0 -202 -77t-86 -204h-133q14 180 131 289t294 109t288 -107q111 -106 110 -266q0 -211 -182 -357q-102 -82 -141 -135t-39 -133v-61h-133v61q0 102 47 179t143 155t134 140t38 162zM571 174v-174h-174v174h174z" />
    <glyph glyph-name="at" unicode="@" horiz-adv-x="1695" 
d="M1470 158h-880v729h512v-613h235v811h-983v-1126h768v-117h-901v1360h1249v-1044zM723 770v-496h246v496h-246z" />
    <glyph glyph-name="A" unicode="A" horiz-adv-x="1275" 
d="M643 1233h-8l-250 -748h504zM1053 0l-123 362h-586l-123 -362h-151l481 1393h174l481 -1393h-153z" />
    <glyph glyph-name="B" unicode="B" horiz-adv-x="1310" 
d="M1018 305v189q0 74 -54 116t-137 43h-481v-520h469q90 0 147 46q56 46 56 126zM756 0h-553v1393h553q385 0 385 -338q-1 -117 -57 -204t-154 -124q114 -27 178 -111t63 -208q0 -408 -415 -408zM805 1260h-459v-474h459q84 0 133 45t49 123v146q0 76 -48 118t-134 42z" />
    <glyph glyph-name="C" unicode="C" horiz-adv-x="1296" 
d="M688 -31q-268 -1 -410 183t-142 529t138 544q139 199 414 198q197 1 327 -113t150 -313h-143q-16 147 -110 221t-248 72q-154 0 -260 -112q-105 -113 -105 -277v-409q0 -166 109 -278t262 -112q342 0 370 304h144q-16 -199 -150 -318t-346 -119z" />
    <glyph glyph-name="D" unicode="D" horiz-adv-x="1349" 
d="M629 1260h-283v-1127h281q199 0 309 94t111 265v409q1 171 -109 265t-309 94zM203 1393h430q299 0 438 -169q139 -170 139 -528t-139 -527t-438 -169h-430v1393z" />
    <glyph glyph-name="E" unicode="E" horiz-adv-x="1206" 
d="M203 0v1393h872v-133h-729v-484h635v-133h-635v-510h729v-133h-872z" />
    <glyph glyph-name="F" unicode="F" horiz-adv-x="1110" 
d="M203 0v1393h803v-133h-660v-484h610v-133h-610v-643h-143z" />
    <glyph glyph-name="G" unicode="G" horiz-adv-x="1355" 
d="M674 -31q-260 1 -400 187t-139 530q0 344 139 541t422 196q203 -1 334 -115t152 -311h-144q-14 143 -108 218t-254 75t-268 -110t-109 -279v-409q0 -170 109 -280q108 -110 278 -110t272 98t103 275v115h-336v133h479v-723h-135l-8 158q-55 -88 -155 -138t-232 -51z" />
    <glyph glyph-name="H" unicode="H" horiz-adv-x="1411" 
d="M1065 0v649h-719v-649h-143v1393h143v-611h719v611h143v-1393h-143z" />
    <glyph glyph-name="I" unicode="I" horiz-adv-x="548" 
d="M203 0v1393h143v-1393h-143z" />
    <glyph glyph-name="J" unicode="J" horiz-adv-x="839" 
d="M637 1393v-1393h-592v133h449v1260h143z" />
    <glyph glyph-name="K" unicode="K" horiz-adv-x="1234" 
d="M346 1393v-1393h-143v1393h143zM1006 0l-656 741l600 652h191l-617 -652l662 -741h-180z" />
    <glyph glyph-name="L" unicode="L" horiz-adv-x="1019" 
d="M203 0v1393h143v-1260h631v-133h-774z" />
    <glyph glyph-name="M" unicode="M" horiz-adv-x="1697" 
d="M1495 1393v-1393h-137v1204h-8l-441 -1204h-118l-443 1204h-8v-1204h-137v1393h225l420 -1162h8l418 1162h221z" />
    <glyph glyph-name="N" unicode="N" horiz-adv-x="1411" 
d="M1067 162v1231h141v-1393h-227l-629 1233h-8v-1233h-141v1393h227l629 -1231h8z" />
    <glyph glyph-name="O" unicode="O" horiz-adv-x="1425" 
d="M299 489q0 -175 117 -281t298 -106t297 104t115 283v414q0 176 -116 282q-117 105 -297 105t-297 -105t-117 -282v-414zM1290 696q0 -340 -140 -534t-437 -193q-297 0 -438 194q-140 193 -140 533t140 534q139 194 437 194t438 -194t140 -534z" />
    <glyph glyph-name="P" unicode="P" horiz-adv-x="1222" 
d="M346 664h430q84 0 139 51t56 129v243q0 78 -52 125t-143 48h-430v-596zM711 530h-365v-530h-143v1393h526q213 1 304 -101t91 -328t-103 -330t-310 -104z" />
    <glyph glyph-name="Q" unicode="Q" horiz-adv-x="1437" 
d="M299 489q0 -175 117 -281t298 -106t297 104t115 283v414q0 176 -116 282q-117 105 -297 105t-297 -105t-117 -282v-414zM713 -31q-297 0 -438 194q-140 193 -140 533t140 534q139 194 437 194t438 -194t140 -525t-119 -510l201 -195l-96 -94l-193 186
q-141 -123 -370 -123z" />
    <glyph glyph-name="R" unicode="R" horiz-adv-x="1257" 
d="M346 733h430q86 0 140 50t55 135v169q0 82 -53 127t-142 46h-430v-527zM346 606v-606h-143v1393h526q211 1 303 -97t92 -292q0 -350 -327 -394l329 -610h-163l-322 606h-295z" />
    <glyph glyph-name="S" unicode="S" horiz-adv-x="1243" 
d="M607 1294q-142 0 -227 -62t-85 -181t70 -164q39 -27 75 -40t105 -34l231 -65q184 -52 268 -140t84 -256t-139 -275q-139 -108 -360 -108t-359 109q-137 109 -161 328h143q14 -152 114 -230t260 -78q159 0 259 71t100 187t-56 166q-56 49 -184 84l-276 76
q-166 45 -242 136q-75 91 -75 245t123 257q124 103 333 103t338 -105t148 -304h-144q-12 143 -106 212q-95 68 -237 68z" />
    <glyph glyph-name="T" unicode="T" horiz-adv-x="1064" 
d="M45 1260v133h975v-133h-416v-1260h-143v1260h-416z" />
    <glyph glyph-name="U" unicode="U" horiz-adv-x="1388" 
d="M1057 481v912h141v-897q0 -242 -139 -384t-365 -142t-364 142q-139 142 -140 384v897h144v-912q0 -172 100 -276q100 -105 261 -105t261 104t101 277z" />
    <glyph glyph-name="V" unicode="V" horiz-adv-x="1251" 
d="M240 1393l378 -1233h9l387 1233h151l-450 -1393h-180l-449 1393h154z" />
    <glyph glyph-name="W" unicode="W" horiz-adv-x="1873" 
d="M555 164h8l281 1229h184l285 -1229h8l299 1229h156l-365 -1393h-192l-279 1176h-8l-277 -1176h-192l-365 1393h154z" />
    <glyph glyph-name="X" unicode="X" horiz-adv-x="1181" 
d="M63 0l445 711l-420 682h166l336 -564l346 564h160l-422 -682l440 -711h-166l-358 594l-359 -594h-168z" />
    <glyph glyph-name="Y" unicode="Y" horiz-adv-x="1175" 
d="M659 0h-143v553l-459 840h160l371 -697l377 697h155l-461 -840v-553z" />
    <glyph glyph-name="Z" unicode="Z" horiz-adv-x="1175" 
d="M1059 1393v-133l-787 -1127h783v-133h-951v133l789 1127h-756v133h922z" />
    <glyph glyph-name="bracketleft" unicode="[" horiz-adv-x="673" 
d="M195 1466h378v-110h-256v-1594h256v-110h-378v1814z" />
    <glyph glyph-name="backslash" unicode="\" horiz-adv-x="888" 
d="M694 0l-639 1393h140l639 -1393h-140z" />
    <glyph glyph-name="bracketright" unicode="]" horiz-adv-x="673" 
d="M100 1466h379v-1814h-379v110h256v1594h-256v110z" />
    <glyph glyph-name="asciicircum" unicode="^" 
d="M133 598l424 795h115l424 -795h-131l-353 657l-346 -657h-133z" />
    <glyph glyph-name="underscore" unicode="_" horiz-adv-x="1290" 
d="M164 -195v82h962v-82h-962z" />
    <glyph glyph-name="grave" unicode="`" horiz-adv-x="581" 
d="M180 1423l168 -249h-108l-215 249h155z" />
    <glyph glyph-name="a" unicode="a" horiz-adv-x="1105" 
d="M256 365v-115q0 -158 217 -158q139 0 221 99t82 264v51l-434 -39q-86 -8 -86 -102zM776 717q0 131 -63 183t-181 52t-184 -53t-65 -156h-133q0 145 106 235t279 91q173 0 273 -89t99 -267v-596h154v-117h-268l-5 203h-6q-88 -227 -331 -228q-166 1 -251 91t-85 219
t66 208q67 79 200 91l395 37v96z" />
    <glyph glyph-name="b" unicode="b" horiz-adv-x="1198" 
d="M315 0h-133v1393h133v-529q102 205 342 205q199 1 308 -149t109 -399t-108 -397t-309 -149q-113 1 -203 53t-139 152v-180zM315 608v-172q0 -152 86 -248q87 -96 227 -96t221 78t81 195v315q0 116 -81 194t-221 78t-226 -96t-87 -248z" />
    <glyph glyph-name="c" unicode="c" horiz-adv-x="1071" 
d="M544 952q-110 0 -192 -78t-82 -200v-303q0 -119 81 -199t196 -80t193 66t85 182h133q-18 -178 -132 -271t-275 -94q-213 -1 -319 147t-105 399q0 251 111 399t317 149q165 0 273 -92t122 -264h-133q-10 121 -86 180q-77 59 -187 59z" />
    <glyph glyph-name="d" unicode="d" horiz-adv-x="1198" 
d="M1016 0h-133v180q-102 -205 -338 -205q-203 1 -312 149t-109 397t109 399t308 149q240 0 342 -205v529h133v-1393zM883 436v172q0 152 -86 248q-85 96 -225 96t-222 -78t-82 -194v-315q0 -117 82 -195t221 -78t226 96q86 96 86 248z" />
    <glyph glyph-name="e" unicode="e" horiz-adv-x="1099" 
d="M981 569v-88h-713v-112q0 -123 86 -200t202 -77t193 58t89 172h133q-18 -162 -135 -254t-281 -93q-215 1 -323 149t-108 396t112 399t316 151t316 -145q112 -144 113 -356zM838 598v78q0 125 -83 201q-83 75 -202 75t-202 -76t-83 -200v-78h570z" />
    <glyph glyph-name="f" unicode="f" horiz-adv-x="671" 
d="M379 1276v-232h229v-116h-229v-928h-133v928h-174v116h174v349h383v-117h-250z" />
    <glyph glyph-name="g" unicode="g" horiz-adv-x="1198" 
d="M883 436v172q0 152 -86 248q-85 96 -225 96t-222 -78t-82 -194v-315q0 -117 82 -195t221 -78t226 96q86 96 86 248zM1016 1044v-1013q0 -205 -125 -318t-305 -112q-387 0 -424 317h133q25 -201 283 -201q137 0 221 80t84 232v151q-102 -205 -338 -205q-203 1 -312 149
t-109 397t109 399t308 149q240 0 342 -205v180h133z" />
    <glyph glyph-name="h" unicode="h" horiz-adv-x="1148" 
d="M844 0v676q0 137 -53 207q-53 69 -181 69t-212 -97q-83 -97 -83 -251v-604h-133v1393h133v-531q90 207 322 207q160 0 250 -90t90 -283v-696h-133z" />
    <glyph glyph-name="i" unicode="i" horiz-adv-x="497" 
d="M319 1372v-141h-141v141h141zM315 0h-133v1044h133v-1044z" />
    <glyph glyph-name="j" unicode="j" horiz-adv-x="522" 
d="M344 1372v-141h-141v141h141zM207 -231v1275h133v-1392h-375v117h242z" />
    <glyph glyph-name="k" unicode="k" horiz-adv-x="1011" 
d="M315 1393v-1393h-133v1393h133zM797 0l-478 584l426 460h175l-441 -462l477 -582h-159z" />
    <glyph glyph-name="l" unicode="l" horiz-adv-x="505" 
d="M319 0h-133v1393h133v-1393z" />
    <glyph glyph-name="m" unicode="m" horiz-adv-x="1716" 
d="M182 0v1044h133v-182q78 207 293 207q238 0 301 -225q33 102 114 164t212 61q131 0 220 -91t89 -282v-696h-133v678q0 274 -217 274q-112 0 -188 -98t-76 -250v-604h-133v678q0 274 -217 274q-111 0 -188 -98t-77 -250v-604h-133z" />
    <glyph glyph-name="n" unicode="n" horiz-adv-x="1148" 
d="M844 0v672q0 137 -53 209q-53 71 -181 71t-212 -99q-83 -99 -83 -253v-600h-133v1044h133v-182q90 207 322 207q160 0 250 -90t90 -283v-696h-133z" />
    <glyph glyph-name="o" unicode="o" horiz-adv-x="1146" 
d="M879 365v315q0 121 -87 198q-86 76 -218 76t-219 -76t-87 -198v-315q0 -121 87 -198t218 -77t219 77q87 77 87 198zM125 522q0 250 114 398q115 148 335 149q220 0 334 -148q114 -149 114 -399t-114 -398t-335 -148t-335 148t-113 398z" />
    <glyph glyph-name="p" unicode="p" horiz-adv-x="1198" 
d="M315 -348h-133v1392h133v-180q102 205 342 205q199 1 308 -149t109 -399t-108 -397t-309 -149q-113 1 -203 53t-139 152v-528zM315 608v-172q0 -152 86 -248q87 -96 227 -96t221 78t81 195v315q0 116 -81 194t-221 78t-226 -96t-87 -248z" />
    <glyph glyph-name="q" unicode="q" horiz-adv-x="1198" 
d="M1016 -348h-133v528q-102 -205 -338 -205q-203 1 -312 149t-109 397t109 399t308 149q240 0 342 -205v180h133v-1392zM883 436v172q0 152 -86 248q-85 96 -225 96t-222 -78t-82 -194v-315q0 -117 82 -195t221 -78t226 96q86 96 86 248z" />
    <glyph glyph-name="r" unicode="r" horiz-adv-x="700" 
d="M182 0v1044h461v-116h-328v-928h-133z" />
    <glyph glyph-name="s" unicode="s" horiz-adv-x="1013" 
d="M516 -25q-178 -1 -292 91t-115 253h133q2 -106 81 -166q79 -61 191 -61t186 48q72 48 72 130t-47 122t-162 65l-172 37q-256 53 -256 282q-1 127 101 210t259 83t267 -83t110 -243h-133q-2 104 -69 157q-68 52 -172 52t-169 -48t-65 -124t43 -114t127 -54l176 -37
q150 -31 223 -103t73 -200q0 -129 -107 -213q-105 -84 -283 -84z" />
    <glyph glyph-name="t" unicode="t" horiz-adv-x="710" 
d="M379 928v-811h250v-117h-383v928h-174v116h174v349h133v-349h250v-116h-250z" />
    <glyph glyph-name="u" unicode="u" horiz-adv-x="1140" 
d="M305 1044v-673q0 -135 52 -207t177 -72t208 99t83 253v600h133v-1044h-133v182q-90 -207 -317 -207q-156 -1 -246 91t-90 282v696h133z" />
    <glyph glyph-name="v" unicode="v" horiz-adv-x="1015" 
d="M504 195h8l293 849h145l-375 -1044h-135l-374 1044h145z" />
    <glyph glyph-name="w" unicode="w" horiz-adv-x="1521" 
d="M457 195h8l213 849h170l215 -849h8l234 849h141l-318 -1044h-135l-227 879h-8l-228 -879h-137l-317 1044h145z" />
    <glyph glyph-name="x" unicode="x" horiz-adv-x="1011" 
d="M63 0l357 541l-328 503h162l250 -397l254 397h162l-332 -493l362 -551h-162l-282 442l-281 -442h-162z" />
    <glyph glyph-name="y" unicode="y" horiz-adv-x="1044" 
d="M154 -348v117h221l84 231l-387 1044h153l297 -849h8l301 849h148l-512 -1392h-313z" />
    <glyph glyph-name="z" unicode="z" horiz-adv-x="958" 
d="M852 117v-117h-750v117l566 811h-535v116h696v-116l-565 -811h588z" />
    <glyph glyph-name="braceleft" unicode="{" horiz-adv-x="749" 
d="M270 616v850h379v-110h-256v-740h-123zM270 616v-114h123v-740h256v-110h-379v850h-194v114h194z" />
    <glyph glyph-name="bar" unicode="|" horiz-adv-x="503" 
d="M190 -348v2089h123v-2089h-123z" />
    <glyph glyph-name="braceright" unicode="}" horiz-adv-x="749" 
d="M479 502v-850h-379v110h256v740h123zM479 502v114h-123v740h-256v110h379v-850h195v-114h-195z" />
    <glyph glyph-name="asciitilde" unicode="~" 
d="M1004 594h112q0 -98 -70 -158q-71 -59 -180 -59q-66 0 -140 27t-232 116q-80 40 -107 43q-26 2 -39 2q-53 1 -89 -31t-36 -85h-112q0 98 70 157q71 60 158 60t143 -20t145 -67q89 -46 108 -57t40 -20q22 -8 36 -14t28 -8q14 -3 54 -3q39 0 75 32t36 85z" />
    <glyph glyph-name="uni00A0" unicode="&#xa0;" horiz-adv-x="536" 
 />
    <glyph glyph-name="exclamdown" unicode="&#xa1;" horiz-adv-x="505" 
d="M319 -348h-133v764l37 305h60l36 -305v-764zM340 1044v-174h-174v174h174z" />
    <glyph glyph-name="cent" unicode="&#xa2;" 
d="M348 371q0 -105 65 -183t165 -94v854q-96 -16 -163 -90t-67 -184v-303zM578 -188v168q-188 18 -281 161q-92 143 -92 378t96 380t277 166v168h102v-166q146 -12 240 -104t108 -250h-133q-7 105 -67 163t-148 72v-852q94 14 156 79q61 65 67 165h133q-18 -164 -115 -256
t-241 -107v-165h-102z" />
    <glyph glyph-name="sterling" unicode="&#xa3;" 
d="M129 0v121h184v547h-184v120h184v242q1 162 103 278t290 116t288 -112q101 -112 102 -278h-133q0 131 -65 201q-64 70 -190 70t-194 -76t-68 -205v-236h365v-120h-365v-547h623v-121h-940z" />
    <glyph glyph-name="currency" unicode="&#xa4;" 
d="M254 598q0 -150 105 -255t255 -105t255 105t106 255t-105 255t-256 105t-255 -105t-105 -255zM614 127q-164 0 -290 100l-111 -110l-80 80l111 110q-100 127 -101 291q0 164 101 291l-111 110l80 80l111 -110q130 100 290 100t291 -100l111 110l80 -80l-111 -110
q100 -131 100 -291t-100 -291l111 -110l-80 -80l-111 110q-127 -100 -291 -100z" />
    <glyph glyph-name="yen" unicode="&#xa5;" 
d="M199 365v100h348v141h-348v101h270l-340 686h147l336 -686l340 686h148l-344 -686h270v-101h-346v-141h346v-100h-346v-365h-133v365h-348z" />
    <glyph glyph-name="brokenbar" unicode="&#xa6;" horiz-adv-x="466" 
d="M172 887v854h123v-854h-123zM172 -348v854h123v-854h-123z" />
    <glyph glyph-name="section" unicode="&#xa7;" horiz-adv-x="1173" 
d="M356 784v-522h523v522h-523zM879 143h-656v1250h787v-119h-654v-371h656v-1249h-791v119h658v370z" />
    <glyph glyph-name="dieresis" unicode="&#xa8;" horiz-adv-x="577" 
d="M465 1352v-140h-139v140h139zM186 1352v-140h-139v140h139z" />
    <glyph glyph-name="copyright" unicode="&#xa9;" horiz-adv-x="1712" 
d="M672 799v-205q0 -84 52 -137t129 -53t129 42q52 43 58 125h95q-13 -121 -91 -184t-186 -63q-141 0 -215 101t-74 271t76 272t200 101q123 -1 199 -65t84 -179h-94q-11 164 -180 164q-76 0 -129 -51t-53 -139zM219 690q-1 -264 187 -451t452 -187t452 186q188 188 189 452
q0 264 -188 452q-189 188 -453 189q-264 -1 -452 -189t-187 -452zM129 696q0 301 213 514t514 213t514 -213t213 -514t-213 -514t-514 -213t-514 213t-213 514z" />
    <glyph glyph-name="ordfeminine" unicode="&#xaa;" horiz-adv-x="800" 
d="M346 739q63 0 100 45t37 121v25l-192 -19q-45 -4 -45 -51v-49q0 -72 100 -72zM580 758h79v-82h-161l-2 100h-4q-45 -113 -170 -112q-88 0 -132 48t-45 112q0 64 42 109q42 44 122 52l174 16v43q0 61 -28 86q-29 25 -82 25q-113 0 -113 -98h-96q0 78 60 125t152 47
t147 -46q56 -46 57 -139v-286z" />
    <glyph glyph-name="guillemotleft" unicode="&#xab;" horiz-adv-x="915" 
d="M461 145h-113l-219 381l219 381h113l-199 -381zM772 145h-113l-219 381l219 381h113l-199 -381z" />
    <glyph glyph-name="logicalnot" unicode="&#xac;" 
d="M1018 246v434h-930v106h1045v-540h-115z" />
    <glyph glyph-name="uni00AD" unicode="&#xad;" horiz-adv-x="901" 
d="M164 492v126h573v-126h-573z" />
    <glyph glyph-name="registered" unicode="&#xae;" horiz-adv-x="1712" 
d="M219 690q-1 -264 187 -451t452 -187t452 186q188 188 189 452q0 264 -188 452q-189 188 -453 189q-264 -1 -452 -189t-187 -452zM709 700h235q37 0 56 23t20 57v109q0 76 -76 76h-235v-265zM709 621v-273h-93v696h299q99 0 153 -54t54 -156q0 -180 -155 -207l161 -279
h-106l-152 273h-161zM129 696q0 301 213 514t514 213t514 -213t213 -514t-213 -514t-514 -213t-514 213t-213 514z" />
    <glyph glyph-name="macron" unicode="&#xaf;" horiz-adv-x="634" 
d="M20 1268v88h592v-88h-592z" />
    <glyph glyph-name="degree" unicode="&#xb0;" horiz-adv-x="827" 
d="M193 1137q1 -92 65 -157t156 -65t156 65t65 157q0 93 -65 157q-64 64 -156 64t-156 -64t-65 -157zM127 1137q0 119 84 203t203 83q118 0 202 -84q84 -85 84 -203t-84 -202t-202 -84t-203 84q-84 84 -84 203z" />
    <glyph glyph-name="plusminus" unicode="&#xb1;" 
d="M1137 106v-106h-1045v106h1045zM557 575h-465v107h465v362h115v-362h465v-107h-465v-362h-115v362z" />
    <glyph glyph-name="twosuperior" unicode="&#xb2;" horiz-adv-x="817" 
d="M301 762h356v-86h-497v82l297 284q86 84 86 150t-34 99q-34 34 -97 34q-64 0 -104 -39t-40 -104h-102q0 106 70 166t177 61q107 0 169 -57t63 -161q0 -104 -113 -212l-231 -215v-2z" />
    <glyph glyph-name="threesuperior" unicode="&#xb3;" horiz-adv-x="784" 
d="M463 999h-166v86h152q37 0 57 22t20 54v66q0 47 -37 73t-92 25q-127 0 -137 -121h-102q0 84 67 145q68 60 174 60q105 0 167 -53t63 -142q0 -121 -103 -167q117 -39 117 -170q0 -101 -71 -159q-72 -58 -182 -58t-178 56t-73 169h101q12 -141 149 -142q66 0 109 32t43 79
v68q1 33 -21 55t-57 22z" />
    <glyph glyph-name="acute" unicode="&#xb4;" horiz-adv-x="581" 
d="M233 1174l168 249h156l-215 -249h-109z" />
    <glyph glyph-name="mu" unicode="&#xb5;" horiz-adv-x="1204" 
d="M338 -348h-133v1392h133v-698q0 -254 227 -254q127 0 210 99t83 253v600h133v-1044h-133v182q-90 -207 -317 -207q-125 0 -203 78v-401z" />
    <glyph glyph-name="paragraph" unicode="&#xb6;" horiz-adv-x="1189" 
d="M115 1393h854v-1577h-123v1470h-260v-1470h-123v921h-348v656z" />
    <glyph glyph-name="periodcentered" unicode="&#xb7;" horiz-adv-x="501" 
d="M338 612v-174h-174v174h174z" />
    <glyph glyph-name="cedilla" unicode="&#xb8;" horiz-adv-x="593" 
d="M174 -297v113h123v112h123v-225h-246z" />
    <glyph glyph-name="onesuperior" unicode="&#xb9;" horiz-adv-x="618" 
d="M444 1393v-717h-102v528h-227v86h227v103h102z" />
    <glyph glyph-name="ordmasculine" unicode="&#xba;" horiz-adv-x="761" 
d="M623 946q1 -129 -61 -206q-62 -76 -181 -76t-180 76t-62 206q-1 129 61 206t181 77t181 -77t61 -206zM522 862v168q0 53 -42 87t-99 34t-99 -34t-42 -87v-168q0 -53 42 -87t99 -34t99 34t42 87z" />
    <glyph glyph-name="guillemotright" unicode="&#xbb;" horiz-adv-x="915" 
d="M567 145h-112l198 381l-198 381h112l219 -381zM256 145h-113l199 381l-199 381h113l219 -381z" />
    <glyph glyph-name="onequarter" unicode="&#xbc;" horiz-adv-x="1478" 
d="M1165 573h-4l-221 -315h225v315zM1268 0h-103v172h-321v86l325 459h99v-459h114v-86h-114v-172zM248 0l872 1393h111l-873 -1393h-110zM426 1393v-717h-102v528h-228v86h228v103h102z" />
    <glyph glyph-name="onehalf" unicode="&#xbd;" horiz-adv-x="1531" 
d="M1063 86h356v-86h-497v82l297 285q86 84 86 149t-34 99t-97 34q-64 0 -104 -39t-40 -104h-102q0 106 69 167q69 60 177 60t170 -57t63 -161q0 -104 -113 -212l-231 -215v-2zM248 0l872 1393h111l-873 -1393h-110zM426 1393v-717h-102v528h-228v86h228v103h102z" />
    <glyph glyph-name="threequarters" unicode="&#xbe;" horiz-adv-x="1546" 
d="M1233 573h-4l-221 -315h225v315zM1335 0h-102v172h-322v86l326 459h98v-459h115v-86h-115v-172zM434 999h-166v86h152q37 0 57 22t21 54v66q0 47 -37 73t-92 25q-127 0 -138 -121h-102q0 84 68 144t174 61q105 0 167 -53t62 -142q0 -121 -102 -167q117 -39 116 -170
q0 -100 -70 -159q-71 -58 -182 -58q-112 0 -180 56t-71 169h100q12 -141 149 -142q66 0 109 32t43 79v68q0 33 -22 55t-56 22zM315 0l873 1393h110l-872 -1393h-111z" />
    <glyph glyph-name="questiondown" unicode="&#xbf;" horiz-adv-x="997" 
d="M225 -18q0 -100 72 -172t198 -72q125 0 201 77t86 203h133q-14 -180 -131 -288t-294 -109q-178 1 -288 107t-110 266q0 211 182 356q102 82 142 135q39 53 39 133v62h133v-62q0 -102 -47 -179t-143 -155t-135 -140q-38 -62 -38 -162zM434 870v174h174v-174h-174z" />
    <glyph glyph-name="Agrave" unicode="&#xc0;" horiz-adv-x="1275" 
d="M618 1780l168 -250h-108l-215 250h155zM643 1233h-8l-250 -748h504zM1053 0l-123 362h-586l-123 -362h-151l481 1393h174l481 -1393h-153z" />
    <glyph glyph-name="Aacute" unicode="&#xc1;" horiz-adv-x="1275" 
d="M492 1530l167 250h156l-215 -250h-108zM643 1233h-8l-250 -748h504zM1053 0l-123 362h-586l-123 -362h-151l481 1393h174l481 -1393h-153z" />
    <glyph glyph-name="Acircumflex" unicode="&#xc2;" horiz-adv-x="1275" 
d="M639 1710l-143 -180h-107l174 250h154l174 -250h-109zM643 1233h-8l-250 -748h504zM1053 0l-123 362h-586l-123 -362h-151l481 1393h174l481 -1393h-153z" />
    <glyph glyph-name="Atilde" unicode="&#xc3;" horiz-adv-x="1275" 
d="M866 1724h74q0 -76 -41 -118t-107 -43q-66 0 -167 49q-102 49 -138 49q-74 0 -73 -78h-74q0 76 41 119t107 43t167 -49q102 -49 138 -49q73 -1 73 77zM643 1233h-8l-250 -748h504zM1053 0l-123 362h-586l-123 -362h-151l481 1393h174l481 -1393h-153z" />
    <glyph glyph-name="Adieresis" unicode="&#xc4;" horiz-adv-x="1275" 
d="M848 1708v-139h-139v139h139zM569 1708v-139h-139v139h139zM643 1233h-8l-250 -748h504zM1053 0l-123 362h-586l-123 -362h-151l481 1393h174l481 -1393h-153z" />
    <glyph glyph-name="Aring" unicode="&#xc5;" horiz-adv-x="1275" 
d="M745 1712q0 45 -29 76q-30 31 -77 31t-78 -32t-31 -76t31 -76q31 -31 78 -31t77 31q29 32 29 77zM821 1712q0 -72 -50 -124t-132 -52t-132 52t-50 124t50 124t132 52t132 -52t50 -124zM643 1233h-8l-250 -748h504zM1053 0l-123 362h-586l-123 -362h-151l481 1393h174
l481 -1393h-153z" />
    <glyph glyph-name="AE" unicode="&#xc6;" horiz-adv-x="1900" 
d="M918 487v773h-140l-375 -773h515zM1769 1393v-133h-708v-484h614v-133h-614v-510h708v-133h-851v365h-576l-176 -365h-156l676 1393h1083z" />
    <glyph glyph-name="Ccedilla" unicode="&#xc7;" horiz-adv-x="1296" 
d="M688 -31q-268 -1 -410 183t-142 529t138 544q139 199 414 198q197 1 327 -113t150 -313h-143q-16 147 -110 221t-248 72q-154 0 -260 -112q-105 -113 -105 -277v-409q0 -166 109 -278t262 -112q342 0 370 304h144q-16 -199 -150 -318t-346 -119zM502 -297v113h123v112
h123v-225h-246z" />
    <glyph glyph-name="Egrave" unicode="&#xc8;" horiz-adv-x="1206" 
d="M573 1780l168 -250h-108l-215 250h155zM203 0v1393h872v-133h-729v-484h635v-133h-635v-510h729v-133h-872z" />
    <glyph glyph-name="Eacute" unicode="&#xc9;" horiz-adv-x="1206" 
d="M514 1530l168 250h156l-215 -250h-109zM203 0v1393h872v-133h-729v-484h635v-133h-635v-510h729v-133h-872z" />
    <glyph glyph-name="Ecircumflex" unicode="&#xca;" horiz-adv-x="1206" 
d="M647 1710l-143 -180h-107l174 250h154l174 -250h-108zM203 0v1393h872v-133h-729v-484h635v-133h-635v-510h729v-133h-872z" />
    <glyph glyph-name="Edieresis" unicode="&#xcb;" horiz-adv-x="1206" 
d="M858 1708v-139h-139v139h139zM580 1708v-139h-140v139h140zM203 0v1393h872v-133h-729v-484h635v-133h-635v-510h729v-133h-872z" />
    <glyph glyph-name="Igrave" unicode="&#xcc;" horiz-adv-x="548" 
d="M227 1780l168 -250h-108l-215 250h155zM203 0v1393h143v-1393h-143z" />
    <glyph glyph-name="Iacute" unicode="&#xcd;" horiz-adv-x="548" 
d="M176 1530l168 250h156l-215 -250h-109zM203 0v1393h143v-1393h-143z" />
    <glyph glyph-name="Icircumflex" unicode="&#xce;" horiz-adv-x="548" 
d="M274 1710l-143 -180h-106l174 250h153l174 -250h-108zM203 0v1393h143v-1393h-143z" />
    <glyph glyph-name="Idieresis" unicode="&#xcf;" horiz-adv-x="548" 
d="M481 1708v-139h-139v139h139zM203 1708v-139h-140v139h140zM203 0v1393h143v-1393h-143z" />
    <glyph glyph-name="Eth" unicode="&#xd0;" horiz-adv-x="1353" 
d="M207 750v643h430q299 0 438 -169q139 -170 139 -528t-139 -527t-438 -169h-430v643h-146v107h146zM350 643v-510h287q203 0 308 93t106 266v409q1 172 -105 265t-309 94h-287v-510h352v-107h-352z" />
    <glyph glyph-name="Ntilde" unicode="&#xd1;" horiz-adv-x="1411" 
d="M932 1724h74q0 -76 -41 -118t-107 -43q-66 0 -168 49t-137 49q-74 0 -74 -78h-73q0 76 40 119t106 43t168 -49t138 -49q74 -1 74 77zM1067 162v1231h141v-1393h-227l-629 1233h-8v-1233h-141v1393h227l629 -1231h8z" />
    <glyph glyph-name="Ograve" unicode="&#xd2;" horiz-adv-x="1425" 
d="M627 1802l168 -250h-109l-215 250h156zM299 489q0 -175 117 -281t298 -106t297 104t115 283v414q0 176 -116 282q-117 105 -297 105t-297 -105t-117 -282v-414zM1290 696q0 -340 -140 -534t-437 -193q-297 0 -438 194q-140 193 -140 533t140 534q139 194 437 194
t438 -194t140 -534z" />
    <glyph glyph-name="Oacute" unicode="&#xd3;" horiz-adv-x="1425" 
d="M623 1552l168 250h155l-215 -250h-108zM299 489q0 -175 117 -281t298 -106t297 104t115 283v414q0 176 -116 282q-117 105 -297 105t-297 -105t-117 -282v-414zM1290 696q0 -340 -140 -534t-437 -193q-297 0 -438 194q-140 193 -140 533t140 534q139 194 437 194
t438 -194t140 -534z" />
    <glyph glyph-name="Ocircumflex" unicode="&#xd4;" horiz-adv-x="1425" 
d="M713 1733l-144 -181h-106l174 250h154l174 -250h-109zM299 489q0 -175 117 -281t298 -106t297 104t115 283v414q0 176 -116 282q-117 105 -297 105t-297 -105t-117 -282v-414zM1290 696q0 -340 -140 -534t-437 -193q-297 0 -438 194q-140 193 -140 533t140 534
q139 194 437 194t438 -194t140 -534z" />
    <glyph glyph-name="Otilde" unicode="&#xd5;" horiz-adv-x="1425" 
d="M940 1724h74q0 -76 -41 -118t-107 -43q-66 0 -168 49t-137 49q-74 0 -74 -78h-73q0 76 41 119t106 43t167 -49t138 -49q74 -1 74 77zM299 489q0 -175 117 -281t298 -106t297 104t115 283v414q0 176 -116 282q-117 105 -297 105t-297 -105t-117 -282v-414zM1290 696
q0 -340 -140 -534t-437 -193q-297 0 -438 194q-140 193 -140 533t140 534q139 194 437 194t438 -194t140 -534z" />
    <glyph glyph-name="Odieresis" unicode="&#xd6;" horiz-adv-x="1425" 
d="M922 1731v-140h-140v140h140zM643 1731v-140h-139v140h139zM299 489q0 -175 117 -281t298 -106t297 104t115 283v414q0 176 -116 282q-117 105 -297 105t-297 -105t-117 -282v-414zM1290 696q0 -340 -140 -534t-437 -193q-297 0 -438 194q-140 193 -140 533t140 534
q139 194 437 194t438 -194t140 -534z" />
    <glyph glyph-name="multiply" unicode="&#xd7;" 
d="M694 522l441 -440l-82 -82l-439 438l-440 -440l-82 84l440 440l-440 441l82 81l440 -440l441 440l80 -81z" />
    <glyph glyph-name="Oslash" unicode="&#xd8;" horiz-adv-x="1425" 
d="M713 102q182 0 298 104t115 283v414q0 166 -108 275l-514 -1031q90 -45 209 -45zM299 489q0 -180 125 -288l514 1034q-100 55 -225 55q-180 0 -297 -105t-117 -282v-414zM1290 696q0 -340 -140 -534t-437 -193q-150 0 -271 56l-75 -156l-88 41l81 166q-225 176 -225 620
q0 340 140 534t438 193q166 0 286 -63l82 164l88 -41l-90 -180q211 -179 211 -607z" />
    <glyph glyph-name="Ugrave" unicode="&#xd9;" horiz-adv-x="1388" 
d="M639 1780l168 -250h-109l-215 250h156zM1057 481v912h141v-897q0 -242 -139 -384t-365 -142t-364 142q-139 142 -140 384v897h144v-912q0 -172 100 -276q100 -105 261 -105t261 104t101 277z" />
    <glyph glyph-name="Uacute" unicode="&#xda;" horiz-adv-x="1388" 
d="M588 1530l168 250h155l-215 -250h-108zM1057 481v912h141v-897q0 -242 -139 -384t-365 -142t-364 142q-139 142 -140 384v897h144v-912q0 -172 100 -276q100 -105 261 -105t261 104t101 277z" />
    <glyph glyph-name="Ucircumflex" unicode="&#xdb;" horiz-adv-x="1388" 
d="M694 1710l-143 -180h-107l174 250h154l174 -250h-108zM1057 481v912h141v-897q0 -242 -139 -384t-365 -142t-364 142q-139 142 -140 384v897h144v-912q0 -172 100 -276q100 -105 261 -105t261 104t101 277z" />
    <glyph glyph-name="Udieresis" unicode="&#xdc;" horiz-adv-x="1388" 
d="M903 1708v-139h-139v139h139zM625 1708v-139h-140v139h140zM1057 481v912h141v-897q0 -242 -139 -384t-365 -142t-364 142q-139 142 -140 384v897h144v-912q0 -172 100 -276q100 -105 261 -105t261 104t101 277z" />
    <glyph glyph-name="Yacute" unicode="&#xdd;" horiz-adv-x="1175" 
d="M522 1489l168 250h156l-215 -250h-109zM659 0h-143v553l-459 840h160l371 -697l377 697h155l-461 -840v-553z" />
    <glyph glyph-name="Thorn" unicode="&#xde;" horiz-adv-x="1232" 
d="M346 403h430q84 -1 139 51t56 130v243q0 78 -52 125t-143 47h-430v-596zM203 0v1393h143v-260h383q213 1 304 -101t91 -328t-103 -330t-310 -104h-365v-270h-143z" />
    <glyph glyph-name="germandbls" unicode="&#xdf;" horiz-adv-x="1114" 
d="M510 -31v119h14q143 0 232 68q88 68 88 176v188q0 68 -37 112t-105 44h-192v117h170q70 1 106 39t37 104v176q0 92 -68 143q-69 51 -179 51t-185 -68q-76 -69 -76 -194v-1044h-133v1044q0 152 112 266t291 114t279 -104q100 -103 101 -263q0 -233 -193 -322
q213 -63 213 -346q0 -193 -123 -307t-332 -113h-20z" />
    <glyph glyph-name="agrave" unicode="&#xe0;" horiz-adv-x="1105" 
d="M408 1423l167 -249h-108l-215 249h156zM256 365v-115q0 -158 217 -158q139 0 221 99t82 264v51l-434 -39q-86 -8 -86 -102zM776 717q0 131 -63 183t-181 52t-184 -53t-65 -156h-133q0 145 106 235t279 91q173 0 273 -89t99 -267v-596h154v-117h-268l-5 203h-6
q-88 -227 -331 -228q-166 1 -251 91t-85 219t66 208q67 79 200 91l395 37v96z" />
    <glyph glyph-name="aacute" unicode="&#xe1;" horiz-adv-x="1105" 
d="M459 1174l168 249h155l-215 -249h-108zM256 365v-115q0 -158 217 -158q139 0 221 99t82 264v51l-434 -39q-86 -8 -86 -102zM776 717q0 131 -63 183t-181 52t-184 -53t-65 -156h-133q0 145 106 235t279 91q173 0 273 -89t99 -267v-596h154v-117h-268l-5 203h-6
q-88 -227 -331 -228q-166 1 -251 91t-85 219t66 208q67 79 200 91l395 37v96z" />
    <glyph glyph-name="acircumflex" unicode="&#xe2;" horiz-adv-x="1105" 
d="M522 1354l-143 -180h-107l174 249h154l174 -249h-108zM256 365v-115q0 -158 217 -158q139 0 221 99t82 264v51l-434 -39q-86 -8 -86 -102zM776 717q0 131 -63 183t-181 52t-184 -53t-65 -156h-133q0 145 106 235t279 91q173 0 273 -89t99 -267v-596h154v-117h-268l-5 203
h-6q-88 -227 -331 -228q-166 1 -251 91t-85 219t66 208q67 79 200 91l395 37v96z" />
    <glyph glyph-name="atilde" unicode="&#xe3;" horiz-adv-x="1105" 
d="M758 1376h73q-1 -76 -41 -119t-106 -43t-168 50t-137 49q-74 0 -74 -78h-74q0 76 41 119q40 43 106 43t168 -49t138 -50q74 0 74 78zM256 365v-115q0 -158 217 -158q139 0 221 99t82 264v51l-434 -39q-86 -8 -86 -102zM776 717q0 131 -63 183t-181 52t-184 -53t-65 -156
h-133q0 145 106 235t279 91q173 0 273 -89t99 -267v-596h154v-117h-268l-5 203h-6q-88 -227 -331 -228q-166 1 -251 91t-85 219t66 208q67 79 200 91l395 37v96z" />
    <glyph glyph-name="adieresis" unicode="&#xe4;" horiz-adv-x="1105" 
d="M733 1352v-140h-139v140h139zM455 1352v-140h-140v140h140zM256 365v-115q0 -158 217 -158q139 0 221 99t82 264v51l-434 -39q-86 -8 -86 -102zM776 717q0 131 -63 183t-181 52t-184 -53t-65 -156h-133q0 145 106 235t279 91q173 0 273 -89t99 -267v-596h154v-117h-268
l-5 203h-6q-88 -227 -331 -228q-166 1 -251 91t-85 219t66 208q67 79 200 91l395 37v96z" />
    <glyph glyph-name="aring" unicode="&#xe5;" horiz-adv-x="1105" 
d="M637 1333q0 45 -30 76t-77 31q-48 0 -78 -32t-30 -76t31 -76t77 -32t77 32q30 32 30 77zM713 1333q0 -72 -50 -124q-51 -52 -133 -52t-132 52t-50 124t50 124t132 52t132 -52t51 -124zM256 365v-115q0 -158 217 -158q139 0 221 99t82 264v51l-434 -39q-86 -8 -86 -102z
M776 717q0 131 -63 183t-181 52t-184 -53t-65 -156h-133q0 145 106 235t279 91q173 0 273 -89t99 -267v-596h154v-117h-268l-5 203h-6q-88 -227 -331 -228q-166 1 -251 91t-85 219t66 208q67 79 200 91l395 37v96z" />
    <glyph glyph-name="ae" unicode="&#xe6;" horiz-adv-x="1720" 
d="M451 -25q-162 1 -249 93t-87 225t70 219q71 86 208 86h383v119q0 131 -63 183t-181 52t-184 -53t-65 -156h-133q0 145 106 235t276 91q242 0 330 -164q109 164 314 164q206 0 316 -144t110 -356v-88h-693v-112q0 -121 85 -199t194 -78q110 0 184 58t86 172h133
q-18 -162 -133 -254t-272 -93q-236 0 -361 201h-6q-123 -201 -368 -201zM1458 598v78q0 125 -81 201q-81 75 -193 75t-194 -76q-81 -76 -81 -200v-78h549zM776 481h-422q-46 1 -72 -27t-26 -75v-129q0 -158 217 -158q139 0 221 99t82 264v26z" />
    <glyph glyph-name="ccedilla" unicode="&#xe7;" horiz-adv-x="1071" 
d="M369 -297v113h123v112h122v-225h-245zM544 952q-110 0 -192 -78t-82 -200v-303q0 -119 81 -199t196 -80t193 66t85 182h133q-18 -178 -132 -271t-275 -94q-213 -1 -319 147t-105 399q0 251 111 399t317 149q165 0 273 -92t122 -264h-133q-10 121 -86 180q-77 59 -187 59z
" />
    <glyph glyph-name="egrave" unicode="&#xe8;" horiz-adv-x="1099" 
d="M457 1423l168 -249h-109l-215 249h156zM981 569v-88h-713v-112q0 -123 86 -200t202 -77t193 58t89 172h133q-18 -162 -135 -254t-281 -93q-215 1 -323 149t-108 396t112 399t316 151t316 -145q112 -144 113 -356zM838 598v78q0 125 -83 201q-83 75 -202 75t-202 -76
t-83 -200v-78h570z" />
    <glyph glyph-name="eacute" unicode="&#xe9;" horiz-adv-x="1099" 
d="M489 1174l168 249h156l-215 -249h-109zM981 569v-88h-713v-112q0 -123 86 -200t202 -77t193 58t89 172h133q-18 -162 -135 -254t-281 -93q-215 1 -323 149t-108 396t112 399t316 151t316 -145q112 -144 113 -356zM838 598v78q0 125 -83 201q-83 75 -202 75t-202 -76
t-83 -200v-78h570z" />
    <glyph glyph-name="ecircumflex" unicode="&#xea;" horiz-adv-x="1099" 
d="M555 1354l-143 -180h-107l174 249h154l174 -249h-109zM981 569v-88h-713v-112q0 -123 86 -200t202 -77t193 58t89 172h133q-18 -162 -135 -254t-281 -93q-215 1 -323 149t-108 396t112 399t316 151t316 -145q112 -144 113 -356zM838 598v78q0 125 -83 201q-83 75 -202 75
t-202 -76t-83 -200v-78h570z" />
    <glyph glyph-name="edieresis" unicode="&#xeb;" horiz-adv-x="1099" 
d="M758 1352v-140h-140v140h140zM479 1352v-140h-139v140h139zM981 569v-88h-713v-112q0 -123 86 -200t202 -77t193 58t89 172h133q-18 -162 -135 -254t-281 -93q-215 1 -323 149t-108 396t112 399t316 151t316 -145q112 -144 113 -356zM838 598v78q0 125 -83 201
q-83 75 -202 75t-202 -76t-83 -200v-78h570z" />
    <glyph glyph-name="igrave" unicode="&#xec;" horiz-adv-x="497" 
d="M315 0h-133v1044h133v-1044zM215 1423l168 -249h-109l-215 249h156z" />
    <glyph glyph-name="iacute" unicode="&#xed;" horiz-adv-x="497" 
d="M315 0h-133v1044h133v-1044zM147 1174l168 249h156l-215 -249h-109z" />
    <glyph glyph-name="icircumflex" unicode="&#xee;" horiz-adv-x="497" 
d="M315 0h-133v1044h133v-1044zM248 1354l-144 -180h-106l174 249h154l174 -249h-109z" />
    <glyph glyph-name="idieresis" unicode="&#xef;" horiz-adv-x="497" 
d="M315 0h-133v1044h133v-1044zM459 1352v-140h-140v140h140zM180 1352v-140h-139v140h139z" />
    <glyph glyph-name="eth" unicode="&#xf0;" horiz-adv-x="1148" 
d="M332 1133v81h207l-115 179h147l115 -179h262v-81h-209l125 -183q160 -234 160 -468t-113 -370t-336 -136t-335 136t-113 364q0 228 114 370t304 141q97 0 160 -29l-115 175h-258zM881 360v242q0 121 -87 195q-88 73 -220 73t-218 -74t-86 -194v-242q0 -120 86 -194
t219 -74t219 74t87 194z" />
    <glyph glyph-name="ntilde" unicode="&#xf1;" horiz-adv-x="1148" 
d="M803 1376h74q0 -76 -41 -119q-40 -43 -106 -43t-168 50t-138 49q-74 0 -74 -78h-74q0 76 41 119t107 43t168 -49t137 -50q74 0 74 78zM844 0v672q0 137 -53 209q-53 71 -181 71t-212 -99q-83 -99 -83 -253v-600h-133v1044h133v-182q90 207 322 207q160 0 250 -90t90 -283
v-696h-133z" />
    <glyph glyph-name="ograve" unicode="&#xf2;" horiz-adv-x="1146" 
d="M453 1423l168 -249h-109l-215 249h156zM879 365v315q0 121 -87 198q-86 76 -218 76t-219 -76t-87 -198v-315q0 -121 87 -198t218 -77t219 77q87 77 87 198zM125 522q0 250 114 398q115 148 335 149q220 0 334 -148q114 -149 114 -399t-114 -398t-335 -148t-335 148
t-113 398z" />
    <glyph glyph-name="oacute" unicode="&#xf3;" horiz-adv-x="1146" 
d="M508 1174l168 249h155l-215 -249h-108zM879 365v315q0 121 -87 198q-86 76 -218 76t-219 -76t-87 -198v-315q0 -121 87 -198t218 -77t219 77q87 77 87 198zM125 522q0 250 114 398q115 148 335 149q220 0 334 -148q114 -149 114 -399t-114 -398t-335 -148t-335 148
t-113 398z" />
    <glyph glyph-name="ocircumflex" unicode="&#xf4;" horiz-adv-x="1146" 
d="M573 1354l-143 -180h-106l174 249h153l174 -249h-108zM879 365v315q0 121 -87 198q-86 76 -218 76t-219 -76t-87 -198v-315q0 -121 87 -198t218 -77t219 77q87 77 87 198zM125 522q0 250 114 398q115 148 335 149q220 0 334 -148q114 -149 114 -399t-114 -398t-335 -148
t-335 148t-113 398z" />
    <glyph glyph-name="otilde" unicode="&#xf5;" horiz-adv-x="1146" 
d="M799 1376h73q0 -76 -41 -119t-106 -43t-167 50t-138 49q-74 0 -74 -78h-74q0 76 41 119t107 43t168 -49t137 -50q74 0 74 78zM879 365v315q0 121 -87 198q-86 76 -218 76t-219 -76t-87 -198v-315q0 -121 87 -198t218 -77t219 77q87 77 87 198zM125 522q0 250 114 398
q115 148 335 149q220 0 334 -148q114 -149 114 -399t-114 -398t-335 -148t-335 148t-113 398z" />
    <glyph glyph-name="odieresis" unicode="&#xf6;" horiz-adv-x="1146" 
d="M782 1352v-140h-139v140h139zM504 1352v-140h-139v140h139zM879 365v315q0 121 -87 198q-86 76 -218 76t-219 -76t-87 -198v-315q0 -121 87 -198t218 -77t219 77q87 77 87 198zM125 522q0 250 114 398q115 148 335 149q220 0 334 -148q114 -149 114 -399t-114 -398
t-335 -148t-335 148t-113 398z" />
    <glyph glyph-name="divide" unicode="&#xf7;" 
d="M698 1044v-170h-168v170h168zM698 170v-170h-168v170h168zM1137 575v-106h-1045v106h1045z" />
    <glyph glyph-name="oslash" unicode="&#xf8;" horiz-adv-x="1146" 
d="M1022 522q0 -250 -114 -398t-335 -149q-102 0 -192 37l-74 -149l-88 43l78 157q-172 141 -172 459q0 250 114 398t334 149q106 0 195 -39l74 152l88 -43l-78 -162q170 -139 170 -455zM573 90q131 0 219 77q87 77 87 198v315q0 116 -80 190l-367 -753q59 -27 141 -27z
M268 680v-315q0 -119 80 -195l369 756q-68 29 -144 28q-131 0 -218 -76t-87 -198z" />
    <glyph glyph-name="ugrave" unicode="&#xf9;" horiz-adv-x="1140" 
d="M514 1423l168 -249h-109l-215 249h156zM305 1044v-673q0 -135 52 -207t177 -72t208 99t83 253v600h133v-1044h-133v182q-90 -207 -317 -207q-156 -1 -246 91t-90 282v696h133z" />
    <glyph glyph-name="uacute" unicode="&#xfa;" horiz-adv-x="1140" 
d="M467 1174l168 249h156l-216 -249h-108zM305 1044v-673q0 -135 52 -207t177 -72t208 99t83 253v600h133v-1044h-133v182q-90 -207 -317 -207q-156 -1 -246 91t-90 282v696h133z" />
    <glyph glyph-name="ucircumflex" unicode="&#xfb;" horiz-adv-x="1140" 
d="M565 1354l-143 -180h-107l174 249h154l174 -249h-108zM305 1044v-673q0 -135 52 -207t177 -72t208 99t83 253v600h133v-1044h-133v182q-90 -207 -317 -207q-156 -1 -246 91t-90 282v696h133z" />
    <glyph glyph-name="udieresis" unicode="&#xfc;" horiz-adv-x="1140" 
d="M774 1352v-140h-139v140h139zM496 1352v-140h-140v140h140zM305 1044v-673q0 -135 52 -207t177 -72t208 99t83 253v600h133v-1044h-133v182q-90 -207 -317 -207q-156 -1 -246 91t-90 282v696h133z" />
    <glyph glyph-name="yacute" unicode="&#xfd;" horiz-adv-x="1044" 
d="M444 1174l168 249h156l-215 -249h-109zM154 -348v117h221l84 231l-387 1044h153l297 -849h8l301 849h148l-512 -1392h-313z" />
    <glyph glyph-name="thorn" unicode="&#xfe;" horiz-adv-x="1198" 
d="M315 -348h-133v1741h133v-529q102 205 342 205q199 1 308 -149t109 -399t-108 -397t-309 -149q-113 1 -203 53t-139 152v-528zM315 608v-172q0 -152 86 -248q87 -96 227 -96t221 78t81 195v315q0 116 -81 194t-221 78t-226 -96t-87 -248z" />
    <glyph glyph-name="ydieresis" unicode="&#xff;" horiz-adv-x="1044" 
d="M735 1352v-140h-139v140h139zM457 1352v-140h-140v140h140zM154 -348v117h221l84 231l-387 1044h153l297 -849h8l301 849h148l-512 -1392h-313z" />
    <glyph glyph-name="Amacron" unicode="&#x100;" horiz-adv-x="1275" 
d="M344 1616v88h592v-88h-592zM643 1233h-8l-250 -748h504zM1053 0l-123 362h-586l-123 -362h-151l481 1393h174l481 -1393h-153z" />
    <glyph glyph-name="amacron" unicode="&#x101;" horiz-adv-x="1105" 
d="M227 1268v88h592v-88h-592zM256 365v-115q0 -158 217 -158q139 0 221 99t82 264v51l-434 -39q-86 -8 -86 -102zM776 717q0 131 -63 183t-181 52t-184 -53t-65 -156h-133q0 145 106 235t279 91q173 0 273 -89t99 -267v-596h154v-117h-268l-5 203h-6q-88 -227 -331 -228
q-166 1 -251 91t-85 219t66 208q67 79 200 91l395 37v96z" />
    <glyph glyph-name="Abreve" unicode="&#x102;" horiz-adv-x="1275" 
d="M379 1772h86q0 -86 46 -140t128 -55q82 0 128 54t46 141h86q0 -123 -72 -200q-73 -77 -189 -77t-188 77t-71 200zM643 1233h-8l-250 -748h504zM1053 0l-123 362h-586l-123 -362h-151l481 1393h174l481 -1393h-153z" />
    <glyph glyph-name="abreve" unicode="&#x103;" horiz-adv-x="1105" 
d="M268 1423h86q0 -86 46 -140t128 -54t128 54t46 140h86q0 -123 -72 -199t-188 -77q-116 1 -188 77t-72 199zM256 365v-115q0 -158 217 -158q139 0 221 99t82 264v51l-434 -39q-86 -8 -86 -102zM776 717q0 131 -63 183t-181 52t-184 -53t-65 -156h-133q0 145 106 235
t279 91q173 0 273 -89t99 -267v-596h154v-117h-268l-5 203h-6q-88 -227 -331 -228q-166 1 -251 91t-85 219t66 208q67 79 200 91l395 37v96z" />
    <glyph glyph-name="Aogonek" unicode="&#x104;" horiz-adv-x="1275" 
d="M1174 -184v-113h-246v113l123 112h102l-102 -112h123zM643 1233h-8l-250 -748h504zM1053 0l-123 362h-586l-123 -362h-151l481 1393h174l481 -1393h-153z" />
    <glyph glyph-name="aogonek" unicode="&#x105;" horiz-adv-x="1105" 
d="M915 -184v-113h-245v113l123 112h102l-102 -112h122zM256 365v-115q0 -158 217 -158q139 0 221 99t82 264v51l-434 -39q-86 -8 -86 -102zM776 717q0 131 -63 183t-181 52t-184 -53t-65 -156h-133q0 145 106 235t279 91q173 0 273 -89t99 -267v-596h154v-117h-268l-5 203
h-6q-88 -227 -331 -228q-166 1 -251 91t-85 219t66 208q67 79 200 91l395 37v96z" />
    <glyph glyph-name="Cacute" unicode="&#x106;" horiz-adv-x="1296" 
d="M584 1522l168 250h155l-215 -250h-108zM688 -31q-268 -1 -410 183t-142 529t138 544q139 199 414 198q197 1 327 -113t150 -313h-143q-16 147 -110 221t-248 72q-154 0 -260 -112q-105 -113 -105 -277v-409q0 -166 109 -278t262 -112q342 0 370 304h144
q-16 -199 -150 -318t-346 -119z" />
    <glyph glyph-name="cacute" unicode="&#x107;" horiz-adv-x="1071" 
d="M485 1174l168 249h156l-215 -249h-109zM544 952q-110 0 -192 -78t-82 -200v-303q0 -119 81 -199t196 -80t193 66t85 182h133q-18 -178 -132 -271t-275 -94q-213 -1 -319 147t-105 399q0 251 111 399t317 149q165 0 273 -92t122 -264h-133q-10 121 -86 180q-77 59 -187 59
z" />
    <glyph glyph-name="Ccircumflex" unicode="&#x108;" horiz-adv-x="1296" 
d="M678 1702l-143 -180h-107l174 250h154l174 -250h-109zM688 -31q-268 -1 -410 183t-142 529t138 544q139 199 414 198q197 1 327 -113t150 -313h-143q-16 147 -110 221t-248 72q-154 0 -260 -112q-105 -113 -105 -277v-409q0 -166 109 -278t262 -112q342 0 370 304h144
q-16 -199 -150 -318t-346 -119z" />
    <glyph glyph-name="ccircumflex" unicode="&#x109;" horiz-adv-x="1071" 
d="M547 1354l-144 -180h-106l174 249h154l174 -249h-109zM544 952q-110 0 -192 -78t-82 -200v-303q0 -119 81 -199t196 -80t193 66t85 182h133q-18 -178 -132 -271t-275 -94q-213 -1 -319 147t-105 399q0 251 111 399t317 149q165 0 273 -92t122 -264h-133q-10 121 -86 180
q-77 59 -187 59z" />
    <glyph glyph-name="Cdotaccent" unicode="&#x10a;" horiz-adv-x="1296" 
d="M735 1720v-139h-139v139h139zM688 -31q-268 -1 -410 183t-142 529t138 544q139 199 414 198q197 1 327 -113t150 -313h-143q-16 147 -110 221t-248 72q-154 0 -260 -112q-105 -113 -105 -277v-409q0 -166 109 -278t262 -112q342 0 370 304h144q-16 -199 -150 -318
t-346 -119z" />
    <glyph glyph-name="cdotaccent" unicode="&#x10b;" horiz-adv-x="1071" 
d="M608 1372v-139h-139v139h139zM544 952q-110 0 -192 -78t-82 -200v-303q0 -119 81 -199t196 -80t193 66t85 182h133q-18 -178 -132 -271t-275 -94q-213 -1 -319 147t-105 399q0 251 111 399t317 149q165 0 273 -92t122 -264h-133q-10 121 -86 180q-77 59 -187 59z" />
    <glyph glyph-name="Ccaron" unicode="&#x10c;" horiz-adv-x="1296" 
d="M522 1772l144 -181l143 181h109l-175 -250h-153l-174 250h106zM688 -31q-268 -1 -410 183t-142 529t138 544q139 199 414 198q197 1 327 -113t150 -313h-143q-16 147 -110 221t-248 72q-154 0 -260 -112q-105 -113 -105 -277v-409q0 -166 109 -278t262 -112
q342 0 370 304h144q-16 -199 -150 -318t-346 -119z" />
    <glyph glyph-name="ccaron" unicode="&#x10d;" horiz-adv-x="1071" 
d="M397 1423l144 -180l143 180h109l-175 -249h-153l-174 249h106zM544 952q-110 0 -192 -78t-82 -200v-303q0 -119 81 -199t196 -80t193 66t85 182h133q-18 -178 -132 -271t-275 -94q-213 -1 -319 147t-105 399q0 251 111 399t317 149q165 0 273 -92t122 -264h-133
q-10 121 -86 180q-77 59 -187 59z" />
    <glyph glyph-name="Dcaron" unicode="&#x10e;" horiz-adv-x="1349" 
d="M496 1772l143 -181l143 181h109l-174 -250h-154l-174 250h107zM629 1260h-283v-1127h281q199 0 309 94t111 265v409q1 171 -109 265t-309 94zM203 1393h430q299 0 438 -169q139 -170 139 -528t-139 -527t-438 -169h-430v1393z" />
    <glyph glyph-name="dcaron" unicode="&#x10f;" horiz-adv-x="1198" 
d="M1313 1393v-174l-101 -175h-73l94 175h-94v174h174zM1016 0h-133v180q-102 -205 -338 -205q-203 1 -312 149t-109 397t109 399t308 149q240 0 342 -205v529h133v-1393zM883 436v172q0 152 -86 248q-85 96 -225 96t-222 -78t-82 -194v-315q0 -117 82 -195t221 -78t226 96
q86 96 86 248z" />
    <glyph glyph-name="Dcroat" unicode="&#x110;" horiz-adv-x="1353" 
d="M207 750v643h430q299 0 438 -169q139 -170 139 -528t-139 -527t-438 -169h-430v643h-146v107h146zM350 643v-510h287q203 0 308 93t106 266v409q1 172 -105 265t-309 94h-287v-510h352v-107h-352z" />
    <glyph glyph-name="dcroat" unicode="&#x111;" horiz-adv-x="1198" 
d="M1016 1171v-1171h-133v180q-102 -205 -338 -205q-203 1 -312 149t-109 397t109 399t308 149q240 0 342 -205v307h-308v82h308v140h133v-140h190v-82h-190zM883 436v172q0 152 -86 248q-85 96 -225 96t-222 -78t-82 -194v-315q0 -117 82 -195t221 -78t226 96q86 96 86 248
z" />
    <glyph glyph-name="Emacron" unicode="&#x112;" horiz-adv-x="1206" 
d="M344 1616v88h592v-88h-592zM203 0v1393h872v-133h-729v-484h635v-133h-635v-510h729v-133h-872z" />
    <glyph glyph-name="emacron" unicode="&#x113;" horiz-adv-x="1099" 
d="M258 1268v88h592v-88h-592zM981 569v-88h-713v-112q0 -123 86 -200t202 -77t193 58t89 172h133q-18 -162 -135 -254t-281 -93q-215 1 -323 149t-108 396t112 399t316 151t316 -145q112 -144 113 -356zM838 598v78q0 125 -83 201q-83 75 -202 75t-202 -76t-83 -200v-78
h570z" />
    <glyph glyph-name="Ebreve" unicode="&#x114;" horiz-adv-x="1206" 
d="M377 1772h86q0 -86 46 -140t128 -55q82 0 128 54t46 141h86q0 -123 -72 -200q-73 -77 -189 -77t-188 77t-71 200zM203 0v1393h872v-133h-729v-484h635v-133h-635v-510h729v-133h-872z" />
    <glyph glyph-name="ebreve" unicode="&#x115;" horiz-adv-x="1099" 
d="M293 1423h86q0 -86 46 -140t128 -54t128 54t46 140h86q0 -123 -72 -199q-73 -76 -189 -77q-116 1 -188 77t-71 199zM981 569v-88h-713v-112q0 -123 86 -200t202 -77t193 58t89 172h133q-18 -162 -135 -254t-281 -93q-215 1 -323 149t-108 396t112 399t316 151t316 -145
q112 -144 113 -356zM838 598v78q0 125 -83 201q-83 75 -202 75t-202 -76t-83 -200v-78h570z" />
    <glyph glyph-name="Edotaccent" unicode="&#x116;" horiz-adv-x="1206" 
d="M709 1720v-139h-140v139h140zM203 0v1393h872v-133h-729v-484h635v-133h-635v-510h729v-133h-872z" />
    <glyph glyph-name="edotaccent" unicode="&#x117;" horiz-adv-x="1099" 
d="M621 1372v-139h-140v139h140zM981 569v-88h-713v-112q0 -123 86 -200t202 -77t193 58t89 172h133q-18 -162 -135 -254t-281 -93q-215 1 -323 149t-108 396t112 399t316 151t316 -145q112 -144 113 -356zM838 598v78q0 125 -83 201q-83 75 -202 75t-202 -76t-83 -200v-78
h570z" />
    <glyph glyph-name="Eogonek" unicode="&#x118;" horiz-adv-x="1206" 
d="M711 -184v-113h-246v113l123 112h102l-102 -112h123zM203 0v1393h872v-133h-729v-484h635v-133h-635v-510h729v-133h-872z" />
    <glyph glyph-name="eogonek" unicode="&#x119;" horiz-adv-x="1099" 
d="M623 -184v-113h-246v113l123 112h102l-102 -112h123zM981 569v-88h-713v-112q0 -123 86 -200t202 -77t193 58t89 172h133q-18 -162 -135 -254t-281 -93q-215 1 -323 149t-108 396t112 399t316 151t316 -145q112 -144 113 -356zM838 598v78q0 125 -83 201q-83 75 -202 75
t-202 -76t-83 -200v-78h570z" />
    <glyph glyph-name="Ecaron" unicode="&#x11a;" horiz-adv-x="1206" 
d="M496 1772l143 -181l143 181h109l-174 -250h-154l-174 250h107zM203 0v1393h872v-133h-729v-484h635v-133h-635v-510h729v-133h-872z" />
    <glyph glyph-name="ecaron" unicode="&#x11b;" horiz-adv-x="1099" 
d="M410 1423l143 -180l143 180h109l-174 -249h-154l-174 249h107zM981 569v-88h-713v-112q0 -123 86 -200t202 -77t193 58t89 172h133q-18 -162 -135 -254t-281 -93q-215 1 -323 149t-108 396t112 399t316 151t316 -145q112 -144 113 -356zM838 598v78q0 125 -83 201
q-83 75 -202 75t-202 -76t-83 -200v-78h570z" />
    <glyph glyph-name="Gcircumflex" unicode="&#x11c;" horiz-adv-x="1355" 
d="M682 1702l-143 -180h-107l174 250h154l174 -250h-109zM674 -31q-260 1 -400 187t-139 530q0 344 139 541t422 196q203 -1 334 -115t152 -311h-144q-14 143 -108 218t-254 75t-268 -110t-109 -279v-409q0 -170 109 -280q108 -110 278 -110t272 98t103 275v115h-336v133
h479v-723h-135l-8 158q-55 -88 -155 -138t-232 -51z" />
    <glyph glyph-name="gcircumflex" unicode="&#x11d;" horiz-adv-x="1198" 
d="M629 1354l-144 -180h-106l174 249h154l174 -249h-109zM883 436v172q0 152 -86 248q-85 96 -225 96t-222 -78t-82 -194v-315q0 -117 82 -195t221 -78t226 96q86 96 86 248zM1016 1044v-1013q0 -205 -125 -318t-305 -112q-387 0 -424 317h133q25 -201 283 -201
q137 0 221 80t84 232v151q-102 -205 -338 -205q-203 1 -312 149t-109 397t109 399t308 149q240 0 342 -205v180h133z" />
    <glyph glyph-name="Gbreve" unicode="&#x11e;" horiz-adv-x="1355" 
d="M410 1772h86q0 -86 46 -140t128 -55q82 0 128 54t46 141h86q0 -123 -72 -200t-188 -77t-189 77q-71 77 -71 200zM674 -31q-260 1 -400 187t-139 530q0 344 139 541t422 196q203 -1 334 -115t152 -311h-144q-14 143 -108 218t-254 75t-268 -110t-109 -279v-409
q0 -170 109 -280q108 -110 278 -110t272 98t103 275v115h-336v133h479v-723h-135l-8 158q-55 -88 -155 -138t-232 -51z" />
    <glyph glyph-name="gbreve" unicode="&#x11f;" horiz-adv-x="1198" 
d="M381 1423h86q0 -86 46 -140t128 -54t128 54t46 140h86q0 -123 -72 -199q-73 -76 -189 -77q-116 1 -188 77t-71 199zM883 436v172q0 152 -86 248q-85 96 -225 96t-222 -78t-82 -194v-315q0 -117 82 -195t221 -78t226 96q86 96 86 248zM1016 1044v-1013q0 -205 -125 -318
t-305 -112q-387 0 -424 317h133q25 -201 283 -201q137 0 221 80t84 232v151q-102 -205 -338 -205q-203 1 -312 149t-109 397t109 399t308 149q240 0 342 -205v180h133z" />
    <glyph glyph-name="Gdotaccent" unicode="&#x120;" horiz-adv-x="1355" 
d="M735 1720v-139h-139v139h139zM674 -31q-260 1 -400 187t-139 530q0 344 139 541t422 196q203 -1 334 -115t152 -311h-144q-14 143 -108 218t-254 75t-268 -110t-109 -279v-409q0 -170 109 -280q108 -110 278 -110t272 98t103 275v115h-336v133h479v-723h-135l-8 158
q-55 -88 -155 -138t-232 -51z" />
    <glyph glyph-name="gdotaccent" unicode="&#x121;" horiz-adv-x="1198" 
d="M700 1372v-139h-139v139h139zM883 436v172q0 152 -86 248q-85 96 -225 96t-222 -78t-82 -194v-315q0 -117 82 -195t221 -78t226 96q86 96 86 248zM1016 1044v-1013q0 -205 -125 -318t-305 -112q-387 0 -424 317h133q25 -201 283 -201q137 0 221 80t84 232v151
q-102 -205 -338 -205q-203 1 -312 149t-109 397t109 399t308 149q240 0 342 -205v180h133z" />
    <glyph glyph-name="Gcommaaccent" unicode="&#x122;" horiz-adv-x="1355" 
d="M725 -127v-139l-82 -140h-57l76 140h-76v139h139zM674 -31q-260 1 -400 187t-139 530q0 344 139 541t422 196q203 -1 334 -115t152 -311h-144q-14 143 -108 218t-254 75t-268 -110t-109 -279v-409q0 -170 109 -280q108 -110 278 -110t272 98t103 275v115h-336v133h479
v-723h-135l-8 158q-55 -88 -155 -138t-232 -51z" />
    <glyph glyph-name="gcommaaccent" unicode="&#x123;" horiz-adv-x="1198" 
d="M539 1393v174l100 174h74l-95 -174h95v-174h-174zM883 436v172q0 152 -86 248q-85 96 -225 96t-222 -78t-82 -194v-315q0 -117 82 -195t221 -78t226 96q86 96 86 248zM1016 1044v-1013q0 -205 -125 -318t-305 -112q-387 0 -424 317h133q25 -201 283 -201q137 0 221 80
t84 232v151q-102 -205 -338 -205q-203 1 -312 149t-109 397t109 399t308 149q240 0 342 -205v180h133z" />
    <glyph glyph-name="Hcircumflex" unicode="&#x124;" horiz-adv-x="1411" 
d="M705 1702l-144 -180h-106l174 250h153l174 -250h-108zM1065 0v649h-719v-649h-143v1393h143v-611h719v611h143v-1393h-143z" />
    <glyph glyph-name="hcircumflex" unicode="&#x125;" horiz-adv-x="1148" 
d="M250 1702l-144 -180h-106l174 250h154l174 -250h-109zM844 0v676q0 137 -53 207q-53 69 -181 69t-212 -97q-83 -97 -83 -251v-604h-133v1393h133v-531q90 207 322 207q160 0 250 -90t90 -283v-696h-133z" />
    <glyph glyph-name="Hbar" unicode="&#x126;" horiz-adv-x="1423" 
d="M352 782h719v215h-719v-215zM61 997v107h148v289h143v-289h719v289h143v-289h148v-107h-148v-997h-143v649h-719v-649h-143v997h-148z" />
    <glyph glyph-name="hbar" unicode="&#x127;" horiz-adv-x="1148" 
d="M182 1171h-190v82h190v140h133v-140h308v-82h-308v-309q90 207 322 207q160 0 250 -90t90 -283v-696h-133v676q0 137 -53 207q-53 69 -181 69t-212 -97q-83 -97 -83 -251v-604h-133v1171z" />
    <glyph glyph-name="Itilde" unicode="&#x128;" horiz-adv-x="548" 
d="M502 1724h73q-1 -76 -41 -118t-106 -43q-66 0 -168 49t-137 49q-74 0 -74 -78h-74q0 76 41 119q40 43 106 43t168 -49t138 -49q74 -1 74 77zM203 0v1393h143v-1393h-143z" />
    <glyph glyph-name="itilde" unicode="&#x129;" horiz-adv-x="497" 
d="M473 1376h74q0 -76 -41 -119q-40 -43 -106 -43t-168 50t-138 49q-74 0 -74 -78h-73q0 76 41 119t106 43q66 0 168 -49t137 -50q74 0 74 78zM315 0h-133v1044h133v-1044z" />
    <glyph glyph-name="Imacron" unicode="&#x12a;" horiz-adv-x="548" 
d="M-20 1616v88h591v-88h-591zM203 0v1393h143v-1393h-143z" />
    <glyph glyph-name="imacron" unicode="&#x12b;" horiz-adv-x="497" 
d="M-47 1268v88h592v-88h-592zM315 0h-133v1044h133v-1044z" />
    <glyph glyph-name="Ibreve" unicode="&#x12c;" horiz-adv-x="548" 
d="M14 1772h86q0 -86 46 -140t128 -55q82 0 128 54t47 141h86q0 -123 -72 -200t-189 -77q-116 0 -188 77t-72 200zM203 0v1393h143v-1393h-143z" />
    <glyph glyph-name="ibreve" unicode="&#x12d;" horiz-adv-x="497" 
d="M-12 1423h86q0 -86 46 -140t128 -54t128 54t46 140h86q0 -123 -72 -199t-188 -77q-116 1 -188 77t-72 199zM315 0h-133v1044h133v-1044z" />
    <glyph glyph-name="Iogonek" unicode="&#x12e;" horiz-adv-x="548" 
d="M334 -184v-113h-246v113l123 112h102l-102 -112h123zM203 0v1393h143v-1393h-143z" />
    <glyph glyph-name="iogonek" unicode="&#x12f;" horiz-adv-x="497" 
d="M309 -184v-113h-246v113l123 112h103l-103 -112h123zM319 1372v-141h-141v141h141zM315 0h-133v1044h133v-1044z" />
    <glyph glyph-name="Idotaccent" unicode="&#x130;" horiz-adv-x="548" 
d="M344 1720v-139h-139v139h139zM203 0v1393h143v-1393h-143z" />
    <glyph glyph-name="dotlessi" unicode="&#x131;" horiz-adv-x="497" 
d="M315 0h-133v1044h133v-1044z" />
    <glyph glyph-name="IJ" unicode="&#x132;" horiz-adv-x="1388" 
d="M1186 1393v-1393h-592v133h448v1260h144zM203 0v1393h143v-1393h-143z" />
    <glyph glyph-name="ij" unicode="&#x133;" horiz-adv-x="1019" 
d="M842 1372v-141h-142v141h142zM705 -231v1275h133v-1392h-375v117h242zM319 1372v-141h-141v141h141zM315 0h-133v1044h133v-1044z" />
    <glyph glyph-name="Jcircumflex" unicode="&#x134;" horiz-adv-x="839" 
d="M565 1702l-143 -180h-107l174 250h154l174 -250h-108zM637 1393v-1393h-592v133h449v1260h143z" />
    <glyph glyph-name="jcircumflex" unicode="&#x135;" horiz-adv-x="497" 
d="M248 1354l-144 -180h-106l174 249h154l174 -249h-109zM182 -231v1275h133v-1392h-374v117h241z" />
    <glyph glyph-name="Kcommaaccent" unicode="&#x136;" horiz-adv-x="1234" 
d="M657 -127v-139l-82 -140h-57l76 140h-76v139h139zM346 1393v-1393h-143v1393h143zM1006 0l-656 741l600 652h191l-617 -652l662 -741h-180z" />
    <glyph glyph-name="kcommaaccent" unicode="&#x137;" horiz-adv-x="1011" 
d="M563 -127v-139l-82 -140h-57l76 140h-76v139h139zM315 1393v-1393h-133v1393h133zM797 0l-478 584l426 460h175l-441 -462l477 -582h-159z" />
    <glyph glyph-name="kgreenlandic" unicode="&#x138;" horiz-adv-x="1011" 
d="M315 1044v-1044h-133v1044h133zM797 0l-478 584l426 460h175l-441 -462l477 -582h-159z" />
    <glyph glyph-name="Lacute" unicode="&#x139;" horiz-adv-x="1019" 
d="M176 1522l168 250h156l-215 -250h-109zM203 0v1393h143v-1260h631v-133h-774z" />
    <glyph glyph-name="lacute" unicode="&#x13a;" horiz-adv-x="505" 
d="M150 1522l167 250h156l-215 -250h-108zM319 0h-133v1393h133v-1393z" />
    <glyph glyph-name="Lcommaaccent" unicode="&#x13b;" horiz-adv-x="1019" 
d="M592 -127v-139l-82 -140h-57l75 140h-75v139h139zM203 0v1393h143v-1260h631v-133h-774z" />
    <glyph glyph-name="lcommaaccent" unicode="&#x13c;" horiz-adv-x="505" 
d="M322 -127v-139l-82 -140h-58l76 140h-76v139h140zM319 0h-133v1393h133v-1393z" />
    <glyph glyph-name="Lcaron" unicode="&#x13d;" horiz-adv-x="1019" 
d="M664 1393v-174l-101 -175h-74l95 175h-95v174h175zM203 0v1393h143v-1260h631v-133h-774z" />
    <glyph glyph-name="lcaron" unicode="&#x13e;" horiz-adv-x="501" 
d="M616 1393v-174l-100 -175h-74l95 175h-95v174h174zM319 0h-133v1393h133v-1393z" />
    <glyph glyph-name="Ldot" unicode="&#x13f;" horiz-adv-x="1021" 
d="M752 1020v-174h-174v174h174zM203 0v1393h143v-1260h631v-133h-774z" />
    <glyph glyph-name="ldot" unicode="&#x140;" horiz-adv-x="552" 
d="M616 1020v-174h-174v174h174zM319 0h-133v1393h133v-1393z" />
    <glyph glyph-name="Lslash" unicode="&#x141;" horiz-adv-x="1046" 
d="M229 0v557l-196 -113v119l196 115v715h144v-633l311 182v-119l-311 -182v-508h631v-133h-775z" />
    <glyph glyph-name="lslash" unicode="&#x142;" horiz-adv-x="548" 
d="M342 0h-133v657l-156 -90v97l156 90v639h133v-559l156 88v-95l-156 -90v-737z" />
    <glyph glyph-name="Nacute" unicode="&#x143;" horiz-adv-x="1411" 
d="M563 1522l168 250h156l-215 -250h-109zM1067 162v1231h141v-1393h-227l-629 1233h-8v-1233h-141v1393h227l629 -1231h8z" />
    <glyph glyph-name="nacute" unicode="&#x144;" horiz-adv-x="1148" 
d="M455 1174l168 249h155l-215 -249h-108zM844 0v672q0 137 -53 209q-53 71 -181 71t-212 -99q-83 -99 -83 -253v-600h-133v1044h133v-182q90 207 322 207q160 0 250 -90t90 -283v-696h-133z" />
    <glyph glyph-name="Ncommaaccent" unicode="&#x145;" horiz-adv-x="1411" 
d="M774 -127v-139l-82 -140h-57l76 140h-76v139h139zM1067 162v1231h141v-1393h-227l-629 1233h-8v-1233h-141v1393h227l629 -1231h8z" />
    <glyph glyph-name="ncommaaccent" unicode="&#x146;" horiz-adv-x="1148" 
d="M649 -127v-139l-82 -140h-57l76 140h-76v139h139zM844 0v672q0 137 -53 209q-53 71 -181 71t-212 -99q-83 -99 -83 -253v-600h-133v1044h133v-182q90 207 322 207q160 0 250 -90t90 -283v-696h-133z" />
    <glyph glyph-name="Ncaron" unicode="&#x147;" horiz-adv-x="1411" 
d="M561 1772l144 -181l143 181h108l-174 -250h-153l-174 250h106zM1067 162v1231h141v-1393h-227l-629 1233h-8v-1233h-141v1393h227l629 -1231h8z" />
    <glyph glyph-name="ncaron" unicode="&#x148;" horiz-adv-x="1148" 
d="M453 1423l143 -180l143 180h109l-174 -249h-154l-174 249h107zM844 0v672q0 137 -53 209q-53 71 -181 71t-212 -99q-83 -99 -83 -253v-600h-133v1044h133v-182q90 207 322 207q160 0 250 -90t90 -283v-696h-133z" />
    <glyph glyph-name="napostrophe" unicode="&#x149;" horiz-adv-x="1148" 
d="M844 0v672q0 137 -53 209q-53 71 -181 71t-212 -99q-83 -99 -83 -253v-600h-133v1044h133v-182q90 207 322 207q160 0 250 -90t90 -283v-696h-133zM264 1534v-139l-82 -140h-57l76 140h-76v139h139z" />
    <glyph glyph-name="Eng" unicode="&#x14a;" horiz-adv-x="1411" 
d="M344 1124v-1124h-141v1393h143l713 -1125h8l-2 1125h143v-1741h-592v133h449v215l-713 1124h-8z" />
    <glyph glyph-name="eng" unicode="&#x14b;" horiz-adv-x="1148" 
d="M977 696v-1044h-375v117h242v903q0 137 -53 209q-53 71 -181 71t-212 -99q-83 -99 -83 -253v-600h-133v1044h133v-182q90 207 322 207q160 0 250 -90t90 -283z" />
    <glyph glyph-name="Omacron" unicode="&#x14c;" horiz-adv-x="1425" 
d="M418 1616v88h592v-88h-592zM299 489q0 -175 117 -281t298 -106t297 104t115 283v414q0 176 -116 282q-117 105 -297 105t-297 -105t-117 -282v-414zM1290 696q0 -340 -140 -534t-437 -193q-297 0 -438 194q-140 193 -140 533t140 534q139 194 437 194t438 -194t140 -534z
" />
    <glyph glyph-name="omacron" unicode="&#x14d;" horiz-adv-x="1146" 
d="M279 1268v88h591v-88h-591zM879 365v315q0 121 -87 198q-86 76 -218 76t-219 -76t-87 -198v-315q0 -121 87 -198t218 -77t219 77q87 77 87 198zM125 522q0 250 114 398q115 148 335 149q220 0 334 -148q114 -149 114 -399t-114 -398t-335 -148t-335 148t-113 398z" />
    <glyph glyph-name="Obreve" unicode="&#x14e;" horiz-adv-x="1425" 
d="M453 1772h86q0 -86 46 -140t128 -55q82 0 128 54t46 141h86q0 -123 -72 -200q-73 -77 -189 -77t-188 77q-71 77 -71 200zM299 489q0 -175 117 -281t298 -106t297 104t115 283v414q0 176 -116 282q-117 105 -297 105t-297 -105t-117 -282v-414zM1290 696q0 -340 -140 -534
t-437 -193q-297 0 -438 194q-140 193 -140 533t140 534q139 194 437 194t438 -194t140 -534z" />
    <glyph glyph-name="obreve" unicode="&#x14f;" horiz-adv-x="1146" 
d="M313 1423h86q0 -86 46 -140t128 -54t128 54t47 140h86q0 -123 -72 -199t-189 -77q-117 1 -189 77t-71 199zM879 365v315q0 121 -87 198q-86 76 -218 76t-219 -76t-87 -198v-315q0 -121 87 -198t218 -77t219 77q87 77 87 198zM125 522q0 250 114 398q115 148 335 149
q220 0 334 -148q114 -149 114 -399t-114 -398t-335 -148t-335 148t-113 398z" />
    <glyph glyph-name="Ohungarumlaut" unicode="&#x150;" horiz-adv-x="1425" 
d="M768 1522l158 250h155l-204 -250h-109zM506 1522l158 250h155l-205 -250h-108zM299 489q0 -175 117 -281t298 -106t297 104t115 283v414q0 176 -116 282q-117 105 -297 105t-297 -105t-117 -282v-414zM1290 696q0 -340 -140 -534t-437 -193q-297 0 -438 194
q-140 193 -140 533t140 534q139 194 437 194t438 -194t140 -534z" />
    <glyph glyph-name="ohungarumlaut" unicode="&#x151;" horiz-adv-x="1146" 
d="M629 1174l157 249h156l-205 -249h-108zM367 1174l157 249h156l-205 -249h-108zM879 365v315q0 121 -87 198q-86 76 -218 76t-219 -76t-87 -198v-315q0 -121 87 -198t218 -77t219 77q87 77 87 198zM125 522q0 250 114 398q115 148 335 149q220 0 334 -148
q114 -149 114 -399t-114 -398t-335 -148t-335 148t-113 398z" />
    <glyph glyph-name="OE" unicode="&#x152;" horiz-adv-x="2129" 
d="M698 -31q-282 0 -423 194q-140 193 -140 533t140 534t438 193q266 0 413 -170v140h873v-133h-729v-484h635v-133h-635v-510h729v-133h-873v139q-146 -170 -428 -170zM709 1290q-176 0 -293 -105t-117 -282v-414q0 -176 117 -281q117 -106 293 -106t297 104t120 271v438
q0 168 -120 272q-121 103 -297 103z" />
    <glyph glyph-name="oe" unicode="&#x153;" horiz-adv-x="1843" 
d="M1581 598v78q0 125 -83 201q-83 75 -202 75q-118 0 -202 -76t-84 -200v-78h571zM879 365v315q0 121 -87 198q-86 76 -218 76t-219 -76t-87 -198v-315q0 -121 87 -198t218 -77t219 77q87 77 87 198zM573 -25q-221 1 -335 149t-113 398q0 250 114 398t334 149
q258 0 373 -195q115 195 350 195q203 0 316 -144t112 -356v-88h-714v-112q0 -123 87 -200t203 -77t192 58q77 58 89 172h133q-18 -162 -135 -254t-281 -93q-247 0 -356 193q-117 -193 -369 -193z" />
    <glyph glyph-name="Racute" unicode="&#x154;" horiz-adv-x="1257" 
d="M543 1522l168 250h155l-215 -250h-108zM346 733h430q86 0 140 50t55 135v169q0 82 -53 127t-142 46h-430v-527zM346 606v-606h-143v1393h526q211 1 303 -97t92 -292q0 -350 -327 -394l329 -610h-163l-322 606h-295z" />
    <glyph glyph-name="racute" unicode="&#x155;" horiz-adv-x="700" 
d="M184 1174l168 249h156l-215 -249h-109zM182 0v1044h461v-116h-328v-928h-133z" />
    <glyph glyph-name="Rcommaaccent" unicode="&#x156;" horiz-adv-x="1257" 
d="M692 -127v-139l-82 -140h-57l76 140h-76v139h139zM346 733h430q86 0 140 50t55 135v169q0 82 -53 127t-142 46h-430v-527zM346 606v-606h-143v1393h526q211 1 303 -97t92 -292q0 -350 -327 -394l329 -610h-163l-322 606h-295z" />
    <glyph glyph-name="rcommaaccent" unicode="&#x157;" horiz-adv-x="700" 
d="M319 -127v-139l-81 -140h-58l76 140h-76v139h139zM182 0v1044h461v-116h-328v-928h-133z" />
    <glyph glyph-name="Rcaron" unicode="&#x158;" horiz-adv-x="1257" 
d="M479 1772l144 -181l143 181h108l-174 -250h-153l-174 250h106zM346 733h430q86 0 140 50t55 135v169q0 82 -53 127t-142 46h-430v-527zM346 606v-606h-143v1393h526q211 1 303 -97t92 -292q0 -350 -327 -394l329 -610h-163l-322 606h-295z" />
    <glyph glyph-name="rcaron" unicode="&#x159;" horiz-adv-x="700" 
d="M268 1423l144 -180l143 180h109l-175 -249h-153l-174 249h106zM182 0v1044h461v-116h-328v-928h-133z" />
    <glyph glyph-name="Sacute" unicode="&#x15a;" horiz-adv-x="1243" 
d="M514 1522l168 250h156l-215 -250h-109zM607 1294q-142 0 -227 -62t-85 -181t70 -164q39 -27 75 -40t105 -34l231 -65q184 -52 268 -140t84 -256t-139 -275q-139 -108 -360 -108t-359 109q-137 109 -161 328h143q14 -152 114 -230t260 -78q159 0 259 71t100 187t-56 166
q-56 49 -184 84l-276 76q-166 45 -242 136q-75 91 -75 245t123 257q124 103 333 103t338 -105t148 -304h-144q-12 143 -106 212q-95 68 -237 68z" />
    <glyph glyph-name="sacute" unicode="&#x15b;" horiz-adv-x="1013" 
d="M387 1174l168 249h156l-215 -249h-109zM516 -25q-178 -1 -292 91t-115 253h133q2 -106 81 -166q79 -61 191 -61t186 48q72 48 72 130t-47 122t-162 65l-172 37q-256 53 -256 282q-1 127 101 210t259 83t267 -83t110 -243h-133q-2 104 -69 157q-68 52 -172 52t-169 -48
t-65 -124t43 -114t127 -54l176 -37q150 -31 223 -103t73 -200q0 -129 -107 -213q-105 -84 -283 -84z" />
    <glyph glyph-name="Scircumflex" unicode="&#x15c;" horiz-adv-x="1243" 
d="M616 1702l-143 -180h-106l174 250h153l174 -250h-108zM607 1294q-142 0 -227 -62t-85 -181t70 -164q39 -27 75 -40t105 -34l231 -65q184 -52 268 -140t84 -256t-139 -275q-139 -108 -360 -108t-359 109q-137 109 -161 328h143q14 -152 114 -230t260 -78q159 0 259 71
t100 187t-56 166q-56 49 -184 84l-276 76q-166 45 -242 136q-75 91 -75 245t123 257q124 103 333 103t338 -105t148 -304h-144q-12 143 -106 212q-95 68 -237 68z" />
    <glyph glyph-name="scircumflex" unicode="&#x15d;" horiz-adv-x="1013" 
d="M502 1354l-144 -180h-106l174 249h154l174 -249h-109zM516 -25q-178 -1 -292 91t-115 253h133q2 -106 81 -166q79 -61 191 -61t186 48q72 48 72 130t-47 122t-162 65l-172 37q-256 53 -256 282q-1 127 101 210t259 83t267 -83t110 -243h-133q-2 104 -69 157
q-68 52 -172 52t-169 -48t-65 -124t43 -114t127 -54l176 -37q150 -31 223 -103t73 -200q0 -129 -107 -213q-105 -84 -283 -84z" />
    <glyph glyph-name="Scedilla" unicode="&#x15e;" horiz-adv-x="1243" 
d="M432 -297v113h123v112h123v-225h-246zM607 1294q-142 0 -227 -62t-85 -181t70 -164q39 -27 75 -40t105 -34l231 -65q184 -52 268 -140t84 -256t-139 -275q-139 -108 -360 -108t-359 109q-137 109 -161 328h143q14 -152 114 -230t260 -78q159 0 259 71t100 187t-56 166
q-56 49 -184 84l-276 76q-166 45 -242 136q-75 91 -75 245t123 257q124 103 333 103t338 -105t148 -304h-144q-12 143 -106 212q-95 68 -237 68z" />
    <glyph glyph-name="scedilla" unicode="&#x15f;" horiz-adv-x="1013" 
d="M322 -297v113h122v112h123v-225h-245zM516 -25q-178 -1 -292 91t-115 253h133q2 -106 81 -166q79 -61 191 -61t186 48q72 48 72 130t-47 122t-162 65l-172 37q-256 53 -256 282q-1 127 101 210t259 83t267 -83t110 -243h-133q-2 104 -69 157q-68 52 -172 52t-169 -48
t-65 -124t43 -114t127 -54l176 -37q150 -31 223 -103t73 -200q0 -129 -107 -213q-105 -84 -283 -84z" />
    <glyph glyph-name="Scaron" unicode="&#x160;" horiz-adv-x="1243" 
d="M471 1802l143 -180l144 180h108l-174 -250h-153l-174 250h106zM607 1294q-142 0 -227 -62t-85 -181t70 -164q39 -27 75 -40t105 -34l231 -65q184 -52 268 -140t84 -256t-139 -275q-139 -108 -360 -108t-359 109q-137 109 -161 328h143q14 -152 114 -230t260 -78
q159 0 259 71t100 187t-56 166q-56 49 -184 84l-276 76q-166 45 -242 136q-75 91 -75 245t123 257q124 103 333 103t338 -105t148 -304h-144q-12 143 -106 212q-95 68 -237 68z" />
    <glyph glyph-name="scaron" unicode="&#x161;" horiz-adv-x="1013" 
d="M358 1423l144 -180l143 180h109l-174 -249h-154l-174 249h106zM516 -25q-178 -1 -292 91t-115 253h133q2 -106 81 -166q79 -61 191 -61t186 48q72 48 72 130t-47 122t-162 65l-172 37q-256 53 -256 282q-1 127 101 210t259 83t267 -83t110 -243h-133q-2 104 -69 157
q-68 52 -172 52t-169 -48t-65 -124t43 -114t127 -54l176 -37q150 -31 223 -103t73 -200q0 -129 -107 -213q-105 -84 -283 -84z" />
    <glyph glyph-name="uni0162" unicode="&#x162;" horiz-adv-x="1064" 
d="M45 1260v133h975v-133h-416v-1260h-143v1260h-416zM344 -297v113h123v112h123v-225h-246z" />
    <glyph glyph-name="uni0163" unicode="&#x163;" horiz-adv-x="710" 
d="M379 928v-811h250v-117h-383v928h-174v116h174v349h133v-349h250v-116h-250zM256 -297v113h123v112h123v-225h-246z" />
    <glyph glyph-name="Tcaron" unicode="&#x164;" horiz-adv-x="1064" 
d="M389 1772l143 -181l144 181h108l-174 -250h-153l-174 250h106zM45 1260v133h975v-133h-416v-1260h-143v1260h-416z" />
    <glyph glyph-name="tcaron" unicode="&#x165;" horiz-adv-x="731" 
d="M889 1393v-174l-101 -175h-73l94 175h-94v174h174zM379 928v-811h250v-117h-383v928h-174v116h174v349h133v-349h250v-116h-250z" />
    <glyph glyph-name="Tbar" unicode="&#x166;" horiz-adv-x="1134" 
d="M176 643v107h320v510h-416v133h975v-133h-416v-510h319v-107h-319v-643h-143v643h-320z" />
    <glyph glyph-name="tbar" unicode="&#x167;" horiz-adv-x="729" 
d="M260 481h-174v82h174v365h-174v116h174v349h133v-349h250v-116h-250v-365h240v-82h-240v-364h250v-117h-383v481z" />
    <glyph glyph-name="Utilde" unicode="&#x168;" horiz-adv-x="1388" 
d="M922 1724h73q0 -76 -41 -118t-106 -43q-66 0 -168 49t-137 49q-74 0 -74 -78h-74q0 76 41 119q40 43 106 43t168 -49t138 -49q74 -1 74 77zM1057 481v912h141v-897q0 -242 -139 -384t-365 -142t-364 142q-139 142 -140 384v897h144v-912q0 -172 100 -276
q100 -105 261 -105t261 104t101 277z" />
    <glyph glyph-name="utilde" unicode="&#x169;" horiz-adv-x="1140" 
d="M793 1376h73q0 -76 -41 -119t-106 -43t-167 50t-138 49q-74 0 -74 -78h-74q0 76 41 119t107 43t168 -49t137 -50q74 0 74 78zM305 1044v-673q0 -135 52 -207t177 -72t208 99t83 253v600h133v-1044h-133v182q-90 -207 -317 -207q-156 -1 -246 91t-90 282v696h133z" />
    <glyph glyph-name="Umacron" unicode="&#x16a;" horiz-adv-x="1388" 
d="M399 1616v88h592v-88h-592zM1057 481v912h141v-897q0 -242 -139 -384t-365 -142t-364 142q-139 142 -140 384v897h144v-912q0 -172 100 -276q100 -105 261 -105t261 104t101 277z" />
    <glyph glyph-name="umacron" unicode="&#x16b;" horiz-adv-x="1140" 
d="M270 1268v88h592v-88h-592zM305 1044v-673q0 -135 52 -207t177 -72t208 99t83 253v600h133v-1044h-133v182q-90 -207 -317 -207q-156 -1 -246 91t-90 282v696h133z" />
    <glyph glyph-name="Ubreve" unicode="&#x16c;" horiz-adv-x="1388" 
d="M434 1772h86q0 -86 46 -140t128 -55q82 0 128 54t46 141h86q0 -123 -72 -200t-188 -77t-188 77t-72 200zM1057 481v912h141v-897q0 -242 -139 -384t-365 -142t-364 142q-139 142 -140 384v897h144v-912q0 -172 100 -276q100 -105 261 -105t261 104t101 277z" />
    <glyph glyph-name="ubreve" unicode="&#x16d;" horiz-adv-x="1140" 
d="M301 1423h86q0 -86 46 -140t128 -54t128 54t46 140h86q1 -123 -71 -199t-189 -77q-117 1 -189 77t-71 199zM305 1044v-673q0 -135 52 -207t177 -72t208 99t83 253v600h133v-1044h-133v182q-90 -207 -317 -207q-156 -1 -246 91t-90 282v696h133z" />
    <glyph glyph-name="Uring" unicode="&#x16e;" horiz-adv-x="1388" 
d="M801 1681q0 45 -30 76t-77 31t-78 -32q-30 -32 -30 -76t30 -76t78 -31q47 -1 77 31t30 77zM877 1681q-1 -71 -51 -123t-132 -52t-132 52t-50 124t50 123q50 53 132 53t132 -52t51 -125zM1057 481v912h141v-897q0 -242 -139 -384t-365 -142t-364 142q-139 142 -140 384
v897h144v-912q0 -172 100 -276q100 -105 261 -105t261 104t101 277z" />
    <glyph glyph-name="uring" unicode="&#x16f;" horiz-adv-x="1140" 
d="M672 1333q0 45 -30 76t-77 31t-78 -32t-31 -76t32 -76q30 -32 77 -32t77 32t30 77zM748 1333q0 -72 -50 -124t-133 -52q-82 0 -132 52t-50 124t50 124t132 52q83 0 133 -52t50 -124zM305 1044v-673q0 -135 52 -207t177 -72t208 99t83 253v600h133v-1044h-133v182
q-90 -207 -317 -207q-156 -1 -246 91t-90 282v696h133z" />
    <glyph glyph-name="Uhungarumlaut" unicode="&#x170;" horiz-adv-x="1388" 
d="M750 1522l157 250h156l-205 -250h-108zM487 1522l158 250h156l-205 -250h-109zM1057 481v912h141v-897q0 -242 -139 -384t-365 -142t-364 142q-139 142 -140 384v897h144v-912q0 -172 100 -276q100 -105 261 -105t261 104t101 277z" />
    <glyph glyph-name="uhungarumlaut" unicode="&#x171;" horiz-adv-x="1140" 
d="M629 1174l157 249h156l-205 -249h-108zM367 1174l157 249h156l-205 -249h-108zM305 1044v-673q0 -135 52 -207t177 -72t208 99t83 253v600h133v-1044h-133v182q-90 -207 -317 -207q-156 -1 -246 91t-90 282v696h133z" />
    <glyph glyph-name="Uogonek" unicode="&#x172;" horiz-adv-x="1388" 
d="M752 -184v-113h-246v113l123 112h102l-102 -112h123zM1057 481v912h141v-897q0 -242 -139 -384t-365 -142t-364 142q-139 142 -140 384v897h144v-912q0 -172 100 -276q100 -105 261 -105t261 104t101 277z" />
    <glyph glyph-name="uogonek" unicode="&#x173;" horiz-adv-x="1140" 
d="M944 -184v-113h-246v113l123 112h103l-103 -112h123zM305 1044v-673q0 -135 52 -207t177 -72t208 99t83 253v600h133v-1044h-133v182q-90 -207 -317 -207q-156 -1 -246 91t-90 282v696h133z" />
    <glyph glyph-name="Wcircumflex" unicode="&#x174;" horiz-adv-x="1873" 
d="M936 1702l-143 -180h-107l174 250h154l174 -250h-109zM555 164h8l281 1229h184l285 -1229h8l299 1229h156l-365 -1393h-192l-279 1176h-8l-277 -1176h-192l-365 1393h154z" />
    <glyph glyph-name="wcircumflex" unicode="&#x175;" horiz-adv-x="1521" 
d="M764 1354l-143 -180h-107l174 249h154l174 -249h-109zM457 195h8l213 849h170l215 -849h8l234 849h141l-318 -1044h-135l-227 879h-8l-228 -879h-137l-317 1044h145z" />
    <glyph glyph-name="Ycircumflex" unicode="&#x176;" horiz-adv-x="1175" 
d="M588 1702l-144 -180h-106l174 250h154l174 -250h-109zM659 0h-143v553l-459 840h160l371 -697l377 697h155l-461 -840v-553z" />
    <glyph glyph-name="ycircumflex" unicode="&#x177;" horiz-adv-x="1044" 
d="M526 1354l-143 -180h-107l175 249h153l174 -249h-108zM154 -348v117h221l84 231l-387 1044h153l297 -849h8l301 849h148l-512 -1392h-313z" />
    <glyph glyph-name="Ydieresis" unicode="&#x178;" horiz-adv-x="1175" 
d="M797 1708v-139h-140v139h140zM518 1708v-139h-139v139h139zM659 0h-143v553l-459 840h160l371 -697l377 697h155l-461 -840v-553z" />
    <glyph glyph-name="Zacute" unicode="&#x179;" horiz-adv-x="1175" 
d="M502 1522l168 250h155l-215 -250h-108zM1059 1393v-133l-787 -1127h783v-133h-951v133l789 1127h-756v133h922z" />
    <glyph glyph-name="zacute" unicode="&#x17a;" horiz-adv-x="958" 
d="M385 1174l168 249h156l-215 -249h-109zM852 117v-117h-750v117l566 811h-535v116h696v-116l-565 -811h588z" />
    <glyph glyph-name="Zdotaccent" unicode="&#x17b;" horiz-adv-x="1175" 
d="M649 1720v-139h-139v139h139zM1059 1393v-133l-787 -1127h783v-133h-951v133l789 1127h-756v133h922z" />
    <glyph glyph-name="zdotaccent" unicode="&#x17c;" horiz-adv-x="958" 
d="M547 1372v-139h-139v139h139zM852 117v-117h-750v117l566 811h-535v116h696v-116l-565 -811h588z" />
    <glyph glyph-name="Zcaron" unicode="&#x17d;" horiz-adv-x="1175" 
d="M436 1802l144 -180l143 180h108l-174 -250h-153l-174 250h106zM1059 1393v-133l-787 -1127h783v-133h-951v133l789 1127h-756v133h922z" />
    <glyph glyph-name="zcaron" unicode="&#x17e;" horiz-adv-x="958" 
d="M334 1423l143 -180l144 180h108l-174 -249h-154l-174 249h107zM852 117v-117h-750v117l566 811h-535v116h696v-116l-565 -811h588z" />
    <glyph glyph-name="florin" unicode="&#x192;" horiz-adv-x="860" 
d="M131 752v116h211l107 525h366v-117h-254l-84 -408h275v-116h-297l-222 -1100h-364v117h254l196 983h-188z" />
    <glyph glyph-name="Aringacute" unicode="&#x1fa;" horiz-adv-x="1275" 
d="M580 1929l168 250h155l-215 -250h-108zM743 1661q0 45 -29 76q-30 31 -77 31t-78 -32t-31 -76t31 -76t78 -32t77 32q29 32 29 77zM819 1661q0 -72 -50 -124t-132 -52t-132 52t-50 124t50 124t132 52t132 -52t50 -124zM643 1233h-8l-250 -748h504zM1053 0l-123 362h-586
l-123 -362h-151l481 1393h174l481 -1393h-153z" />
    <glyph glyph-name="aringacute" unicode="&#x1fb;" horiz-adv-x="1105" 
d="M461 1622l168 250h155l-215 -250h-108zM629 1333q0 45 -30 76t-77 31t-78 -32q-30 -32 -30 -76t30 -76t78 -32q47 0 77 32t30 77zM705 1333q-1 -72 -51 -124t-132 -52t-132 52t-50 124t50 124t132 52t132 -52t51 -124zM256 365v-115q0 -158 217 -158q139 0 221 99t82 264
v51l-434 -39q-86 -8 -86 -102zM776 717q0 131 -63 183t-181 52t-184 -53t-65 -156h-133q0 145 106 235t279 91q173 0 273 -89t99 -267v-596h154v-117h-268l-5 203h-6q-88 -227 -331 -228q-166 1 -251 91t-85 219t66 208q67 79 200 91l395 37v96z" />
    <glyph glyph-name="AEacute" unicode="&#x1fc;" horiz-adv-x="1900" 
d="M801 1522l168 250h155l-215 -250h-108zM918 487v773h-140l-375 -773h515zM1769 1393v-133h-708v-484h614v-133h-614v-510h708v-133h-851v365h-576l-176 -365h-156l676 1393h1083z" />
    <glyph glyph-name="aeacute" unicode="&#x1fd;" horiz-adv-x="1720" 
d="M788 1174l168 249h156l-215 -249h-109zM451 -25q-162 1 -249 93t-87 225t70 219q71 86 208 86h383v119q0 131 -63 183t-181 52t-184 -53t-65 -156h-133q0 145 106 235t276 91q242 0 330 -164q109 164 314 164q206 0 316 -144t110 -356v-88h-693v-112q0 -121 85 -199
t194 -78q110 0 184 58t86 172h133q-18 -162 -133 -254t-272 -93q-236 0 -361 201h-6q-123 -201 -368 -201zM1458 598v78q0 125 -81 201q-81 75 -193 75t-194 -76q-81 -76 -81 -200v-78h549zM776 481h-422q-46 1 -72 -27t-26 -75v-129q0 -158 217 -158q139 0 221 99t82 264
v26z" />
    <glyph glyph-name="Oslashacute" unicode="&#x1fe;" horiz-adv-x="1425" 
d="M713 102q182 0 298 104t115 283v414q0 166 -108 275l-514 -1031q90 -45 209 -45zM299 489q0 -180 125 -288l514 1034q-100 55 -225 55q-180 0 -297 -105t-117 -282v-414zM1290 696q0 -340 -140 -534t-437 -193q-150 0 -271 56l-75 -156l-88 41l81 166q-225 176 -225 620
q0 340 140 534t438 193q166 0 286 -63l82 164l88 -41l-90 -180q211 -179 211 -607zM623 1552l168 250h155l-215 -250h-108z" />
    <glyph glyph-name="oslashacute" unicode="&#x1ff;" horiz-adv-x="1146" 
d="M1022 522q0 -250 -114 -398t-335 -149q-102 0 -192 37l-74 -149l-88 43l78 157q-172 141 -172 459q0 250 114 398t334 149q106 0 195 -39l74 152l88 -43l-78 -162q170 -139 170 -455zM573 90q131 0 219 77q87 77 87 198v315q0 116 -80 190l-367 -753q59 -27 141 -27z
M268 680v-315q0 -119 80 -195l369 756q-68 29 -144 28q-131 0 -218 -76t-87 -198zM508 1174l168 249h155l-215 -249h-108z" />
    <glyph glyph-name="uni0218" unicode="&#x218;" horiz-adv-x="1243" 
d="M607 1294q-142 0 -227 -62t-85 -181t70 -164q39 -27 75 -40t105 -34l231 -65q184 -52 268 -140t84 -256t-139 -275q-139 -108 -360 -108t-359 109q-137 109 -161 328h143q14 -152 114 -230t260 -78q159 0 259 71t100 187t-56 166q-56 49 -184 84l-276 76
q-166 45 -242 136q-75 91 -75 245t123 257q124 103 333 103t338 -105t148 -304h-144q-12 143 -106 212q-95 68 -237 68zM698 -127v-139l-82 -140h-57l76 140h-76v139h139z" />
    <glyph glyph-name="uni0219" unicode="&#x219;" horiz-adv-x="1013" 
d="M516 -25q-178 -1 -292 91t-115 253h133q2 -106 81 -166q79 -61 191 -61t186 48q72 48 72 130t-47 122t-162 65l-172 37q-256 53 -256 282q-1 127 101 210t259 83t267 -83t110 -243h-133q-2 104 -69 157q-68 52 -172 52t-169 -48t-65 -124t43 -114t127 -54l176 -37
q150 -31 223 -103t73 -200q0 -129 -107 -213q-105 -84 -283 -84zM578 -127v-139l-82 -140h-58l76 140h-76v139h140z" />
    <glyph glyph-name="uni021A" unicode="&#x21a;" horiz-adv-x="1064" 
d="M602 -127v-139l-82 -140h-57l76 140h-76v139h139zM45 1260v133h975v-133h-416v-1260h-143v1260h-416z" />
    <glyph glyph-name="uni021B" unicode="&#x21b;" horiz-adv-x="710" 
d="M512 -127v-139l-82 -140h-57l76 140h-76v139h139zM379 928v-811h250v-117h-383v928h-174v116h174v349h133v-349h250v-116h-250z" />
    <glyph glyph-name="apostrophemod" unicode="&#x2bc;" horiz-adv-x="595" 
d="M389 1393v-174l-100 -175h-74l94 175h-94v174h174z" />
    <glyph glyph-name="circumflex" unicode="&#x2c6;" horiz-adv-x="585" 
d="M291 1354l-144 -180h-106l174 249h154l174 -249h-109z" />
    <glyph glyph-name="caron" unicode="&#x2c7;" horiz-adv-x="585" 
d="M150 1423l143 -180l143 180h109l-174 -249h-154l-174 249h107z" />
    <glyph glyph-name="breve" unicode="&#x2d8;" horiz-adv-x="602" 
d="M41 1423h86q0 -86 46 -140t128 -54t128 54t46 140h86q0 -123 -72 -199q-73 -76 -189 -77q-116 1 -188 77t-71 199z" />
    <glyph glyph-name="dotaccent" unicode="&#x2d9;" horiz-adv-x="573" 
d="M356 1372v-139h-139v139h139z" />
    <glyph glyph-name="ring" unicode="&#x2da;" horiz-adv-x="634" 
d="M424 1333q0 45 -30 76t-77 31t-77 -32t-31 -76q0 -44 31 -76q32 -32 78 -32t76 32t30 77zM500 1333q0 -72 -50 -124t-132 -52t-133 52q-50 52 -50 124t50 124t132 52q83 0 133 -52t50 -124z" />
    <glyph glyph-name="ogonek" unicode="&#x2db;" horiz-adv-x="593" 
d="M420 -184v-113h-246v113l123 112h102l-102 -112h123z" />
    <glyph glyph-name="tilde" unicode="&#x2dc;" horiz-adv-x="606" 
d="M530 1376h74q0 -76 -41 -119t-106 -43t-167 50t-138 49q-74 0 -74 -78h-74q0 76 41 119t107 43t167 -49q102 -49 138 -50q73 0 73 78z" />
    <glyph glyph-name="hungarumlaut" unicode="&#x2dd;" horiz-adv-x="509" 
d="M229 1174l158 249h156l-205 -249h-109zM-33 1174l158 249h156l-205 -249h-109z" />
    <glyph glyph-name="uni0394" unicode="&#x394;" horiz-adv-x="1351" 
d="M674 1190l-418 -1069h838zM59 0l547 1393h139l547 -1393h-1233z" />
    <glyph glyph-name="uni03A9" unicode="&#x3a9;" horiz-adv-x="1331" 
d="M1196 852q0 -195 -75 -331t-218 -197v-203h246v-121h-379v408q123 20 203 95t80 187v324q0 133 -115 212q-114 79 -272 79t-273 -79t-114 -212v-324q-1 -114 79 -188t203 -94v-408h-379v121h246v203q-143 61 -218 197t-75 331q0 266 138 419q139 153 393 153t392 -154
q138 -152 138 -418z" />
    <glyph glyph-name="uni03BC" unicode="&#x3bc;" horiz-adv-x="1150" 
d="M315 -348h-133v1392h133v-698q0 -254 228 -254q127 0 210 99t83 253v600h133v-1044h-133v182q-90 -207 -318 -207q-125 0 -203 78v-401z" />
    <glyph glyph-name="pi" unicode="&#x3c0;" horiz-adv-x="1202" 
d="M772 0v928h-385v-928h-133v928h-184v116h1020v-116h-185v-811h185v-117h-318z" />
    <glyph glyph-name="Wgrave" unicode="&#x1e80;" horiz-adv-x="1873" 
d="M872 1772l168 -250h-108l-215 250h155zM555 164h8l281 1229h184l285 -1229h8l299 1229h156l-365 -1393h-192l-279 1176h-8l-277 -1176h-192l-365 1393h154z" />
    <glyph glyph-name="wgrave" unicode="&#x1e81;" horiz-adv-x="1521" 
d="M690 1423l168 -249h-108l-215 249h155zM457 195h8l213 849h170l215 -849h8l234 849h141l-318 -1044h-135l-227 879h-8l-228 -879h-137l-317 1044h145z" />
    <glyph glyph-name="Wacute" unicode="&#x1e82;" horiz-adv-x="1873" 
d="M838 1522l168 250h155l-215 -250h-108zM555 164h8l281 1229h184l285 -1229h8l299 1229h156l-365 -1393h-192l-279 1176h-8l-277 -1176h-192l-365 1393h154z" />
    <glyph glyph-name="wacute" unicode="&#x1e83;" horiz-adv-x="1521" 
d="M655 1174l168 249h156l-215 -249h-109zM457 195h8l213 849h170l215 -849h8l234 849h141l-318 -1044h-135l-227 879h-8l-228 -879h-137l-317 1044h145z" />
    <glyph glyph-name="Wdieresis" unicode="&#x1e84;" horiz-adv-x="1873" 
d="M1145 1700v-139h-139v139h139zM866 1700v-139h-139v139h139zM555 164h8l281 1229h184l285 -1229h8l299 1229h156l-365 -1393h-192l-279 1176h-8l-277 -1176h-192l-365 1393h154z" />
    <glyph glyph-name="wdieresis" unicode="&#x1e85;" horiz-adv-x="1521" 
d="M971 1352v-140h-140v140h140zM692 1352v-140h-139v140h139zM457 195h8l213 849h170l215 -849h8l234 849h141l-318 -1044h-135l-227 879h-8l-228 -879h-137l-317 1044h145z" />
    <glyph glyph-name="Ygrave" unicode="&#x1ef2;" horiz-adv-x="1175" 
d="M504 1772l168 -250h-109l-215 250h156zM659 0h-143v553l-459 840h160l371 -697l377 697h155l-461 -840v-553z" />
    <glyph glyph-name="ygrave" unicode="&#x1ef3;" horiz-adv-x="1044" 
d="M440 1423l168 -249h-108l-215 249h155zM154 -348v117h221l84 231l-387 1044h153l297 -849h8l301 849h148l-512 -1392h-313z" />
    <glyph glyph-name="enspace" unicode="&#x2002;" horiz-adv-x="1024" 
 />
    <glyph glyph-name="emspace" unicode="&#x2003;" horiz-adv-x="2048" 
 />
    <glyph glyph-name="threeperemspace" unicode="&#x2004;" horiz-adv-x="681" 
 />
    <glyph glyph-name="fourperemspace" unicode="&#x2005;" horiz-adv-x="512" 
 />
    <glyph glyph-name="thinspace" unicode="&#x2009;" horiz-adv-x="245" 
 />
    <glyph glyph-name="hairspace" unicode="&#x200a;" horiz-adv-x="153" 
 />
    <glyph glyph-name="endash" unicode="&#x2013;" horiz-adv-x="1290" 
d="M164 492v126h962v-126h-962z" />
    <glyph glyph-name="emdash" unicode="&#x2014;" horiz-adv-x="2252" 
d="M164 492v126h1925v-126h-1925z" />
    <glyph glyph-name="quoteleft" unicode="&#x2018;" horiz-adv-x="499" 
d="M160 1044v175l100 174h74l-94 -174h94v-175h-174z" />
    <glyph glyph-name="quoteright" unicode="&#x2019;" horiz-adv-x="483" 
d="M340 1393v-174l-100 -175h-74l94 175h-94v174h174z" />
    <glyph glyph-name="quotesinglbase" unicode="&#x201a;" horiz-adv-x="501" 
d="M338 174v-174l-100 -174h-74l94 174h-94v174h174z" />
    <glyph glyph-name="quotedblleft" unicode="&#x201c;" horiz-adv-x="827" 
d="M160 1044v175l100 174h74l-94 -174h94v-175h-174zM487 1044v175l101 174h74l-95 -174h95v-175h-175z" />
    <glyph glyph-name="quotedblright" unicode="&#x201d;" horiz-adv-x="811" 
d="M668 1393v-174l-101 -175h-73l94 175h-94v174h174zM340 1393v-174l-100 -175h-74l94 175h-94v174h174z" />
    <glyph glyph-name="quotedblbase" unicode="&#x201e;" horiz-adv-x="829" 
d="M666 174v-174l-101 -174h-73l94 174h-94v174h174zM338 174v-174l-100 -174h-74l94 174h-94v174h174z" />
    <glyph glyph-name="dagger" unicode="&#x2020;" horiz-adv-x="987" 
d="M84 936v108h348v349h123v-349h348v-108h-348v-1120h-123v1120h-348z" />
    <glyph glyph-name="daggerdbl" unicode="&#x2021;" horiz-adv-x="1138" 
d="M160 164v108h348v664h-348v108h348v349h123v-349h348v-108h-348v-664h348v-108h-348v-348h-123v348h-348z" />
    <glyph glyph-name="bullet" unicode="&#x2022;" horiz-adv-x="1091" 
d="M199 697q0 143 101 245q100 102 244 102t246 -102t103 -246q0 -144 -101 -244q-102 -102 -246 -102t-246 102t-101 245z" />
    <glyph glyph-name="ellipsis" unicode="&#x2026;" horiz-adv-x="1546" 
d="M1382 174v-174h-174v174h174zM860 174v-174h-174v174h174zM338 174v-174h-174v174h174z" />
    <glyph glyph-name="perthousand" unicode="&#x2030;" horiz-adv-x="2269" 
d="M1905 68q73 0 113 40t40 111v279q0 70 -41 110t-113 41q-72 0 -112 -41q-41 -41 -41 -110v-279q0 -71 41 -111t113 -40zM2167 358q0 -375 -262 -374q-263 0 -263 374t262 375q262 0 263 -375zM1231 68q73 0 113 40t40 111v279q0 70 -41 110t-113 41q-72 0 -112 -41
q-41 -41 -41 -110v-279q0 -71 41 -111t113 -40zM1493 358q0 -375 -262 -374q-262 0 -262 374t262 375q262 0 262 -375zM367 743q73 0 113 40t40 112v279q0 70 -41 110t-113 41q-72 0 -112 -41q-41 -41 -41 -110v-279q0 -70 41 -111t113 -41zM629 1034q0 -375 -262 -375
t-263 375q0 375 262 375t263 -375zM307 0l873 1393h110l-872 -1393h-111z" />
    <glyph glyph-name="guilsinglleft" unicode="&#x2039;" horiz-adv-x="604" 
d="M461 145h-113l-219 381l219 381h113l-199 -381z" />
    <glyph glyph-name="guilsinglright" unicode="&#x203a;" horiz-adv-x="604" 
d="M256 145h-113l199 381l-199 381h113l219 -381z" />
    <glyph glyph-name="fraction" unicode="&#x2044;" horiz-adv-x="204" 
d="M-389 0l872 1393h111l-873 -1393h-110z" />
    <glyph glyph-name="Euro" unicode="&#x20ac;" 
d="M707 1423q181 0 293 -103t128 -284h-133q-33 268 -305 269q-162 0 -247 -111t-85 -283v-39h463l-35 -100h-428v-145h381l-34 -101h-347v-45q0 -165 90 -279t244 -114q274 0 305 287h133q-16 -190 -131 -298t-319 -108q-204 1 -323 147q-120 146 -144 410h-152l35 101h109
v145h-144l35 100h117q29 258 143 405q115 146 351 146z" />
    <glyph glyph-name="trademark" unicode="&#x2122;" horiz-adv-x="1712" 
d="M1530 1393v-697h-103v607l-217 -607h-92l-215 607v-607h-102v697h182l184 -541l185 541h178zM143 1307v86h521v-86h-209v-611h-103v611h-209z" />
    <glyph glyph-name="Omega" unicode="&#x2126;" horiz-adv-x="1335" 
d="M1198 852q0 -195 -75 -331t-218 -197v-203h246v-121h-379v408q123 20 203 95t80 187v324q0 133 -115 212q-114 79 -272 79t-273 -79t-114 -212v-324q-1 -114 79 -188t203 -94v-408h-379v121h246v203q-143 61 -218 197t-75 331q0 266 138 419q139 153 393 153t392 -154
q138 -152 138 -418z" />
    <glyph glyph-name="onethird" unicode="&#x2153;" horiz-adv-x="1529" 
d="M1239 322h-166v86h152q37 0 57 22t21 53v66q0 45 -37 72t-92 26q-127 0 -138 -121h-102q0 84 67 145q69 60 175 60t167 -53t62 -141q0 -121 -102 -168q117 -39 116 -170q0 -100 -70 -159q-71 -58 -182 -58t-179 56t-73 169h101q12 -141 149 -141q66 0 109 32t43 78v68
q1 34 -21 56t-57 22zM248 0l872 1393h111l-873 -1393h-110zM426 1393v-717h-102v528h-228v86h228v103h102z" />
    <glyph glyph-name="twothirds" unicode="&#x2154;" horiz-adv-x="1619" 
d="M1329 322h-166v86h152q37 0 57 22t21 53v66q0 45 -37 72t-92 26q-127 0 -138 -121h-102q0 84 68 144t174 61q106 0 168 -53t61 -141q0 -121 -102 -168q117 -39 116 -170q0 -100 -70 -159q-71 -58 -182 -58t-179 56t-72 169h100q12 -141 149 -141q66 0 109 32t43 78v68
q1 34 -21 56t-57 22zM266 762h357v-86h-498v82l297 284q86 84 86 150t-34 99q-34 34 -97 34t-103 -39t-41 -104h-102q0 106 70 166t177 61q108 0 170 -57t62 -161t-112 -212l-232 -215v-2zM338 0l872 1393h111l-872 -1393h-111z" />
    <glyph glyph-name="oneeighth" unicode="&#x215b;" horiz-adv-x="1548" 
d="M1028 225v-55q0 -47 41 -75q41 -27 111 -27t110 28t41 74v55q0 47 -41 75q-40 28 -110 28t-111 -28t-41 -75zM1313 506v47q0 45 -38 71t-95 26t-96 -26q-38 -26 -37 -71v-47q-1 -45 37 -70q38 -24 96 -24t95 24q38 24 38 70zM1180 -16q-115 0 -188 53t-72 156
q0 135 131 180q-111 49 -111 166q0 90 69 142t171 52t171 -52t68 -142q0 -117 -110 -166q131 -45 131 -180q0 -101 -72 -155t-188 -54zM248 0l872 1393h111l-873 -1393h-110zM426 1393v-717h-102v528h-228v86h228v103h102z" />
    <glyph glyph-name="threeeighths" unicode="&#x215c;" horiz-adv-x="1630" 
d="M1110 225v-55q0 -47 41 -75q41 -27 111 -27t110 28t41 74v55q0 47 -41 75q-40 28 -110 28t-111 -28t-41 -75zM1395 506v47q0 45 -38 71t-95 26t-96 -26q-38 -26 -38 -71v-47q0 -45 38 -70q38 -24 96 -24t95 24q38 24 38 70zM1262 -16q-115 0 -188 53t-73 156
q0 135 132 180q-111 49 -111 166q0 90 69 142t171 52t171 -52t68 -142q0 -117 -110 -166q131 -45 131 -180q0 -101 -72 -155t-188 -54zM434 999h-166v86h152q37 0 57 22t21 54v66q0 47 -37 73t-92 25q-127 0 -138 -121h-102q0 84 68 144t174 61q105 0 167 -53t62 -142
q0 -121 -102 -167q117 -39 116 -170q0 -100 -70 -159q-71 -58 -182 -58q-112 0 -180 56t-71 169h100q12 -141 149 -142q66 0 109 32t43 79v68q0 33 -22 55t-56 22zM315 0l873 1393h110l-872 -1393h-111z" />
    <glyph glyph-name="fiveeighths" unicode="&#x215d;" horiz-adv-x="1613" 
d="M1094 225v-55q0 -47 41 -75q41 -27 111 -27t110 28q41 28 41 74v55q0 47 -41 75t-111 28q-71 0 -111 -28t-40 -75zM1378 506v47q0 45 -38 71t-95 26t-95 -26t-38 -71v-47q0 -45 38 -70q38 -24 95 -24t95 24t38 70zM1245 -16q-115 0 -187 53t-73 156q0 135 131 180
q-111 49 -110 166q0 90 68 142q69 52 171 52t171 -52t69 -142q0 -117 -111 -166q131 -45 131 -180q0 -102 -72 -156q-73 -53 -188 -53zM567 1393v-86h-329l-15 -226q53 74 157 74t168 -66q62 -67 62 -180t-68 -181t-181 -69q-114 -1 -177 55t-73 158h100q14 -129 147 -129
q68 0 109 34t41 89v92q0 55 -40 85t-108 30q-94 0 -137 -84h-100l29 404h415zM313 0l873 1393h110l-872 -1393h-111z" />
    <glyph glyph-name="seveneighths" unicode="&#x215e;" horiz-adv-x="1472" 
d="M954 225v-55q0 -47 41 -75q41 -27 111 -27t111 28t40 74v55q0 47 -40 75q-41 28 -111 28t-111 -28t-41 -75zM1239 506v47q0 45 -38 71t-95 26t-95 -26t-38 -71v-47q0 -45 38 -70q38 -24 95 -24t95 24t38 70zM1106 -16q-116 0 -188 53t-72 156q0 135 131 180
q-111 49 -111 166q0 90 69 142t171 52t171 -52t69 -142q0 -117 -111 -166q131 -45 131 -180q0 -101 -72 -155t-188 -54zM109 1307v86h471v-86l-299 -631h-113l303 631h-362zM176 0l873 1393h110l-872 -1393h-111z" />
    <glyph glyph-name="arrowleft" unicode="&#x2190;" horiz-adv-x="1781" 
d="M1587 586v-127h-1222l456 -459h-180l-446 449v147l446 448h180l-456 -458h1222z" />
    <glyph glyph-name="arrowup" unicode="&#x2191;" horiz-adv-x="1433" 
d="M780 0h-127v1223l-458 -457v180l448 447h148l448 -447v-180l-459 457v-1223z" />
    <glyph glyph-name="arrowright" unicode="&#x2192;" horiz-adv-x="1781" 
d="M195 459v127h1222l-456 458h180l446 -448v-147l-446 -449h-180l456 459h-1222z" />
    <glyph glyph-name="arrowdown" unicode="&#x2193;" horiz-adv-x="1433" 
d="M653 1393h127v-1223l459 457v-181l-448 -446h-148l-448 446v181l458 -457v1223z" />
    <glyph glyph-name="uni2196" unicode="&#x2196;" horiz-adv-x="1470" 
d="M322 180l-127 127v633l104 104h633l127 -126h-647l864 -865l-90 -90l-864 864v-647z" />
    <glyph glyph-name="uni2197" unicode="&#x2197;" horiz-adv-x="1470" 
d="M1276 307l-127 -127v647l-864 -864l-90 90l864 865h-647l127 126h632l105 -104v-633z" />
    <glyph glyph-name="uni2198" unicode="&#x2198;" horiz-adv-x="1470" 
d="M539 0l-127 127h647l-864 864l90 90l864 -864v647l127 -127v-633l-105 -104h-632z" />
    <glyph glyph-name="uni2199" unicode="&#x2199;" horiz-adv-x="1470" 
d="M1059 127l-127 -127h-633l-104 104v633l127 127v-647l864 864l90 -90l-864 -864h647z" />
    <glyph glyph-name="partialdiff" unicode="&#x2202;" horiz-adv-x="1200" 
d="M535 92q362 0 362 479q-100 211 -324 211q-151 0 -233 -72t-82 -192v-162q0 -116 77 -190t200 -74zM528 1423q279 1 401 -195t122 -525q0 -724 -514 -728q-215 1 -324 139t-109 340t119 325q119 122 336 122t338 -170q0 289 -88 426t-272 137q-154 1 -279 -116l-70 116
q156 129 340 129z" />
    <glyph glyph-name="Delta" unicode="&#x2206;" horiz-adv-x="1339" 
d="M668 1190l-418 -1069h837zM53 0l547 1393h139l547 -1393h-1233z" />
    <glyph glyph-name="product" unicode="&#x220f;" horiz-adv-x="1445" 
d="M1100 -348v1968h-754v-1968h-133v2089h1020v-2089h-133z" />
    <glyph glyph-name="summation" unicode="&#x2211;" horiz-adv-x="1142" 
d="M1032 1620h-774l629 -918l-629 -929h774v-121h-938v121l629 929l-629 918v121h938v-121z" />
    <glyph glyph-name="minus" unicode="&#x2212;" 
d="M1137 575v-106h-1045v106h1045z" />
    <glyph glyph-name="uni2219" unicode="&#x2219;" horiz-adv-x="501" 
d="M338 612v-174h-174v174h174z" />
    <glyph glyph-name="radical" unicode="&#x221a;" horiz-adv-x="1236" 
d="M76 522h272l219 -700l492 1571h141l-555 -1741h-156l-241 754h-172v116z" />
    <glyph glyph-name="infinity" unicode="&#x221e;" horiz-adv-x="1511" 
d="M250 529q0 -83 47 -131t124 -48t136 46t133 132q-143 184 -260 185q-84 -1 -132 -51t-48 -133zM420 252q-123 0 -200 80t-77 200t79 201q79 80 200 80q76 0 140 -34q64 -35 100 -69q35 -34 94 -106q59 72 94 107q36 35 100 69t140 33q122 0 200 -80t78 -201
q0 -120 -77 -200t-190 -80t-184 48t-161 146q-60 -66 -98 -100t-102 -64t-136 -30zM1102 350q66 0 112 48q48 48 48 131t-48 133t-133 51q-117 0 -260 -185q47 -57 81 -90q34 -32 84 -60t116 -28z" />
    <glyph glyph-name="integral" unicode="&#x222b;" horiz-adv-x="768" 
d="M55 -348v117h262v1972h396v-117h-262v-1972h-396z" />
    <glyph glyph-name="approxequal" unicode="&#x2248;" 
d="M1004 385h112q0 -98 -70 -158q-71 -59 -180 -59q-66 0 -140 27t-232 116q-80 40 -107 43q-26 2 -39 2q-53 0 -89 -32t-36 -84h-112q0 98 70 157q71 59 158 59t143 -20t145 -66t102 -54q83 -48 143 -48t96 32t36 85zM1004 807h112q0 -98 -70 -158q-71 -59 -180 -59
q-66 0 -140 27t-157 73q-83 47 -103 56q-20 8 -46 20q-25 12 -75 12t-86 -32t-36 -84h-112q0 98 70 157q71 59 158 59t143 -20t145 -66t108 -57t40 -20q22 -7 36 -13t28 -9t54 -3q39 0 75 32t36 85z" />
    <glyph glyph-name="notequal" unicode="&#x2260;" 
d="M92 258v107h373l180 315h-553v106h615l149 258l90 -51l-119 -207h310v-106h-371l-182 -315h553v-107h-615l-147 -258l-90 51l118 207h-311z" />
    <glyph glyph-name="lessequal" unicode="&#x2264;" 
d="M1133 1044v-120l-924 -295l924 -295v-121l-1045 342v147zM1133 106v-106h-1045v106h1045z" />
    <glyph glyph-name="greaterequal" unicode="&#x2265;" 
d="M96 924v120l1045 -342v-147l-1045 -342v121l924 295zM96 0v106h1045v-106h-1045z" />
    <glyph glyph-name="dotmath" unicode="&#x22c5;" 
d="M700 612v-174h-174v174h174z" />
    <glyph glyph-name="lozenge" unicode="&#x25ca;" horiz-adv-x="1294" 
d="M733 1583l502 -881l-502 -880h-172l-502 880l502 881h172zM647 -59l430 761l-430 762l-430 -762z" />
    <glyph glyph-name="commaaccent" unicode="&#xf6c3;" horiz-adv-x="593" 
d="M367 -127v-139l-82 -140h-58l76 140h-76v139h140z" />
    <glyph glyph-name="uniF8FF" unicode="&#xf8ff;" horiz-adv-x="1822" 
d="M215 0v1393h1393v-1393h-1393z" />
    <glyph glyph-name="zero.plf" horiz-adv-x="1224" 
d="M932 424v545q0 153 -87 243t-233 90t-232 -90q-87 -90 -87 -243v-545q0 -154 87 -244t232 -90t233 90q87 90 87 244zM1085 696q0 -423 -138 -588q-117 -139 -335 -139q-408 0 -461 495q-11 101 -12 232q0 421 139 589q116 138 334 138q408 0 462 -494q11 -102 11 -233z
" />
    <glyph glyph-name="one.plf" horiz-adv-x="786" 
d="M453 0v1108h-359v121h359v164h133v-1393h-133z" />
    <glyph glyph-name="two.plf" horiz-adv-x="1146" 
d="M274 121h750v-121h-899v150l571 557q59 59 88 93q78 91 77 221t-75 206t-208 76t-218 -83t-88 -227h-137q4 193 129 312t319 119q193 0 305 -108t111 -292q-1 -98 -39 -186t-76 -130t-110 -110l-500 -473v-4z" />
    <glyph glyph-name="three.plf" horiz-adv-x="1187" 
d="M721 653h-320v121h306q82 0 126 46t44 118v133q0 104 -76 169t-212 65t-216 -75t-84 -194h-137q4 162 121 275q118 113 318 113q199 0 317 -107q118 -106 118 -275q0 -221 -180 -323q207 -94 207 -340q0 -184 -129 -297t-334 -113t-337 111t-134 315h137q2 -147 94 -227
t234 -80t230 75q89 75 89 179v147q0 72 -50 118t-132 46z" />
    <glyph glyph-name="four.plf" horiz-adv-x="1128" 
d="M702 477v707l-475 -707h475zM836 0h-134v356h-616v121l614 916h136v-916h200v-121h-200v-356z" />
    <glyph glyph-name="five.plf" horiz-adv-x="1157" 
d="M950 1393v-121h-633l-32 -508q119 172 325 172t321 -128q116 -128 116 -349t-125 -355t-334 -135t-326 103t-139 303h137q16 -135 98 -211t220 -76t226 80q89 80 89 203v178q0 119 -84 193t-225 75q-96 -1 -177 -57t-124 -150h-138l54 783h751z" />
    <glyph glyph-name="six.plf" horiz-adv-x="1212" 
d="M616 86q147 0 236 90q88 90 88 217v119q0 123 -87 204t-237 81t-236 -81t-87 -204v-119q0 -127 88 -217t235 -90zM616 -31q-266 0 -371 177t-106 518q0 562 251 704q99 55 265 55t274 -96t126 -270h-137q-33 248 -295 248q-156 0 -243 -109t-87 -274v-181
q113 174 338 174q225 1 344 -125t119 -316t-111 -339q-55 -74 -151 -120t-216 -46z" />
    <glyph glyph-name="seven.plf" horiz-adv-x="1034" 
d="M84 1272v121h885v-121l-590 -1272h-150l594 1272h-739z" />
    <glyph glyph-name="eight.plf" horiz-adv-x="1220" 
d="M281 444v-135q0 -94 87 -156q86 -63 242 -63t243 62t87 157v135q0 94 -87 156t-243 62t-242 -62t-87 -156zM899 979v117q0 88 -79 147t-210 59t-210 -58q-79 -60 -78 -148v-117q0 -90 77 -149q78 -58 211 -58t211 58t78 149zM610 -31q-205 -1 -342 103t-137 301
q0 129 69 219t195 133q-223 90 -223 322q0 170 127 273t311 103t312 -103t127 -273q0 -231 -224 -322q127 -43 196 -133t69 -219q0 -197 -138 -301t-342 -103z" />
    <glyph glyph-name="nine.plf" horiz-adv-x="1212" 
d="M596 1305q-148 -1 -236 -91t-88 -217v-116q0 -123 87 -204t237 -81t237 81t87 204v118q0 125 -88 215t-236 91zM592 1423q270 0 376 -175t105 -517q0 -454 -143 -627q-114 -135 -321 -135q-207 1 -321 99t-132 270h137q14 -110 92 -180q77 -70 219 -70t229 106t87 273
v184q-113 -174 -361 -174q-211 0 -326 126q-115 127 -115 317t112 338q54 73 148 119t214 46z" />
    <glyph glyph-name="zero.tlfslash" 
d="M295 424q0 -125 55 -207l449 1034q-78 51 -204 51t-213 -90t-87 -243v-545zM934 424v545q0 123 -57 205l-451 -1033q80 -51 188 -51q145 0 233 90q87 90 87 244zM1087 696q0 -423 -138 -588q-117 -139 -335 -139q-408 0 -461 495q-11 101 -12 232q0 421 139 589
q116 138 334 138q408 0 462 -494q11 -102 11 -233z" />
    <glyph glyph-name="zero.plfslash" horiz-adv-x="1224" 
d="M293 424q0 -125 55 -207l449 1034q-78 51 -204 51t-213 -90t-87 -243v-545zM932 424v545q0 123 -58 205l-450 -1033q80 -51 188 -51q145 0 233 90q87 90 87 244zM1085 696q0 -423 -138 -588q-117 -139 -335 -139q-408 0 -461 495q-11 101 -12 232q0 421 139 589
q116 138 334 138q408 0 462 -494q11 -102 11 -233z" />
    <glyph glyph-name="zero.num" horiz-adv-x="733" 
d="M367 743q73 0 113 40t40 112v279q0 70 -41 110t-113 41q-72 0 -112 -41q-41 -41 -41 -110v-279q0 -70 41 -111t113 -41zM629 1034q0 -375 -262 -375t-263 375q0 375 262 375t263 -375z" />
    <glyph glyph-name="one.num" horiz-adv-x="628" 
d="M410 1393v-717h-103v528h-227v86h227v103h103z" />
    <glyph glyph-name="two.num" horiz-adv-x="698" 
d="M242 762h356v-86h-498v82l297 284q86 84 86 150q0 134 -131 133q-63 0 -103 -39t-40 -104h-103q0 106 70 166t177 61q107 0 169 -57t64 -161q0 -104 -113 -212l-231 -215v-2z" />
    <glyph glyph-name="four.num" horiz-adv-x="698" 
d="M399 1249h-4l-221 -315h225v315zM502 676h-103v172h-321v86l325 459h99v-459h114v-86h-114v-172z" />
    <glyph glyph-name="five.num" horiz-adv-x="690" 
d="M553 1393v-86h-330l-14 -226q53 74 157 74t168 -66q62 -67 62 -180t-68 -181t-182 -69t-176 55q-63 56 -74 158h101q14 -129 147 -129q68 0 109 34t41 89v92q0 55 -40 85t-108 30q-94 0 -137 -84h-100l28 404h416z" />
    <glyph glyph-name="seven.num" horiz-adv-x="614" 
d="M80 1307v86h471v-86l-299 -631h-113l303 631h-362z" />
    <glyph glyph-name="eight.num" horiz-adv-x="724" 
d="M211 901v-55q0 -47 41 -75q40 -28 110 -28t111 28t41 75v55q0 47 -41 75t-111 28t-110 -28t-41 -75zM496 1182v47q0 45 -38 71t-96 25q-58 0 -95 -26q-38 -26 -38 -70v-47q0 -45 38 -70t95 -25t96 25q38 25 38 70zM362 659q-116 -1 -188 53t-72 156q0 135 131 181
q-111 49 -110 165q0 90 68 143q69 52 171 52t172 -52t68 -143q0 -117 -110 -165q131 -45 131 -181q0 -102 -73 -156t-188 -53z" />
    <glyph glyph-name="nine.num" horiz-adv-x="718" 
d="M356 1325q-66 0 -106 -40t-41 -97v-58q0 -57 40 -92q41 -34 107 -34t108 34t42 92v58q0 57 -42 97t-108 40zM100 1152q0 103 68 180t197 77t189 -88t60 -268q0 -393 -262 -394q-217 0 -235 195h102q12 -111 135 -111q72 1 112 51t40 132v69q-57 -75 -167 -75
q-111 0 -175 64t-64 168z" />
    <glyph glyph-name="six.num" horiz-adv-x="716" 
d="M211 879q-1 -57 41 -97t109 -41q67 0 109 40t42 98v59q0 57 -41 92t-109 35t-110 -35t-41 -92v-59zM360 659q-256 0 -256 359q0 178 65 284t202 107q211 0 231 -195h-100q-12 113 -137 113q-70 0 -112 -50t-42 -124v-90q53 84 165 84t176 -65t64 -165t-68 -179t-188 -79z
" />
    <glyph glyph-name="a.sup" horiz-adv-x="673" 
d="M293 915q63 -1 100 45t37 121v25l-192 -19q-45 -4 -45 -51v-49q0 -72 100 -72zM526 934h80v-82h-162l-2 100h-4q-45 -113 -170 -112q-88 0 -132 48t-44 112t42 109q42 44 122 52l174 17v43q0 61 -29 86t-82 24q-113 0 -112 -98h-96q0 78 60 125q59 47 151 47t148 -46
t56 -138v-287z" />
    <glyph glyph-name="b.sup" horiz-adv-x="710" 
d="M229 852h-96v717h96v-264q55 100 165 100t164 -79q56 -79 56 -203q0 -123 -55 -203t-165 -80t-165 98v-86zM229 1167v-90q0 -74 39 -118q40 -44 104 -44t102 34t38 89v168q0 55 -38 88t-102 33t-104 -44q-39 -44 -39 -116z" />
    <glyph glyph-name="c.sup" horiz-adv-x="641" 
d="M316 840q-102 0 -162 76q-58 76 -58 206q0 131 62 207t162 76q211 0 225 -191h-96q-8 117 -123 117q-51 0 -90 -34t-39 -95v-158q-1 -57 37 -93t94 -36q113 0 125 119h96q-7 -96 -69 -145t-164 -49z" />
    <glyph glyph-name="d.sup" horiz-adv-x="710" 
d="M578 852h-97v86q-55 -98 -163 -98t-165 79t-57 203t56 203q56 80 164 80q110 0 165 -102v266h97v-717zM481 1077v88q0 72 -39 116t-103 44t-102 -33t-38 -88v-166q0 -55 38 -89q39 -34 103 -34t102 44t39 118z" />
    <glyph glyph-name="e.sup" horiz-adv-x="655" 
d="M317 840q-101 0 -161 76t-60 206q0 129 62 206t171 77q110 0 171 -73t61 -183v-51h-364v-58q0 -57 39 -91t93 -34t92 28t42 81h94q-8 -84 -73 -134t-167 -50zM197 1202v-31h266v31q0 59 -39 94t-94 35t-94 -35t-39 -94z" />
    <glyph glyph-name="f.sup" horiz-adv-x="444" 
d="M266 1489v-96h111v-80h-111v-461h-96v461h-88v80h88v176h219v-80h-123z" />
    <glyph glyph-name="g.sup" horiz-adv-x="708" 
d="M578 1393v-533q0 -106 -69 -162t-165 -57q-211 0 -229 170h96q12 -92 129 -92q61 0 101 36t40 109v74q-55 -98 -163 -98t-165 79t-57 203t56 203q56 80 164 80q110 0 165 -102v90h97zM481 1077v88q0 72 -39 116t-103 44t-102 -33t-38 -88v-166q0 -55 38 -89
q39 -34 103 -34t102 44t39 118z" />
    <glyph glyph-name="k.sup" horiz-adv-x="638" 
d="M229 1569v-717h-96v717h96zM461 852l-230 301l207 240h117l-215 -240l231 -301h-110z" />
    <glyph glyph-name="m.sup" horiz-adv-x="985" 
d="M690 1405q168 0 168 -191v-362h-96v352q0 127 -98 127q-49 0 -84 -46t-35 -116v-317h-96v352q0 127 -101 127q-49 0 -84 -46t-35 -116v-317h-96v541h96v-86q43 98 157 98t146 -109q16 49 58 79t100 30z" />
    <glyph glyph-name="n.sup" horiz-adv-x="690" 
d="M229 1393v-90q45 102 160 102q174 0 174 -193v-360h-96v350q0 125 -105 125q-59 0 -96 -44t-37 -116v-315h-96v541h96z" />
    <glyph glyph-name="r.sup" horiz-adv-x="452" 
d="M133 852v541h260v-80h-164v-461h-96z" />
    <glyph glyph-name="s.sup" horiz-adv-x="616" 
d="M310 840q-94 0 -154 48q-61 48 -64 134h96q2 -51 37 -79t86 -28t84 23t33 59q0 66 -94 84l-90 19q-137 27 -138 149q0 68 56 112t140 44q85 0 144 -44t62 -128h-96q-2 98 -107 98q-45 1 -75 -21t-29 -55q-1 -63 73 -77l93 -19q158 -35 157 -158q0 -69 -60 -115t-154 -46z
" />
    <glyph glyph-name="t.sup" horiz-adv-x="485" 
d="M266 1313v-381h123v-80h-219v461h-88v80h88v176h96v-176h123v-80h-123z" />
    <glyph glyph-name="v.sup" horiz-adv-x="604" 
d="M299 971h8l139 422h97l-195 -541h-90l-197 541h103z" />
    <glyph glyph-name="w.sup" horiz-adv-x="882" 
d="M496 1393l98 -416h8l109 416h98l-166 -541h-96l-105 430h-8l-98 -430h-96l-166 541h104l105 -416h8l90 416h115z" />
    <glyph glyph-name="x.sup" horiz-adv-x="626" 
d="M72 852l186 281l-172 260h104l123 -189l121 189h105l-174 -252l190 -289h-106l-136 215l-137 -215h-104z" />
    <glyph glyph-name="y.sup" horiz-adv-x="606" 
d="M102 676v80h121l35 100l-199 537h103l139 -416h8l142 416h96l-262 -717h-183z" />
    <glyph glyph-name="z.sup" horiz-adv-x="593" 
d="M498 934v-82h-408v82l281 379h-260v80h378v-80l-282 -379h291z" />
    <glyph glyph-name="comma.sup" horiz-adv-x="358" 
d="M238 967v-115l-66 -115h-51l63 115h-63v115h117z" />
    <glyph glyph-name="period.sup" horiz-adv-x="358" 
d="M238 967v-115h-117v115h117z" />
    <glyph glyph-name="o.sup" horiz-adv-x="671" 
d="M578 1122q0 -129 -62 -206q-62 -76 -180 -76q-119 0 -180 76t-62 206q0 129 62 206t180 77t180 -77t62 -206zM477 1038v168q0 53 -42 87t-99 34t-99 -34t-42 -87v-168q0 -53 42 -87q42 -33 99 -33t99 34t42 86z" />
    <glyph glyph-name="i.sup" horiz-adv-x="362" 
d="M231 1569v-99h-100v99h100zM229 852h-96v541h96v-541z" />
    <glyph glyph-name="j.sup" horiz-adv-x="362" 
d="M231 1569v-99h-100v99h100zM133 756v637h96v-717h-221v80h125z" />
    <glyph glyph-name="l.sup" horiz-adv-x="362" 
d="M229 852h-96v717h96v-717z" />
    <glyph glyph-name="h.sup" horiz-adv-x="690" 
d="M229 1569v-266q45 102 160 102q174 0 174 -193v-360h-96v350q0 125 -105 125q-59 0 -96 -44t-37 -116v-315h-96v717h96z" />
    <glyph glyph-name="u.sup" horiz-adv-x="690" 
d="M461 854v88q-47 -102 -158 -102q-80 0 -128 47t-48 147v359h96v-349q0 -127 107 -126q59 0 95 45t36 116v314h96v-539h-96z" />
    <glyph glyph-name="q.sup" horiz-adv-x="710" 
d="M578 676h-97v262q-55 -98 -163 -98t-165 79t-57 203t56 203q56 80 164 80q110 0 165 -102v90h97v-717zM481 1077v88q0 72 -39 116t-103 44t-102 -33t-38 -88v-166q0 -55 38 -89q39 -34 103 -34t102 44t39 118z" />
    <glyph glyph-name="p.sup" horiz-adv-x="710" 
d="M229 676h-96v717h96v-88q55 100 165 100t164 -79q56 -79 56 -203q0 -123 -55 -203t-165 -80t-165 98v-262zM229 1167v-90q0 -74 39 -118q40 -44 104 -44t102 34t38 89v168q0 55 -38 88t-102 33t-104 -44q-39 -44 -39 -116z" />
    <glyph glyph-name="zero.numslash" horiz-adv-x="798" 
d="M408 743q64 0 104 40q41 40 41 112v279q0 55 -27 94l-219 -500q37 -25 101 -25zM246 1174v-279q-1 -55 22 -90l219 498q-39 23 -99 23t-102 -42q-40 -41 -40 -110zM662 1034q0 -375 -262 -375t-263 375q1 375 263 375t262 -375z" />
    <glyph glyph-name="plus.sup" horiz-adv-x="724" 
d="M324 1085h-232v74h232v234h79v-234h230v-74h-230v-233h-79v233z" />
    <glyph glyph-name="minus.sup" horiz-adv-x="782" 
d="M662 1157v-74h-541v74h541z" />
    <glyph glyph-name="equal.sup" horiz-adv-x="782" 
d="M662 983h-541v78h541v-78zM662 1180h-541v77h541v-77z" />
    <glyph glyph-name="eacute.sup" horiz-adv-x="655" 
d="M317 840q-101 0 -161 76t-60 206q0 129 62 206t171 77q110 0 171 -73t61 -183v-51h-364v-58q0 -57 39 -91t93 -34t92 28t42 81h94q-8 -84 -73 -134t-167 -50zM197 1202v-31h266v31q0 59 -39 94t-94 35t-94 -35t-39 -94zM272 1460l90 127h113l-121 -127h-82z" />
    <glyph glyph-name="egrave.sup" horiz-adv-x="655" 
d="M317 840q-101 0 -161 76t-60 206q0 129 62 206t171 77q110 0 171 -73t61 -183v-51h-364v-58q0 -57 39 -91t93 -34t92 28t42 81h94q-8 -84 -73 -134t-167 -50zM197 1202v-31h266v31q0 59 -39 94t-94 35t-94 -35t-39 -94zM289 1587l90 -127h-82l-121 127h113z" />
    <glyph glyph-name="bar.case" horiz-adv-x="548" 
d="M213 -348v2089h123v-2089h-123z" />
    <glyph glyph-name="minus.case" 
d="M1137 723v-107h-1045v107h1045z" />
    <glyph glyph-name="multiply.case" 
d="M694 670l441 -441l-82 -82l-439 439l-440 -441l-82 84l440 441l-440 440l82 82l440 -440l441 440l80 -82z" />
    <glyph glyph-name="plus.case" 
d="M557 614h-465v107h465v469h115v-469h465v-107h-465v-469h-115v469z" />
    <glyph glyph-name="divide.case" 
d="M698 1192v-170h-168v170h168zM698 317v-170h-168v170h168zM1137 723v-107h-1045v107h1045z" />
    <glyph glyph-name="infinity.case" horiz-adv-x="1509" 
d="M250 677q0 -83 47 -131t124 -48t136 46t133 132q-143 184 -260 184q-84 0 -132 -50t-48 -133zM420 399q-123 0 -200 80t-77 201t79 201t200 80q76 0 140 -34t100 -69q35 -35 94 -106q59 72 94 106q36 34 100 69q64 34 140 34q122 0 200 -80t78 -201t-77 -201t-190 -80
q-113 1 -184 49t-161 146q-60 -66 -98 -100t-102 -65q-64 -30 -136 -30zM1262 677q0 83 -48 133t-133 50q-117 0 -260 -184q47 -57 81 -90t84 -61q50 -27 116 -27t112 48q48 48 48 131z" />
    <glyph glyph-name="equal.case" 
d="M1137 406h-1045v106h1045v-106zM1137 827h-1045v107h1045v-107z" />
    <glyph glyph-name="less.case" 
d="M1106 1192v-123l-934 -399l934 -400v-123l-1045 449v147z" />
    <glyph glyph-name="greater.case" 
d="M123 1069v123l1044 -449v-147l-1044 -449v123l934 400z" />
    <glyph glyph-name="at.case" horiz-adv-x="1626" 
d="M1473 317h-881v756h512v-637h235v838h-983v-1157h768v-117h-901v1393h1250v-1076zM725 954v-518h246v518h-246z" />
    <glyph glyph-name="notequal.case" 
d="M92 406v106h373l180 315h-553v107h615l149 258l90 -51l-119 -207h310v-107h-371l-182 -315h553v-106h-615l-147 -259l-90 52l118 207h-311z" />
    <glyph glyph-name="plusminus.case" 
d="M1137 254v-107h-1045v107h1045zM557 723h-465v106h465v363h115v-363h465v-106h-465v-363h-115v363z" />
    <glyph glyph-name="greaterequal.case" 
d="M100 1071v121l1045 -342v-148l-1045 -342v121l924 295zM100 147v107h1045v-107h-1045z" />
    <glyph glyph-name="lessequal.case" 
d="M1128 1192v-121l-923 -295l923 -295v-121l-1044 342v148zM1128 254v-107h-1044v107h1044z" />
    <glyph glyph-name="approxequal.case" 
d="M1004 530h112q0 -98 -70 -157t-158 -59t-144 20t-147 67t-101 54q-75 47 -138 47t-99 -32t-36 -85h-112q0 98 70 158q71 59 179 59q119 0 280 -91t215 -96q11 -1 24 -1q53 0 89 32t36 84zM1004 952h112q0 -98 -70 -157t-158 -59t-144 20t-147 67t-101 54q-75 47 -138 47
t-99 -32t-36 -85h-112q0 98 70 158q71 59 179 59q119 0 280 -91t215 -96q11 -1 24 -1q53 0 89 32t36 84z" />
    <glyph glyph-name="logicalnot.case" 
d="M1010 393v434h-930v107h1044v-541h-114z" />
    <glyph glyph-name="guillemotright.case" horiz-adv-x="925" 
d="M571 295h-112l198 381l-198 381h112l220 -381zM260 295h-113l199 381l-199 381h113l219 -381z" />
    <glyph glyph-name="guilsinglright.case" horiz-adv-x="614" 
d="M260 295h-113l199 381l-199 381h113l219 -381z" />
    <glyph glyph-name="guillemotleft.case" horiz-adv-x="925" 
d="M467 295h-113l-219 381l219 381h113l-199 -381zM778 295h-112l-220 381l220 381h112l-198 -381z" />
    <glyph glyph-name="guilsinglleft.case" horiz-adv-x="614" 
d="M467 295h-113l-219 381l219 381h113l-199 -381z" />
    <glyph glyph-name="bracketleft.case" horiz-adv-x="700" 
d="M217 1604h379v-111h-256v-1593h256v-111h-379v1815z" />
    <glyph glyph-name="braceleft.case" horiz-adv-x="759" 
d="M276 754v850h379v-111h-256v-739h-123zM276 754v-115h123v-739h256v-111h-379v850h-194v115h194z" />
    <glyph glyph-name="parenleft.case" horiz-adv-x="620" 
d="M262 911v-430q0 -313 285 -692h-113q-150 195 -227 408q-78 213 -78 499t78 500q78 213 227 408h113q-285 -386 -285 -693z" />
    <glyph glyph-name="bracketright.case" horiz-adv-x="700" 
d="M104 1604h379v-1815h-379v111h256v1593h-256v111z" />
    <glyph glyph-name="braceright.case" horiz-adv-x="759" 
d="M483 639v-850h-379v111h256v739h123zM483 639v115h-123v739h-256v111h379v-850h195v-115h-195z" />
    <glyph glyph-name="parenright.case" horiz-adv-x="620" 
d="M358 481v430q0 307 -284 693h112q150 -195 228 -408t78 -500q0 -288 -78 -500t-228 -407h-112q284 379 284 692z" />
    <glyph glyph-name="endash.case" horiz-adv-x="1302" 
d="M170 621v127h963v-127h-963z" />
    <glyph glyph-name="emdash.case" horiz-adv-x="2265" 
d="M170 621v127h1925v-127h-1925z" />
    <glyph glyph-name="hyphen.case" horiz-adv-x="913" 
d="M170 621v127h573v-127h-573z" />
    <glyph glyph-name="uni00AD.case" horiz-adv-x="913" 
d="M170 621v127h573v-127h-573z" />
    <glyph glyph-name="parenleft.sup" horiz-adv-x="415" 
d="M199 1214v-223q0 -156 149 -354h-88q-162 207 -162 464t162 468h88q-149 -201 -149 -355z" />
    <glyph glyph-name="parenright.sup" horiz-adv-x="415" 
d="M219 991v223q0 150 -151 355h88q162 -207 162 -468t-162 -464h-88q151 196 151 354z" />
    <glyph glyph-name="zero.sup" horiz-adv-x="733" 
d="M367 920q73 0 113 40t40 111v279q0 70 -41 110t-113 41q-72 0 -112 -41q-41 -41 -41 -110v-279q0 -71 41 -111t113 -40zM629 1210q0 -375 -262 -374q-263 0 -263 374t262 375q262 0 263 -375z" />
    <glyph glyph-name="one.sup" horiz-adv-x="561" 
d="M408 1569v-717h-103v528h-227v86h227v103h103z" />
    <glyph glyph-name="two.sup" horiz-adv-x="700" 
d="M244 938h356v-86h-498v82l297 285q86 84 86 149q0 133 -131 133q-63 0 -103 -39t-40 -104h-102q0 106 69 167q70 60 177 60t169 -57t64 -161q0 -104 -113 -212l-231 -215v-2z" />
    <glyph glyph-name="four.sup" horiz-adv-x="698" 
d="M399 1425h-4l-221 -315h225v315zM502 852h-103v172h-321v86l325 459h99v-459h114v-86h-114v-172z" />
    <glyph glyph-name="five.sup" horiz-adv-x="690" 
d="M553 1569v-86h-330l-14 -226q53 74 157 74t168 -66q62 -67 62 -179t-68 -182q-68 -68 -182 -68q-228 1 -250 213h101q14 -129 147 -129q68 0 109 34t41 88v93q0 55 -40 85t-108 29q-94 0 -137 -84h-100l28 404h416z" />
    <glyph glyph-name="six.sup" horiz-adv-x="716" 
d="M211 1042q-1 -57 41 -97t109 -40t109 40t42 97v60q0 57 -41 92t-109 35t-110 -35t-41 -92v-60zM360 823q-256 0 -256 359q0 178 65 284t202 107q211 0 231 -195h-100q-12 113 -137 113q-70 0 -112 -50t-42 -124v-90q53 84 165 84t176 -65t64 -165t-68 -179t-188 -79z" />
    <glyph glyph-name="seven.sup" horiz-adv-x="614" 
d="M80 1483v86h471v-86l-299 -631h-113l303 631h-362z" />
    <glyph glyph-name="eight.sup" horiz-adv-x="724" 
d="M211 1077v-55q0 -47 41 -75q40 -27 110 -27t111 28t41 74v55q0 47 -41 75t-111 28t-110 -28t-41 -75zM496 1358v47q0 45 -38 71t-96 26t-95 -26q-38 -26 -38 -71v-47q0 -45 38 -70q38 -24 95 -24t96 24q38 25 38 70zM362 836q-116 0 -188 53t-72 155q0 135 131 181
q-111 49 -110 166q0 90 68 142q69 52 171 52t172 -52t68 -142q0 -117 -110 -166q131 -45 131 -181q0 -102 -73 -155t-188 -53z" />
    <glyph glyph-name="nine.sup" horiz-adv-x="718" 
d="M356 1501q-66 0 -106 -40t-41 -97v-57q0 -57 40 -93q41 -36 107 -34q66 0 108 34t42 93v57q0 57 -42 97t-108 40zM100 1328q0 103 68 180t197 77t189 -88t60 -268q0 -393 -262 -393q-217 0 -235 194h102q12 -111 135 -110q72 0 112 50t40 132v69q-57 -75 -167 -75
q-111 0 -175 64t-64 168z" />
    <glyph glyph-name="zero.den" horiz-adv-x="733" 
d="M367 68q73 0 113 40t40 111v279q0 70 -41 110t-113 41q-72 0 -112 -41q-41 -41 -41 -110v-279q0 -71 41 -111t113 -40zM629 358q0 -375 -262 -374q-263 0 -263 374t262 375q262 0 263 -375z" />
    <glyph glyph-name="one.den" horiz-adv-x="626" 
d="M408 717v-717h-103v528h-227v86h227v103h103z" />
    <glyph glyph-name="two.den" horiz-adv-x="700" 
d="M244 86h356v-86h-498v82l297 285q86 84 86 149q0 133 -131 133q-63 0 -103 -39t-40 -104h-102q0 106 69 167q70 60 177 60t169 -57t64 -161q0 -104 -113 -212l-231 -215v-2z" />
    <glyph glyph-name="four.den" horiz-adv-x="698" 
d="M399 573h-4l-221 -315h225v315zM502 0h-103v172h-321v86l325 459h99v-459h114v-86h-114v-172z" />
    <glyph glyph-name="five.den" horiz-adv-x="690" 
d="M553 717v-86h-330l-14 -225q53 74 157 74t168 -67q62 -67 62 -179t-68 -182q-68 -68 -182 -68q-228 1 -250 213h101q14 -129 147 -129q68 0 109 34t41 88v93q0 55 -40 85t-108 29q-94 0 -137 -84h-100l28 404h416z" />
    <glyph glyph-name="six.den" horiz-adv-x="716" 
d="M211 190q-1 -57 41 -97t109 -40t109 40t42 97v60q0 57 -41 92t-109 35t-110 -35t-41 -92v-60zM360 -29q-256 0 -256 359q0 178 65 284t202 107q211 0 231 -195h-100q-12 113 -137 113q-70 0 -112 -50t-42 -124v-90q53 84 165 84t176 -65t64 -165t-68 -179t-188 -79z" />
    <glyph glyph-name="seven.den" horiz-adv-x="614" 
d="M80 631v86h471v-86l-299 -631h-113l303 631h-362z" />
    <glyph glyph-name="eight.den" horiz-adv-x="724" 
d="M211 225v-55q0 -47 41 -75q40 -27 110 -27t111 28t41 74v55q0 47 -41 75t-111 28t-110 -28t-41 -75zM496 506v47q0 45 -38 71t-96 26t-95 -26q-38 -26 -38 -71v-47q0 -45 38 -70q38 -24 95 -24t96 24q38 25 38 70zM362 -16q-116 0 -188 53t-72 156q0 135 131 180
q-111 49 -110 166q0 90 68 142q69 52 171 52t172 -52t68 -142q0 -117 -110 -166q131 -45 131 -180q0 -101 -73 -155t-188 -54z" />
    <glyph glyph-name="nine.den" horiz-adv-x="718" 
d="M356 649q-66 0 -106 -40t-41 -97v-57q0 -57 40 -93q41 -36 107 -34q66 0 108 34t42 93v57q0 57 -42 97t-108 40zM100 476q0 103 68 180t197 77t189 -88t60 -268q0 -393 -262 -393q-217 0 -235 194h102q12 -111 135 -110q72 0 112 50t40 132v69q-57 -75 -167 -75
q-111 0 -175 64t-64 168z" />
    <glyph glyph-name="zero.sub" horiz-adv-x="733" 
d="M367 -150q73 0 113 40t40 112v279q0 71 -41 111t-113 40t-112 -41q-41 -41 -41 -110v-279q0 -70 41 -111t113 -41zM629 141q0 -375 -262 -374q-263 1 -263 375t262 374t263 -375z" />
    <glyph glyph-name="one.sub" horiz-adv-x="563" 
d="M410 500v-717h-103v528h-227v86h227v103h103z" />
    <glyph glyph-name="two.sub" horiz-adv-x="698" 
d="M242 -131h356v-86h-498v82l297 285q86 84 86 149q0 133 -131 133q-63 0 -103 -39t-40 -104h-103q0 107 70 167t177 60t169 -57t64 -161q0 -104 -113 -212l-231 -215v-2z" />
    <glyph glyph-name="four.sub" horiz-adv-x="698" 
d="M399 356h-4l-221 -315h225v315zM502 -217h-103v172h-321v86l325 459h99v-459h114v-86h-114v-172z" />
    <glyph glyph-name="five.sub" horiz-adv-x="690" 
d="M553 500v-86h-330l-14 -226q53 74 157 74t168 -66q62 -67 62 -180q0 -114 -68 -182t-182 -68q-228 1 -250 214h101q14 -129 147 -130q68 0 109 34t41 89v93q0 55 -40 85t-108 29q-94 0 -137 -84h-100l28 404h416z" />
    <glyph glyph-name="six.sub" horiz-adv-x="716" 
d="M211 -27q-1 -57 41 -97t109 -40t109 40t42 97v60q0 57 -41 92t-109 35t-110 -35t-41 -92v-60zM360 -246q-256 0 -256 359q0 178 65 284t202 107q211 0 231 -195h-100q-12 113 -137 113q-70 0 -112 -50t-42 -124v-90q53 84 165 84t176 -65t64 -165t-68 -179t-188 -79z" />
    <glyph glyph-name="seven.sub" horiz-adv-x="614" 
d="M80 414v86h471v-86l-299 -631h-113l303 631h-362z" />
    <glyph glyph-name="eight.sub" horiz-adv-x="724" 
d="M211 8v-55q0 -47 41 -75q40 -28 110 -28t111 28t41 75v55q0 47 -41 75t-111 28t-110 -28t-41 -75zM496 289v47q0 45 -38 71q-38 25 -96 25t-95 -26q-38 -26 -38 -70v-47q0 -45 38 -70t95 -25t96 25q38 25 38 70zM362 -233q-116 0 -188 53t-72 155q0 135 131 181
q-111 49 -110 166q0 90 68 142q69 52 171 52t172 -52t68 -142q0 -117 -110 -166q131 -45 131 -181q0 -102 -73 -155t-188 -53z" />
    <glyph glyph-name="nine.sub" horiz-adv-x="718" 
d="M356 432q-66 0 -106 -40t-41 -97v-57q0 -56 40 -92q41 -36 107 -36t108 36q42 34 42 92v57q0 57 -42 97t-108 40zM100 259q0 103 68 180t197 77t189 -88t60 -268q0 -393 -262 -393q-217 0 -235 194h102q12 -111 135 -111q72 0 112 50t40 133v69q-57 -76 -167 -76
q-111 0 -175 66q-64 64 -64 167z" />
    <glyph glyph-name="plus.sub" horiz-adv-x="729" 
d="M326 16h-232v74h232v234h80v-234h229v-74h-229v-233h-80v233z" />
    <glyph glyph-name="minus.sub" horiz-adv-x="782" 
d="M662 88v-74h-541v74h541z" />
    <glyph glyph-name="equal.sub" horiz-adv-x="782" 
d="M662 -86h-541v78h541v-78zM662 111h-541v77h541v-77z" />
    <glyph glyph-name="parenleft.sub" horiz-adv-x="415" 
d="M199 145v-223q0 -156 149 -354h-88q-162 207 -162 464t162 468h88q-149 -201 -149 -355z" />
    <glyph glyph-name="parenright.sub" horiz-adv-x="415" 
d="M219 -78v223q0 150 -151 355h88q162 -207 162 -468t-162 -464h-88q151 196 151 354z" />
    <glyph glyph-name="three.sup" horiz-adv-x="704" 
d="M420 1176h-166v86h152q37 0 57 22t20 53v66q0 47 -37 73t-92 25q-127 0 -137 -121h-102q0 84 67 145q68 60 174 60t168 -53t62 -141q0 -121 -103 -168q117 -39 117 -170q0 -101 -71 -159t-181 -58t-180 56q-68 56 -72 169h101q12 -141 149 -141q66 0 109 32t43 78v68
q0 34 -22 56t-56 22z" />
    <glyph glyph-name="three.den" horiz-adv-x="704" 
d="M420 324h-166v86h152q37 0 57 22t20 53v66q0 47 -37 73t-92 25q-127 0 -137 -121h-102q0 84 67 145q68 60 174 60t168 -53t62 -141q0 -121 -103 -168q117 -39 117 -170q0 -101 -71 -159t-181 -58t-180 56q-68 56 -72 169h101q12 -141 149 -141q66 0 109 32t43 78v68
q0 34 -22 56t-56 22z" />
    <glyph glyph-name="three.sub" horiz-adv-x="704" 
d="M420 106h-166v87h152q37 -1 57 21t20 54v66q0 47 -37 73t-92 25q-127 0 -137 -121h-102q0 84 67 145q68 60 174 60t168 -53t62 -141q0 -121 -103 -168q117 -39 117 -170q0 -100 -71 -158t-181 -59q-110 0 -180 56q-68 56 -72 169h101q12 -141 149 -142q66 0 109 32t43 79
v68q0 33 -22 55t-56 22z" />
    <glyph glyph-name="three.num" horiz-adv-x="704" 
d="M420 999h-166v86h152q37 0 57 22t20 54v66q0 47 -37 73t-92 25q-127 0 -137 -121h-102q0 84 67 145q68 60 174 60t168 -53t62 -142q0 -121 -103 -167q117 -39 117 -170q0 -101 -71 -159t-181 -58t-180 56q-68 56 -72 169h101q12 -141 149 -142q66 0 109 32t43 79v68
q0 33 -22 55t-56 22z" />
    <glyph glyph-name="orn.01" horiz-adv-x="1310" 
d="M0 131v131h131v-131h-131zM1311 1311h131v-131h-131v131zM1311 1311h-131v131h131v-131zM131 131h131v-131h-131v131zM393 131h-131v131h131v-131zM393 131h131v-131h-131v131zM131 393h131v-131h-131v131zM131 393h-131v131h131v-131zM1311 1049h-131v131h-131v131h131
v-131h131v-131zM1311 1049h131v-131h-131v131zM1049 1311h-131v131h131v-131zM393 262v131h-131v131h131v-131h131v-131h-131zM524 131v131h131v-131h-131zM655 131h131v-131h-131v131zM131 655h131v-131h-131v131zM131 655h-131v131h131v-131zM1311 786h-131v132h-131v131
h-131v131h-132v131h132v-131h131v-131h131v-131h131v-132zM1311 786h131v-131h-131v131zM786 1311h-131v131h131v-131zM1311 524h-131v131h-131v131h-131v132h-132v131h-131v131h-131v131h131v-131h131v-131h132v-131h131v-132h131v-131h131v-131zM1311 524h131v-131h-131
v131zM524 1311h-131v131h131v-131zM393 524v131h-131v131h131v-131h131v-131h-131zM524 393v131h131v-131h-131zM655 262v131h131v-131h-131zM786 131v131h132v-131h-132zM918 131h131v-131h-131v131zM131 918h131v-132h-131v132zM131 918h-131v131h131v-131zM1311 262h-131
v131h-131v131h-131v131h-132v131h-131v132h-131v131h-131v131h-131v131h131v-131h131v-131h131v-131h131v-132h132v-131h131v-131h131v-131h131v-131zM1311 262h131v-131h-131v131zM262 1311h-131v131h131v-131zM393 786v132h-131v131h131v-131h131v-132h-131zM524 655v131
h131v-131h-131zM655 524v131h131v-131h-131zM786 393v131h132v-131h-132zM918 262v131h131v-131h-131zM1049 131v131h131v-131h-131zM1311 131v-131h-131v131h131zM262 1180v-131h-131v131h131zM131 1311v-131h-131v131h131z" />
    <glyph glyph-name="orn.02" horiz-adv-x="1310" 
d="M0 1311v131h1442v-131h-1442zM0 1049v131h1442v-131h-1442zM0 786v132h1442v-132h-1442zM0 524v131h1442v-131h-1442zM0 262v131h1442v-131h-1442zM0 0v131h1442v-131h-1442z" />
    <glyph glyph-name="orn.03" horiz-adv-x="1572" 
d="M131 0h-131v1442h131v-1442zM393 0h-131v1442h131v-1442zM655 0h-131v1442h131v-1442zM918 0h-132v1442h132v-1442zM1180 0h-131v1442h131v-1442zM1442 0h-131v1442h131v-1442z" />
    <glyph glyph-name="orn.04" horiz-adv-x="1179" 
d="M1180 0v131h131v131h131v-131h-131v-131h-131zM786 0v131h132v-131h-132zM0 0v131h131v-131h-131zM393 0v131h131v131h131v131h131v131h132v131h131v131h131v132h131v131h131v-131h-131v-132h-131v-131h-131v-131h-131v-131h-132v-131h-131v-131h-131v-131h-131zM0 1180
v131h131v131h131v-131h-131v-131h-131zM0 786v132h131v131h131v131h131v131h131v131h131v-131h-131v-131h-131v-131h-131v-131h-131v-132h-131zM0 393v131h131v131h131v131h131v132h131v131h131v131h131v131h132v131h131v-131h-131v-131h-132v-131h-131v-131h-131v-132h-131
v-131h-131v-131h-131v-131h-131zM1311 524v131h131v-131h-131zM1311 524v-131h-131v131h131zM1180 393v-131h-131v131h131zM1049 262v-131h-131v131h131zM1311 1311v131h131v-131h-131zM1311 1311v-131h-131v131h131zM1180 1180v-131h-131v131h131zM1049 1049v-131h-131v131
h131zM918 918v-132h-132v132h132zM786 786v-131h-131v131h131zM655 655v-131h-131v131h131zM524 524v-131h-131v131h131zM393 393v-131h-131v131h131zM262 262v-131h-131v131h131z" />
    <glyph glyph-name="orn.05" horiz-adv-x="1179" 
d="M131 131h-131v131h131v-131zM131 131h131v-131h-131v131zM1311 1311h-131v131h131v-131zM1311 1311h131v-131h-131v131zM131 524h131v-131h131v-131h-131v131h-131v131zM131 524h-131v131h131v-131zM524 131h-131v131h131v-131zM524 131h131v-131h-131v131zM918 1311h131
v-131h131v-131h131v-131h-131v131h-131v131h-131v131zM918 1311h-132v131h132v-131zM1311 918h131v-132h-131v132zM131 918h131v-132h131v-131h131v-131h131v-131h131v-131h132v-131h-132v131h-131v131h-131v131h-131v131h-131v131h-131v132zM131 918h-131v131h131v-131z
M918 131h131v-131h-131v131zM524 1311h131v-131h131v-131h132v-131h131v-132h131v-131h131v-131h-131v131h-131v131h-131v132h-132v131h-131v131h-131v131zM524 1311h-131v131h131v-131zM1311 524h131v-131h-131v131zM131 1311h131v-131h131v-131h131v-131h131v-132h131
v-131h132v-131h131v-131h131v-131h-131v131h-131v131h-132v131h-131v131h-131v132h-131v131h-131v131h-131v131zM131 1311h-131v131h131v-131zM1311 131h-131v131h131v-131zM1311 131h131v-131h-131v131z" />
    <glyph glyph-name="orn.06" horiz-adv-x="1703" 
d="M524 918v-132h-131v132h131zM524 918v131h131v-131h-131zM655 1049v131h131v-131h-131zM655 131h-131v131h-131v131h131v-131h131v-131zM655 131h131v-131h-131v131zM393 786v-131h1180v-131h-1180v-131h-131v131h-131v131h131v131h131z" />
    <glyph glyph-name="orn.07" horiz-adv-x="1703" 
d="M1180 262v131h131v-131h-131zM1180 262v-131h-131v131h131zM1049 131v-131h-131v131h131zM1049 1049h131v-131h131v-132h-131v132h-131v131zM1049 1049h-131v131h131v-131zM1311 393v131h-1180v131h1180v131h131v-131h131v-131h-131v-131h-131z" />
    <glyph glyph-name="orn.08" horiz-adv-x="1310" 
d="M262 918h131v-132h131v-131h131v-131h131v-131h132v-131h-132v131h-131v131h-131v131h-131v131h-131v132zM262 918h-131v131h131v-131zM918 262h131v656h131v-918h-918v131h656v131z" />
    <glyph glyph-name="orn.09" horiz-adv-x="1310" 
d="M1049 0h-918v918h131v-656h131v131h131v-131h-131v-131h656v-131zM524 393v131h131v-131h-131zM655 524v131h131v-131h-131zM786 655v131h132v-131h-132zM918 786v132h131v-132h-131zM1049 918v131h131v-131h-131z" />
    <glyph glyph-name="orn.10" horiz-adv-x="1441" 
d="M1049 393v-131h-131v131h131zM1049 393v131h131v-131h-131zM1180 524v131h131v-131h-131zM262 524h131v-131h131v-131h-131v131h-131v131zM262 524h-131v131h131v-131zM918 262v-131h-132v-131h-131v131h-131v131h131v1180h131v-1180h132z" />
    <glyph glyph-name="orn.11" horiz-adv-x="1441" 
d="M262 918v-132h-131v132h131zM262 918v131h131v131h131v-131h-131v-131h-131zM1180 918h-131v131h-131v131h131v-131h131v-131zM1180 918h131v-132h-131v132zM524 1180v131h131v131h131v-131h132v-131h-132v-1180h-131v1180h-131z" />
    <glyph glyph-name="orn.12" horiz-adv-x="1441" 
d="M1311 1180v-131h-131v-131h-131v131h131v131h131zM131 0v131h131v131h131v131h131v-131h-131v-131h-131v-131h-131zM1049 918v-132h-131v132h131zM918 786v-131h-132v131h132zM524 393v131h131v-131h-131zM786 655v-131h132v-131h131v-131h-131v131h-132v131h-131v131
h131zM262 1049h131v-131h131v-132h131v-131h-131v131h-131v132h-131v131zM262 1049h-131v131h131v-131zM1180 131h-131v131h131v-131zM1180 131h131v-131h-131v131z" />
    <glyph glyph-name="orn.13" horiz-adv-x="1966" 
d="M1573 1180v-131h-131v-131h-131v131h131v131h131zM393 0v131h131v131h131v131h131v-131h-131v-131h-131v-131h-131zM262 1311v-1442h1442v1442h-1442zM131 -262v1704h1704v-1704h-1704zM1311 918v-132h-131v132h131zM1180 786v-131h-131v131h131zM786 393v131h132v-131
h-132zM1049 655v-131h131v-131h131v-131h-131v131h-131v131h-131v131h131zM524 1049h131v-131h131v-132h132v-131h-132v131h-131v132h-131v131zM524 1049h-131v131h131v-131zM1442 131h-131v131h131v-131zM1442 131h131v-131h-131v131z" />
    <glyph glyph-name="orn.14" horiz-adv-x="1966" 
d="M393 0v131h131v-131h-131zM262 1311v-1442h1442v1442h-1442zM131 -262v1704h1704v-1704h-1704zM1442 918h-131v131h131v131h131v-131h-131v-131zM1442 918h131v-132h-131v132zM1311 1049h-131v131h131v-131zM655 131h-131v131h131v-131zM655 131h131v-131h-131v131z
M524 262h-131v131h131v-131zM655 262v131h-131v131h131v-131h131v-131h-131zM786 131v131h132v-131h-132zM918 131h131v-131h-131v131zM524 524h-131v131h131v-131zM1442 655h-131v131h-131v132h-131v131h131v-131h131v-132h131v-131zM1442 655h131v-131h-131v131z
M1049 1049h-131v131h131v-131zM655 524v131h-131v131h131v-131h131v-131h-131zM786 393v131h132v-131h-132zM918 262v131h131v-131h-131zM1049 131v131h131v-131h-131zM1180 131h131v-131h-131v131zM524 786h-131v132h131v-132zM1442 393h-131v131h-131v131h-131v131h-131
v132h-132v131h132v-131h131v-132h131v-131h131v-131h131v-131zM1442 393h131v-131h-131v131zM786 1049h-131v131h131v-131zM655 786v132h-131v131h131v-131h131v-132h-131zM786 655v131h132v-131h-132zM918 524v131h131v-131h-131zM1049 393v131h131v-131h-131zM1180 262
v131h131v-131h-131zM1311 131v131h131v-131h-131zM1442 131h131v-131h-131v131zM524 1049h-131v131h131v-131z" />
    <glyph glyph-name="orn.15" horiz-adv-x="1966" 
d="M524 1049v-918h918v918h-918zM393 0v1180h1180v-1180h-1180zM262 1311v-1442h1442v1442h-1442zM131 -262v1704h1704v-1704h-1704z" />
    <glyph glyph-name="orn.16" horiz-adv-x="1966" 
d="M1835 1442v-131h-131v131h131zM1442 1049v-131h-131v131h131zM1442 1049v131h131v-131h-131zM1180 786v-131h-131v131h131zM1180 786v132h131v-132h-131zM786 393v131h132v-131h-132zM786 393v-131h-131v131h131zM655 262v-131h-131v-131h-131v131h131v131h131zM262 -131
v-131h-131v131h131zM262 -131v131h-131v1180h131v-1180h131v-131h-131zM393 -131h1180v-131h-1180v131zM1049 655v-131h131v-131h131v-131h-131v131h-131v131h-131v131h131zM262 1311h131v-131h131v-131h131v-131h131v-132h132v-131h-132v131h-131v132h-131v131h-131v131
h-131v131zM262 1311h-131v131h131v-131zM1573 -131v131h-131v131h-131v131h131v-131h131v-131h131v-131h-131zM1704 -131h131v-131h-131v131zM1573 1180v131h-1180v131h1180v-131h131v-131h-131zM1704 0v1180h131v-1180h-131z" />
    <glyph glyph-name="orn.17" horiz-adv-x="655" 
d="M131 -262v393h131v-262h262v-131h-393zM131 1049v393h393v-131h-262v-262h-131z" />
    <glyph glyph-name="orn.18" horiz-adv-x="655" 
d="M524 131v-393h-393v131h262v262h131zM524 1442v-393h-131v262h-262v131h393z" />
    <glyph glyph-name="orn.19" horiz-adv-x="655" 
d="M524 1442v-393h-393v131h262v262h131zM524 131v-393h-131v262h-262v131h393z" />
    <glyph glyph-name="orn.20" horiz-adv-x="655" 
d="M131 1049v393h131v-262h262v-131h-393zM131 -262v393h393v-131h-262v-262h-131z" />
    <glyph glyph-name="orn.21" horiz-adv-x="1703" 
d="M262 131v-131h131v131h-131zM1442 1049v131h-131v-131h-131v-131h131v131h131zM131 -131v1442h1442v-1442h-1442zM655 393h-131v-131h131v131zM655 393h131v131h-131v-131zM524 262h-131v-131h131v131zM1049 786h-131v-131h131v131zM1049 786h131v132h-131v-132z
M1311 131v131h-131v-131h131zM1311 131v-131h131v131h-131zM786 524h132v-131h131v-131h131v131h-131v131h-131v131h-132v-131zM393 1049v-131h131v-132h131v-131h131v131h-131v132h-131v131h-131zM393 1049v131h-131v-131h131z" />
    <glyph glyph-name="orn.22" horiz-adv-x="1703" 
d="M786 918v131h-131v-131h131zM131 -131v1442h1442v-1442h-1442zM655 918h-131v-132h131v132zM655 262v131h-131v-131h131zM655 262v-131h131v131h-131zM524 786h-131v-131h-131v-131h131v-131h131v131h918v131h-918v131z" />
    <glyph glyph-name="orn.23" horiz-adv-x="1703" 
d="M918 1049v-131h131v131h-131zM1573 1311v-1442h-1442v1442h1442zM1049 262h131v131h-131v-131zM1049 262h-131v-131h131v131zM1180 393h131v131h131v131h-131v131h-131v132h-131v-132h131v-131h-918v-131h918v-131z" />
    <glyph glyph-name="orn.24" horiz-adv-x="1703" 
d="M524 524h-131v-131h131v131zM1573 -131h-1442v1442h1442v-1442zM1180 393h131v131h-131v-131zM1180 393h-131v-131h131v131zM1049 262h-131v918h-132v-918h-131v131h-131v-131h131v-131h131v-131h132v131h131v131z" />
    <glyph glyph-name="orn.25" horiz-adv-x="1703" 
d="M393 655h131v131h-131v-131zM131 1311h1442v-1442h-1442v1442zM524 786h131v132h-131v-132zM1180 786v132h-131v-132h131zM1180 786v-131h131v131h-131zM655 918h131v-918h132v918h131v131h-131v131h-132v-131h-131v-131z" />
    <glyph glyph-name="orn.26" horiz-adv-x="1441" 
d="M131 0v262h131v262h131v-262h-131v-131h918v131h131v-262h-1180zM524 786v263h131v-263h-131zM524 786v-262h-131v262h131zM655 1049v262h131v-262h132v-263h131v-262h131v-262h-131v262h-131v262h-132v263h-131z" />
    <glyph glyph-name="orn.27" horiz-adv-x="1441" 
d="M1049 786v263h131v-263h-131zM1049 786v-262h-131v262h131zM918 524v-262h-132v262h132zM786 262v-262h-131v262h-131v262h-131v262h131v-262h131v-262h131zM1180 1049v131h-918v-131h131v-263h-131v263h-131v262h1180v-262h-131z" />
    <glyph glyph-name="orn.28" horiz-adv-x="1572" 
d="M918 918v-132h-263v132h263zM918 918v131h262v-131h-262zM655 786v-131h-262v131h262zM393 655v-131h262v-131h263v-131h-263v131h-262v131h-262v131h262zM1180 1049v131h262v-1180h-262v131h-262v131h262v-131h131v918h-131z" />
    <glyph glyph-name="orn.29" horiz-adv-x="1572" 
d="M393 0h-262v1180h262v-131h-131v-918h131v131h262v-131h-262v-131zM918 393v131h262v-131h-262zM918 393v-131h-263v131h263zM1180 524v131h-262v131h-263v132h-262v131h262v-131h263v-132h262v-131h262v-131h-262z" />
    <glyph glyph-name="orn.30" horiz-adv-x="1572" 
d="M262 1180v-1049h1049v1049h-1049zM131 0v1311h1311v-1311h-1311z" />
    <glyph glyph-name="orn.31" horiz-adv-x="1572" 
d="M393 1049v-131h-131v131h131zM393 1049v131h131v-131h-131zM1180 262v131h131v-131h-131zM1180 262v-131h-131v131h131zM1049 131v-131h-525v131h-131v131h131v-131h525zM262 918v-525h131v-131h-131v131h-131v525h131zM524 1180v131h525v-131h131v-131h-131v131h-525z
M1311 393v525h-131v131h131v-131h131v-525h-131z" />
    <glyph glyph-name="orn.32" horiz-adv-x="1179" 
d="M918 918h-263v262h-393v-1049h656v787zM786 1311v-262h263v-1049h-918v1311h655z" />
    <glyph glyph-name="diametersign" horiz-adv-x="1380" 
d="M246 536q0 -170 94 -290l625 624q-123 96 -291 96t-298 -130t-130 -300zM1135 506q0 168 -97 291l-624 -625q120 -94 290 -94t301 130q130 130 130 298zM143 536q0 211 161 372t370 161t362 -127l127 127l74 -74l-127 -127q127 -154 127 -362t-161 -370
q-161 -161 -372 -161t-362 125l-125 -125l-74 74l125 125q-125 151 -125 362z" />
    <glyph glyph-name="zero.denslash" horiz-adv-x="835" 
d="M571 219v279q1 55 -26 94l-219 -500q36 -24 100 -24t104 40t41 111zM264 498v-279q0 -55 23 -90l219 498q-40 23 -100 23t-101 -42q-41 -41 -41 -110zM680 358q0 -375 -262 -374q-262 0 -262 374t262 375q262 0 262 -375z" />
    <glyph glyph-name="zero.subslash" horiz-adv-x="733" 
d="M375 -150q65 0 105 40t40 112v279q1 55 -26 94l-220 -500q37 -25 101 -25zM213 281v-279q0 -55 23 -90l219 498q-39 22 -99 22t-102 -41q-41 -41 -41 -110zM629 141q0 -375 -262 -374q-263 1 -263 375t262 374t263 -375z" />
    <glyph glyph-name="zero.supslash" horiz-adv-x="733" 
d="M520 1071v279q1 55 -26 94l-220 -500q37 -24 101 -24q65 0 105 40t40 111zM213 1350v-279q0 -55 23 -90l219 498q-39 23 -99 23t-102 -42q-41 -41 -41 -110zM629 1210q0 -375 -262 -374q-263 0 -263 374t262 375q262 0 263 -375z" />
    <glyph glyph-name="idotaccent" horiz-adv-x="497" 
d="M319 1372v-141h-141v141h141zM315 0h-133v1044h133v-1044z" />
    <glyph glyph-name="comma.sub" horiz-adv-x="358" 
d="M238 -102v-115l-66 -115h-51l63 115h-63v115h117z" />
    <glyph glyph-name="period.sub" horiz-adv-x="358" 
d="M238 -102v-115h-117v115h117z" />
    <glyph glyph-name="a.sub" horiz-adv-x="667" 
d="M293 -154q63 0 100 45t37 121v25l-192 -19q-45 -4 -45 -51v-49q0 -72 100 -72zM526 -135h80v-82h-162l-2 100h-4q-45 -113 -170 -112q-88 0 -132 48q-44 49 -44 113t42 108t122 52l174 17v43q0 61 -29 86t-82 24q-113 0 -112 -98h-96q0 78 60 125q59 47 151 47t148 -46
t56 -138v-287z" />
    <glyph glyph-name="b.sub" horiz-adv-x="706" 
d="M227 -217h-96v717h96v-264q55 100 165 100t164 -79q56 -79 56 -203t-55 -204t-165 -80t-165 99v-86zM227 98v-90q0 -74 39 -118q40 -44 104 -44t102 34t38 89v168q0 55 -38 88t-102 33t-104 -44q-39 -44 -39 -116z" />
    <glyph glyph-name="c.sub" horiz-adv-x="638" 
d="M314 -229q-102 -1 -162 75q-58 76 -58 207t62 207t162 76q211 0 225 -191h-97q-8 117 -122 117q-50 0 -90 -34t-39 -95v-158q-1 -57 37 -93t94 -36q113 0 125 119h96q-7 -96 -69 -145t-164 -49z" />
    <glyph glyph-name="d.sub" horiz-adv-x="706" 
d="M575 -217h-96v86q-55 -98 -163 -98q-108 1 -165 79t-57 202t56 204t164 80q110 0 165 -103v267h96v-717zM479 8v88q0 72 -39 116t-103 44q-65 0 -103 -33t-37 -88v-166q-1 -55 37 -89t103 -34t103 44t39 118z" />
    <glyph glyph-name="e.sub" horiz-adv-x="653" 
d="M315 -229q-101 1 -161 77t-60 205t62 206t171 77q110 0 171 -73t61 -183v-51h-364v-58q1 -57 39 -91t92 -34t93 28q38 28 42 81h94q-8 -84 -73 -134t-167 -50zM195 133v-31h266v31q0 59 -39 94t-94 35t-94 -35t-39 -94z" />
    <glyph glyph-name="f.sub" horiz-adv-x="440" 
d="M264 420v-96h111v-80h-111v-461h-96v461h-88v80h88v176h219v-80h-123z" />
    <glyph glyph-name="g.sub" horiz-adv-x="706" 
d="M575 324v-533q0 -106 -68 -163q-69 -56 -165 -56q-211 0 -229 170h96q12 -92 129 -92q61 0 101 36t40 109v74q-55 -98 -163 -98q-108 1 -165 79t-57 202t56 204t164 80q110 0 165 -103v91h96zM479 8v88q0 72 -39 116t-103 44q-65 0 -103 -33t-37 -88v-166q-1 -55 37 -89
t103 -34t103 44t39 118z" />
    <glyph glyph-name="h.sub" horiz-adv-x="686" 
d="M227 500v-267q45 102 160 103q174 0 174 -193v-360h-96v350q0 125 -105 125q-59 0 -96 -44t-37 -116v-315h-96v717h96z" />
    <glyph glyph-name="i.sub" horiz-adv-x="358" 
d="M229 500v-99h-100v99h100zM227 -217h-96v541h96v-541z" />
    <glyph glyph-name="j.sub" horiz-adv-x="358" 
d="M229 500v-99h-100v99h100zM131 -313v637h96v-717h-221v80h125z" />
    <glyph glyph-name="k.sub" horiz-adv-x="632" 
d="M227 500v-717h-96v717h96zM459 -217l-230 301l207 240h117l-215 -240l231 -301h-110z" />
    <glyph glyph-name="l.sub" horiz-adv-x="358" 
d="M227 -217h-96v717h96v-717z" />
    <glyph glyph-name="m.sub" horiz-adv-x="983" 
d="M688 336q168 0 168 -191v-362h-96v352q0 127 -98 127q-49 0 -84 -46t-35 -116v-317h-97v352q0 127 -100 127q-49 0 -84 -46t-35 -116v-317h-96v541h96v-86q43 98 157 98t146 -109q16 49 58 79t100 30z" />
    <glyph glyph-name="n.sub" horiz-adv-x="686" 
d="M227 324v-91q45 102 160 103q174 0 174 -193v-360h-96v350q0 125 -105 125q-59 0 -96 -44t-37 -116v-315h-96v541h96z" />
    <glyph glyph-name="o.sub" horiz-adv-x="671" 
d="M578 53q0 -129 -62 -206t-180 -77q-119 0 -180 78q-61 76 -62 205q0 129 62 206t180 77t180 -77t62 -206zM477 -31v168q0 53 -42 87t-99 34t-99 -34t-42 -87v-168q0 -53 42 -87t99 -34t99 34t42 87z" />
    <glyph glyph-name="p.sub" horiz-adv-x="706" 
d="M227 -393h-96v717h96v-88q55 100 165 100t164 -79q56 -79 56 -203t-55 -204t-165 -80t-165 99v-262zM227 98v-90q0 -74 39 -118q40 -44 104 -44t102 34t38 89v168q0 55 -38 88t-102 33t-104 -44q-39 -44 -39 -116z" />
    <glyph glyph-name="q.sub" horiz-adv-x="706" 
d="M575 -393h-96v262q-55 -98 -163 -98q-108 1 -165 79t-57 202t56 204t164 80q110 0 165 -103v91h96v-717zM479 8v88q0 72 -39 116t-103 44q-65 0 -103 -33t-37 -88v-166q-1 -55 37 -89t103 -34t103 44t39 118z" />
    <glyph glyph-name="r.sub" horiz-adv-x="452" 
d="M131 -217v541h260v-80h-164v-461h-96z" />
    <glyph glyph-name="s.sub" horiz-adv-x="616" 
d="M310 -229q-94 0 -154 48q-61 48 -64 134h96q2 -51 37 -79t86 -28t84 23t33 59q0 66 -94 84l-90 19q-137 27 -138 149q0 68 56 112t140 44q85 0 144 -44t62 -128h-96q-2 98 -107 98q-45 0 -75 -22t-29 -54q-1 -63 73 -77l93 -19q158 -35 157 -158q0 -68 -60 -114t-154 -47
z" />
    <glyph glyph-name="t.sub" horiz-adv-x="485" 
d="M264 244v-381h123v-80h-219v461h-88v80h88v176h96v-176h123v-80h-123z" />
    <glyph glyph-name="u.sub" horiz-adv-x="686" 
d="M459 -215v88q-47 -102 -158 -102q-80 0 -128 47t-48 147v359h96v-349q0 -127 107 -127q59 0 95 46t36 116v314h96v-539h-96z" />
    <glyph glyph-name="v.sub" horiz-adv-x="600" 
d="M297 -98h8l139 422h97l-195 -541h-90l-197 541h103z" />
    <glyph glyph-name="w.sub" horiz-adv-x="878" 
d="M494 324l98 -416h8l109 416h98l-166 -541h-96l-105 430h-8l-98 -430h-96l-166 541h104l105 -416h8l90 416h115z" />
    <glyph glyph-name="x.sub" horiz-adv-x="618" 
d="M68 -217l186 280l-172 261h104l123 -189l121 189h105l-175 -252l191 -289h-107l-135 215l-137 -215h-104z" />
    <glyph glyph-name="y.sub" horiz-adv-x="604" 
d="M100 -393v80h121l35 100l-199 537h103l139 -416h8l142 416h96l-262 -717h-183z" />
    <glyph glyph-name="z.sub" horiz-adv-x="591" 
d="M498 -135v-82h-408v82l281 379h-260v80h378v-80l-282 -379h291z" />
    <glyph glyph-name="eacute.sub" horiz-adv-x="653" 
d="M315 -229q-101 1 -161 77t-60 205t62 206t171 77q110 0 171 -73t61 -183v-51h-364v-58q1 -57 39 -91t92 -34t93 28q38 28 42 81h94q-8 -84 -73 -134t-167 -50zM195 133v-31h266v31q0 59 -39 94t-94 35t-94 -35t-39 -94zM270 391l90 127h113l-121 -127h-82z" />
    <glyph glyph-name="egrave.sub" horiz-adv-x="653" 
d="M315 -229q-101 1 -161 77t-60 205t62 206t171 77q110 0 171 -73t61 -183v-51h-364v-58q1 -57 39 -91t92 -34t93 28q38 28 42 81h94q-8 -84 -73 -134t-167 -50zM195 133v-31h266v31q0 59 -39 94t-94 35t-94 -35t-39 -94zM287 518l90 -127h-82l-121 127h113z" />
    <glyph glyph-name="plus.ordn" horiz-adv-x="753" 
d="M338 1087h-232v74h232v234h80v-234h229v-74h-229v-233h-80v233z" />
    <glyph glyph-name="minus.ordn" horiz-adv-x="782" 
d="M662 1159v-74h-541v74h541z" />
    <glyph glyph-name="equal.ordn" horiz-adv-x="782" 
d="M662 985h-541v78h541v-78zM662 1182h-541v78h541v-78z" />
    <glyph glyph-name="parenleft.ordn" horiz-adv-x="403" 
d="M190 1217v-224q0 -156 150 -354h-88q-162 207 -162 464t162 468h88q-150 -200 -150 -354z" />
    <glyph glyph-name="parenright.ordn" horiz-adv-x="403" 
d="M215 993v224q0 150 -152 354h89q162 -207 162 -468t-162 -464h-89q152 196 152 354z" />
    <glyph glyph-name="comma.ordn" horiz-adv-x="358" 
d="M238 793v-115l-66 -115h-51l63 115h-63v115h117z" />
    <glyph glyph-name="period.ordn" horiz-adv-x="358" 
d="M238 793v-115h-117v115h117z" />
    <glyph glyph-name="a.ordn" horiz-adv-x="669" 
d="M293 741q63 0 100 45t37 121v25l-192 -19q-45 -4 -45 -51v-49q0 -72 100 -72zM526 760h80v-82h-162l-2 100h-4q-45 -113 -170 -112q-88 0 -132 48t-44 112t42 109q42 44 122 52l174 17v43q0 61 -29 86t-82 24q-113 0 -112 -98h-96q0 78 60 125q59 47 151 47t148 -46
t56 -138v-287z" />
    <glyph glyph-name="b.ordn" horiz-adv-x="708" 
d="M227 678h-96v717h96v-265q55 100 165 100t164 -78q56 -79 56 -203t-55 -204q-55 -79 -165 -79t-165 98v-86zM227 993v-90q0 -74 39 -118q40 -44 104 -44t102 34t38 89v168q0 55 -38 88t-102 33t-104 -44q-39 -44 -39 -116z" />
    <glyph glyph-name="c.ordn" horiz-adv-x="641" 
d="M316 666q-102 0 -162 76q-58 76 -58 206q0 131 62 207t162 76q211 0 225 -191h-96q-8 117 -123 117q-51 0 -90 -34t-39 -95v-158q-1 -57 37 -93t94 -36q113 0 125 119h96q-7 -96 -69 -145t-164 -49z" />
    <glyph glyph-name="d.ordn" horiz-adv-x="706" 
d="M575 678h-96v86q-55 -98 -163 -98t-165 78t-57 203q0 124 56 204t164 80q110 0 165 -103v267h96v-717zM479 903v88q0 72 -39 116t-103 44q-65 0 -103 -33t-37 -88v-166q-1 -55 37 -89t103 -34t103 44t39 118z" />
    <glyph glyph-name="e.ordn" horiz-adv-x="653" 
d="M315 666q-101 0 -161 76t-60 206q0 129 62 206t171 77q110 0 171 -73t61 -183v-51h-364v-58q1 -57 39 -91t92 -34t93 28q38 28 42 81h94q-8 -84 -73 -134t-167 -50zM195 1028v-31h266v31q0 59 -39 94t-94 35t-94 -35t-39 -94z" />
    <glyph glyph-name="f.ordn" horiz-adv-x="440" 
d="M264 1315v-96h111v-80h-111v-461h-96v461h-88v80h88v176h219v-80h-123z" />
    <glyph glyph-name="g.ordn" horiz-adv-x="706" 
d="M575 1219v-533q0 -106 -68 -163q-69 -56 -165 -56q-211 0 -229 170h96q12 -92 129 -92q61 0 101 36t40 109v74q-55 -98 -163 -98t-165 78t-57 203q0 124 56 204t164 80q110 0 165 -103v91h96zM479 903v88q0 72 -39 116t-103 44q-65 0 -103 -33t-37 -88v-166
q-1 -55 37 -89t103 -34t103 44t39 118z" />
    <glyph glyph-name="h.ordn" horiz-adv-x="686" 
d="M227 1395v-267q45 102 160 103q174 0 174 -193v-360h-96v350q0 125 -105 125q-59 0 -96 -44t-37 -116v-315h-96v717h96z" />
    <glyph glyph-name="i.ordn" horiz-adv-x="358" 
d="M229 1395v-99h-100v99h100zM227 678h-96v541h96v-541z" />
    <glyph glyph-name="j.ordn" horiz-adv-x="358" 
d="M229 1395v-99h-100v99h100zM131 582v637h96v-717h-221v80h125z" />
    <glyph glyph-name="k.ordn" horiz-adv-x="634" 
d="M227 1395v-717h-96v717h96zM459 678l-230 301l207 240h117l-215 -240l231 -301h-110z" />
    <glyph glyph-name="l.ordn" horiz-adv-x="358" 
d="M227 678h-96v717h96v-717z" />
    <glyph glyph-name="m.ordn" horiz-adv-x="980" 
d="M688 1231q168 0 168 -191v-362h-96v352q0 127 -98 127q-49 0 -84 -46t-35 -116v-317h-97v352q0 127 -100 127q-49 0 -84 -46t-35 -116v-317h-96v541h96v-86q43 98 157 98t146 -109q16 49 58 79t100 30z" />
    <glyph glyph-name="n.ordn" horiz-adv-x="686" 
d="M227 1219v-91q45 102 160 103q174 0 174 -193v-360h-96v350q0 125 -105 125q-59 0 -96 -44t-37 -116v-315h-96v541h96z" />
    <glyph glyph-name="o.ordn" horiz-adv-x="671" 
d="M578 948q0 -129 -62 -206q-62 -76 -180 -76q-119 0 -180 76t-62 206q0 129 62 206t180 77t180 -77t62 -206zM477 864v168q0 53 -42 87t-99 34t-99 -34t-42 -87v-168q0 -53 42 -87t99 -34t99 34t42 87z" />
    <glyph glyph-name="p.ordn" horiz-adv-x="708" 
d="M227 502h-96v717h96v-89q55 100 165 100t164 -78q56 -79 56 -203t-55 -204q-55 -79 -165 -79t-165 98v-262zM227 993v-90q0 -74 39 -118q40 -44 104 -44t102 34t38 89v168q0 55 -38 88t-102 33t-104 -44q-39 -44 -39 -116z" />
    <glyph glyph-name="q.ordn" horiz-adv-x="706" 
d="M575 502h-96v262q-55 -98 -163 -98t-165 78t-57 203q0 124 56 204t164 80q110 0 165 -103v91h96v-717zM479 903v88q0 72 -39 116t-103 44q-65 0 -103 -33t-37 -88v-166q-1 -55 37 -89t103 -34t103 44t39 118z" />
    <glyph glyph-name="r.ordn" horiz-adv-x="452" 
d="M131 678v541h260v-80h-164v-461h-96z" />
    <glyph glyph-name="s.ordn" horiz-adv-x="616" 
d="M310 666q-94 0 -154 48q-61 48 -64 134h96q2 -51 37 -79t86 -28t84 23t33 59q0 66 -94 84l-90 19q-137 27 -138 149q0 68 56 112t140 44q85 0 144 -44t62 -128h-96q-2 98 -107 98q-45 1 -75 -21t-29 -55q-1 -63 73 -77l93 -19q158 -35 157 -158q0 -69 -60 -115t-154 -46z
" />
    <glyph glyph-name="t.ordn" horiz-adv-x="485" 
d="M264 1139v-381h123v-80h-219v461h-88v80h88v176h96v-176h123v-80h-123z" />
    <glyph glyph-name="u.ordn" horiz-adv-x="686" 
d="M459 680v88q-47 -102 -158 -102q-80 0 -128 47t-48 147v359h96v-349q0 -127 107 -127q59 0 95 45t36 117v314h96v-539h-96z" />
    <glyph glyph-name="v.ordn" horiz-adv-x="598" 
d="M295 797h8l139 422h97l-195 -541h-90l-197 541h103z" />
    <glyph glyph-name="w.ordn" horiz-adv-x="874" 
d="M492 1219l98 -416h8l109 416h98l-166 -541h-96l-105 430h-8l-98 -430h-96l-166 541h104l105 -416h8l90 416h115z" />
    <glyph glyph-name="x.ordn" horiz-adv-x="620" 
d="M70 678l186 280l-172 261h104l123 -189l121 189h105l-175 -252l191 -289h-107l-135 215l-137 -215h-104z" />
    <glyph glyph-name="y.ordn" horiz-adv-x="602" 
d="M100 502v80h121l35 100l-199 537h103l139 -416h8l142 416h96l-262 -717h-183z" />
    <glyph glyph-name="z.ordn" horiz-adv-x="591" 
d="M498 760v-82h-408v82l281 379h-260v80h378v-80l-282 -379h291z" />
    <glyph glyph-name="eacute.ordn" horiz-adv-x="653" 
d="M315 666q-101 0 -161 76t-60 206q0 129 62 206t171 77q110 0 171 -73t61 -183v-51h-364v-58q1 -57 39 -91t92 -34t93 28q38 28 42 81h94q-8 -84 -73 -134t-167 -50zM195 1028v-31h266v31q0 59 -39 94t-94 35t-94 -35t-39 -94zM270 1286l90 127h113l-121 -127h-82z" />
    <glyph glyph-name="egrave.ordn" horiz-adv-x="653" 
d="M315 666q-101 0 -161 76t-60 206q0 129 62 206t171 77q110 0 171 -73t61 -183v-51h-364v-58q1 -57 39 -91t92 -34t93 28q38 28 42 81h94q-8 -84 -73 -134t-167 -50zM195 1028v-31h266v31q0 59 -39 94t-94 35t-94 -35t-39 -94zM287 1413l90 -127h-82l-121 127h113z" />
    <glyph glyph-name="orn.33" horiz-adv-x="1310" 
d="M1049 131h-131v131h-132v131h-131v131h-131v131h-131v131h131v-131h131v-131h131v-131h132v-131h131v-131zM1049 131h131v-131h-131v131zM393 786h-131v-655h-131v918h918v-131h-656v-132z" />
    <glyph glyph-name="orn.34" horiz-adv-x="1310" 
d="M262 1049h918v-918h-131v655h-131v-131h-132v131h132v132h-656v131zM786 655v-131h-131v131h131zM655 524v-131h-131v131h131zM524 393v-131h-131v131h131zM393 262v-131h-131v131h131zM262 131v-131h-131v131h131z" />
    <glyph glyph-name="percent.slash" horiz-adv-x="1597" 
d="M1384 219v279q1 55 -26 94l-219 -500q37 -24 101 -24t104 40t40 111zM1077 498v-279q0 -55 23 -90l219 498q-39 23 -99 23t-102 -42q-41 -41 -41 -110zM1493 358q0 -375 -262 -374q-262 0 -262 374t262 375q262 0 262 -375zM375 743q65 0 105 40t40 112v279q1 55 -26 94
l-220 -500q37 -25 101 -25zM213 1174v-279q0 -55 23 -90l219 498q-39 23 -99 23t-102 -42q-41 -41 -41 -110zM629 1034q0 -375 -262 -375t-263 375q0 375 262 375t263 -375zM307 0l873 1393h110l-872 -1393h-111z" />
    <glyph glyph-name="perthousand.slash" horiz-adv-x="2269" 
d="M2058 219v279q1 55 -26 94l-220 -500q37 -24 101 -24q65 0 105 40t40 111zM1751 498v-279q0 -55 23 -90l219 498q-39 23 -99 23t-102 -42q-41 -41 -41 -110zM2167 358q0 -375 -262 -374q-263 0 -263 374t262 375q262 0 263 -375zM1384 219v279q1 55 -26 94l-219 -500
q37 -24 101 -24t104 40t40 111zM1077 498v-279q0 -55 23 -90l219 498q-39 23 -99 23t-102 -42q-41 -41 -41 -110zM1493 358q0 -375 -262 -374q-262 0 -262 374t262 375q262 0 262 -375zM375 743q65 0 105 40t40 112v279q1 55 -26 94l-220 -500q37 -25 101 -25zM213 1174
v-279q0 -55 23 -90l219 498q-39 23 -99 23t-102 -42q-41 -41 -41 -110zM629 1034q0 -375 -262 -375t-263 375q0 375 262 375t263 -375zM307 0l873 1393h110l-872 -1393h-111z" />
    </font>
</defs>
</svg>
