<?xml version="1.0" standalone="no"?>
<!DOCTYPE svg PUBLIC "-//W3C//DTD SVG 1.1//EN" "http://www.w3.org/Graphics/SVG/1.1/DTD/svg11.dtd" >
<svg xmlns="http://www.w3.org/2000/svg">
<metadata>
Created by FontPrep 20130207 at Tue Sep  9 22:12:07 2014
 By Rye Skelton
(c)2013 Optimo.
</metadata>
<defs>
<font id="00b34757bd765fe995b4f20b31f7333a" horiz-adv-x='1024' >
  <font-face 
    font-family="PxGrotesk-LightIta"
    font-weight="300"
    font-style="italic"
    font-stretch="normal"
    units-per-em="2048"
    panose-1="2 6 3 3 3 0 0 2 0 4"
    ascent="1649"
    descent="-399"
    x-height="1044"
    cap-height="1393"
    bbox="-524 -434 2189 2179"
    underline-thickness="102"
    underline-position="-102"
    slope="-12"
    unicode-range="U+000D-FB02"
  />
<missing-glyph horiz-adv-x="1318" 
d="M102 1595h101l-101 -100v100zM1217 0h-101l101 100v-100zM614 0h-100l68 68h100zM629 1520l76 75h100l-78 -77q-37 4 -57 4zM809 1499l96 96h101l-127 -127q-35 19 -70 31zM1098 1186l119 119v-101l-107 -106q0 31 -12 88zM414 0h-101l197 197v-101zM1036 1325l181 180
v-100l-144 -143q-14 30 -37 63zM102 893v100l115 115l94 -6zM940 1430l166 165h100l-213 -213q-26 25 -53 48zM1016 0h-101l302 301v-100zM102 1395l201 200h100l-301 -301v101zM774 575q0 57 36 93q12 14 88 67q75 53 116 93q68 66 86 159l117 117v-100l-443 -443v14z
M102 1194l402 401h100l-90 -90q-110 -29 -190 -109t-111 -192l-111 -110v100zM524 535h23l-445 -445v100l422 422v-77zM786 272l431 430v-100l-431 -430v100zM639 1245h16l-553 -553v101l304 303l79 -4q0 59 41 106t113 47zM786 68v4l431 430v-101l-402 -401h-100l67 68h4z
M657 344l560 559v-100l-459 -459h-101zM510 344v-47l-297 -297h-100l534 535h101l-191 -191h-47zM813 1071q0 -41 -28 -77t-86 -82t-74 -62q-47 -45 -74 -111l-449 -448v100l711 711v-31zM102 492v100l633 633q33 -18 53 -47z" />
    <glyph glyph-name="fi" unicode="fi" horiz-adv-x="1130" 
d="M1118 1372l-31 -141h-141l31 141h141zM823 0h-133l197 928h-443l-196 -928h-133l196 928h-174l25 116h174l74 349h383l-25 -117h-250l-49 -232h575z" />
    <glyph glyph-name="fl" unicode="fl" horiz-adv-x="1134" 
d="M518 1276l-49 -232h229l-24 -116h-230l-196 -928h-133l196 928h-174l25 116h174l74 349h708l-295 -1393h-133l271 1276h-443z" />
    <glyph glyph-name=".notdef" horiz-adv-x="1318" 
d="M102 1595h101l-101 -100v100zM1217 0h-101l101 100v-100zM614 0h-100l68 68h100zM629 1520l76 75h100l-78 -77q-37 4 -57 4zM809 1499l96 96h101l-127 -127q-35 19 -70 31zM1098 1186l119 119v-101l-107 -106q0 31 -12 88zM414 0h-101l197 197v-101zM1036 1325l181 180
v-100l-144 -143q-14 30 -37 63zM102 893v100l115 115l94 -6zM940 1430l166 165h100l-213 -213q-26 25 -53 48zM1016 0h-101l302 301v-100zM102 1395l201 200h100l-301 -301v101zM774 575q0 57 36 93q12 14 88 67q75 53 116 93q68 66 86 159l117 117v-100l-443 -443v14z
M102 1194l402 401h100l-90 -90q-110 -29 -190 -109t-111 -192l-111 -110v100zM524 535h23l-445 -445v100l422 422v-77zM786 272l431 430v-100l-431 -430v100zM639 1245h16l-553 -553v101l304 303l79 -4q0 59 41 106t113 47zM786 68v4l431 430v-101l-402 -401h-100l67 68h4z
M657 344l560 559v-100l-459 -459h-101zM510 344v-47l-297 -297h-100l534 535h101l-191 -191h-47zM813 1071q0 -41 -28 -77t-86 -82t-74 -62q-47 -45 -74 -111l-449 -448v100l711 711v-31zM102 492v100l633 633q33 -18 53 -47z" />
    <glyph glyph-name=".null" horiz-adv-x="0" 
 />
    <glyph glyph-name="nonmarkingreturn" horiz-adv-x="681" 
 />
    <glyph glyph-name="NULL" horiz-adv-x="0" 
 />
    <glyph glyph-name="NULL" horiz-adv-x="0" 
 />
    <glyph glyph-name="CR" unicode="&#xd;" horiz-adv-x="0" 
 />
    <glyph glyph-name="space" unicode=" " horiz-adv-x="544" 
 />
    <glyph glyph-name="exclam" unicode="!" horiz-adv-x="534" 
d="M238 324h-60l29 305l162 764h133l-162 -764zM264 174l-37 -174h-174l37 174h174z" />
    <glyph glyph-name="quotedbl" unicode="&#x22;" horiz-adv-x="747" 
d="M674 1423v-536h-115v536h115zM403 1423v-536h-114v536h114z" />
    <glyph glyph-name="numbersign" unicode="#" horiz-adv-x="1239" 
d="M588 938l-170 -483h276l170 483h-276zM1042 455l-22 -107h-254l-123 -348h-113l123 348h-276l-123 -348h-113l123 348h-198l22 107h215l174 483h-239l22 106h254l125 349h113l-125 -349h276l125 349h113l-125 -349h201l-23 -106h-215l-174 -483h237z" />
    <glyph glyph-name="dollar" unicode="$" horiz-adv-x="1175" 
d="M569 791l109 507q-133 -2 -220 -74t-87 -186q-1 -192 198 -247zM514 -31h-16l-35 -164h-103l37 177q-153 30 -239 142t-88 282h133q4 -248 221 -302l117 553l-64 19q-109 31 -177 123t-67 213q0 178 129 295t343 116l34 164h103l-37 -174q137 -29 215 -133t82 -256h-133
q-6 217 -191 264l-112 -524l86 -23q124 -33 198 -117t74 -210q0 -203 -140 -324t-370 -121zM639 633l-115 -539q147 0 254 82q106 82 107 213q0 178 -187 227z" />
    <glyph glyph-name="percent" unicode="%" horiz-adv-x="1640" 
d="M195 0l1167 1393h127l-1167 -1393h-127zM1268 651q-66 0 -110 -38t-56 -101l-60 -270q-4 -16 -4 -43q0 -133 144 -133q66 0 110 38t56 101l59 270q4 16 4 43q0 133 -143 133zM1499 502q-1 -297 -139 -440q-76 -78 -186 -78q-224 1 -224 244q0 285 139 426q77 79 186 79
t167 -61t57 -170zM502 1327q-66 0 -110 -38t-56 -101l-60 -270q-4 -16 -4 -44q0 -133 144 -133q66 0 110 38t56 102l59 270q4 16 4 43q0 133 -143 133zM733 1178q-1 -297 -139 -440q-76 -79 -185 -79q-109 -1 -167 61t-58 184q0 285 139 426q77 79 186 79t167 -61t57 -170z
" />
    <glyph glyph-name="ampersand" unicode="&#x26;" horiz-adv-x="1214" 
d="M70 276q0 140 60 229t187 171l140 92q-45 80 -65 118q-56 112 -56 210q0 152 101 240t245 87q144 1 226 -69q83 -70 83 -200t-107 -232q-107 -101 -249 -195l192 -332h4l74 348h129l-108 -516l131 -227h-156l-70 119q-176 -143 -417 -144q-168 0 -256 81q-88 80 -88 220z
M856 1168q0 62 -47 102q-47 39 -131 39t-144 -49q-60 -48 -60 -148t95 -268q110 68 185 129q102 82 102 195zM201 264q0 -82 63 -128t170 -46q199 0 336 137l-246 426l-205 -135q-45 -31 -63 -51t-27 -53l-24 -117q-4 -25 -4 -33z" />
    <glyph glyph-name="quotesingle" unicode="'" horiz-adv-x="477" 
d="M403 1423v-536h-114v536h114z" />
    <glyph glyph-name="parenleft" unicode="(" horiz-adv-x="616" 
d="M207 242q0 -287 133 -590h-102q-139 309 -140 690q0 307 132 601t382 523h123q-359 -363 -420 -639l-92 -428q-16 -82 -16 -157z" />
    <glyph glyph-name="parenright" unicode=")" horiz-adv-x="616" 
d="M393 877q0 287 -133 589h102q139 -309 140 -690q0 -307 -132 -601t-382 -523h-123q359 363 420 639l92 428q16 82 16 158z" />
    <glyph glyph-name="asterisk" unicode="*" horiz-adv-x="952" 
d="M514 983l-270 -139l-31 57l281 146l-220 145l39 59l226 -151l59 293h70l-60 -289l271 141l30 -57l-282 -146l225 -147l-39 -57l-227 147l-64 -289h-69z" />
    <glyph glyph-name="plus" unicode="+" 
d="M541 469h-465v106h465v469h114v-469h465v-106h-465v-469h-114v469z" />
    <glyph glyph-name="comma" unicode="," horiz-adv-x="507" 
d="M254 174l-37 -174l-135 -174h-74l129 174h-94l37 174h174z" />
    <glyph glyph-name="hyphen" unicode="-" horiz-adv-x="905" 
d="M141 492l29 126h573l-28 -126h-574z" />
    <glyph glyph-name="period" unicode="." horiz-adv-x="507" 
d="M254 174l-37 -174h-174l37 174h174z" />
    <glyph glyph-name="slash" unicode="/" horiz-adv-x="897" 
d="M983 1393l-883 -1393h-147l883 1393h147z" />
    <glyph glyph-name="zero" unicode="0" 
d="M127 406q0 402 137 696q70 147 192 234t279 87q203 -1 305 -117t102 -319q1 -403 -136 -696q-70 -147 -192 -235t-279 -87q-203 0 -306 117q-102 117 -102 320zM246 391q0 -149 80 -225t221 -76t233 84t123 225l113 531q8 41 8 71q0 301 -307 302q-135 0 -227 -83
t-123 -225l-113 -534q-8 -39 -8 -70z" />
    <glyph glyph-name="one" unicode="1" 
d="M127 0l27 121h356l209 987h-359l27 121h358l35 164h133l-270 -1272h318l-25 -121h-809z" />
    <glyph glyph-name="two" unicode="2" 
d="M262 121h703l-27 -121h-899l29 125l731 590q217 176 217 336q0 123 -74 187t-209 65q-135 0 -228 -82t-108 -228h-139q18 195 154 313t337 118q202 0 303 -106q101 -105 101 -265q0 -227 -258 -432l-633 -496v-4z" />
    <glyph glyph-name="three" unicode="3" 
d="M737 653h-307l25 121h311q170 0 197 129l30 146q4 29 4 38q0 103 -82 159q-83 56 -203 56t-209 -73q-89 -74 -104 -193h-139q16 166 148 277t321 111q190 0 300 -93q110 -91 110 -243t-70 -250t-186 -133q73 -53 107 -115t34 -164q0 -215 -131 -336t-358 -121
q-182 0 -310 112q-127 112 -131 314h139q1 -147 93 -226t216 -79t209 57t107 162l33 154q4 29 4 41q0 63 -42 106t-116 43z" />
    <glyph glyph-name="four" unicode="4" 
d="M883 1174l-625 -697h479zM770 0h-133l74 356h-635l26 121l828 916h135l-195 -916h201l-27 -121h-200z" />
    <glyph glyph-name="five" unicode="5" 
d="M680 936q188 0 284 -108t95 -287q0 -258 -136 -415t-386 -157q-182 0 -306 109q-123 109 -127 297h140q2 -131 88 -208t211 -77t218 67t116 175l41 196q6 27 6 52q0 109 -71 172t-183 63q-112 -1 -208 -57q-94 -56 -147 -148h-141l219 783h754l-27 -121h-631l-133 -488
q136 152 324 152z" />
    <glyph glyph-name="six" unicode="6" 
d="M262 397q0 -143 76 -225t222 -82q144 0 234 74q89 74 115 203l25 116q6 29 6 54q0 121 -85 189t-217 67q-132 0 -234 -68t-121 -188l-17 -97q-4 -25 -4 -43zM568 -31q-216 0 -322 116q-106 117 -106 317q-1 393 136 693q70 151 193 239t298 89q175 0 281 -99t113 -267
h-139q-16 242 -285 241q-139 0 -239 -102t-133 -254l-37 -176q156 150 344 150t298 -107q110 -106 109 -289q1 -233 -147 -392t-364 -159z" />
    <glyph glyph-name="seven" unicode="7" 
d="M1210 1272l-858 -1272h-157l858 1272h-740l27 121h897z" />
    <glyph glyph-name="eight" unicode="8" 
d="M227 303q1 -93 89 -153t224 -60t224 55t108 142l27 116q4 16 4 46q0 106 -91 157t-232 51q-276 0 -322 -192l-27 -117q-4 -16 -4 -45zM1001 1106q0 195 -278 197q-125 1 -197 -53t-90 -134l-24 -104q-4 -29 -4 -39q0 -96 74 -146q75 -49 208 -49q242 0 283 185l24 104
q4 29 4 39zM543 -31q-455 0 -455 375q0 150 88 254t246 147q-156 91 -156 273t134 294t328 112t304 -90q111 -88 111 -242t-76 -251t-205 -136q184 -113 185 -295q1 -209 -141 -325t-363 -116z" />
    <glyph glyph-name="nine" unicode="9" 
d="M1008 995q0 143 -76 225t-222 83q-144 0 -234 -74t-116 -203l-24 -117q-6 -29 -6 -53q0 -120 85 -188t217 -68t233 68t122 188l17 96q4 25 4 43zM190 872q0 233 148 392t364 159q216 1 322 -115t106 -316t-34 -372q-128 -651 -593 -651q-175 -1 -281 99t-113 268h139
q16 -242 284 -242q140 0 240 102t133 255l37 176q-156 -150 -344 -150q-188 1 -298 107t-110 288z" />
    <glyph glyph-name="colon" unicode=":" horiz-adv-x="501" 
d="M432 1044l-37 -174h-174l37 174h174zM248 174l-37 -174h-174l37 174h174z" />
    <glyph glyph-name="semicolon" unicode=";" horiz-adv-x="501" 
d="M432 1044l-37 -174h-174l37 174h174zM248 174l-37 -174l-135 -174h-74l129 174h-94l37 174h174z" />
    <glyph glyph-name="less" unicode="&#x3c;" 
d="M1083 1044v-122l-933 -400l933 -399v-123l-1044 449v147z" />
    <glyph glyph-name="equal" unicode="=" 
d="M1120 258h-1044v107h1044v-107zM1120 680h-1044v106h1044v-106z" />
    <glyph glyph-name="greater" unicode="&#x3e;" 
d="M111 922v122l1044 -448v-147l-1044 -449v123l933 399z" />
    <glyph glyph-name="question" unicode="?" horiz-adv-x="1024" 
d="M889 1077q0 105 -71 167q-70 62 -192 62t-206 -77q-84 -78 -101 -203h-133q27 182 152 290t304 108q180 0 280 -92q100 -90 100 -230t-67 -228t-164 -160t-155 -117q-94 -74 -116 -169l-14 -63h-133l12 61q19 100 83 178t164 148t140 104q41 35 79 95t38 126zM487 174
l-36 -174h-175l37 174h174z" />
    <glyph glyph-name="at" unicode="@" horiz-adv-x="1701" 
d="M1380 158h-880l155 729h512l-131 -613h236l172 811h-983l-240 -1126h768l-24 -117h-902l289 1360h1250zM762 770l-105 -496h246l105 496h-246z" />
    <glyph glyph-name="A" unicode="A" horiz-adv-x="1286" 
d="M788 1233l-407 -746h506l-94 746h-5zM950 0l-47 360h-592l-198 -360h-160l776 1393h178l189 -1393h-146z" />
    <glyph glyph-name="B" unicode="B" horiz-adv-x="1314" 
d="M1001 512q0 66 -48 104t-136 37h-457l-108 -520h416q111 0 194 42t99 128l36 172q4 29 4 37zM1133 437q0 -205 -129 -321t-371 -116h-553l295 1393h497q184 0 276 -82q92 -83 91 -227t-71 -244t-207 -123q172 -74 172 -280zM889 1260h-400l-100 -474h432q209 0 240 138
l33 149q4 16 4 37q0 74 -60 112t-149 38z" />
    <glyph glyph-name="C" unicode="C" horiz-adv-x="1290" 
d="M618 -31q-225 0 -351 135t-126 381t70 454t222 346q153 138 360 138q207 -1 329 -109t123 -308h-143q0 137 -82 211q-82 73 -237 73t-267 -98t-145 -258l-84 -408q-6 -35 -6 -63q0 -164 95 -262t247 -99q289 0 374 304h144q-124 -437 -523 -437z" />
    <glyph glyph-name="D" unicode="D" horiz-adv-x="1355" 
d="M733 1260h-244l-237 -1127h303q186 0 314 94t161 254l78 383q8 39 8 66q0 156 -104 243t-279 87zM739 1393q238 0 375 -121t137 -335q0 -417 -159 -668q-82 -129 -222 -199t-329 -70h-461l295 1393h364z" />
    <glyph glyph-name="E" unicode="E" horiz-adv-x="1208" 
d="M80 0l295 1393h872l-28 -133h-730l-102 -484h635l-29 -133h-635l-108 -510h729l-27 -133h-872z" />
    <glyph glyph-name="F" unicode="F" horiz-adv-x="1116" 
d="M80 0l295 1393h803l-29 -133h-660l-102 -484h610l-28 -133h-611l-135 -643h-143z" />
    <glyph glyph-name="G" unicode="G" horiz-adv-x="1355" 
d="M596 -31q-213 1 -333 139t-120 379q0 375 163 647q79 132 208 211t291 78q213 0 338 -106t125 -311h-144q0 285 -325 284q-162 0 -277 -95t-149 -261l-84 -408q-6 -35 -6 -63q0 -164 95 -262q94 -99 244 -99t268 102t152 267l25 119h-356l28 133h500l-154 -723h-135
l23 158q-63 -90 -165 -140t-212 -49z" />
    <glyph glyph-name="H" unicode="H" horiz-adv-x="1417" 
d="M942 0l137 649h-719l-137 -649h-143l295 1393h143l-129 -611h719l129 611h143l-295 -1393h-143z" />
    <glyph glyph-name="I" unicode="I" horiz-adv-x="555" 
d="M80 0l295 1393h143l-295 -1393h-143z" />
    <glyph glyph-name="J" unicode="J" horiz-adv-x="845" 
d="M809 1393l-295 -1393h-592l27 133h448l269 1260h143z" />
    <glyph glyph-name="K" unicode="K" horiz-adv-x="1226" 
d="M518 1393l-295 -1393h-143l295 1393h143zM883 0l-498 741l733 652h201l-766 -670l498 -723h-168z" />
    <glyph glyph-name="L" unicode="L" horiz-adv-x="1009" 
d="M80 0l295 1393h143l-268 -1260h633l-29 -133h-774z" />
    <glyph glyph-name="M" unicode="M" horiz-adv-x="1687" 
d="M1460 1204l-676 -1204h-129l-172 1204h-8l-256 -1204h-139l295 1393h213l170 -1162h8l649 1162h236l-295 -1393h-146l258 1204h-8z" />
    <glyph glyph-name="N" unicode="N" horiz-adv-x="1417" 
d="M588 1393l381 -1231h8l262 1231h141l-295 -1393h-213l-383 1233h-8l-260 -1233h-141l295 1393h213z" />
    <glyph glyph-name="O" unicode="O" horiz-adv-x="1439" 
d="M659 102q170 0 293 98t158 265l84 405q8 35 8 72q0 162 -104 255t-274 93t-294 -97q-123 -97 -157 -265l-84 -406q-8 -35 -8 -71q0 -161 104 -255t274 -94zM1339 918q0 -393 -168 -663q-82 -132 -216 -209t-306 -77q-242 0 -374 132t-132 384q0 549 303 804
q160 134 395 134q235 -1 367 -131t131 -374z" />
    <glyph glyph-name="P" unicode="P" horiz-adv-x="1230" 
d="M748 664q246 0 280 159l49 226q6 25 6 43q0 74 -56 120t-159 48h-379l-124 -596h383zM725 530h-389l-113 -530h-143l295 1393h471q182 0 276 -88t95 -248q0 -251 -126 -389t-366 -138z" />
    <glyph glyph-name="Q" unicode="Q" horiz-adv-x="1464" 
d="M659 102q170 0 293 98t158 265l84 405q8 35 8 72q0 162 -104 255t-274 93t-294 -97q-123 -97 -157 -265l-84 -406q-8 -35 -8 -71q0 -161 104 -255t274 -94zM636 -31q-228 0 -361 132q-132 132 -132 384q0 549 303 804q160 134 395 134t367 -131t131 -374
q0 -467 -219 -732l156 -186l-111 -90l-147 178q-154 -119 -382 -119z" />
    <glyph glyph-name="R" unicode="R" horiz-adv-x="1259" 
d="M766 713q112 0 186 49t92 133l33 152q6 25 6 47q0 76 -59 120t-145 46h-390l-114 -547h391zM850 1393q178 0 272 -86t95 -244q0 -215 -118 -339t-323 -140l228 -584h-156l-213 580h-289l-123 -580h-143l295 1393h475z" />
    <glyph glyph-name="S" unicode="S" horiz-adv-x="1247" 
d="M1034 1014q0 136 -87 206t-239 70t-236 -70q-85 -70 -85 -186q0 -166 197 -227l213 -66q145 -45 222 -134t77 -201q0 -203 -150 -320t-379 -117t-364 113t-135 334h143q0 -160 99 -237t258 -77t268 76t108 211q0 76 -48 134t-146 87l-215 62q-299 86 -299 356
q0 174 135 285t347 111t336 -107q124 -106 124 -303h-144z" />
    <glyph glyph-name="T" unicode="T" horiz-adv-x="1056" 
d="M182 1260l29 133h975l-29 -133h-416l-266 -1260h-143l266 1260h-416z" />
    <glyph glyph-name="U" unicode="U" horiz-adv-x="1392" 
d="M166 416q0 63 16 141l176 836h144l-187 -879q-10 -43 -10 -96q0 -156 85 -236t239 -80q321 1 397 355l199 936h141l-199 -938q-101 -486 -537 -486q-220 0 -342 116t-122 331z" />
    <glyph glyph-name="V" unicode="V" horiz-adv-x="1255" 
d="M399 1393l121 -1229h8l635 1229h168l-745 -1393h-183l-153 1393h149z" />
    <glyph glyph-name="W" unicode="W" horiz-adv-x="1890" 
d="M416 1393l47 -1221h8l530 1221h197l21 -1221h8l557 1221h172l-668 -1393h-203l-18 1167h-8l-520 -1167h-203l-78 1393h158z" />
    <glyph glyph-name="X" unicode="X" horiz-adv-x="1179" 
d="M-66 0l601 727l-269 666h154l221 -555l453 555h178l-574 -697l279 -696h-150l-231 582l-479 -582h-183z" />
    <glyph glyph-name="Y" unicode="Y" horiz-adv-x="1177" 
d="M500 553l-281 840h150l223 -697l520 697h170l-639 -840l-117 -553h-143z" />
    <glyph glyph-name="Z" unicode="Z" horiz-adv-x="1177" 
d="M1223 1393l-29 -133l-997 -1127h774l-29 -133h-958l28 133l998 1127h-746l29 133h930z" />
    <glyph glyph-name="bracketleft" unicode="[" horiz-adv-x="673" 
d="M381 1466h379l-25 -110h-256l-338 -1594h256l-24 -110h-379z" />
    <glyph glyph-name="backslash" unicode="\" horiz-adv-x="868" 
d="M565 0l-344 1393h125l344 -1393h-125z" />
    <glyph glyph-name="bracketright" unicode="]" horiz-adv-x="673" 
d="M285 1466h379l-388 -1814h-376l22 110h256l338 1594h-256z" />
    <glyph glyph-name="asciicircum" unicode="^" 
d="M147 598l424 795h115l424 -795h-131l-352 657l-346 -657h-134z" />
    <glyph glyph-name="underscore" unicode="_" horiz-adv-x="1308" 
d="M12 -195v82h963v-82h-963z" />
    <glyph glyph-name="grave" unicode="`" horiz-adv-x="585" 
d="M217 1423l131 -249h-104l-170 249h143z" />
    <glyph glyph-name="a" unicode="a" horiz-adv-x="1191" 
d="M612 1069q236 0 326 -195l35 170h133l-221 -1044h-133l32 152q-115 -176 -319 -177q-170 1 -267 101t-98 295q0 299 138 499t374 199zM891 698q0 123 -79 189q-79 65 -201 65t-208 -72t-108 -186l-64 -303q-6 -27 -6 -53q0 -98 69 -172t197 -74t222 84t125 230l41 194
q12 51 12 98z" />
    <glyph glyph-name="b" unicode="b" horiz-adv-x="1204" 
d="M698 1069q172 0 272 -98t101 -297q0 -297 -137 -498t-375 -201q-117 -1 -207 61t-123 165l-41 -201h-133l295 1393h133l-106 -500q117 176 321 176zM279 377q1 -139 83 -212t202 -73t204 73t109 185l63 305q6 27 6 54q0 96 -66 170q-67 73 -198 73t-229 -85t-129 -228
l-35 -164q-10 -43 -10 -98z" />
    <glyph glyph-name="c" unicode="c" horiz-adv-x="1062" 
d="M963 713h-134q0 119 -63 179q-62 60 -172 60t-192 -63t-105 -182l-66 -312q-6 -27 -6 -53q0 -114 66 -182t180 -68q221 0 295 248h133q-113 -365 -434 -365q-174 1 -269 99t-96 297q0 299 133 499t371 199q174 0 266 -99t93 -257z" />
    <glyph glyph-name="d" unicode="d" horiz-adv-x="1200" 
d="M610 1069q117 0 207 -61t123 -164l115 549h133l-295 -1393h-133l33 152q-117 -176 -322 -177q-172 1 -272 99t-101 297q0 297 138 497t374 201zM893 668q0 139 -84 212q-84 72 -204 72t-204 -72t-108 -186l-64 -303q-6 -27 -6 -53q0 -96 67 -171q68 -75 198 -75t229 84
q98 85 129 230l35 163q12 53 12 99z" />
    <glyph glyph-name="e" unicode="e" horiz-adv-x="1103" 
d="M102 391q0 287 136 483t378 195q180 0 278 -111t99 -282q0 -72 -30 -195h-713l-17 -88q-6 -29 -6 -53q0 -116 72 -182t190 -66q219 0 297 230h134q-60 -176 -164 -262t-282 -85q-178 -1 -274 103q-98 104 -98 313zM866 705q0 115 -74 181t-189 66q-117 0 -197 -65
t-107 -182l-23 -107h574l10 49q6 31 6 58z" />
    <glyph glyph-name="f" unicode="f" horiz-adv-x="669" 
d="M518 1276l-49 -232h229l-24 -116h-230l-196 -928h-133l196 928h-174l25 116h174l74 349h383l-25 -117h-250z" />
    <glyph glyph-name="g" unicode="g" horiz-adv-x="1202" 
d="M895 668q0 139 -84 212q-84 72 -204 72t-204 -72t-108 -186l-64 -303q-6 -27 -6 -53q0 -96 67 -171q68 -75 198 -75t229 84q98 85 129 230l35 163q12 53 12 99zM409 -399q-173 0 -276 77q-102 78 -106 240h133q10 -203 274 -203q123 0 212 76t122 234l27 127
q-117 -176 -322 -177q-172 1 -272 99t-101 297q0 297 138 497t374 201q117 0 207 -61t123 -164l41 200h133l-223 -1052q-43 -201 -177 -296t-307 -95z" />
    <glyph glyph-name="h" unicode="h" horiz-adv-x="1148" 
d="M715 1069q141 0 216 -79t75 -206q0 -41 -11 -96l-145 -688h-133l143 672q10 57 10 96q0 184 -186 184q-136 0 -236 -101t-131 -247l-129 -604h-133l295 1393h133l-110 -521q115 197 342 197z" />
    <glyph glyph-name="i" unicode="i" horiz-adv-x="495" 
d="M483 1372l-30 -141h-142l31 141h141zM188 0h-133l221 1044h134z" />
    <glyph glyph-name="j" unicode="j" horiz-adv-x="520" 
d="M508 1372l-31 -141h-141l31 141h141zM29 -231l272 1275h133l-297 -1392h-373l25 117h240z" />
    <glyph glyph-name="k" unicode="k" horiz-adv-x="1013" 
d="M483 1393l-295 -1393h-133l295 1393h133zM686 0l-371 584l523 460h190l-555 -479l361 -565h-148z" />
    <glyph glyph-name="l" unicode="l" horiz-adv-x="503" 
d="M193 0h-134l295 1393h133z" />
    <glyph glyph-name="m" unicode="m" horiz-adv-x="1720" 
d="M1307 1069q127 0 199 -79t71 -206q0 -45 -10 -96l-146 -688h-133l144 676q10 51 10 92q0 184 -166 184q-121 0 -216 -102t-126 -244l-129 -606h-133l143 676q10 51 10 92q0 184 -166 184q-121 0 -216 -102t-126 -244l-129 -606h-133l221 1044h134l-37 -172
q115 197 319 197q114 1 180 -61t84 -164q121 225 351 225z" />
    <glyph glyph-name="n" unicode="n" horiz-adv-x="1148" 
d="M715 1069q141 0 216 -79t75 -206q0 -41 -11 -96l-145 -688h-133l143 672q10 57 10 96q0 184 -188 184q-138 0 -236 -101t-129 -247l-129 -604h-133l221 1044h134l-37 -172q115 197 342 197z" />
    <glyph glyph-name="o" unicode="o" horiz-adv-x="1155" 
d="M1024 678q0 -418 -234 -606q-122 -98 -303 -97t-283 101t-104 294q0 194 56 350t179 252q122 97 303 97q182 0 284 -100t102 -291zM901 702q0 121 -79 186q-79 64 -205 64q-127 0 -211 -66t-109 -179l-68 -320q-6 -25 -6 -45q0 -122 79 -186t205 -64q127 0 211 66
t109 180l68 319q6 25 6 45z" />
    <glyph glyph-name="p" unicode="p" horiz-adv-x="1202" 
d="M698 1069q172 0 272 -98t101 -297q0 -297 -137 -498t-375 -201q-117 -1 -207 61t-123 165l-114 -549h-133l294 1392h134l-33 -151q117 176 321 176zM279 377q1 -139 83 -212t202 -73t204 73t109 185l63 305q6 27 6 54q0 96 -66 170q-67 73 -198 73t-229 -85t-129 -228
l-35 -164q-10 -43 -10 -98z" />
    <glyph glyph-name="q" unicode="q" horiz-adv-x="1200" 
d="M610 1069q117 0 207 -61t123 -164l41 200h133l-295 -1392h-133l107 500q-117 -176 -322 -177q-172 1 -272 99t-101 297q0 297 138 497t374 201zM893 668q0 139 -84 212q-84 72 -204 72t-204 -72t-108 -186l-64 -303q-6 -27 -6 -53q0 -96 67 -171q68 -75 198 -75t229 84
q98 85 129 230l35 163q12 53 12 99z" />
    <glyph glyph-name="r" unicode="r" horiz-adv-x="702" 
d="M55 0l221 1044h461l-24 -116h-328l-197 -928h-133z" />
    <glyph glyph-name="s" unicode="s" horiz-adv-x="1028" 
d="M856 305q0 -154 -117 -242t-299 -88t-290 87t-107 245v23h133v-23q0 -109 78 -162t193 -53t195 53t79 136q0 117 -186 176l-148 45q-211 68 -211 256q0 139 104 225t274 86q169 0 265 -81t96 -222v-23h-133v21q0 96 -65 142q-66 46 -169 46t-170 -45t-67 -129
q0 -119 125 -160l164 -51q256 -80 256 -262z" />
    <glyph glyph-name="t" unicode="t" horiz-adv-x="702" 
d="M444 928l-172 -811h250l-24 -117h-383l196 928h-174l25 116h174l74 349h133l-74 -349h250l-25 -116h-250z" />
    <glyph glyph-name="u" unicode="u" horiz-adv-x="1138" 
d="M397 -25q-139 0 -213 79t-73 206q0 41 10 96l145 688h133l-143 -671q-10 -57 -10 -97q0 -184 184 -184q134 0 232 102t129 246l129 604h133l-222 -1044h-133l37 172q-113 -197 -338 -197z" />
    <glyph glyph-name="v" unicode="v" horiz-adv-x="1019" 
d="M297 1044l111 -849h8l473 849h153l-596 -1044h-137l-153 1044h141z" />
    <glyph glyph-name="w" unicode="w" horiz-adv-x="1511" 
d="M299 1044l59 -849h9l378 849h185l41 -849h8l393 849h150l-500 -1044h-168l-39 879h-8l-393 -879h-168l-82 1044h135z" />
    <glyph glyph-name="x" unicode="x" horiz-adv-x="1013" 
d="M-66 0l486 557l-225 487h147l172 -387l332 387h170l-436 -499l251 -545h-145l-199 440l-378 -440h-175z" />
    <glyph glyph-name="y" unicode="y" horiz-adv-x="1048" 
d="M299 1044l131 -849h8l477 849h158l-801 -1392h-323l26 117h222l129 231l-162 1044h135z" />
    <glyph glyph-name="z" unicode="z" horiz-adv-x="960" 
d="M176 117h578l-25 -117h-749l24 117l729 811h-538l24 116h711l-25 -116z" />
    <glyph glyph-name="braceleft" unicode="{" horiz-adv-x="747" 
d="M250 502h-195l25 114h192zM250 502h123l-158 -740h256l-25 -110h-378zM272 616l183 850h379l-25 -110h-256l-156 -740h-125z" />
    <glyph glyph-name="bar" unicode="|" horiz-adv-x="647" 
d="M283 -348v2089h123v-2089h-123z" />
    <glyph glyph-name="braceright" unicode="}" horiz-adv-x="745" 
d="M481 616h195l-25 -114h-192zM481 616h-123l158 740h-256l25 110h379zM459 502l-183 -850h-378l24 110h256l156 740h125z" />
    <glyph glyph-name="asciitilde" unicode="~" 
d="M989 594h113q0 -98 -71 -158t-179 -59q-120 0 -288 95q-78 44 -85 48l-28 14q-69 31 -119 31q-51 1 -87 -31t-36 -85h-113q0 98 71 157q71 60 158 60t143 -20t145 -67q89 -46 102 -54q12 -7 55 -26q51 -22 99 -22t84 32t36 85z" />
    <glyph glyph-name="uni00A0" unicode="&#xa0;" horiz-adv-x="544" 
 />
    <glyph glyph-name="exclamdown" unicode="&#xa1;" horiz-adv-x="505" 
d="M252 721h59l-28 -305l-162 -764h-133l162 764zM225 870l37 174h174l-37 -174h-174z" />
    <glyph glyph-name="cent" unicode="&#xa2;" 
d="M911 713q0 190 -163 231l-181 -852q207 6 281 248h133q-113 -365 -438 -365l-35 -163h-102l36 174q-260 55 -260 385q0 295 129 493t361 203l35 166h102l-37 -172q133 -25 203 -119t69 -229h-133zM307 342q0 -193 160 -240l180 848q-98 -6 -171 -69t-97 -174l-66 -312
q-6 -27 -6 -53z" />
    <glyph glyph-name="sterling" unicode="&#xa3;" 
d="M1071 1102q0 194 -234 194q-118 0 -191 -70t-95 -182l-55 -256h331l-24 -120h-332l-117 -547h623l-25 -121h-940l25 121h184l117 547h-184l24 120h184l56 263q35 162 143 267q109 105 280 105t267 -91t96 -226q0 -33 -6 -72h-133q6 37 6 68z" />
    <glyph glyph-name="currency" unicode="&#xa4;" 
d="M254 598q0 -150 105 -255t255 -105t255 105t106 255t-105 255t-256 105t-255 -105t-105 -255zM614 127q-164 0 -290 100l-111 -110l-80 80l111 110q-100 127 -101 291q0 164 101 291l-111 110l80 80l111 -110q130 100 290 100t291 -100l111 110l80 -80l-111 -110
q100 -131 100 -291t-100 -291l111 -110l-80 -80l-111 110q-127 -100 -291 -100z" />
    <glyph glyph-name="yen" unicode="&#xa5;" 
d="M143 365l23 100h348l29 141h-348l22 101h270l-196 686h143l189 -686l485 686h160l-494 -686h270l-22 -101h-346l-29 -141h346l-22 -100h-346l-76 -365h-133l76 365h-349z" />
    <glyph glyph-name="brokenbar" unicode="&#xa6;" horiz-adv-x="667" 
d="M293 887v854h123v-854h-123zM293 -348v854h123v-854h-123z" />
    <glyph glyph-name="section" unicode="&#xa7;" horiz-adv-x="1179" 
d="M399 784l-110 -522h522l111 522h-523zM784 143h-655l266 1250h787l-25 -119h-653l-80 -371h655l-264 -1249h-790l24 119h658z" />
    <glyph glyph-name="dieresis" unicode="&#xa8;" horiz-adv-x="505" 
d="M477 1352l-31 -140h-139l31 140h139zM199 1352l-31 -140h-139l30 140h140z" />
    <glyph glyph-name="copyright" unicode="&#xa9;" horiz-adv-x="1738" 
d="M707 799v-205q0 -84 52 -137t129 -53t129 42q52 43 58 125h94q-12 -121 -90 -184t-186 -63q-141 0 -215 101t-74 271t76 272t200 101t200 -65t83 -179h-94q-11 164 -180 164q-76 0 -129 -51t-53 -139zM254 690q0 -264 187 -451t451 -187t454 186q188 188 188 452
t-188 452t-452 189q-264 0 -453 -188q-187 -189 -187 -453zM164 696q0 301 213 514t514 213t514 -213t213 -514t-213 -514t-514 -213t-514 213t-213 514z" />
    <glyph glyph-name="ordfeminine" unicode="&#xaa;" horiz-adv-x="790" 
d="M402 664q-196 0 -197 220q0 114 66 229q67 116 191 116t169 -94l18 82h96l-116 -541h-92l14 74q-55 -86 -149 -86zM606 1052q0 38 -38 69q-38 30 -92 30t-94 -34t-50 -87l-33 -158q-4 -20 -4 -26q0 -45 33 -75t90 -30q56 0 102 40t60 108l20 98q6 27 6 65z" />
    <glyph glyph-name="guillemotleft" unicode="&#xab;" horiz-adv-x="899" 
d="M664 145h-95l-143 422l287 340h110l-274 -358zM356 145h-94l-143 422l287 340h110l-274 -358z" />
    <glyph glyph-name="logicalnot" unicode="&#xac;" 
d="M1012 246v434h-930v106h1044v-540h-114z" />
    <glyph glyph-name="uni00AD" unicode="&#xad;" horiz-adv-x="905" 
d="M141 492l29 126h573l-28 -126h-574z" />
    <glyph glyph-name="registered" unicode="&#xae;" horiz-adv-x="1738" 
d="M254 690q0 -264 187 -451t451 -187t454 186q188 188 188 452t-188 452t-452 189q-264 0 -453 -188q-187 -189 -187 -453zM743 700h236q37 0 56 23t20 57v109q0 76 -76 76h-236v-265zM743 621v-273h-92v696h299q100 0 154 -54t53 -156q0 -180 -156 -207l162 -279h-106
l-152 273h-162zM164 696q0 301 213 514t514 213t514 -213t213 -514t-213 -514t-514 -213t-514 213t-213 514z" />
    <glyph glyph-name="macron" unicode="&#xaf;" horiz-adv-x="626" 
d="M8 1268l19 88h591l-18 -88h-592z" />
    <glyph glyph-name="degree" unicode="&#xb0;" horiz-adv-x="833" 
d="M305 1137q0 -92 65 -157q64 -65 156 -65t157 65t65 157q0 93 -65 157t-157 64t-156 -64t-65 -157zM240 1137q0 119 84 203t202 83q118 0 203 -84q84 -85 84 -203t-84 -202t-203 -84q-118 0 -202 84t-84 203z" />
    <glyph glyph-name="plusminus" unicode="&#xb1;" 
d="M1094 106v-106h-1045v106h1045zM514 575h-465v107h465v362h115v-362h465v-107h-465v-362h-115v362z" />
    <glyph glyph-name="twosuperior" unicode="&#xb2;" horiz-adv-x="811" 
d="M342 762h340l-20 -86h-486l21 82l364 295q55 45 84 83t29 87t-34 77t-93 27q-59 0 -103 -37t-53 -108h-100q8 100 82 164t182 63q107 0 163 -53t56 -137q0 -111 -141 -224l-291 -229v-4z" />
    <glyph glyph-name="threesuperior" unicode="&#xb3;" horiz-adv-x="784" 
d="M528 1327q-63 0 -103 -34t-48 -89h-101q8 88 81 146t175 59q102 0 163 -48t61 -127t-37 -127t-98 -67q75 -47 75 -149t-72 -167t-186 -65q-114 1 -179 59t-64 167h100q0 -72 40 -108t105 -36q121 0 142 101l16 73q2 8 2 30t-19 39q-20 17 -51 17h-153l16 86h152
q76 0 92 62l14 61l2 21q0 96 -125 96z" />
    <glyph glyph-name="acute" unicode="&#xb4;" horiz-adv-x="581" 
d="M231 1174l189 249h155l-235 -249h-109z" />
    <glyph glyph-name="mu" unicode="&#xb5;" horiz-adv-x="1210" 
d="M440 -25q-139 0 -211 93l-90 -416h-133l297 1392h133l-143 -671q-10 -57 -10 -97q0 -184 184 -184q135 0 232 102t128 246l129 604h134l-222 -1044h-133l37 172q-113 -197 -332 -197z" />
    <glyph glyph-name="paragraph" unicode="&#xb6;" horiz-adv-x="1187" 
d="M281 1393h854l-336 -1577h-123l313 1470h-260l-313 -1470h-123l196 921h-348z" />
    <glyph glyph-name="periodcentered" unicode="&#xb7;" horiz-adv-x="505" 
d="M342 612l-37 -174h-174l37 174h174z" />
    <glyph glyph-name="cedilla" unicode="&#xb8;" horiz-adv-x="1652" 
d="M606 -297l23 113h123l24 112h123l-47 -225h-246z" />
    <glyph glyph-name="onesuperior" unicode="&#xb9;" horiz-adv-x="606" 
d="M598 1393l-152 -717h-100l115 545h-228l19 86h227l19 86h100z" />
    <glyph glyph-name="ordmasculine" unicode="&#xba;" horiz-adv-x="759" 
d="M610 1044q0 106 -128 106t-152 -110l-35 -168q-2 -10 -2 -24q-1 -106 127 -106t153 110l35 168q2 10 2 24zM418 664q-100 0 -157 53q-56 53 -56 151q0 150 75 255t190 105q116 0 172 -52q56 -53 56 -152q0 -150 -74 -255t-206 -105z" />
    <glyph glyph-name="guillemotright" unicode="&#xbb;" horiz-adv-x="899" 
d="M207 907h94l143 -422l-286 -340h-111l275 359zM514 907h94l144 -422l-287 -340h-111l275 359z" />
    <glyph glyph-name="onequarter" unicode="&#xbc;" horiz-adv-x="1484" 
d="M100 0l1168 1393h127l-1168 -1393h-127zM1165 553l-276 -295h217l63 295h-4zM1153 0h-100l37 172h-326l18 84l430 461h95l-99 -459h115l-18 -86h-115zM580 1393l-152 -717h-100l114 545h-227l18 86h228l18 86h101z" />
    <glyph glyph-name="onehalf" unicode="&#xbd;" horiz-adv-x="1529" 
d="M100 0l1168 1393h127l-1168 -1393h-127zM971 86h340l-21 -86h-485l20 82l365 295q55 45 84 83t29 87t-34 77t-93 28q-60 0 -104 -38q-44 -37 -52 -108h-100q8 100 81 164q75 63 183 63t164 -53t55 -137q0 -111 -141 -224l-291 -229v-4zM582 1393l-152 -717h-100l114 545
h-227l19 86h227l18 86h101z" />
    <glyph glyph-name="threequarters" unicode="&#xbe;" horiz-adv-x="1572" 
d="M193 0l1167 1393h127l-1168 -1393h-126zM502 1327q-64 0 -104 -34t-48 -89h-100q8 88 81 146t176 59q103 0 163 -48t59 -127q0 -152 -135 -194q76 -47 76 -149t-73 -167t-187 -65q-114 1 -178 59q-65 58 -64 167h100q0 -72 40 -108t106 -36q119 0 141 101l16 73q2 8 2 30
t-19 39t-50 17h-154l17 86h151q76 0 92 62l15 61l2 21q0 96 -125 96zM1253 553l-276 -295h217l63 295h-4zM1241 0h-100l37 172h-326l18 84l430 461h95l-99 -459h115l-18 -86h-115z" />
    <glyph glyph-name="questiondown" unicode="&#xbf;" horiz-adv-x="1007" 
d="M94 -33q0 -105 71 -167t193 -62t205 78q84 78 101 202h133q-27 -182 -152 -290t-304 -107q-179 0 -280 91q-100 90 -100 230t67 228t183 173t162 130q47 45 64 75t26 68l14 64h133l-12 -62q-36 -179 -246 -325q-100 -69 -141 -105t-79 -95q-38 -60 -38 -126zM496 870
l36 174h175l-37 -174h-174z" />
    <glyph glyph-name="Agrave" unicode="&#xc0;" horiz-adv-x="1286" 
d="M831 1778l132 -250h-105l-170 250h143zM788 1233l-407 -746h506l-94 746h-5zM950 0l-47 360h-592l-198 -360h-160l776 1393h178l189 -1393h-146z" />
    <glyph glyph-name="Aacute" unicode="&#xc1;" horiz-adv-x="1286" 
d="M711 1522l188 250h156l-236 -250h-108zM788 1233l-407 -746h506l-94 746h-5zM950 0l-47 360h-592l-198 -360h-160l776 1393h178l189 -1393h-146z" />
    <glyph glyph-name="Acircumflex" unicode="&#xc2;" horiz-adv-x="1286" 
d="M852 1698l-170 -176h-107l220 250h123l155 -250h-96zM788 1233l-407 -746h506l-94 746h-5zM950 0l-47 360h-592l-198 -360h-160l776 1393h178l189 -1393h-146z" />
    <glyph glyph-name="Atilde" unicode="&#xc3;" horiz-adv-x="1286" 
d="M960 1563q-64 0 -155 49q-92 49 -127 49q-82 0 -96 -78h-74q14 80 63 121t113 41t158 -49q92 -49 125 -49q80 -1 96 77h74q-13 -80 -63 -120t-114 -41zM788 1233l-407 -746h506l-94 746h-5zM950 0l-47 360h-592l-198 -360h-160l776 1393h178l189 -1393h-146z" />
    <glyph glyph-name="Adieresis" unicode="&#xc4;" horiz-adv-x="1286" 
d="M1075 1700l-31 -139h-139l31 139h139zM797 1700l-31 -139h-139l30 139h140zM788 1233l-407 -746h506l-94 746h-5zM950 0l-47 360h-592l-198 -360h-160l776 1393h178l189 -1393h-146z" />
    <glyph glyph-name="Aring" unicode="&#xc5;" horiz-adv-x="1286" 
d="M958 1681q0 45 -29 76q-30 31 -77 31t-78 -32t-31 -76t31 -76t78 -31q46 -1 76 31t30 77zM1034 1681q0 -71 -50 -123t-132 -52t-132 52t-50 124t50 123q50 53 132 53t132 -52t50 -125zM788 1233l-407 -746h506l-94 746h-5zM950 0l-47 360h-592l-198 -360h-160l776 1393
h178l189 -1393h-146z" />
    <glyph glyph-name="AE" unicode="&#xc6;" horiz-adv-x="1925" 
d="M944 1260l-538 -771h514l163 771h-139zM872 1393h1092l-29 -133h-708l-103 -484h615l-29 -133h-614l-107 -510h709l-29 -133h-852l76 362h-576l-254 -362h-174z" />
    <glyph glyph-name="Ccedilla" unicode="&#xc7;" horiz-adv-x="1290" 
d="M618 -31q-225 0 -351 135t-126 381t70 454t222 346q153 138 360 138q207 -1 329 -109t123 -308h-143q0 137 -82 211q-82 73 -237 73t-267 -98t-145 -258l-84 -408q-6 -35 -6 -63q0 -164 95 -262t247 -99q289 0 374 304h144q-124 -437 -523 -437zM334 -297l22 113h123
l25 112h123l-47 -225h-246z" />
    <glyph glyph-name="Egrave" unicode="&#xc8;" horiz-adv-x="1208" 
d="M727 1772l131 -250h-104l-170 250h143zM80 0l295 1393h872l-28 -133h-730l-102 -484h635l-29 -133h-635l-108 -510h729l-27 -133h-872z" />
    <glyph glyph-name="Eacute" unicode="&#xc9;" horiz-adv-x="1208" 
d="M741 1522l189 250h155l-235 -250h-109zM80 0l295 1393h872l-28 -133h-730l-102 -484h635l-29 -133h-635l-108 -510h729l-27 -133h-872z" />
    <glyph glyph-name="Ecircumflex" unicode="&#xca;" horiz-adv-x="1208" 
d="M854 1698l-170 -176h-106l219 250h123l155 -250h-96zM80 0l295 1393h872l-28 -133h-730l-102 -484h635l-29 -133h-635l-108 -510h729l-27 -133h-872z" />
    <glyph glyph-name="Edieresis" unicode="&#xcb;" horiz-adv-x="1208" 
d="M1057 1700l-31 -139h-139l31 139h139zM778 1700l-30 -139h-140l31 139h139zM80 0l295 1393h872l-28 -133h-730l-102 -484h635l-29 -133h-635l-108 -510h729l-27 -133h-872z" />
    <glyph glyph-name="Igrave" unicode="&#xcc;" horiz-adv-x="555" 
d="M371 1772l131 -250h-105l-170 250h144zM80 0l295 1393h143l-295 -1393h-143z" />
    <glyph glyph-name="Iacute" unicode="&#xcd;" horiz-adv-x="555" 
d="M397 1522l189 250h155l-235 -250h-109zM80 0l295 1393h143l-295 -1393h-143z" />
    <glyph glyph-name="Icircumflex" unicode="&#xce;" horiz-adv-x="555" 
d="M492 1698l-170 -176h-107l219 250h123l156 -250h-97zM80 0l295 1393h143l-295 -1393h-143z" />
    <glyph glyph-name="Idieresis" unicode="&#xcf;" horiz-adv-x="555" 
d="M713 1700l-31 -139h-139l30 139h140zM434 1700l-31 -139h-139l31 139h139zM80 0l295 1393h143l-295 -1393h-143z" />
    <glyph glyph-name="Eth" unicode="&#xd0;" horiz-adv-x="1361" 
d="M561 133q186 0 315 94q128 94 160 254l78 383q8 39 8 66q0 156 -103 242t-280 88h-243l-109 -510h350l-22 -107h-350l-107 -510h303zM745 1393q238 0 375 -121t137 -335q-1 -214 -39 -377q-132 -560 -671 -560h-461l135 643h-147l22 107h148l137 643h364z" />
    <glyph glyph-name="Ntilde" unicode="&#xd1;" horiz-adv-x="1417" 
d="M1070 1563q-64 0 -158 49t-126 49q-82 0 -96 -78h-74q14 80 64 121t112 41q64 0 156 -49t127 -49q80 -1 96 77h74q-14 -80 -63 -120q-48 -40 -112 -41zM588 1393l381 -1231h8l262 1231h141l-295 -1393h-213l-383 1233h-8l-260 -1233h-141l295 1393h213z" />
    <glyph glyph-name="Ograve" unicode="&#xd2;" horiz-adv-x="1439" 
d="M780 1772l131 -250h-104l-170 250h143zM659 102q170 0 293 98t158 265l84 405q8 35 8 72q0 162 -104 255t-274 93t-294 -97q-123 -97 -157 -265l-84 -406q-8 -35 -8 -71q0 -161 104 -255t274 -94zM1339 918q0 -393 -168 -663q-82 -132 -216 -209t-306 -77
q-242 0 -374 132t-132 384q0 549 303 804q160 134 395 134q235 -1 367 -131t131 -374z" />
    <glyph glyph-name="Oacute" unicode="&#xd3;" horiz-adv-x="1439" 
d="M815 1522l189 250h155l-235 -250h-109zM659 102q170 0 293 98t158 265l84 405q8 35 8 72q0 162 -104 255t-274 93t-294 -97q-123 -97 -157 -265l-84 -406q-8 -35 -8 -71q0 -161 104 -255t274 -94zM1339 918q0 -393 -168 -663q-82 -132 -216 -209t-306 -77
q-242 0 -374 132t-132 384q0 549 303 804q160 134 395 134q235 -1 367 -131t131 -374z" />
    <glyph glyph-name="Ocircumflex" unicode="&#xd4;" horiz-adv-x="1439" 
d="M905 1698l-170 -176h-106l219 250h123l155 -250h-96zM659 102q170 0 293 98t158 265l84 405q8 35 8 72q0 162 -104 255t-274 93t-294 -97q-123 -97 -157 -265l-84 -406q-8 -35 -8 -71q0 -161 104 -255t274 -94zM1339 918q0 -393 -168 -663q-82 -132 -216 -209t-306 -77
q-242 0 -374 132t-132 384q0 549 303 804q160 134 395 134q235 -1 367 -131t131 -374z" />
    <glyph glyph-name="Otilde" unicode="&#xd5;" horiz-adv-x="1439" 
d="M1072 1563q-64 0 -156 49t-125 49q-82 0 -97 -78h-73q14 80 63 121q48 41 112 41t156 -49t127 -49q81 -1 97 77h73q-14 -80 -63 -120q-50 -40 -114 -41zM659 102q170 0 293 98t158 265l84 405q8 35 8 72q0 162 -104 255t-274 93t-294 -97q-123 -97 -157 -265l-84 -406
q-8 -35 -8 -71q0 -161 104 -255t274 -94zM1339 918q0 -393 -168 -663q-82 -132 -216 -209t-306 -77q-242 0 -374 132t-132 384q0 549 303 804q160 134 395 134q235 -1 367 -131t131 -374z" />
    <glyph glyph-name="Odieresis" unicode="&#xd6;" horiz-adv-x="1439" 
d="M1114 1700l-31 -139h-139l31 139h139zM836 1700l-31 -139h-139l30 139h140zM659 102q170 0 293 98t158 265l84 405q8 35 8 72q0 162 -104 255t-274 93t-294 -97q-123 -97 -157 -265l-84 -406q-8 -35 -8 -71q0 -161 104 -255t274 -94zM1339 918q0 -393 -168 -663
q-82 -132 -216 -209t-306 -77q-242 0 -374 132t-132 384q0 549 303 804q160 134 395 134q235 -1 367 -131t131 -374z" />
    <glyph glyph-name="multiply" unicode="&#xd7;" 
d="M676 522l440 -440l-82 -82l-438 438l-440 -440l-82 84l440 440l-440 441l82 81l440 -440l440 440l80 -81z" />
    <glyph glyph-name="Oslash" unicode="&#xd8;" horiz-adv-x="1439" 
d="M674 102q156 0 278 98q123 98 158 265l84 405q8 35 8 72q0 127 -72 219l-706 -997q94 -62 250 -62zM281 451q0 -139 75 -228l709 1000q-96 67 -254 67t-281 -97t-157 -265l-84 -406q-8 -34 -8 -71zM1339 936q0 -211 -43 -380t-125 -301t-216 -209t-311 -77t-304 80
l-129 -182l-78 43l139 196q-129 135 -129 383t72 457t231 343q160 134 370 134t331 -84l133 187l80 -43l-143 -203q122 -133 122 -344z" />
    <glyph glyph-name="Ugrave" unicode="&#xd9;" horiz-adv-x="1392" 
d="M799 1772l131 -250h-105l-170 250h144zM166 416q0 63 16 141l176 836h144l-187 -879q-10 -43 -10 -96q0 -156 85 -236t239 -80q321 1 397 355l199 936h141l-199 -938q-101 -486 -537 -486q-220 0 -342 116t-122 331z" />
    <glyph glyph-name="Uacute" unicode="&#xda;" horiz-adv-x="1392" 
d="M788 1522l189 250h156l-236 -250h-109zM166 416q0 63 16 141l176 836h144l-187 -879q-10 -43 -10 -96q0 -156 85 -236t239 -80q321 1 397 355l199 936h141l-199 -938q-101 -486 -537 -486q-220 0 -342 116t-122 331z" />
    <glyph glyph-name="Ucircumflex" unicode="&#xdb;" horiz-adv-x="1392" 
d="M899 1698l-170 -176h-106l219 250h123l155 -250h-96zM166 416q0 63 16 141l176 836h144l-187 -879q-10 -43 -10 -96q0 -156 85 -236t239 -80q321 1 397 355l199 936h141l-199 -938q-101 -486 -537 -486q-220 0 -342 116t-122 331z" />
    <glyph glyph-name="Udieresis" unicode="&#xdc;" horiz-adv-x="1392" 
d="M1116 1700l-31 -139h-139l31 139h139zM838 1700l-31 -139h-139l30 139h140zM166 416q0 63 16 141l176 836h144l-187 -879q-10 -43 -10 -96q0 -156 85 -236t239 -80q321 1 397 355l199 936h141l-199 -938q-101 -486 -537 -486q-220 0 -342 116t-122 331z" />
    <glyph glyph-name="Yacute" unicode="&#xdd;" horiz-adv-x="1177" 
d="M737 1522l189 250h155l-235 -250h-109zM500 553l-281 840h150l223 -697l520 697h170l-639 -840l-117 -553h-143z" />
    <glyph glyph-name="Thorn" unicode="&#xde;" horiz-adv-x="1239" 
d="M791 1133q182 -1 276 -89t94 -247q0 -250 -126 -388t-365 -139h-389l-58 -270h-143l295 1393h147l-55 -260h324zM692 403q246 0 281 160l49 225q6 25 6 43q0 74 -56 121t-159 47h-379l-125 -596h383z" />
    <glyph glyph-name="germandbls" unicode="&#xdf;" horiz-adv-x="1126" 
d="M420 94q144 0 244 56t120 153l41 199q6 25 6 45q0 57 -33 93q-34 36 -98 36h-172l25 117h156q156 0 190 155l29 135q4 25 4 33q0 82 -55 133t-167 51t-192 -60t-102 -171l-226 -1069h-133l226 1069q33 158 146 256q114 98 287 98t263 -87t90 -238q0 -301 -256 -365
q74 -41 108 -104t33 -174q0 -225 -148 -355t-409 -131h-20l29 125h14z" />
    <glyph glyph-name="agrave" unicode="&#xe0;" horiz-adv-x="1191" 
d="M563 1423l131 -249h-104l-170 249h143zM612 1069q236 0 326 -195l35 170h133l-221 -1044h-133l32 152q-115 -176 -319 -177q-170 1 -267 101t-98 295q0 299 138 499t374 199zM891 698q0 123 -79 189q-79 65 -201 65t-208 -72t-108 -186l-64 -303q-6 -27 -6 -53
q0 -98 69 -172t197 -74t222 84t125 230l41 194q12 51 12 98z" />
    <glyph glyph-name="aacute" unicode="&#xe1;" horiz-adv-x="1191" 
d="M588 1174l188 249h156l-236 -249h-108zM612 1069q236 0 326 -195l35 170h133l-221 -1044h-133l32 152q-115 -176 -319 -177q-170 1 -267 101t-98 295q0 299 138 499t374 199zM891 698q0 123 -79 189q-79 65 -201 65t-208 -72t-108 -186l-64 -303q-6 -27 -6 -53
q0 -98 69 -172t197 -74t222 84t125 230l41 194q12 51 12 98z" />
    <glyph glyph-name="acircumflex" unicode="&#xe2;" horiz-adv-x="1191" 
d="M711 1350l-170 -176h-107l219 249h123l156 -249h-96zM612 1069q236 0 326 -195l35 170h133l-221 -1044h-133l32 152q-115 -176 -319 -177q-170 1 -267 101t-98 295q0 299 138 499t374 199zM891 698q0 123 -79 189q-79 65 -201 65t-208 -72t-108 -186l-64 -303
q-6 -27 -6 -53q0 -98 69 -172t197 -74t222 84t125 230l41 194q12 51 12 98z" />
    <glyph glyph-name="atilde" unicode="&#xe3;" horiz-adv-x="1191" 
d="M848 1214q-64 0 -158 50q-92 50 -125 49q-82 0 -96 -78h-74q13 80 63 121t114 41t155 -49q92 -49 127 -50q80 0 96 78h74q-14 -80 -63 -121t-113 -41zM612 1069q236 0 326 -195l35 170h133l-221 -1044h-133l32 152q-115 -176 -319 -177q-170 1 -267 101t-98 295
q0 299 138 499t374 199zM891 698q0 123 -79 189q-79 65 -201 65t-208 -72t-108 -186l-64 -303q-6 -27 -6 -53q0 -98 69 -172t197 -74t222 84t125 230l41 194q12 51 12 98z" />
    <glyph glyph-name="adieresis" unicode="&#xe4;" horiz-adv-x="1191" 
d="M897 1372l-31 -139h-139l31 139h139zM618 1372l-30 -139h-139l30 139h139zM612 1069q236 0 326 -195l35 170h133l-221 -1044h-133l32 152q-115 -176 -319 -177q-170 1 -267 101t-98 295q0 299 138 499t374 199zM891 698q0 123 -79 189q-79 65 -201 65t-208 -72t-108 -186
l-64 -303q-6 -27 -6 -53q0 -98 69 -172t197 -74t222 84t125 230l41 194q12 51 12 98z" />
    <glyph glyph-name="aring" unicode="&#xe5;" horiz-adv-x="1191" 
d="M774 1333q0 45 -30 76t-76 31t-78 -32q-31 -32 -31 -76t31 -76t78 -32q46 0 76 32t30 77zM850 1333q0 -72 -50 -124t-132 -52t-132 52t-51 124q1 72 51 124t132 52t132 -52t50 -124zM612 1069q236 0 326 -195l35 170h133l-221 -1044h-133l32 152q-115 -176 -319 -177
q-170 1 -267 101t-98 295q0 299 138 499t374 199zM891 698q0 123 -79 189q-79 65 -201 65t-208 -72t-108 -186l-64 -303q-6 -27 -6 -53q0 -98 69 -172t197 -74t222 84t125 230l41 194q12 51 12 98z" />
    <glyph glyph-name="ae" unicode="&#xe6;" horiz-adv-x="1718" 
d="M360 -25q-145 0 -229 71q-84 72 -84 218t87 240t245 94h399l19 96q8 33 8 68q-1 94 -61 142t-158 48q-219 0 -267 -209h-133q27 145 140 235t278 91q221 0 299 -156q131 156 340 156q172 0 268 -112t97 -281q0 -72 -31 -195h-690l-19 -88q-6 -27 -6 -53q0 -112 70 -180
t178 -68q213 0 291 230h133q-115 -346 -436 -347q-223 0 -332 201h-4q-141 -201 -402 -201zM336 481q-43 -1 -72 -23t-37 -59l-28 -139q-4 -25 -4 -35q0 -57 46 -95t140 -38q143 0 234 86t126 246l13 57h-418zM1481 705q0 113 -71 181t-179 66q-108 0 -190 -65t-107 -182
l-23 -107h553l11 49q6 31 6 58z" />
    <glyph glyph-name="ccedilla" unicode="&#xe7;" horiz-adv-x="1062" 
d="M963 713h-134q0 119 -63 179q-62 60 -172 60t-192 -63t-105 -182l-66 -312q-6 -27 -6 -53q0 -114 66 -182t180 -68q221 0 295 248h133q-113 -365 -434 -365q-174 1 -269 99t-96 297q0 299 133 499t371 199q174 0 266 -99t93 -257zM205 -297l22 113h123l25 112h123
l-47 -225h-246z" />
    <glyph glyph-name="egrave" unicode="&#xe8;" horiz-adv-x="1103" 
d="M561 1423l131 -249h-104l-170 249h143zM102 391q0 287 136 483t378 195q180 0 278 -111t99 -282q0 -72 -30 -195h-713l-17 -88q-6 -29 -6 -53q0 -116 72 -182t190 -66q219 0 297 230h134q-60 -176 -164 -262t-282 -85q-178 -1 -274 103q-98 104 -98 313zM866 705
q0 115 -74 181t-189 66q-117 0 -197 -65t-107 -182l-23 -107h574l10 49q6 31 6 58z" />
    <glyph glyph-name="eacute" unicode="&#xe9;" horiz-adv-x="1103" 
d="M569 1174l189 249h155l-235 -249h-109zM102 391q0 287 136 483t378 195q180 0 278 -111t99 -282q0 -72 -30 -195h-713l-17 -88q-6 -29 -6 -53q0 -116 72 -182t190 -66q219 0 297 230h134q-60 -176 -164 -262t-282 -85q-178 -1 -274 103q-98 104 -98 313zM866 705
q0 115 -74 181t-189 66q-117 0 -197 -65t-107 -182l-23 -107h574l10 49q6 31 6 58z" />
    <glyph glyph-name="ecircumflex" unicode="&#xea;" horiz-adv-x="1103" 
d="M694 1350l-170 -176h-106l219 249h123l155 -249h-96zM102 391q0 287 136 483t378 195q180 0 278 -111t99 -282q0 -72 -30 -195h-713l-17 -88q-6 -29 -6 -53q0 -116 72 -182t190 -66q219 0 297 230h134q-60 -176 -164 -262t-282 -85q-178 -1 -274 103q-98 104 -98 313z
M866 705q0 115 -74 181t-189 66q-117 0 -197 -65t-107 -182l-23 -107h574l10 49q6 31 6 58z" />
    <glyph glyph-name="edieresis" unicode="&#xeb;" horiz-adv-x="1103" 
d="M881 1372l-31 -139h-139l30 139h140zM602 1372l-31 -139h-139l31 139h139zM102 391q0 287 136 483t378 195q180 0 278 -111t99 -282q0 -72 -30 -195h-713l-17 -88q-6 -29 -6 -53q0 -116 72 -182t190 -66q219 0 297 230h134q-60 -176 -164 -262t-282 -85q-178 -1 -274 103
q-98 104 -98 313zM866 705q0 115 -74 181t-189 66q-117 0 -197 -65t-107 -182l-23 -107h574l10 49q6 31 6 58z" />
    <glyph glyph-name="igrave" unicode="&#xec;" horiz-adv-x="495" 
d="M272 1423l131 -249h-104l-170 249h143zM188 0h-133l221 1044h134z" />
    <glyph glyph-name="iacute" unicode="&#xed;" horiz-adv-x="495" 
d="M311 1174l189 249h155l-235 -249h-109zM188 0h-133l221 1044h134z" />
    <glyph glyph-name="icircumflex" unicode="&#xee;" horiz-adv-x="495" 
d="M395 1350l-170 -176h-106l219 249h123l155 -249h-96zM188 0h-133l221 1044h134z" />
    <glyph glyph-name="idieresis" unicode="&#xef;" horiz-adv-x="495" 
d="M618 1372l-30 -139h-139l30 139h139zM340 1372l-31 -139h-139l31 139h139zM188 0h-133l221 1044h134z" />
    <glyph glyph-name="eth" unicode="&#xf0;" horiz-adv-x="1153" 
d="M1016 631q0 -275 -139 -465t-390 -191q-190 -1 -291 103t-102 289q0 264 134 442t360 178q118 0 198 -51l-81 194h-263l19 87h205l-76 176h147l76 -176h264l-18 -87h-205l82 -182q80 -182 80 -317zM215 340q0 -120 79 -184t205 -64q127 0 213 66t111 180l51 240
q6 25 7 47q0 119 -80 185t-205 64q-125 0 -212 -68t-112 -179l-51 -240q-6 -25 -6 -47z" />
    <glyph glyph-name="ntilde" unicode="&#xf1;" horiz-adv-x="1148" 
d="M892 1214q-64 0 -156 50t-126 49q-82 0 -96 -78h-74q14 80 64 121t112 41q64 0 156 -49t127 -50q80 0 96 78h74q-14 -80 -63 -121q-50 -41 -114 -41zM715 1069q141 0 216 -79t75 -206q0 -41 -11 -96l-145 -688h-133l143 672q10 57 10 96q0 184 -188 184q-138 0 -236 -101
t-129 -247l-129 -604h-133l221 1044h134l-37 -172q115 197 342 197z" />
    <glyph glyph-name="ograve" unicode="&#xf2;" horiz-adv-x="1155" 
d="M590 1423l131 -249h-105l-170 249h144zM1024 678q0 -418 -234 -606q-122 -98 -303 -97t-283 101t-104 294q0 194 56 350t179 252q122 97 303 97q182 0 284 -100t102 -291zM901 702q0 121 -79 186q-79 64 -205 64q-127 0 -211 -66t-109 -179l-68 -320q-6 -25 -6 -45
q0 -122 79 -186t205 -64q127 0 211 66t109 180l68 319q6 25 6 45z" />
    <glyph glyph-name="oacute" unicode="&#xf3;" horiz-adv-x="1155" 
d="M604 1174l189 249h155l-235 -249h-109zM1024 678q0 -418 -234 -606q-122 -98 -303 -97t-283 101t-104 294q0 194 56 350t179 252q122 97 303 97q182 0 284 -100t102 -291zM901 702q0 121 -79 186q-79 64 -205 64q-127 0 -211 -66t-109 -179l-68 -320q-6 -25 -6 -45
q0 -122 79 -186t205 -64q127 0 211 66t109 180l68 319q6 25 6 45z" />
    <glyph glyph-name="ocircumflex" unicode="&#xf4;" horiz-adv-x="1155" 
d="M698 1350l-170 -176h-106l219 249h123l156 -249h-97zM1024 678q0 -418 -234 -606q-122 -98 -303 -97t-283 101t-104 294q0 194 56 350t179 252q122 97 303 97q182 0 284 -100t102 -291zM901 702q0 121 -79 186q-79 64 -205 64q-127 0 -211 -66t-109 -179l-68 -320
q-6 -25 -6 -45q0 -122 79 -186t205 -64q127 0 211 66t109 180l68 319q6 25 6 45z" />
    <glyph glyph-name="otilde" unicode="&#xf5;" horiz-adv-x="1155" 
d="M848 1214q-64 0 -158 50q-92 50 -125 49q-82 0 -96 -78h-74q13 80 63 121t114 41t155 -49q92 -49 127 -50q80 0 96 78h74q-14 -80 -63 -121t-113 -41zM1024 678q0 -418 -234 -606q-122 -98 -303 -97t-283 101t-104 294q0 194 56 350t179 252q122 97 303 97
q182 0 284 -100t102 -291zM901 702q0 121 -79 186q-79 64 -205 64q-127 0 -211 -66t-109 -179l-68 -320q-6 -25 -6 -45q0 -122 79 -186t205 -64q127 0 211 66t109 180l68 319q6 25 6 45z" />
    <glyph glyph-name="odieresis" unicode="&#xf6;" horiz-adv-x="1155" 
d="M928 1372l-31 -139h-139l30 139h140zM649 1372l-31 -139h-139l31 139h139zM1024 678q0 -418 -234 -606q-122 -98 -303 -97t-283 101t-104 294q0 194 56 350t179 252q122 97 303 97q182 0 284 -100t102 -291zM901 702q0 121 -79 186q-79 64 -205 64q-127 0 -211 -66
t-109 -179l-68 -320q-6 -25 -6 -45q0 -122 79 -186t205 -64q127 0 211 66t109 180l68 319q6 25 6 45z" />
    <glyph glyph-name="divide" unicode="&#xf7;" 
d="M682 1044v-170h-168v170h168zM682 170v-170h-168v170h168zM1120 575v-106h-1044v106h1044z" />
    <glyph glyph-name="oslash" unicode="&#xf8;" horiz-adv-x="1155" 
d="M1022 672q0 -190 -55 -346t-177 -253t-276 -97t-246 51l-116 -166l-78 43l125 176q-99 102 -99 293t56 347t179 252q123 97 275 97t244 -51l117 166l78 -43l-125 -176q98 -102 98 -293zM600 952q-108 0 -194 -66q-84 -66 -109 -179l-68 -320q-6 -25 -6 -45q0 -97 49 -156
l510 727q-74 39 -182 39zM522 92q112 0 196 66q85 66 109 180l68 319q6 25 6 45q0 95 -51 156l-510 -729q70 -37 182 -37z" />
    <glyph glyph-name="ugrave" unicode="&#xf9;" horiz-adv-x="1138" 
d="M600 1423l131 -249h-104l-170 249h143zM397 -25q-139 0 -213 79t-73 206q0 41 10 96l145 688h133l-143 -671q-10 -57 -10 -97q0 -184 184 -184q134 0 232 102t129 246l129 604h133l-222 -1044h-133l37 172q-113 -197 -338 -197z" />
    <glyph glyph-name="uacute" unicode="&#xfa;" horiz-adv-x="1138" 
d="M608 1174l189 249h155l-235 -249h-109zM397 -25q-139 0 -213 79t-73 206q0 41 10 96l145 688h133l-143 -671q-10 -57 -10 -97q0 -184 184 -184q134 0 232 102t129 246l129 604h133l-222 -1044h-133l37 172q-113 -197 -338 -197z" />
    <glyph glyph-name="ucircumflex" unicode="&#xfb;" horiz-adv-x="1138" 
d="M713 1350l-170 -176h-107l219 249h123l156 -249h-96zM397 -25q-139 0 -213 79t-73 206q0 41 10 96l145 688h133l-143 -671q-10 -57 -10 -97q0 -184 184 -184q134 0 232 102t129 246l129 604h133l-222 -1044h-133l37 172q-113 -197 -338 -197z" />
    <glyph glyph-name="udieresis" unicode="&#xfc;" horiz-adv-x="1138" 
d="M915 1372l-30 -139h-140l31 139h139zM637 1372l-31 -139h-139l31 139h139zM397 -25q-139 0 -213 79t-73 206q0 41 10 96l145 688h133l-143 -671q-10 -57 -10 -97q0 -184 184 -184q134 0 232 102t129 246l129 604h133l-222 -1044h-133l37 172q-113 -197 -338 -197z" />
    <glyph glyph-name="yacute" unicode="&#xfd;" horiz-adv-x="1048" 
d="M541 1174l188 249h156l-236 -249h-108zM299 1044l131 -849h8l477 849h158l-801 -1392h-323l26 117h222l129 231l-162 1044h135z" />
    <glyph glyph-name="thorn" unicode="&#xfe;" horiz-adv-x="1200" 
d="M696 1069q172 0 272 -98t101 -297q0 -297 -137 -498t-375 -201q-117 -1 -207 61t-123 165l-114 -549h-133l370 1741h133l-108 -500q117 176 321 176zM562 92q120 0 204 73t108 185l64 305q6 27 6 54q0 96 -66 170q-67 73 -198 73t-229 -85t-129 -228l-35 -164
q-10 -43 -11 -98q0 -139 83 -212t203 -73z" />
    <glyph glyph-name="ydieresis" unicode="&#xff;" horiz-adv-x="1048" 
d="M872 1372l-30 -139h-140l31 139h139zM594 1372l-31 -139h-139l31 139h139zM299 1044l131 -849h8l477 849h158l-801 -1392h-323l26 117h222l129 231l-162 1044h135z" />
    <glyph glyph-name="Amacron" unicode="&#x100;" horiz-adv-x="1286" 
d="M539 1616l18 88h592l-19 -88h-591zM788 1233l-407 -746h506l-94 746h-5zM950 0l-47 360h-592l-198 -360h-160l776 1393h178l189 -1393h-146z" />
    <glyph glyph-name="amacron" unicode="&#x101;" horiz-adv-x="1191" 
d="M401 1268l19 88h592l-19 -88h-592zM612 1069q236 0 326 -195l35 170h133l-221 -1044h-133l32 152q-115 -176 -319 -177q-170 1 -267 101t-98 295q0 299 138 499t374 199zM891 698q0 123 -79 189q-79 65 -201 65t-208 -72t-108 -186l-64 -303q-6 -27 -6 -53q0 -98 69 -172
t197 -74t222 84t125 230l41 194q12 51 12 98z" />
    <glyph glyph-name="Abreve" unicode="&#x102;" horiz-adv-x="1286" 
d="M860 1577q74 0 126 51t67 144h86q-19 -133 -97 -205t-185 -72t-176 60t-69 159q0 27 6 58h87q-4 -29 -5 -43q0 -70 43 -111t117 -41zM788 1233l-407 -746h506l-94 746h-5zM950 0l-47 360h-592l-198 -360h-160l776 1393h178l189 -1393h-146z" />
    <glyph glyph-name="abreve" unicode="&#x103;" horiz-adv-x="1191" 
d="M520 1380q0 -70 43 -110t117 -41q74 0 126 51t66 143h86q-20 -133 -97 -205t-184 -71q-107 0 -176 60t-69 159q0 26 6 57h86q-4 -29 -4 -43zM612 1069q236 0 326 -195l35 170h133l-221 -1044h-133l32 152q-115 -176 -319 -177q-170 1 -267 101t-98 295q0 299 138 499
t374 199zM891 698q0 123 -79 189q-79 65 -201 65t-208 -72t-108 -186l-64 -303q-6 -27 -6 -53q0 -98 69 -172t197 -74t222 84t125 230l41 194q12 51 12 98z" />
    <glyph glyph-name="Aogonek" unicode="&#x104;" horiz-adv-x="1286" 
d="M973 -184l-23 -113h-245l22 113l147 112h103l-117 -112h113zM788 1233l-407 -746h506l-94 746h-5zM950 0l-47 360h-592l-198 -360h-160l776 1393h178l189 -1393h-146z" />
    <glyph glyph-name="aogonek" unicode="&#x105;" horiz-adv-x="1191" 
d="M803 -184l-23 -113h-245l22 113l148 112h102l-117 -112h113zM612 1069q236 0 326 -195l35 170h133l-221 -1044h-133l32 152q-115 -176 -319 -177q-170 1 -267 101t-98 295q0 299 138 499t374 199zM891 698q0 123 -79 189q-79 65 -201 65t-208 -72t-108 -186l-64 -303
q-6 -27 -6 -53q0 -98 69 -172t197 -74t222 84t125 230l41 194q12 51 12 98z" />
    <glyph glyph-name="Cacute" unicode="&#x106;" horiz-adv-x="1290" 
d="M743 1522l189 250h155l-235 -250h-109zM618 -31q-225 0 -351 135t-126 381t70 454t222 346q153 138 360 138q207 -1 329 -109t123 -308h-143q0 137 -82 211q-82 73 -237 73t-267 -98t-145 -258l-84 -408q-6 -35 -6 -63q0 -164 95 -262t247 -99q289 0 374 304h144
q-124 -437 -523 -437z" />
    <glyph glyph-name="cacute" unicode="&#x107;" horiz-adv-x="1062" 
d="M596 1174l188 249h156l-235 -249h-109zM963 713h-134q0 119 -63 179q-62 60 -172 60t-192 -63t-105 -182l-66 -312q-6 -27 -6 -53q0 -114 66 -182t180 -68q221 0 295 248h133q-113 -365 -434 -365q-174 1 -269 99t-96 297q0 299 133 499t371 199q174 0 266 -99t93 -257z
" />
    <glyph glyph-name="Ccircumflex" unicode="&#x108;" horiz-adv-x="1290" 
d="M887 1698l-170 -176h-107l219 250h123l156 -250h-96zM618 -31q-225 0 -351 135t-126 381t70 454t222 346q153 138 360 138q207 -1 329 -109t123 -308h-143q0 137 -82 211q-82 73 -237 73t-267 -98t-145 -258l-84 -408q-6 -35 -6 -63q0 -164 95 -262t247 -99
q289 0 374 304h144q-124 -437 -523 -437z" />
    <glyph glyph-name="ccircumflex" unicode="&#x109;" horiz-adv-x="1062" 
d="M680 1350l-170 -176h-107l220 249h122l156 -249h-96zM963 713h-134q0 119 -63 179q-62 60 -172 60t-192 -63t-105 -182l-66 -312q-6 -27 -6 -53q0 -114 66 -182t180 -68q221 0 295 248h133q-113 -365 -434 -365q-174 1 -269 99t-96 297q0 299 133 499t371 199
q174 0 266 -99t93 -257z" />
    <glyph glyph-name="Cdotaccent" unicode="&#x10a;" horiz-adv-x="1290" 
d="M924 1720l-31 -139h-139l30 139h140zM618 -31q-225 0 -351 135t-126 381t70 454t222 346q153 138 360 138q207 -1 329 -109t123 -308h-143q0 137 -82 211q-82 73 -237 73t-267 -98t-145 -258l-84 -408q-6 -35 -6 -63q0 -164 95 -262t247 -99q289 0 374 304h144
q-124 -437 -523 -437z" />
    <glyph glyph-name="cdotaccent" unicode="&#x10b;" horiz-adv-x="1062" 
d="M733 1372l-31 -139h-139l31 139h139zM963 713h-134q0 119 -63 179q-62 60 -172 60t-192 -63t-105 -182l-66 -312q-6 -27 -6 -53q0 -114 66 -182t180 -68q221 0 295 248h133q-113 -365 -434 -365q-174 1 -269 99t-96 297q0 299 133 499t371 199q174 0 266 -99t93 -257z
" />
    <glyph glyph-name="Ccaron" unicode="&#x10c;" horiz-adv-x="1290" 
d="M823 1595l170 177h107l-219 -250h-123l-156 250h96zM618 -31q-225 0 -351 135t-126 381t70 454t222 346q153 138 360 138q207 -1 329 -109t123 -308h-143q0 137 -82 211q-82 73 -237 73t-267 -98t-145 -258l-84 -408q-6 -35 -6 -63q0 -164 95 -262t247 -99q289 0 374 304
h144q-124 -437 -523 -437z" />
    <glyph glyph-name="ccaron" unicode="&#x10d;" horiz-adv-x="1062" 
d="M641 1247l170 176h107l-220 -249h-123l-155 249h96zM963 713h-134q0 119 -63 179q-62 60 -172 60t-192 -63t-105 -182l-66 -312q-6 -27 -6 -53q0 -114 66 -182t180 -68q221 0 295 248h133q-113 -365 -434 -365q-174 1 -269 99t-96 297q0 299 133 499t371 199
q174 0 266 -99t93 -257z" />
    <glyph glyph-name="Dcaron" unicode="&#x10e;" horiz-adv-x="1355" 
d="M803 1595l170 177h106l-219 -250h-123l-155 250h96zM733 1260h-244l-237 -1127h303q186 0 314 94t161 254l78 383q8 39 8 66q0 156 -104 243t-279 87zM739 1393q238 0 375 -121t137 -335q0 -417 -159 -668q-82 -129 -222 -199t-329 -70h-461l295 1393h364z" />
    <glyph glyph-name="dcaron" unicode="&#x10f;" horiz-adv-x="1200" 
d="M1485 1393l-37 -174l-135 -175h-74l129 175h-94l37 174h174zM610 1069q117 0 207 -61t123 -164l115 549h133l-295 -1393h-133l33 152q-117 -176 -322 -177q-172 1 -272 99t-101 297q0 297 138 497t374 201zM893 668q0 139 -84 212q-84 72 -204 72t-204 -72t-108 -186
l-64 -303q-6 -27 -6 -53q0 -96 67 -171q68 -75 198 -75t229 84q98 85 129 230l35 163q12 53 12 99z" />
    <glyph glyph-name="Dcroat" unicode="&#x110;" horiz-adv-x="1361" 
d="M561 133q186 0 315 94q128 94 160 254l78 383q8 39 8 66q0 156 -103 242t-280 88h-243l-109 -510h350l-22 -107h-350l-107 -510h303zM745 1393q238 0 375 -121t137 -335q-1 -214 -39 -377q-132 -560 -671 -560h-461l135 643h-147l22 107h148l137 643h364z" />
    <glyph glyph-name="dcroat" unicode="&#x111;" horiz-adv-x="1200" 
d="M893 668q0 139 -84 212q-84 72 -204 72t-204 -72t-108 -186l-64 -303q-6 -27 -6 -53q0 -96 67 -171q68 -75 198 -75t229 84q98 85 129 230l35 163q12 53 12 99zM610 1069q117 0 207 -61t123 -164l68 327h-308l19 82h307l29 140h133l-31 -140h193l-19 -82h-190l-248 -1171
h-133l33 152q-117 -176 -322 -177q-172 1 -272 99t-101 297q0 297 138 497t374 201z" />
    <glyph glyph-name="Emacron" unicode="&#x112;" horiz-adv-x="1208" 
d="M559 1616l19 88h591l-18 -88h-592zM80 0l295 1393h872l-28 -133h-730l-102 -484h635l-29 -133h-635l-108 -510h729l-27 -133h-872z" />
    <glyph glyph-name="emacron" unicode="&#x113;" horiz-adv-x="1103" 
d="M365 1268l18 88h592l-19 -88h-591zM102 391q0 287 136 483t378 195q180 0 278 -111t99 -282q0 -72 -30 -195h-713l-17 -88q-6 -29 -6 -53q0 -116 72 -182t190 -66q219 0 297 230h134q-60 -176 -164 -262t-282 -85q-178 -1 -274 103q-98 104 -98 313zM866 705
q0 115 -74 181t-189 66q-117 0 -197 -65t-107 -182l-23 -107h574l10 49q6 31 6 58z" />
    <glyph glyph-name="Ebreve" unicode="&#x114;" horiz-adv-x="1208" 
d="M668 1729q0 -70 43 -111t117 -41t125 51q52 51 67 144h86q-20 -133 -97 -205t-185 -72t-176 60q-69 60 -68 159q0 27 6 58h86q-4 -29 -4 -43zM80 0l295 1393h872l-28 -133h-730l-102 -484h635l-29 -133h-635l-108 -510h729l-27 -133h-872z" />
    <glyph glyph-name="ebreve" unicode="&#x115;" horiz-adv-x="1103" 
d="M502 1380q0 -70 43 -110t117 -41q74 0 125 51q52 51 67 143h86q-20 -133 -97 -205t-185 -71q-108 0 -176 60q-69 60 -68 159q0 26 6 57h86q-4 -29 -4 -43zM102 391q0 287 136 483t378 195q180 0 278 -111t99 -282q0 -72 -30 -195h-713l-17 -88q-6 -29 -6 -53
q0 -116 72 -182t190 -66q219 0 297 230h134q-60 -176 -164 -262t-282 -85q-178 -1 -274 103q-98 104 -98 313zM866 705q0 115 -74 181t-189 66q-117 0 -197 -65t-107 -182l-23 -107h574l10 49q6 31 6 58z" />
    <glyph glyph-name="Edotaccent" unicode="&#x116;" horiz-adv-x="1208" 
d="M936 1720l-31 -139h-139l31 139h139zM80 0l295 1393h872l-28 -133h-730l-102 -484h635l-29 -133h-635l-108 -510h729l-27 -133h-872z" />
    <glyph glyph-name="edotaccent" unicode="&#x117;" horiz-adv-x="1103" 
d="M748 1372l-31 -139h-139l30 139h140zM102 391q0 287 136 483t378 195q180 0 278 -111t99 -282q0 -72 -30 -195h-713l-17 -88q-6 -29 -6 -53q0 -116 72 -182t190 -66q219 0 297 230h134q-60 -176 -164 -262t-282 -85q-178 -1 -274 103q-98 104 -98 313zM866 705
q0 115 -74 181t-189 66q-117 0 -197 -65t-107 -182l-23 -107h574l10 49q6 31 6 58z" />
    <glyph glyph-name="Eogonek" unicode="&#x118;" horiz-adv-x="1208" 
d="M573 -184l-22 -113h-246l23 113l147 112h103l-117 -112h112zM80 0l295 1393h872l-28 -133h-730l-102 -484h635l-29 -133h-635l-108 -510h729l-27 -133h-872z" />
    <glyph glyph-name="eogonek" unicode="&#x119;" horiz-adv-x="1103" 
d="M485 -184l-22 -113h-246l23 113l147 112h102l-116 -112h112zM102 391q0 287 136 483t378 195q180 0 278 -111t99 -282q0 -72 -30 -195h-713l-17 -88q-6 -29 -6 -53q0 -116 72 -182t190 -66q219 0 297 230h134q-60 -176 -164 -262t-282 -85q-178 -1 -274 103
q-98 104 -98 313zM866 705q0 115 -74 181t-189 66q-117 0 -197 -65t-107 -182l-23 -107h574l10 49q6 31 6 58z" />
    <glyph glyph-name="Ecaron" unicode="&#x11a;" horiz-adv-x="1208" 
d="M850 1595l170 177h106l-219 -250h-123l-155 250h96zM80 0l295 1393h872l-28 -133h-730l-102 -484h635l-29 -133h-635l-108 -510h729l-27 -133h-872z" />
    <glyph glyph-name="ecaron" unicode="&#x11b;" horiz-adv-x="1103" 
d="M645 1247l170 176h107l-220 -249h-122l-156 249h96zM102 391q0 287 136 483t378 195q180 0 278 -111t99 -282q0 -72 -30 -195h-713l-17 -88q-6 -29 -6 -53q0 -116 72 -182t190 -66q219 0 297 230h134q-60 -176 -164 -262t-282 -85q-178 -1 -274 103q-98 104 -98 313z
M866 705q0 115 -74 181t-189 66q-117 0 -197 -65t-107 -182l-23 -107h574l10 49q6 31 6 58z" />
    <glyph glyph-name="Gcircumflex" unicode="&#x11c;" horiz-adv-x="1355" 
d="M897 1698l-170 -176h-106l219 250h123l155 -250h-96zM596 -31q-213 1 -333 139t-120 379q0 375 163 647q79 132 208 211t291 78q213 0 338 -106t125 -311h-144q0 285 -325 284q-162 0 -277 -95t-149 -261l-84 -408q-6 -35 -6 -63q0 -164 95 -262q94 -99 244 -99t268 102
t152 267l25 119h-356l28 133h500l-154 -723h-135l23 158q-63 -90 -165 -140t-212 -49z" />
    <glyph glyph-name="gcircumflex" unicode="&#x11d;" horiz-adv-x="1202" 
d="M686 1350l-170 -176h-106l219 249h123l155 -249h-96zM895 668q0 139 -84 212q-84 72 -204 72t-204 -72t-108 -186l-64 -303q-6 -27 -6 -53q0 -96 67 -171q68 -75 198 -75t229 84q98 85 129 230l35 163q12 53 12 99zM409 -399q-173 0 -276 77q-102 78 -106 240h133
q10 -203 274 -203q123 0 212 76t122 234l27 127q-117 -176 -322 -177q-172 1 -272 99t-101 297q0 297 138 497t374 201q117 0 207 -61t123 -164l41 200h133l-223 -1052q-43 -201 -177 -296t-307 -95z" />
    <glyph glyph-name="Gbreve" unicode="&#x11e;" horiz-adv-x="1355" 
d="M684 1729q0 -70 43 -111t117 -41t126 51t66 144h86q-20 -133 -97 -205t-184 -72t-176 60t-69 159q0 27 6 58h86q-4 -29 -4 -43zM596 -31q-213 1 -333 139t-120 379q0 375 163 647q79 132 208 211t291 78q213 0 338 -106t125 -311h-144q0 285 -325 284q-162 0 -277 -95
t-149 -261l-84 -408q-6 -35 -6 -63q0 -164 95 -262q94 -99 244 -99t268 102t152 267l25 119h-356l28 133h500l-154 -723h-135l23 158q-63 -90 -165 -140t-212 -49z" />
    <glyph glyph-name="gbreve" unicode="&#x11f;" horiz-adv-x="1202" 
d="M522 1380q0 -70 43 -110t117 -41q74 0 126 51t66 143h87q-19 -133 -97 -205t-185 -71q-107 0 -176 60t-69 159q0 26 6 57h86q-4 -29 -4 -43zM895 668q0 139 -84 212q-84 72 -204 72t-204 -72t-108 -186l-64 -303q-6 -27 -6 -53q0 -96 67 -171q68 -75 198 -75t229 84
q98 85 129 230l35 163q12 53 12 99zM409 -399q-173 0 -276 77q-102 78 -106 240h133q10 -203 274 -203q123 0 212 76t122 234l27 127q-117 -176 -322 -177q-172 1 -272 99t-101 297q0 297 138 497t374 201q117 0 207 -61t123 -164l41 200h133l-223 -1052q-43 -201 -177 -296
t-307 -95z" />
    <glyph glyph-name="Gdotaccent" unicode="&#x120;" horiz-adv-x="1355" 
d="M924 1720l-31 -139h-139l30 139h140zM596 -31q-213 1 -333 139t-120 379q0 375 163 647q79 132 208 211t291 78q213 0 338 -106t125 -311h-144q0 285 -325 284q-162 0 -277 -95t-149 -261l-84 -408q-6 -35 -6 -63q0 -164 95 -262q94 -99 244 -99t268 102t152 267l25 119
h-356l28 133h500l-154 -723h-135l23 158q-63 -90 -165 -140t-212 -49z" />
    <glyph glyph-name="gdotaccent" unicode="&#x121;" horiz-adv-x="1202" 
d="M784 1372l-30 -139h-140l31 139h139zM895 668q0 139 -84 212q-84 72 -204 72t-204 -72t-108 -186l-64 -303q-6 -27 -6 -53q0 -96 67 -171q68 -75 198 -75t229 84q98 85 129 230l35 163q12 53 12 99zM409 -399q-173 0 -276 77q-102 78 -106 240h133q10 -203 274 -203
q123 0 212 76t122 234l27 127q-117 -176 -322 -177q-172 1 -272 99t-101 297q0 297 138 497t374 201q117 0 207 -61t123 -164l41 200h133l-223 -1052q-43 -201 -177 -296t-307 -95z" />
    <glyph glyph-name="Gcommaaccent" unicode="&#x122;" horiz-adv-x="1355" 
d="M590 -147l-29 -140l-92 -119h-57l86 119h-76l29 140h139zM596 -31q-213 1 -333 139t-120 379q0 375 163 647q79 132 208 211t291 78q213 0 338 -106t125 -311h-144q0 285 -325 284q-162 0 -277 -95t-149 -261l-84 -408q-6 -35 -6 -63q0 -164 95 -262q94 -99 244 -99
t268 102t152 267l25 119h-356l28 133h500l-154 -723h-135l23 158q-63 -90 -165 -140t-212 -49z" />
    <glyph glyph-name="gcommaaccent" unicode="&#x123;" horiz-adv-x="1202" 
d="M651 1290l37 174l135 174h74l-129 -174h94l-37 -174h-174zM895 668q0 139 -84 212q-84 72 -204 72t-204 -72t-108 -186l-64 -303q-6 -27 -6 -53q0 -96 67 -171q68 -75 198 -75t229 84q98 85 129 230l35 163q12 53 12 99zM409 -399q-173 0 -276 77q-102 78 -106 240h133
q10 -203 274 -203q123 0 212 76t122 234l27 127q-117 -176 -322 -177q-172 1 -272 99t-101 297q0 297 138 497t374 201q117 0 207 -61t123 -164l41 200h133l-223 -1052q-43 -201 -177 -296t-307 -95z" />
    <glyph glyph-name="Hcircumflex" unicode="&#x124;" horiz-adv-x="1417" 
d="M956 1698l-170 -176h-106l219 250h123l156 -250h-97zM942 0l137 649h-719l-137 -649h-143l295 1393h143l-129 -611h719l129 611h143l-295 -1393h-143z" />
    <glyph glyph-name="hcircumflex" unicode="&#x125;" horiz-adv-x="1148" 
d="M467 1698l-170 -176h-107l220 250h122l156 -250h-96zM715 1069q141 0 216 -79t75 -206q0 -41 -11 -96l-145 -688h-133l143 672q10 57 10 96q0 184 -186 184q-136 0 -236 -101t-131 -247l-129 -604h-133l295 1393h133l-110 -521q115 197 342 197z" />
    <glyph glyph-name="Hbar" unicode="&#x126;" horiz-adv-x="1452" 
d="M408 782h718l45 215h-718zM1464 997h-149l-211 -997h-143l137 649h-719l-137 -649h-144l211 997h-147l22 107h148l61 289h144l-62 -289h719l61 289h144l-62 -289h150z" />
    <glyph glyph-name="hbar" unicode="&#x127;" horiz-adv-x="1148" 
d="M715 1069q141 0 216 -79t75 -206q0 -41 -11 -96l-145 -688h-133l143 672q10 57 10 96q0 184 -186 184q-136 0 -236 -101t-131 -247l-129 -604h-133l248 1174h-190l18 81h191l28 138h133l-28 -138h307l-19 -81h-307l-63 -302q115 197 342 197z" />
    <glyph glyph-name="Itilde" unicode="&#x128;" horiz-adv-x="555" 
d="M604 1563q-64 0 -155 49q-92 49 -127 49q-82 0 -97 -78h-73q14 80 63 121t113 41t157 -49q92 -49 125 -49q81 -1 97 77h73q-14 -80 -63 -120t-113 -41zM80 0l295 1393h143l-295 -1393h-143z" />
    <glyph glyph-name="itilde" unicode="&#x129;" horiz-adv-x="495" 
d="M532 1214q-64 0 -157 50q-92 50 -125 49q-82 0 -96 -78h-74q14 80 63 121t113 41t156 -49t127 -50q80 0 96 78h74q-13 -80 -63 -121t-114 -41zM188 0h-133l221 1044h134z" />
    <glyph glyph-name="Imacron" unicode="&#x12a;" horiz-adv-x="555" 
d="M195 1616l18 88h592l-19 -88h-591zM80 0l295 1393h143l-295 -1393h-143z" />
    <glyph glyph-name="imacron" unicode="&#x12b;" horiz-adv-x="495" 
d="M92 1268l19 88h591l-18 -88h-592zM188 0h-133l221 1044h134z" />
    <glyph glyph-name="Ibreve" unicode="&#x12c;" horiz-adv-x="555" 
d="M330 1729q0 -70 43 -111t117 -41t125 51q52 51 67 144h86q-20 -133 -97 -205t-185 -72t-176 60q-69 60 -68 159q0 27 6 58h86q-4 -29 -4 -43zM80 0l295 1393h143l-295 -1393h-143z" />
    <glyph glyph-name="ibreve" unicode="&#x12d;" horiz-adv-x="495" 
d="M223 1380q0 -70 43 -110t117 -41q74 0 126 51t66 143h87q-20 -133 -98 -205t-184 -71q-107 0 -176 60t-69 159q0 26 6 57h86q-4 -29 -4 -43zM188 0h-133l221 1044h134z" />
    <glyph glyph-name="Iogonek" unicode="&#x12e;" horiz-adv-x="555" 
d="M162 -184l-23 -113h-245l22 113l147 112h103l-117 -112h113zM80 0l295 1393h143l-295 -1393h-143z" />
    <glyph glyph-name="iogonek" unicode="&#x12f;" horiz-adv-x="495" 
d="M168 -184l-23 -113h-245l22 113l148 112h102l-117 -112h113zM483 1372l-30 -141h-142l31 141h141zM188 0h-133l221 1044h134z" />
    <glyph glyph-name="Idotaccent" unicode="&#x130;" horiz-adv-x="555" 
d="M584 1720l-31 -139h-139l30 139h140zM80 0l295 1393h143l-295 -1393h-143z" />
    <glyph glyph-name="dotlessi" unicode="&#x131;" horiz-adv-x="495" 
d="M188 0h-133l221 1044h134z" />
    <glyph glyph-name="IJ" unicode="&#x132;" horiz-adv-x="1400" 
d="M1364 1393l-295 -1393h-592l27 133h448l269 1260h143zM80 0l295 1393h143l-295 -1393h-143z" />
    <glyph glyph-name="ij" unicode="&#x133;" horiz-adv-x="1015" 
d="M1004 1372l-31 -141h-142l31 141h142zM524 -231l273 1275h133l-297 -1392h-373l25 117h239zM483 1372l-30 -141h-142l31 141h141zM188 0h-133l221 1044h134z" />
    <glyph glyph-name="Jcircumflex" unicode="&#x134;" horiz-adv-x="845" 
d="M780 1698l-170 -176h-106l219 250h123l155 -250h-96zM809 1393l-295 -1393h-592l27 133h448l269 1260h143z" />
    <glyph glyph-name="jcircumflex" unicode="&#x135;" horiz-adv-x="495" 
d="M389 1350l-170 -176h-106l219 249h123l155 -249h-96zM4 -231l272 1275h134l-297 -1392h-373l24 117h240z" />
    <glyph glyph-name="Kcommaaccent" unicode="&#x136;" horiz-adv-x="1226" 
d="M569 -147l-28 -140l-92 -119h-58l86 119h-76l29 140h139zM518 1393l-295 -1393h-143l295 1393h143zM883 0l-498 741l733 652h201l-766 -670l498 -723h-168z" />
    <glyph glyph-name="kcommaaccent" unicode="&#x137;" horiz-adv-x="1013" 
d="M463 -147l-29 -140l-92 -119h-57l86 119h-76l29 140h139zM483 1393l-295 -1393h-133l295 1393h133zM686 0l-371 584l523 460h190l-555 -479l361 -565h-148z" />
    <glyph glyph-name="kgreenlandic" unicode="&#x138;" horiz-adv-x="1013" 
d="M410 1044l-222 -1044h-133l221 1044h134zM686 0l-371 584l523 460h190l-555 -479l361 -565h-148z" />
    <glyph glyph-name="Lacute" unicode="&#x139;" horiz-adv-x="1009" 
d="M369 1522l188 250h156l-236 -250h-108zM80 0l295 1393h143l-268 -1260h633l-29 -133h-774z" />
    <glyph glyph-name="lacute" unicode="&#x13a;" horiz-adv-x="503" 
d="M385 1522l188 250h156l-235 -250h-109zM193 0h-134l295 1393h133z" />
    <glyph glyph-name="Lcommaaccent" unicode="&#x13b;" horiz-adv-x="1009" 
d="M514 -147l-29 -140l-92 -119h-57l86 119h-76l29 140h139zM80 0l295 1393h143l-268 -1260h633l-29 -133h-774z" />
    <glyph glyph-name="lcommaaccent" unicode="&#x13c;" horiz-adv-x="503" 
d="M164 -147l-29 -140l-92 -119h-57l86 119h-76l29 140h139zM193 0h-134l295 1393h133z" />
    <glyph glyph-name="Lcaron" unicode="&#x13d;" horiz-adv-x="1011" 
d="M922 1393l-37 -174l-135 -175h-74l129 175h-94l37 174h174zM80 0l295 1393h143l-268 -1260h633l-29 -133h-774z" />
    <glyph glyph-name="lcaron" unicode="&#x13e;" horiz-adv-x="499" 
d="M784 1393l-36 -174l-136 -175h-73l129 175h-95l37 174h174zM193 0h-134l295 1393h133z" />
    <glyph glyph-name="Ldot" unicode="&#x13f;" horiz-adv-x="1011" 
d="M879 1020l-37 -174h-174l37 174h174zM80 0l295 1393h143l-268 -1260h633l-29 -133h-774z" />
    <glyph glyph-name="ldot" unicode="&#x140;" horiz-adv-x="557" 
d="M707 1020l-37 -174h-174l36 174h175zM193 0h-134l295 1393h133z" />
    <glyph glyph-name="Lslash" unicode="&#x141;" horiz-adv-x="1034" 
d="M104 0l117 555l-223 -117l27 127l223 115l151 713h144l-133 -629l350 182l-29 -127l-350 -180l-107 -506h633l-28 -133h-775z" />
    <glyph glyph-name="lslash" unicode="&#x142;" horiz-adv-x="555" 
d="M86 0l137 651l-176 -92l25 115l174 90l135 629h133l-119 -551l176 90l-24 -113l-174 -90l-154 -729h-133z" />
    <glyph glyph-name="Nacute" unicode="&#x143;" horiz-adv-x="1417" 
d="M721 1522l188 250h156l-236 -250h-108zM588 1393l381 -1231h8l262 1231h141l-295 -1393h-213l-383 1233h-8l-260 -1233h-141l295 1393h213z" />
    <glyph glyph-name="nacute" unicode="&#x144;" horiz-adv-x="1148" 
d="M557 1174l188 249h156l-235 -249h-109zM715 1069q141 0 216 -79t75 -206q0 -41 -11 -96l-145 -688h-133l143 672q10 57 10 96q0 184 -188 184q-138 0 -236 -101t-129 -247l-129 -604h-133l221 1044h134l-37 -172q115 197 342 197z" />
    <glyph glyph-name="Ncommaaccent" unicode="&#x145;" horiz-adv-x="1417" 
d="M618 -147l-28 -140l-92 -119h-58l86 119h-75l28 140h139zM588 1393l381 -1231h8l262 1231h141l-295 -1393h-213l-383 1233h-8l-260 -1233h-141l295 1393h213z" />
    <glyph glyph-name="ncommaaccent" unicode="&#x146;" horiz-adv-x="1148" 
d="M524 -147l-28 -140l-93 -119h-57l86 119h-76l29 140h139zM715 1069q141 0 216 -79t75 -206q0 -41 -11 -96l-145 -688h-133l143 672q10 57 10 96q0 184 -188 184q-138 0 -236 -101t-129 -247l-129 -604h-133l221 1044h134l-37 -172q115 197 342 197z" />
    <glyph glyph-name="Ncaron" unicode="&#x147;" horiz-adv-x="1417" 
d="M885 1595l170 177h106l-219 -250h-123l-155 250h96zM588 1393l381 -1231h8l262 1231h141l-295 -1393h-213l-383 1233h-8l-260 -1233h-141l295 1393h213z" />
    <glyph glyph-name="ncaron" unicode="&#x148;" horiz-adv-x="1148" 
d="M711 1247l170 176h106l-219 -249h-123l-156 249h97zM715 1069q141 0 216 -79t75 -206q0 -41 -11 -96l-145 -688h-133l143 672q10 57 10 96q0 184 -188 184q-138 0 -236 -101t-129 -247l-129 -604h-133l221 1044h134l-37 -172q115 197 342 197z" />
    <glyph glyph-name="napostrophe" unicode="&#x149;" horiz-adv-x="1148" 
d="M715 1069q141 0 216 -79t75 -206q0 -41 -11 -96l-145 -688h-133l143 672q10 57 10 96q0 184 -188 184q-138 0 -236 -101t-129 -247l-129 -604h-133l221 1044h134l-37 -172q115 197 342 197zM446 1532l-28 -139l-92 -119h-58l86 119h-75l28 139h139z" />
    <glyph glyph-name="Eng" unicode="&#x14a;" horiz-adv-x="1417" 
d="M893 -223l47 223l-475 1143l-242 -1143h-143l295 1393h145l473 -1141l244 1141h143l-370 -1749h-592l26 133h449z" />
    <glyph glyph-name="eng" unicode="&#x14b;" horiz-adv-x="1148" 
d="M870 768q0 184 -188 184q-138 0 -236 -101t-129 -247l-129 -604h-133l221 1044h134l-37 -172q115 197 342 197q141 0 216 -79t75 -206q-1 -41 -11 -96l-219 -1036h-373l25 117h240l192 903q10 43 10 96z" />
    <glyph glyph-name="Omacron" unicode="&#x14c;" horiz-adv-x="1439" 
d="M629 1616l18 88h592l-18 -88h-592zM659 102q170 0 293 98t158 265l84 405q8 35 8 72q0 162 -104 255t-274 93t-294 -97q-123 -97 -157 -265l-84 -406q-8 -35 -8 -71q0 -161 104 -255t274 -94zM1339 918q0 -393 -168 -663q-82 -132 -216 -209t-306 -77q-242 0 -374 132
t-132 384q0 549 303 804q160 134 395 134q235 -1 367 -131t131 -374z" />
    <glyph glyph-name="omacron" unicode="&#x14d;" horiz-adv-x="1155" 
d="M406 1268l18 88h592l-19 -88h-591zM1024 678q0 -418 -234 -606q-122 -98 -303 -97t-283 101t-104 294q0 194 56 350t179 252q122 97 303 97q182 0 284 -100t102 -291zM901 702q0 121 -79 186q-79 64 -205 64q-127 0 -211 -66t-109 -179l-68 -320q-6 -25 -6 -45
q0 -122 79 -186t205 -64q127 0 211 66t109 180l68 319q6 25 6 45z" />
    <glyph glyph-name="Obreve" unicode="&#x14e;" horiz-adv-x="1439" 
d="M752 1729q0 -70 43 -111t117 -41t125 51q52 51 67 144h86q-20 -133 -97 -205t-185 -72t-176 60q-69 60 -68 159q0 27 6 58h86q-4 -29 -4 -43zM659 102q170 0 293 98t158 265l84 405q8 35 8 72q0 162 -104 255t-274 93t-294 -97q-123 -97 -157 -265l-84 -406
q-8 -35 -8 -71q0 -161 104 -255t274 -94zM1339 918q0 -393 -168 -663q-82 -132 -216 -209t-306 -77q-242 0 -374 132t-132 384q0 549 303 804q160 134 395 134q235 -1 367 -131t131 -374z" />
    <glyph glyph-name="obreve" unicode="&#x14f;" horiz-adv-x="1155" 
d="M541 1380q0 -70 43 -110q42 -40 116 -41q74 0 126 51t67 143h86q-20 -133 -97 -205q-76 -72 -184 -71q-108 0 -177 60t-68 159q0 26 6 57h86q-4 -29 -4 -43zM1024 678q0 -418 -234 -606q-122 -98 -303 -97t-283 101t-104 294q0 194 56 350t179 252q122 97 303 97
q182 0 284 -100t102 -291zM901 702q0 121 -79 186q-79 64 -205 64q-127 0 -211 -66t-109 -179l-68 -320q-6 -25 -6 -45q0 -122 79 -186t205 -64q127 0 211 66t109 180l68 319q6 25 6 45z" />
    <glyph glyph-name="Ohungarumlaut" unicode="&#x150;" horiz-adv-x="1439" 
d="M930 1522l178 250h156l-226 -250h-108zM668 1522l178 250h155l-225 -250h-108zM659 102q170 0 293 98t158 265l84 405q8 35 8 72q0 162 -104 255t-274 93t-294 -97q-123 -97 -157 -265l-84 -406q-8 -35 -8 -71q0 -161 104 -255t274 -94zM1339 918q0 -393 -168 -663
q-82 -132 -216 -209t-306 -77q-242 0 -374 132t-132 384q0 549 303 804q160 134 395 134q235 -1 367 -131t131 -374z" />
    <glyph glyph-name="ohungarumlaut" unicode="&#x151;" horiz-adv-x="1155" 
d="M709 1174l178 249h155l-225 -249h-108zM446 1174l179 249h155l-225 -249h-109zM1024 678q0 -418 -234 -606q-122 -98 -303 -97t-283 101t-104 294q0 194 56 350t179 252q122 97 303 97q182 0 284 -100t102 -291zM901 702q0 121 -79 186q-79 64 -205 64q-127 0 -211 -66
t-109 -179l-68 -320q-6 -25 -6 -45q0 -122 79 -186t205 -64q127 0 211 66t109 180l68 319q6 25 6 45z" />
    <glyph glyph-name="OE" unicode="&#x152;" horiz-adv-x="2136" 
d="M281 451q0 -161 104 -255t272 -94t292 98t159 265l84 405q8 35 8 72q0 164 -102 256t-272 92t-295 -97q-124 -97 -158 -265l-84 -406q-8 -35 -8 -71zM634 -31q-228 0 -359 132q-132 132 -132 384q0 549 303 804q160 134 388 134q311 0 430 -219l39 189h872l-29 -133h-729
l-102 -484h635l-29 -133h-635l-108 -510h729l-27 -133h-872l22 106q-168 -137 -396 -137z" />
    <glyph glyph-name="oe" unicode="&#x153;" horiz-adv-x="1843" 
d="M901 702q0 122 -79 186t-205 64q-127 0 -211 -66t-109 -179l-68 -320q-6 -25 -6 -45q0 -122 79 -186t205 -64t211 66t109 180l68 319q6 25 6 45zM628 1069q253 0 351 -188q139 188 381 188q184 0 278 -111t95 -282q0 -72 -31 -195h-713l-16 -88q-6 -27 -6 -53
q-1 -116 71 -182t189 -66q221 0 299 230h133q-115 -346 -445 -347q-244 0 -331 197q-139 -197 -389 -197q-190 1 -292 101t-102 291q0 303 138 503t390 199zM1038 705l-22 -107h573l10 49q6 31 7 58q0 115 -73 181t-188 66t-199 -65t-108 -182z" />
    <glyph glyph-name="Racute" unicode="&#x154;" horiz-adv-x="1259" 
d="M684 1522l188 250h156l-235 -250h-109zM766 713q112 0 186 49t92 133l33 152q6 25 6 47q0 76 -59 120t-145 46h-390l-114 -547h391zM850 1393q178 0 272 -86t95 -244q0 -215 -118 -339t-323 -140l228 -584h-156l-213 580h-289l-123 -580h-143l295 1393h475z" />
    <glyph glyph-name="racute" unicode="&#x155;" horiz-adv-x="702" 
d="M305 1174l189 249h155l-235 -249h-109zM55 0l221 1044h461l-24 -116h-328l-197 -928h-133z" />
    <glyph glyph-name="Rcommaaccent" unicode="&#x156;" horiz-adv-x="1259" 
d="M582 -147l-29 -140l-92 -119h-58l86 119h-75l28 140h140zM766 713q112 0 186 49t92 133l33 152q6 25 6 47q0 76 -59 120t-145 46h-390l-114 -547h391zM850 1393q178 0 272 -86t95 -244q0 -215 -118 -339t-323 -140l228 -584h-156l-213 580h-289l-123 -580h-143l295 1393
h475z" />
    <glyph glyph-name="rcommaaccent" unicode="&#x157;" horiz-adv-x="702" 
d="M158 -147l-29 -140l-92 -119h-57l86 119h-76l28 140h140zM55 0l221 1044h461l-24 -116h-328l-197 -928h-133z" />
    <glyph glyph-name="Rcaron" unicode="&#x158;" horiz-adv-x="1259" 
d="M776 1595l170 177h107l-219 -250h-123l-156 250h96zM766 713q112 0 186 49t92 133l33 152q6 25 6 47q0 76 -59 120t-145 46h-390l-114 -547h391zM850 1393q178 0 272 -86t95 -244q0 -215 -118 -339t-323 -140l228 -584h-156l-213 580h-289l-123 -580h-143l295 1393h475z
" />
    <glyph glyph-name="rcaron" unicode="&#x159;" horiz-adv-x="702" 
d="M528 1247l170 176h107l-219 -249h-123l-156 249h96zM55 0l221 1044h461l-24 -116h-328l-197 -928h-133z" />
    <glyph glyph-name="Sacute" unicode="&#x15a;" horiz-adv-x="1247" 
d="M678 1522l188 250h156l-236 -250h-108zM1034 1014q0 136 -87 206t-239 70t-236 -70q-85 -70 -85 -186q0 -166 197 -227l213 -66q145 -45 222 -134t77 -201q0 -203 -150 -320t-379 -117t-364 113t-135 334h143q0 -160 99 -237t258 -77t268 76t108 211q0 76 -48 134
t-146 87l-215 62q-299 86 -299 356q0 174 135 285t347 111t336 -107q124 -106 124 -303h-144z" />
    <glyph glyph-name="sacute" unicode="&#x15b;" horiz-adv-x="1028" 
d="M856 305q0 -154 -117 -242t-299 -88t-290 87t-107 245v23h133v-23q0 -109 78 -162t193 -53t195 53t79 136q0 117 -186 176l-148 45q-211 68 -211 256q0 139 104 225t274 86q169 0 265 -81t96 -222v-23h-133v21q0 96 -65 142q-66 46 -169 46t-170 -45t-67 -129
q0 -119 125 -160l164 -51q256 -80 256 -262zM532 1174l189 249h156l-236 -249h-109z" />
    <glyph glyph-name="Scircumflex" unicode="&#x15c;" horiz-adv-x="1247" 
d="M813 1698l-170 -176h-106l219 250h123l155 -250h-96zM1034 1014q0 136 -87 206t-239 70t-236 -70q-85 -70 -85 -186q0 -166 197 -227l213 -66q145 -45 222 -134t77 -201q0 -203 -150 -320t-379 -117t-364 113t-135 334h143q0 -160 99 -237t258 -77t268 76t108 211
q0 76 -48 134t-146 87l-215 62q-299 86 -299 356q0 174 135 285t347 111t336 -107q124 -106 124 -303h-144z" />
    <glyph glyph-name="scircumflex" unicode="&#x15d;" horiz-adv-x="1028" 
d="M856 305q0 -154 -117 -242t-299 -88t-290 87t-107 245v23h133v-23q0 -109 78 -162t193 -53t195 53t79 136q0 117 -186 176l-148 45q-211 68 -211 256q0 139 104 225t274 86q169 0 265 -81t96 -222v-23h-133v21q0 96 -65 142q-66 46 -169 46t-170 -45t-67 -129
q0 -119 125 -160l164 -51q256 -80 256 -262zM625 1350l-170 -176h-107l219 249h123l156 -249h-96z" />
    <glyph glyph-name="Scedilla" unicode="&#x15e;" horiz-adv-x="1247" 
d="M285 -297l22 113h123l25 112h123l-48 -225h-245zM1034 1014q0 136 -87 206t-239 70t-236 -70q-85 -70 -85 -186q0 -166 197 -227l213 -66q145 -45 222 -134t77 -201q0 -203 -150 -320t-379 -117t-364 113t-135 334h143q0 -160 99 -237t258 -77t268 76t108 211
q0 76 -48 134t-146 87l-215 62q-299 86 -299 356q0 174 135 285t347 111t336 -107q124 -106 124 -303h-144z" />
    <glyph glyph-name="scedilla" unicode="&#x15f;" horiz-adv-x="1028" 
d="M856 305q0 -154 -117 -242t-299 -88t-290 87t-107 245v23h133v-23q0 -109 78 -162t193 -53t195 53t79 136q0 117 -186 176l-148 45q-211 68 -211 256q0 139 104 225t274 86q169 0 265 -81t96 -222v-23h-133v21q0 96 -65 142q-66 46 -169 46t-170 -45t-67 -129
q0 -119 125 -160l164 -51q256 -80 256 -262zM172 -297l23 113h122l25 112h123l-47 -225h-246z" />
    <glyph glyph-name="Scaron" unicode="&#x160;" horiz-adv-x="1247" 
d="M791 1595l170 177h106l-219 -250h-123l-156 250h97zM1034 1014q0 136 -87 206t-239 70t-236 -70q-85 -70 -85 -186q0 -166 197 -227l213 -66q145 -45 222 -134t77 -201q0 -203 -150 -320t-379 -117t-364 113t-135 334h143q0 -160 99 -237t258 -77t268 76t108 211
q0 76 -48 134t-146 87l-215 62q-299 86 -299 356q0 174 135 285t347 111t336 -107q124 -106 124 -303h-144z" />
    <glyph glyph-name="scaron" unicode="&#x161;" horiz-adv-x="1028" 
d="M856 305q0 -154 -117 -242t-299 -88t-290 87t-107 245v23h133v-23q0 -109 78 -162t193 -53t195 53t79 136q0 117 -186 176l-148 45q-211 68 -211 256q0 139 104 225t274 86q169 0 265 -81t96 -222v-23h-133v21q0 96 -65 142q-66 46 -169 46t-170 -45t-67 -129
q0 -119 125 -160l164 -51q256 -80 256 -262zM600 1247l170 176h107l-220 -249h-122l-156 249h96z" />
    <glyph glyph-name="uni0162" unicode="&#x162;" horiz-adv-x="1056" 
d="M182 1260l29 133h975l-29 -133h-416l-266 -1260h-143l266 1260h-416zM156 -297l22 113h123l25 112h123l-48 -225h-245z" />
    <glyph glyph-name="uni0163" unicode="&#x163;" horiz-adv-x="702" 
d="M444 928l-172 -811h250l-24 -117h-383l196 928h-174l25 116h174l74 349h133l-74 -349h250l-25 -116h-250zM57 -297l23 113h123l24 112h123l-47 -225h-246z" />
    <glyph glyph-name="Tcaron" unicode="&#x164;" horiz-adv-x="1056" 
d="M711 1595l170 177h106l-219 -250h-123l-156 250h97zM182 1260l29 133h975l-29 -133h-416l-266 -1260h-143l266 1260h-416z" />
    <glyph glyph-name="tcaron" unicode="&#x165;" horiz-adv-x="722" 
d="M1061 1393l-37 -174l-135 -175h-74l129 175h-94l37 174h174zM444 928l-172 -811h250l-24 -117h-383l196 928h-174l25 116h174l74 349h133l-74 -349h250l-25 -116h-250z" />
    <glyph glyph-name="Tbar" unicode="&#x166;" horiz-adv-x="1128" 
d="M180 643l23 107h319l109 510h-416l29 133h975l-29 -133h-416l-108 -510h319l-22 -107h-320l-135 -643h-143l135 643h-320z" />
    <glyph glyph-name="tbar" unicode="&#x167;" horiz-adv-x="718" 
d="M229 483h-174l17 80h174l78 365h-174l24 116h174l74 349h133l-74 -349h250l-24 -116h-250l-78 -365h239l-16 -80h-240l-77 -366h250l-25 -117h-383z" />
    <glyph glyph-name="Utilde" unicode="&#x168;" horiz-adv-x="1392" 
d="M1026 1563q-64 0 -156 49t-127 49q-82 0 -96 -78h-74q13 80 63 121t114 41t157 -49q92 -49 125 -49q80 -1 96 77h74q-14 -80 -63 -120t-113 -41zM166 416q0 63 16 141l176 836h144l-187 -879q-10 -43 -10 -96q0 -156 85 -236t239 -80q321 1 397 355l199 936h141
l-199 -938q-101 -486 -537 -486q-220 0 -342 116t-122 331z" />
    <glyph glyph-name="utilde" unicode="&#x169;" horiz-adv-x="1138" 
d="M834 1214q-64 0 -156 50t-127 49q-82 0 -96 -78h-74q14 80 63 121q50 41 114 41t156 -49t126 -50q80 0 96 78h74q-14 -80 -64 -121q-48 -41 -112 -41zM397 -25q-139 0 -213 79t-73 206q0 41 10 96l145 688h133l-143 -671q-10 -57 -10 -97q0 -184 184 -184q134 0 232 102
t129 246l129 604h133l-222 -1044h-133l37 172q-113 -197 -338 -197z" />
    <glyph glyph-name="Umacron" unicode="&#x16a;" horiz-adv-x="1392" 
d="M602 1616l19 88h591l-18 -88h-592zM166 416q0 63 16 141l176 836h144l-187 -879q-10 -43 -10 -96q0 -156 85 -236t239 -80q321 1 397 355l199 936h141l-199 -938q-101 -486 -537 -486q-220 0 -342 116t-122 331z" />
    <glyph glyph-name="umacron" unicode="&#x16b;" horiz-adv-x="1138" 
d="M401 1268l19 88h592l-19 -88h-592zM397 -25q-139 0 -213 79t-73 206q0 41 10 96l145 688h133l-143 -671q-10 -57 -10 -97q0 -184 184 -184q134 0 232 102t129 246l129 604h133l-222 -1044h-133l37 172q-113 -197 -338 -197z" />
    <glyph glyph-name="Ubreve" unicode="&#x16c;" horiz-adv-x="1392" 
d="M739 1729q0 -70 43 -111t117 -41t126 51t67 144h86q-20 -133 -98 -205t-184 -72q-107 0 -176 60t-69 159q0 27 6 58h86q-4 -29 -4 -43zM166 416q0 63 16 141l176 836h144l-187 -879q-10 -43 -10 -96q0 -156 85 -236t239 -80q321 1 397 355l199 936h141l-199 -938
q-101 -486 -537 -486q-220 0 -342 116t-122 331z" />
    <glyph glyph-name="ubreve" unicode="&#x16d;" horiz-adv-x="1138" 
d="M539 1380q0 -70 43 -110q42 -40 116 -41q74 0 126 51t67 143h86q-20 -133 -97 -205q-76 -72 -184 -71q-108 0 -177 60t-68 159q0 26 6 57h86q-4 -29 -4 -43zM397 -25q-139 0 -213 79t-73 206q0 41 10 96l145 688h133l-143 -671q-10 -57 -10 -97q0 -184 184 -184
q134 0 232 102t129 246l129 604h133l-222 -1044h-133l37 172q-113 -197 -338 -197z" />
    <glyph glyph-name="Uring" unicode="&#x16e;" horiz-adv-x="1392" 
d="M1001 1702q0 45 -29 76q-30 30 -77 30t-78 -32t-31 -75q0 -44 31 -76t78 -32t77 32q29 32 29 77zM1077 1702q0 -72 -50 -124t-132 -52t-132 52t-50 124t50 124t132 52t132 -52t50 -124zM166 416q0 63 16 141l176 836h144l-187 -879q-10 -43 -10 -96q0 -156 85 -236
t239 -80q321 1 397 355l199 936h141l-199 -938q-101 -486 -537 -486q-220 0 -342 116t-122 331z" />
    <glyph glyph-name="uring" unicode="&#x16f;" horiz-adv-x="1138" 
d="M805 1333q0 45 -30 76t-77 31q-48 0 -78 -32t-30 -76t31 -76t77 -32t77 32q30 32 30 77zM881 1333q-1 -72 -51 -124t-132 -52t-132 52t-50 124t50 124t132 52t132 -52t51 -124zM397 -25q-139 0 -213 79t-73 206q0 41 10 96l145 688h133l-143 -671q-10 -57 -10 -97
q0 -184 184 -184q134 0 232 102t129 246l129 604h133l-222 -1044h-133l37 172q-113 -197 -338 -197z" />
    <glyph glyph-name="Uhungarumlaut" unicode="&#x170;" horiz-adv-x="1392" 
d="M913 1522l179 250h155l-225 -250h-109zM651 1522l178 250h156l-225 -250h-109zM166 416q0 63 16 141l176 836h144l-187 -879q-10 -43 -10 -96q0 -156 85 -236t239 -80q321 1 397 355l199 936h141l-199 -938q-101 -486 -537 -486q-220 0 -342 116t-122 331z" />
    <glyph glyph-name="uhungarumlaut" unicode="&#x171;" horiz-adv-x="1138" 
d="M733 1174l178 249h156l-225 -249h-109zM471 1174l178 249h156l-225 -249h-109zM397 -25q-139 0 -213 79t-73 206q0 41 10 96l145 688h133l-143 -671q-10 -57 -10 -97q0 -184 184 -184q134 0 232 102t129 246l129 604h133l-222 -1044h-133l37 172q-113 -197 -338 -197z
" />
    <glyph glyph-name="Uogonek" unicode="&#x172;" horiz-adv-x="1392" 
d="M627 -184l-23 -113h-246l23 113l147 112h103l-117 -112h113zM166 416q0 63 16 141l176 836h144l-187 -879q-10 -43 -10 -96q0 -156 85 -236t239 -80q321 1 397 355l199 936h141l-199 -938q-101 -486 -537 -486q-220 0 -342 116t-122 331z" />
    <glyph glyph-name="uogonek" unicode="&#x173;" horiz-adv-x="1138" 
d="M776 -184l-22 -113h-246l22 113l148 112h102l-116 -112h112zM397 -25q-139 0 -213 79t-73 206q0 41 10 96l145 688h133l-143 -671q-10 -57 -10 -97q0 -184 184 -184q134 0 232 102t129 246l129 604h133l-222 -1044h-133l37 172q-113 -197 -338 -197z" />
    <glyph glyph-name="Wcircumflex" unicode="&#x174;" horiz-adv-x="1890" 
d="M1143 1698l-170 -176h-107l219 250h123l156 -250h-96zM416 1393l47 -1221h8l530 1221h197l21 -1221h8l557 1221h172l-668 -1393h-203l-18 1167h-8l-520 -1167h-203l-78 1393h158z" />
    <glyph glyph-name="wcircumflex" unicode="&#x175;" horiz-adv-x="1511" 
d="M881 1350l-170 -176h-107l219 249h123l156 -249h-96zM299 1044l59 -849h9l378 849h185l41 -849h8l393 849h150l-500 -1044h-168l-39 879h-8l-393 -879h-168l-82 1044h135z" />
    <glyph glyph-name="Ycircumflex" unicode="&#x176;" horiz-adv-x="1177" 
d="M813 1698l-170 -176h-106l219 250h123l155 -250h-96zM500 553l-281 840h150l223 -697l520 697h170l-639 -840l-117 -553h-143z" />
    <glyph glyph-name="ycircumflex" unicode="&#x177;" horiz-adv-x="1048" 
d="M643 1350l-170 -176h-106l219 249h123l155 -249h-96zM299 1044l131 -849h8l477 849h158l-801 -1392h-323l26 117h222l129 231l-162 1044h135z" />
    <glyph glyph-name="Ydieresis" unicode="&#x178;" horiz-adv-x="1177" 
d="M1004 1700l-31 -139h-139l30 139h140zM725 1700l-31 -139h-139l31 139h139zM500 553l-281 840h150l223 -697l520 697h170l-639 -840l-117 -553h-143z" />
    <glyph glyph-name="Zacute" unicode="&#x179;" horiz-adv-x="1177" 
d="M637 1522l188 250h156l-236 -250h-108zM1223 1393l-29 -133l-997 -1127h774l-29 -133h-958l28 133l998 1127h-746l29 133h930z" />
    <glyph glyph-name="zacute" unicode="&#x17a;" horiz-adv-x="960" 
d="M518 1174l189 249h155l-235 -249h-109zM176 117h578l-25 -117h-749l24 117l729 811h-538l24 116h711l-25 -116z" />
    <glyph glyph-name="Zdotaccent" unicode="&#x17b;" horiz-adv-x="1177" 
d="M895 1720l-31 -139h-139l31 139h139zM1223 1393l-29 -133l-997 -1127h774l-29 -133h-958l28 133l998 1127h-746l29 133h930z" />
    <glyph glyph-name="zdotaccent" unicode="&#x17c;" horiz-adv-x="960" 
d="M700 1372l-30 -139h-140l31 139h139zM176 117h578l-25 -117h-749l24 117l729 811h-538l24 116h711l-25 -116z" />
    <glyph glyph-name="Zcaron" unicode="&#x17d;" horiz-adv-x="1177" 
d="M770 1595l170 177h107l-220 -250h-122l-156 250h96zM1223 1393l-29 -133l-997 -1127h774l-29 -133h-958l28 133l998 1127h-746l29 133h930z" />
    <glyph glyph-name="zcaron" unicode="&#x17e;" horiz-adv-x="960" 
d="M598 1247l170 176h106l-219 -249h-123l-155 249h96zM176 117h578l-25 -117h-749l24 117l729 811h-538l24 116h711l-25 -116z" />
    <glyph glyph-name="florin" unicode="&#x192;" horiz-adv-x="788" 
d="M129 752v116h211l106 525h367v-117h-254l-84 -408h275v-116h-297l-222 -1100h-364v117h254l196 983h-188z" />
    <glyph glyph-name="Aringacute" unicode="&#x1fa;" horiz-adv-x="1286" 
d="M797 1929l188 250h156l-236 -250h-108zM954 1681q0 45 -29 76q-30 31 -77 31t-78 -32t-31 -76t31 -76t78 -31q46 -1 76 31t30 77zM1030 1681q0 -71 -50 -123t-132 -52t-132 52t-50 124t50 123q50 53 132 53t132 -52t50 -125zM788 1233l-407 -746h506l-94 746h-5zM950 0
l-47 360h-592l-198 -360h-160l776 1393h178l189 -1393h-146z" />
    <glyph glyph-name="aringacute" unicode="&#x1fb;" horiz-adv-x="1191" 
d="M672 1622l188 250h156l-236 -250h-108zM799 1333q0 45 -30 76t-77 31t-78 -32q-30 -32 -30 -76t30 -76t78 -32q47 0 77 32t30 77zM874 1333q0 -72 -50 -124t-132 -52t-132 52t-50 124t50 124t132 52t132 -52t50 -124zM612 1069q236 0 326 -195l35 170h133l-221 -1044
h-133l32 152q-115 -176 -319 -177q-170 1 -267 101t-98 295q0 299 138 499t374 199zM891 698q0 123 -79 189q-79 65 -201 65t-208 -72t-108 -186l-64 -303q-6 -27 -6 -53q0 -98 69 -172t197 -74t222 84t125 230l41 194q12 51 12 98z" />
    <glyph glyph-name="AEacute" unicode="&#x1fc;" horiz-adv-x="1925" 
d="M1278 1522l188 250h156l-236 -250h-108zM944 1260l-538 -771h514l163 771h-139zM872 1393h1092l-29 -133h-708l-103 -484h615l-29 -133h-614l-107 -510h709l-29 -133h-852l76 362h-576l-254 -362h-174z" />
    <glyph glyph-name="aeacute" unicode="&#x1fd;" horiz-adv-x="1718" 
d="M879 1174l188 249h156l-236 -249h-108zM360 -25q-145 0 -229 71q-84 72 -84 218t87 240t245 94h399l19 96q8 33 8 68q-1 94 -61 142t-158 48q-219 0 -267 -209h-133q27 145 140 235t278 91q221 0 299 -156q131 156 340 156q172 0 268 -112t97 -281q0 -72 -31 -195h-690
l-19 -88q-6 -27 -6 -53q0 -112 70 -180t178 -68q213 0 291 230h133q-115 -346 -436 -347q-223 0 -332 201h-4q-141 -201 -402 -201zM336 481q-43 -1 -72 -23t-37 -59l-28 -139q-4 -25 -4 -35q0 -57 46 -95t140 -38q143 0 234 86t126 246l13 57h-418zM1481 705q0 113 -71 181
t-179 66q-108 0 -190 -65t-107 -182l-23 -107h553l11 49q6 31 6 58z" />
    <glyph glyph-name="Oslashacute" unicode="&#x1fe;" horiz-adv-x="1439" 
d="M674 102q156 0 278 98q123 98 158 265l84 405q8 35 8 72q0 127 -72 219l-706 -997q94 -62 250 -62zM281 451q0 -139 75 -228l709 1000q-96 67 -254 67t-281 -97t-157 -265l-84 -406q-8 -34 -8 -71zM1339 936q0 -211 -43 -380t-125 -301t-216 -209t-311 -77t-304 80
l-129 -182l-78 43l139 196q-129 135 -129 383t72 457t231 343q160 134 370 134t331 -84l133 187l80 -43l-143 -203q122 -133 122 -344zM813 1522l188 250h156l-235 -250h-109z" />
    <glyph glyph-name="oslashacute" unicode="&#x1ff;" horiz-adv-x="1153" 
d="M1022 672q0 -190 -55 -346t-177 -253t-276 -97t-246 51l-116 -166l-78 43l125 176q-99 102 -99 293t56 347t179 252q123 97 275 97t244 -51l117 166l78 -43l-125 -176q98 -102 98 -293zM600 952q-108 0 -194 -66q-84 -66 -109 -179l-68 -320q-6 -25 -6 -45q0 -97 49 -156
l510 727q-74 39 -182 39zM522 92q112 0 196 66q85 66 109 180l68 319q6 25 6 45q0 95 -51 156l-510 -729q70 -37 182 -37zM610 1174l189 249h155l-235 -249h-109z" />
    <glyph glyph-name="uni0218" unicode="&#x218;" horiz-adv-x="1247" 
d="M1034 1014q0 136 -87 206t-239 70t-236 -70q-85 -70 -85 -186q0 -166 197 -227l213 -66q145 -45 222 -134t77 -201q0 -203 -150 -320t-379 -117t-364 113t-135 334h143q0 -160 99 -237t258 -77t268 76t108 211q0 76 -48 134t-146 87l-215 62q-299 86 -299 356
q0 174 135 285t347 111t336 -107q124 -106 124 -303h-144zM608 -127l-28 -139l-93 -119h-57l86 119h-76l29 139h139z" />
    <glyph glyph-name="uni0219" unicode="&#x219;" horiz-adv-x="1028" 
d="M856 305q0 -154 -117 -242t-299 -88t-290 87t-107 245v23h133v-23q0 -109 78 -162t193 -53t195 53t79 136q0 117 -186 176l-148 45q-211 68 -211 256q0 139 104 225t274 86q169 0 265 -81t96 -222v-23h-133v21q0 96 -65 142q-66 46 -169 46t-170 -45t-67 -129
q0 -119 125 -160l164 -51q256 -80 256 -262zM489 -127l-28 -139l-92 -119h-58l86 119h-75l28 139h139z" />
    <glyph glyph-name="uni021A" unicode="&#x21a;" horiz-adv-x="1056" 
d="M449 -147l-29 -140l-92 -119h-58l86 119h-75l28 140h140zM182 1260l29 133h975l-29 -133h-416l-266 -1260h-143l266 1260h-416z" />
    <glyph glyph-name="uni021B" unicode="&#x21b;" horiz-adv-x="702" 
d="M354 -147l-28 -140l-93 -119h-57l86 119h-76l29 140h139zM444 928l-172 -811h250l-24 -117h-383l196 928h-174l25 116h174l74 349h133l-74 -349h250l-25 -116h-250z" />
    <glyph glyph-name="apostrophemod" unicode="&#x2bc;" horiz-adv-x="571" 
d="M522 1393l-37 -174l-135 -175h-74l130 175h-95l37 174h174z" />
    <glyph glyph-name="circumflex" unicode="&#x2c6;" horiz-adv-x="581" 
d="M317 1350l-170 -176h-106l219 249h123l156 -249h-97z" />
    <glyph glyph-name="caron" unicode="&#x2c7;" horiz-adv-x="581" 
d="M297 1247l170 176h106l-219 -249h-123l-155 249h96z" />
    <glyph glyph-name="breve" unicode="&#x2d8;" horiz-adv-x="602" 
d="M125 1380q0 -70 43 -110t117 -41q74 0 126 51t66 143h86q-20 -133 -97 -205q-76 -72 -184 -71q-108 0 -177 60t-68 159q0 26 6 57h86q-4 -29 -4 -43z" />
    <glyph glyph-name="dotaccent" unicode="&#x2d9;" horiz-adv-x="587" 
d="M395 1372l-30 -139h-140l31 139h139z" />
    <glyph glyph-name="ring" unicode="&#x2da;" horiz-adv-x="634" 
d="M424 1333q0 45 -30 76t-77 31t-77 -32t-31 -76q0 -44 31 -76q32 -32 78 -32t76 32t30 77zM500 1333q0 -72 -50 -124t-132 -52t-133 52q-50 52 -50 124t50 124t132 52q83 0 133 -52t50 -124z" />
    <glyph glyph-name="ogonek" unicode="&#x2db;" horiz-adv-x="571" 
d="M324 -184l-23 -113h-246l23 113l147 112h103l-117 -112h113z" />
    <glyph glyph-name="tilde" unicode="&#x2dc;" horiz-adv-x="598" 
d="M436 1214q-64 0 -155 50q-92 50 -127 49q-82 0 -97 -78h-73q14 80 63 121t113 41t157 -49q92 -49 125 -50q81 0 97 78h73q-14 -80 -63 -121t-113 -41z" />
    <glyph glyph-name="hungarumlaut" unicode="&#x2dd;" horiz-adv-x="509" 
d="M328 1174l178 249h156l-226 -249h-108zM66 1174l178 249h155l-225 -249h-108z" />
    <glyph glyph-name="uni0394" unicode="&#x394;" horiz-adv-x="1400" 
d="M614 1190l-417 -1069h837zM0 0l547 1393h139l547 -1393h-1233z" />
    <glyph glyph-name="uni03A9" unicode="&#x3a9;" horiz-adv-x="1388" 
d="M1247 852q0 -195 -75 -331t-218 -197v-203h246v-121h-379v408q123 20 203 95t80 187v324q0 133 -115 212t-273 79t-272 -79q-115 -79 -114 -212v-324q0 -114 80 -188t202 -94v-408h-379v121h246v203q-143 61 -218 197t-75 331q0 266 138 419t393 153q254 0 392 -154
q138 -152 138 -418z" />
    <glyph glyph-name="uni03BC" unicode="&#x3bc;" horiz-adv-x="1148" 
d="M414 -25q-139 0 -211 93l-90 -416h-133l296 1392h134l-144 -671q-10 -57 -10 -97q0 -184 184 -184q134 0 232 102t129 246l129 604h133l-221 -1044h-133l36 172q-114 -197 -331 -197z" />
    <glyph glyph-name="pi" unicode="&#x3c0;" horiz-adv-x="1196" 
d="M639 0l197 928h-385l-197 -928h-133l196 928h-184l25 116h1020l-25 -116h-184l-172 -811h184l-25 -117h-317z" />
    <glyph glyph-name="Wgrave" unicode="&#x1e80;" horiz-adv-x="1890" 
d="M1006 1772l131 -250h-105l-170 250h144zM416 1393l47 -1221h8l530 1221h197l21 -1221h8l557 1221h172l-668 -1393h-203l-18 1167h-8l-520 -1167h-203l-78 1393h158z" />
    <glyph glyph-name="wgrave" unicode="&#x1e81;" horiz-adv-x="1511" 
d="M756 1423l131 -249h-105l-170 249h144zM299 1044l59 -849h9l378 849h185l41 -849h8l393 849h150l-500 -1044h-168l-39 879h-8l-393 -879h-168l-82 1044h135z" />
    <glyph glyph-name="Wacute" unicode="&#x1e82;" horiz-adv-x="1890" 
d="M973 1522l188 250h156l-236 -250h-108zM416 1393l47 -1221h8l530 1221h197l21 -1221h8l557 1221h172l-668 -1393h-203l-18 1167h-8l-520 -1167h-203l-78 1393h158z" />
    <glyph glyph-name="wacute" unicode="&#x1e83;" horiz-adv-x="1511" 
d="M758 1174l188 249h156l-236 -249h-108zM299 1044l59 -849h9l378 849h185l41 -849h8l393 849h150l-500 -1044h-168l-39 879h-8l-393 -879h-168l-82 1044h135z" />
    <glyph glyph-name="Wdieresis" unicode="&#x1e84;" horiz-adv-x="1890" 
d="M1366 1700l-31 -139h-139l31 139h139zM1087 1700l-30 -139h-139l30 139h139zM416 1393l47 -1221h8l530 1221h197l21 -1221h8l557 1221h172l-668 -1393h-203l-18 1167h-8l-520 -1167h-203l-78 1393h158z" />
    <glyph glyph-name="wdieresis" unicode="&#x1e85;" horiz-adv-x="1511" 
d="M1100 1372l-31 -139h-139l31 139h139zM821 1372l-30 -139h-140l31 139h139zM299 1044l59 -849h9l378 849h185l41 -849h8l393 849h150l-500 -1044h-168l-39 879h-8l-393 -879h-168l-82 1044h135z" />
    <glyph glyph-name="Ygrave" unicode="&#x1ef2;" horiz-adv-x="1177" 
d="M674 1772l131 -250h-105l-170 250h144zM500 553l-281 840h150l223 -697l520 697h170l-639 -840l-117 -553h-143z" />
    <glyph glyph-name="ygrave" unicode="&#x1ef3;" horiz-adv-x="1048" 
d="M518 1423l131 -249h-104l-170 249h143zM299 1044l131 -849h8l477 849h158l-801 -1392h-323l26 117h222l129 231l-162 1044h135z" />
    <glyph glyph-name="enspace" unicode="&#x2002;" horiz-adv-x="1024" 
 />
    <glyph glyph-name="emspace" unicode="&#x2003;" horiz-adv-x="2048" 
 />
    <glyph glyph-name="threeperemspace" unicode="&#x2004;" horiz-adv-x="681" 
 />
    <glyph glyph-name="fourperemspace" unicode="&#x2005;" horiz-adv-x="512" 
 />
    <glyph glyph-name="thinspace" unicode="&#x2009;" horiz-adv-x="245" 
 />
    <glyph glyph-name="hairspace" unicode="&#x200a;" horiz-adv-x="153" 
 />
    <glyph glyph-name="endash" unicode="&#x2013;" horiz-adv-x="1294" 
d="M141 492l29 126h963l-29 -126h-963z" />
    <glyph glyph-name="emdash" unicode="&#x2014;" horiz-adv-x="2359" 
d="M193 492l28 126h1925l-28 -126h-1925z" />
    <glyph glyph-name="quoteleft" unicode="&#x2018;" horiz-adv-x="501" 
d="M254 1044l37 175l135 174h74l-129 -174h94l-37 -175h-174z" />
    <glyph glyph-name="quoteright" unicode="&#x2019;" horiz-adv-x="485" 
d="M506 1393l-37 -174l-135 -175h-74l129 175h-94l37 174h174z" />
    <glyph glyph-name="quotesinglbase" unicode="&#x201a;" horiz-adv-x="507" 
d="M254 174l-37 -174l-135 -174h-74l129 174h-94l37 174h174z" />
    <glyph glyph-name="quotedblleft" unicode="&#x201c;" horiz-adv-x="849" 
d="M254 1044l37 175l135 174h74l-129 -174h94l-37 -175h-174zM602 1044l37 175l135 174h74l-129 -174h94l-37 -175h-174z" />
    <glyph glyph-name="quotedblright" unicode="&#x201d;" horiz-adv-x="833" 
d="M854 1393l-37 -174l-135 -175h-74l129 175h-94l37 174h174zM506 1393l-37 -174l-135 -175h-74l129 175h-94l37 174h174z" />
    <glyph glyph-name="quotedblbase" unicode="&#x201e;" horiz-adv-x="856" 
d="M602 174l-37 -174l-135 -174h-74l129 174h-94l37 174h174zM254 174l-37 -174l-135 -174h-74l129 174h-94l37 174h174z" />
    <glyph glyph-name="dagger" unicode="&#x2020;" horiz-adv-x="978" 
d="M150 936l22 108h348l74 349h123l-74 -349h348l-22 -108h-348l-240 -1120h-123l240 1120h-348z" />
    <glyph glyph-name="daggerdbl" unicode="&#x2021;" horiz-adv-x="1136" 
d="M70 164l22 108h348l142 664h-349l23 108h348l74 349h123l-74 -349h348l-22 -108h-348l-142 -664h348l-22 -108h-348l-76 -348h-123l76 348h-348z" />
    <glyph glyph-name="bullet" unicode="&#x2022;" horiz-adv-x="1099" 
d="M569 1044q143 0 245 -102t104 -246q0 -144 -102 -244q-102 -102 -246 -102t-246 102t-101 245q-1 143 101 245t245 102z" />
    <glyph glyph-name="ellipsis" unicode="&#x2026;" horiz-adv-x="1552" 
d="M1298 174l-36 -174h-175l37 174h174zM776 174l-37 -174h-174l37 174h174zM254 174l-37 -174h-174l37 174h174z" />
    <glyph glyph-name="perthousand" unicode="&#x2030;" horiz-adv-x="2324" 
d="M195 0l1167 1393h127l-1167 -1393h-127zM1958 651q-66 0 -110 -38t-56 -101l-59 -270q-4 -16 -4 -43q0 -133 143 -133q66 0 110 38t56 101l59 270q4 16 4 43q0 133 -143 133zM1965 733q224 0 224 -244q0 -285 -138 -427q-77 -78 -186 -78t-167 61t-58 183q0 285 139 426
q77 79 186 79zM1268 651q-66 0 -110 -38t-56 -101l-60 -270q-4 -16 -4 -43q0 -133 144 -133q66 0 110 38t56 101l59 270q4 16 4 43q0 133 -143 133zM1499 502q-1 -297 -139 -440q-76 -78 -186 -78q-224 1 -224 244q0 285 139 426q77 79 186 79t167 -61t57 -170zM502 1327
q-66 0 -110 -38t-56 -101l-60 -270q-4 -16 -4 -44q0 -133 144 -133q66 0 110 38t56 102l59 270q4 16 4 43q0 133 -143 133zM733 1178q-1 -297 -139 -440q-76 -79 -185 -79q-109 -1 -167 61t-58 184q0 285 139 426q77 79 186 79t167 -61t57 -170z" />
    <glyph glyph-name="guilsinglleft" unicode="&#x2039;" horiz-adv-x="591" 
d="M356 145h-94l-143 422l287 340h110l-274 -358z" />
    <glyph glyph-name="guilsinglright" unicode="&#x203a;" horiz-adv-x="591" 
d="M207 907h94l143 -422l-286 -340h-111l275 359z" />
    <glyph glyph-name="fraction" unicode="&#x2044;" horiz-adv-x="204" 
d="M-524 0l1167 1393h127l-1167 -1393h-127z" />
    <glyph glyph-name="Euro" unicode="&#x20ac;" 
d="M612 88q131 0 212 70t120 217h135q-104 -406 -473 -406q-194 0 -304 133t-109 373v53h-138l47 101h101q6 72 18 143h-119l50 100h90q62 254 208 402t346 149q200 0 308 -105q109 -105 113 -282h-134q-2 131 -78 200q-77 69 -214 69q-137 -1 -237 -97t-136 -258l-19 -78
h471l-49 -100h-444l-31 -143h389l-47 -101h-362q-10 -49 -11 -94q0 -154 83 -250t214 -96z" />
    <glyph glyph-name="trademark" unicode="&#x2122;" horiz-adv-x="1781" 
d="M1663 1393v-697h-102v607l-218 -607h-92l-215 607v-607h-102v697h182l184 -541l185 541h178zM276 1307v86h521v-86h-209v-611h-103v611h-209z" />
    <glyph glyph-name="Omega" unicode="&#x2126;" horiz-adv-x="1402" 
d="M1257 852q-1 -195 -75 -331t-217 -197v-203h245v-121h-379v408q123 20 203 95t80 187v324q0 133 -115 212t-273 79t-272 -79t-114 -212v-324q0 -114 80 -188t203 -94v-408h-379v121h245v203q-143 61 -218 197t-74 331q0 266 138 419t392 153t392 -154q138 -152 138 -418z
" />
    <glyph glyph-name="onethird" unicode="&#x2153;" horiz-adv-x="1517" 
d="M100 0l1168 1393h127l-1168 -1393h-127zM1155 649q-63 0 -103 -34t-48 -89h-101q8 88 81 146t175 59q103 0 163 -48t60 -127q0 -153 -135 -194q76 -47 76 -149t-73 -167q-73 -64 -186 -64t-178 58t-65 167h101q0 -72 40 -108t105 -36q121 0 141 101l17 74q2 8 2 30
q1 22 -19 38q-20 18 -51 18h-153l16 86h151q76 0 93 61l14 61l2 21q0 96 -125 96zM580 1393l-152 -717h-100l114 545h-227l18 86h228l18 86h101z" />
    <glyph glyph-name="twothirds" unicode="&#x2154;" horiz-adv-x="1605" 
d="M188 0l1168 1393h127l-1168 -1393h-127zM482 1155q96 0 147 -56t51 -149q0 -135 -75 -213t-191 -78q-116 1 -183 57q-66 56 -65 156h100q0 -63 40 -97t100 -34t101 29q40 29 50 80l21 94q2 8 2 23q0 51 -32 80t-89 28q-90 0 -158 -86h-100l112 404h410l-21 -86h-317
l-59 -222q60 70 156 70zM1243 649q-63 0 -103 -34t-48 -89h-101q8 88 81 146t176 59q102 0 162 -48t60 -127q0 -153 -135 -194q76 -47 76 -149t-73 -167q-73 -64 -186 -64t-178 58t-65 167h101q0 -72 40 -108t105 -36q119 0 141 101l17 74q2 8 2 30q1 22 -19 38
q-20 18 -51 18h-153l16 86h152q76 0 92 61l14 61l2 21q0 96 -125 96z" />
    <glyph glyph-name="oneeighth" unicode="&#x215b;" horiz-adv-x="1525" 
d="M100 0l1168 1393h127l-1168 -1393h-127zM1071 66q127 0 150 92l14 55q2 8 2 23q0 46 -43 70t-104 24q-131 0 -152 -88l-12 -56q-2 -8 -2 -22q0 -46 43 -72t104 -26zM1139 410q51 0 88 24t45 60l10 45q2 8 2 20q0 45 -36 69t-88 24t-89 -26q-37 -24 -45 -61l-10 -47
l-2 -20q0 -44 37 -66t88 -22zM1066 -16q-116 0 -180 50t-65 133q0 83 47 139t127 77q-80 51 -80 141t73 150t173 59q99 0 163 -47t64 -124t-40 -128q-41 -51 -107 -72q96 -57 96 -157t-77 -161q-78 -60 -194 -60zM580 1393l-152 -717h-100l114 545h-227l18 86h228l18 86h101
z" />
    <glyph glyph-name="threeeighths" unicode="&#x215c;" horiz-adv-x="1611" 
d="M186 0l1168 1393h127l-1168 -1393h-127zM1157 66q127 0 150 92l14 55q2 8 2 23q0 46 -43 70t-104 24q-131 0 -152 -88l-12 -56q-2 -8 -2 -22q0 -46 43 -72t104 -26zM1100 498q0 -44 37 -66t88 -22t88 24t45 60l10 45q2 8 2 20q0 45 -36 69t-88 24t-89 -26
q-37 -24 -45 -61l-10 -47q-2 -8 -2 -20zM1152 -16q-116 0 -180 50t-65 133q0 83 47 139t127 77q-80 51 -80 141t73 150t173 59q99 0 163 -47t64 -124t-40 -128q-41 -51 -107 -72q96 -57 96 -157t-77 -161q-78 -60 -194 -60zM502 1327q-64 0 -104 -34t-48 -89h-100
q8 88 81 146t176 59q103 0 163 -48t59 -127q0 -152 -135 -194q76 -47 76 -149t-73 -167t-187 -65q-114 1 -178 59q-65 58 -64 167h100q0 -72 40 -108t106 -36q119 0 141 101l16 73q2 8 2 30t-19 39t-50 17h-154l17 86h151q76 0 92 62l15 61l2 21q0 96 -125 96z" />
    <glyph glyph-name="fiveeighths" unicode="&#x215d;" horiz-adv-x="1615" 
d="M190 0l1168 1393h127l-1168 -1393h-127zM482 1155q96 0 147 -56t51 -149q0 -135 -75 -213t-191 -78q-116 1 -183 57q-66 56 -65 156h100q0 -63 40 -97t100 -34t101 29q40 29 50 80l21 94q2 8 2 23q0 51 -32 80t-89 28q-90 0 -158 -86h-100l112 404h410l-21 -86h-317
l-59 -222q60 70 156 70zM1161 66q127 0 150 92l14 55q2 8 2 23q0 46 -43 70t-104 24q-131 0 -152 -88l-12 -56q-2 -8 -2 -22q0 -46 43 -72t104 -26zM1104 498q0 -44 37 -66t88 -22t88 24t45 60l10 45q2 8 2 20q0 45 -36 69t-88 24t-89 -26q-37 -24 -45 -61l-10 -47
q-2 -8 -2 -20zM1156 -16q-116 0 -180 50t-65 133q0 83 47 139t127 77q-79 51 -79 141t72 150q73 59 173 59q99 0 163 -47t64 -124t-40 -128q-41 -51 -107 -72q96 -57 96 -157t-77 -161q-78 -60 -194 -60z" />
    <glyph glyph-name="seveneighths" unicode="&#x215e;" horiz-adv-x="1476" 
d="M1022 66q127 0 149 92l15 55q2 8 2 23q0 46 -43 70t-105 24q-131 0 -151 -88l-12 -56q-2 -8 -3 -22q0 -46 44 -72t104 -26zM1090 410q51 0 88 24t45 60l10 45q2 8 2 20q0 45 -36 69t-88 24t-89 -26q-37 -24 -45 -61l-10 -47q-2 -8 -2 -20q0 -43 36 -66q38 -22 89 -22z
M1288 205q0 -101 -78 -161t-193 -60q-117 0 -181 50t-64 133t47 139t127 77q-80 51 -80 141t73 150t173 59q100 0 164 -47t63 -124q0 -77 -41 -128t-106 -72q96 -57 96 -157zM731 1311l-430 -635h-117l428 631h-362l18 86h480zM51 0l1168 1393h127l-1168 -1393h-127z" />
    <glyph glyph-name="arrowleft" unicode="&#x2190;" horiz-adv-x="1781" 
d="M1587 586v-127h-1222l456 -459h-180l-446 449v147l446 448h180l-456 -458h1222z" />
    <glyph glyph-name="arrowup" unicode="&#x2191;" horiz-adv-x="1433" 
d="M780 0h-127v1223l-458 -457v180l448 447h148l448 -447v-180l-459 457v-1223z" />
    <glyph glyph-name="arrowright" unicode="&#x2192;" horiz-adv-x="1781" 
d="M195 459v127h1222l-456 458h180l446 -448v-147l-446 -449h-180l456 459h-1222z" />
    <glyph glyph-name="arrowdown" unicode="&#x2193;" horiz-adv-x="1433" 
d="M653 1393h127v-1223l459 457v-181l-448 -446h-148l-448 446v181l458 -457v1223z" />
    <glyph glyph-name="uni2196" unicode="&#x2196;" horiz-adv-x="1470" 
d="M322 180l-127 127v633l104 104h633l127 -126h-647l864 -865l-90 -90l-864 864v-647z" />
    <glyph glyph-name="uni2197" unicode="&#x2197;" horiz-adv-x="1470" 
d="M1276 307l-127 -127v647l-864 -864l-90 90l864 865h-647l127 126h632l105 -104v-633z" />
    <glyph glyph-name="uni2198" unicode="&#x2198;" horiz-adv-x="1470" 
d="M539 0l-127 127h647l-864 864l90 90l864 -864v647l127 -127v-633l-105 -104h-632z" />
    <glyph glyph-name="uni2199" unicode="&#x2199;" horiz-adv-x="1470" 
d="M1059 127l-127 -127h-633l-104 104v633l127 127v-647l864 864l90 -90l-864 -864h647z" />
    <glyph glyph-name="partialdiff" unicode="&#x2202;" horiz-adv-x="1200" 
d="M207 330q1 -102 71 -167t205 -65t245 112t155 341q-25 105 -106 165t-210 60t-213 -68t-110 -186l-31 -141q-6 -29 -6 -51zM680 1423q205 0 310 -132t106 -355q0 -129 -39 -311q-66 -307 -217 -479q-152 -171 -389 -171q-185 1 -285 105t-100 264q0 252 146 405t361 152
q240 0 340 -203q37 180 37 279q0 160 -79 241t-220 81t-282 -123l-60 110q166 137 371 137z" />
    <glyph glyph-name="Delta" unicode="&#x2206;" horiz-adv-x="1425" 
d="M635 1190l-418 -1069h838zM20 0l547 1393h140l546 -1393h-1233z" />
    <glyph glyph-name="product" unicode="&#x220f;" horiz-adv-x="1562" 
d="M1180 -348v1968h-754v-1968h-133v2089h1020v-2089h-133z" />
    <glyph glyph-name="summation" unicode="&#x2211;" horiz-adv-x="1486" 
d="M1231 1620h-774l628 -918l-628 -929h774v-121h-938v121l629 929l-629 918v121h938v-121z" />
    <glyph glyph-name="minus" unicode="&#x2212;" 
d="M1120 575v-106h-1044v106h1044z" />
    <glyph glyph-name="uni2219" unicode="&#x2219;" horiz-adv-x="536" 
d="M340 612v-174h-174v174h174z" />
    <glyph glyph-name="radical" unicode="&#x221a;" horiz-adv-x="1148" 
d="M43 522h272l220 -700l491 1571h141l-555 -1741h-155l-242 754h-172v116z" />
    <glyph glyph-name="infinity" unicode="&#x221e;" horiz-adv-x="1515" 
d="M238 529q0 -83 47 -131t124 -48t136 46t133 132q-143 184 -260 185q-84 -1 -132 -51t-48 -133zM408 252q-123 0 -200 80t-77 200t79 201q79 80 200 80q76 0 140 -34q64 -35 100 -69q34 -34 93 -106q59 72 95 107t100 69t139 33q121 0 200 -80t79 -201q0 -120 -77 -200
t-191 -80t-184 48q-71 48 -161 146q-59 -66 -97 -100t-102 -64t-136 -30zM1249 529q0 83 -48 133t-132 51q-117 0 -260 -185q47 -57 81 -90q34 -32 84 -60t116 -28t112 48q47 48 47 131z" />
    <glyph glyph-name="integral" unicode="&#x222b;" horiz-adv-x="673" 
d="M29 -348v117h262v1972h395v-117h-262v-1972h-395z" />
    <glyph glyph-name="approxequal" unicode="&#x2248;" 
d="M989 385h113q0 -97 -71 -157t-179 -60q-120 0 -288 95q-78 44 -85 48l-28 14q-69 31 -119 31q-51 0 -87 -32t-36 -84h-113q0 98 71 157t158 59t143 -20t145 -66t102 -54q12 -7 55 -26q51 -22 99 -22t84 32t36 85zM989 807h113q0 -97 -71 -157t-179 -60q-120 0 -288 95
q-84 48 -108 59q-24 10 -32 14t-31 12t-68 8q-44 0 -80 -32t-36 -84h-113q0 98 71 157t158 59t143 -20t145 -66t102 -54q12 -7 55 -26q51 -22 99 -22t84 32t36 85z" />
    <glyph glyph-name="notequal" unicode="&#x2260;" 
d="M76 258v107h373l180 315h-553v106h614l150 258l90 -51l-119 -207h309v-106h-370l-183 -315h553v-107h-614l-148 -258l-90 51l119 207h-311z" />
    <glyph glyph-name="lessequal" unicode="&#x2264;" 
d="M1098 1044v-120l-924 -295l924 -295v-121l-1045 342v147zM1098 106v-106h-1045v106h1045z" />
    <glyph glyph-name="greaterequal" unicode="&#x2265;" 
d="M72 924v120l1044 -342v-147l-1044 -342v121l923 295zM72 0v106h1044v-106h-1044z" />
    <glyph glyph-name="dotmath" unicode="&#x22c5;" 
d="M686 612v-174h-174v174h174z" />
    <glyph glyph-name="lozenge" unicode="&#x25ca;" horiz-adv-x="1300" 
d="M760 1583l502 -881l-502 -880h-172l-502 880l502 881h172zM674 -59l430 761l-430 762l-430 -762z" />
    <glyph glyph-name="commaaccent" unicode="&#xf6c3;" horiz-adv-x="561" 
d="M350 -147l-28 -140l-93 -119h-57l86 119h-76l29 140h139z" />
    <glyph glyph-name="uniF8FF" unicode="&#xf8ff;" horiz-adv-x="1822" 
d="M215 0v1393h1393v-1393h-1393z" />
    <glyph glyph-name="zero.plf" horiz-adv-x="1255" 
d="M549 -31q-203 0 -305 117t-103 320q0 404 138 696q70 147 191 234q122 87 280 87q203 -1 305 -117t102 -319q0 -404 -137 -696q-70 -147 -192 -235t-279 -87zM260 391q0 -149 80 -225t221 -76t234 84q92 84 123 225l112 531q8 41 8 71q0 301 -307 302q-135 0 -227 -83
t-123 -225l-113 -534q-8 -39 -8 -70z" />
    <glyph glyph-name="one.plf" horiz-adv-x="778" 
d="M315 0l236 1108h-358l26 121h359l34 164h133l-294 -1393h-136z" />
    <glyph glyph-name="two.plf" horiz-adv-x="1157" 
d="M227 121h703l-27 -121h-899l29 125l731 590q217 176 217 336q0 123 -74 187q-75 64 -209 65q-134 0 -228 -82t-108 -228h-139q17 195 153 313t338 118t303 -106q101 -105 101 -265q0 -227 -258 -432l-633 -496v-4z" />
    <glyph glyph-name="three.plf" horiz-adv-x="1185" 
d="M715 653h-307l24 121h311q170 0 197 129l31 146q4 29 4 38q0 103 -82 159t-203 56t-210 -73q-89 -74 -103 -193h-139q16 166 147 277t321 111t301 -93q109 -91 109 -243t-70 -250t-186 -133q74 -53 108 -115t33 -164q0 -215 -131 -336t-358 -121q-182 0 -309 112
t-131 314h139q2 -147 93 -226t215 -79t209 57t108 162l32 154q4 29 4 41q0 63 -42 106t-115 43z" />
    <glyph glyph-name="four.plf" horiz-adv-x="1144" 
d="M842 1174l-625 -697h479zM729 0h-133l74 356h-635l26 121l828 916h135l-195 -916h201l-26 -121h-201z" />
    <glyph glyph-name="five.plf" horiz-adv-x="1169" 
d="M650 936q188 0 283 -108t95 -287q0 -258 -136 -415t-386 -157q-182 0 -305 109t-127 297h139q2 -131 88 -208t211 -77t218 67t116 175l41 196q6 27 6 52q0 109 -71 172t-183 63t-207 -56q-94 -57 -147 -149h-142l219 783h754l-26 -121h-631l-133 -488q136 152 324 152z
" />
    <glyph glyph-name="six.plf" horiz-adv-x="1224" 
d="M262 397q0 -143 76 -225t222 -82q144 0 234 74q89 74 115 203l25 116q6 29 6 54q0 121 -85 189t-217 67q-132 0 -234 -68t-121 -188l-17 -97q-4 -25 -4 -43zM568 -31q-216 0 -322 116q-106 117 -106 317q-1 393 136 693q70 151 193 239t298 89q175 0 281 -99t113 -267
h-139q-16 242 -285 241q-139 0 -239 -102t-133 -254l-37 -176q156 150 344 150t298 -107q110 -106 109 -289q1 -233 -147 -392t-364 -159z" />
    <glyph glyph-name="seven.plf" horiz-adv-x="1042" 
d="M1120 1272l-858 -1272h-158l859 1272h-740l27 121h897z" />
    <glyph glyph-name="eight.plf" horiz-adv-x="1222" 
d="M225 303q1 -93 89 -153t224 -60t224 55t108 142l27 116q4 16 4 46q0 106 -91 157t-232 51q-276 0 -322 -192l-27 -117q-4 -16 -4 -45zM999 1106q0 195 -278 197q-125 1 -197 -53t-90 -134l-24 -104q-4 -29 -4 -39q0 -96 74 -146q75 -49 208 -49q242 0 283 185l24 104
q4 29 4 39zM1044 410q0 -209 -142 -325t-362 -116q-454 0 -454 375q0 150 88 254t246 147q-156 91 -156 273t134 294t328 112t304 -90q111 -88 111 -242t-76 -251t-205 -136q184 -113 184 -295z" />
    <glyph glyph-name="nine.plf" horiz-adv-x="1224" 
d="M708 1303q-144 0 -234 -74q-89 -74 -116 -203l-24 -117q-6 -29 -6 -53q0 -120 85 -188t217 -68t233 68t122 188l16 96q4 25 5 43q0 143 -77 225t-221 83zM188 872q0 233 148 392t364 159q216 1 322 -115t106 -316t-34 -372q-128 -651 -593 -651q-175 -1 -281 99t-114 268
h140q16 -242 284 -242q140 0 240 102t133 255l37 176q-156 -150 -344 -150q-188 1 -298 107t-110 288z" />
    <glyph glyph-name="zero.tlfslash" 
d="M127 406q0 402 137 696q70 147 192 234t279 87q203 -1 305 -117t102 -319q1 -403 -136 -696q-70 -147 -192 -235t-279 -87q-203 0 -306 117q-102 117 -102 320zM1024 1030q0 59 -33 129l-653 -1005q78 -64 214 -64t228 84t123 225l113 531q8 41 8 100zM274 236l652 1007
q-78 59 -211 59t-225 -82q-92 -83 -123 -225l-113 -534q-25 -120 20 -225z" />
    <glyph glyph-name="zero.plfslash" horiz-adv-x="1255" 
d="M549 -31q-203 0 -305 117t-103 320q0 404 138 696q70 147 191 234q122 87 280 87q203 -1 305 -117t102 -319q0 -404 -137 -696q-70 -147 -192 -235t-279 -87zM1006 1159l-654 -1005q78 -64 214 -64t229 84q92 84 123 225l112 531q8 41 8 71q1 88 -32 158zM260 363
q0 -59 29 -127l651 1007q-78 59 -211 59t-225 -82q-92 -83 -123 -225l-113 -534q-8 -39 -8 -98z" />
    <glyph glyph-name="zero.num" horiz-adv-x="735" 
d="M504 1327q-66 0 -110 -38t-56 -101l-59 -270q-4 -16 -5 -44q0 -133 144 -133q66 0 110 38t56 102l59 270q4 16 4 43q0 133 -143 133zM511 1409q224 0 224 -244q0 -285 -138 -427q-77 -79 -186 -79q-109 -1 -167 61t-58 184q0 285 139 426q77 79 186 79z" />
    <glyph glyph-name="one.num" horiz-adv-x="620" 
d="M571 1393l-151 -717h-101l115 545h-227l18 86h228l18 86h100z" />
    <glyph glyph-name="two.num" horiz-adv-x="690" 
d="M285 762h340l-21 -86h-485l20 82l365 295q55 45 84 83q28 38 28 87t-34 77t-92 27q-60 0 -104 -37t-52 -108h-101q8 100 82 164q75 64 183 63q108 0 164 -53t55 -137q0 -111 -142 -224l-290 -229v-4z" />
    <glyph glyph-name="four.num" horiz-adv-x="700" 
d="M532 1229l-276 -295h217l64 295h-5zM520 676h-100l37 172h-326l19 84l430 461h94l-99 -459h115l-18 -86h-115z" />
    <glyph glyph-name="five.num" horiz-adv-x="686" 
d="M468 1155q96 0 146 -56q51 -56 52 -149q0 -135 -75 -213t-191 -78q-116 1 -183 57q-66 56 -65 156h100q0 -63 40 -97t100 -34t101 29q40 29 50 80l20 94q2 8 2 23q0 51 -31 80q-32 29 -90 28q-89 0 -157 -86h-101l113 404h410l-21 -86h-317l-60 -222q61 70 157 70z" />
    <glyph glyph-name="seven.num" horiz-adv-x="616" 
d="M707 1311l-431 -635h-116l428 631h-363l19 86h479z" />
    <glyph glyph-name="eight.num" horiz-adv-x="716" 
d="M408 741q127 0 149 93l14 55q2 8 2 22q0 45 -43 70t-104 25q-131 0 -152 -88l-12 -56q-2 -8 -2 -22q0 -47 44 -73t104 -26zM475 1085q51 0 88 24t45 60l10 45q2 8 3 21q0 45 -36 69t-88 24t-89 -26q-37 -24 -46 -61l-10 -47l-2 -20q0 -43 37 -66t88 -23zM402 659
q-116 1 -180 51t-64 133t47 139t127 77q-80 51 -80 141t73 150t173 59q100 0 164 -47t63 -124q0 -77 -41 -128t-106 -72q96 -57 96 -157t-78 -161t-194 -61z" />
    <glyph glyph-name="nine.num" horiz-adv-x="718" 
d="M631 1190q0 66 -37 102q-38 36 -102 35q-64 0 -107 -32t-53 -87l-13 -59q-2 -10 -2 -27q0 -55 38 -87q39 -31 101 -31t106 28t54 80l13 55q2 8 2 23zM491 1409q226 0 228 -231q0 -293 -136 -438q-77 -81 -187 -81q-110 -1 -166 51q-58 52 -58 144h100q2 -113 129 -113
q137 0 174 172l17 78q-70 -69 -167 -69t-154 56q-56 56 -56 166t82 187q82 78 194 78z" />
    <glyph glyph-name="six.num" horiz-adv-x="720" 
d="M412 741q64 0 108 32q43 32 53 87l13 60q2 10 2 26q0 55 -38 87t-100 32t-107 -29q-44 -29 -54 -80l-13 -55q-2 -8 -2 -22q0 -66 37 -102t101 -36zM480 1147q98 0 154 -56t56 -166t-82 -188t-193 -78q-229 0 -229 243q-1 283 137 426q77 81 186 81t167 -51t57 -144h-100
q-2 113 -129 113q-137 0 -174 -172l-17 -78q70 70 167 70z" />
    <glyph glyph-name="a.sup" horiz-adv-x="702" 
d="M396 840q-196 0 -197 220q0 114 66 229q67 116 191 116t169 -94l18 82h96l-116 -541h-93l15 74q-55 -86 -149 -86zM600 1214q0 53 -38 83t-92 30t-94 -34t-50 -87l-33 -157q-4 -20 -4 -27q0 -45 33 -75q33 -29 90 -29t102 40t59 107l21 98q6 29 6 51z" />
    <glyph glyph-name="b.sup" horiz-adv-x="704" 
d="M532 1403q196 0 197 -199q0 -145 -70 -255t-192 -109q-59 0 -105 29q-45 30 -61 81l-20 -98h-95l152 717h94l-53 -252q57 86 153 86zM328 1047q0 -66 40 -99t94 -33t93 34t49 89l33 156q4 16 4 27q0 45 -33 75q-32 30 -94 29t-106 -39t-58 -110l-16 -78q-6 -29 -6 -51z
" />
    <glyph glyph-name="c.sup" horiz-adv-x="626" 
d="M567 1217v4q0 106 -110 106q-45 0 -82 -29t-49 -86l-35 -161q-2 -10 -2 -44q1 -34 31 -62t81 -27q102 0 136 114h96q-51 -193 -236 -192q-94 0 -146 50t-52 176t72 232q73 106 194 107q92 0 145 -51t54 -137h-97z" />
    <glyph glyph-name="d.sup" horiz-adv-x="706" 
d="M602 1196q0 66 -39 98t-94 31q-55 0 -93 -33t-50 -88l-35 -155q-2 -10 -2 -42t32 -62q31 -30 93 -30t107 40t59 110l16 80q6 29 6 51zM398 840q-198 0 -199 198q0 145 69 255q70 110 193 110q59 0 104 -31t62 -80l59 277h96l-153 -717h-94l16 72q-57 -84 -153 -84z" />
    <glyph glyph-name="e.sup" horiz-adv-x="649" 
d="M588 1221q0 51 -34 79t-87 27q-53 0 -91 -29t-48 -86l-9 -41h263l4 21q2 10 2 29zM201 1053q0 145 73 249q74 103 186 103t166 -57t54 -146q0 -33 -16 -106h-363l-8 -45q-4 -20 -4 -27q0 -51 35 -79t88 -27q102 0 137 106h94q-57 -184 -237 -184q-205 0 -205 213z" />
    <glyph glyph-name="f.sup" horiz-adv-x="442" 
d="M453 1489l-21 -96h111l-17 -80h-110l-99 -461h-96l98 461h-88l17 80h88l37 176h219l-17 -80h-122z" />
    <glyph glyph-name="g.sup" horiz-adv-x="706" 
d="M602 1196q0 66 -39 98t-94 31q-55 0 -94 -33t-49 -88l-33 -155q-4 -20 -4 -29q0 -45 32 -75t89 -30q137 0 170 150l16 80q6 29 6 51zM366 641q-90 0 -149 45q-57 45 -57 123h96q0 -92 123 -92q53 0 97 36t61 109l14 62q-57 -84 -153 -84q-198 0 -199 198q0 145 69 255
q70 110 193 110q59 0 105 -31t63 -80l18 97h96l-114 -541q-23 -104 -98 -156t-165 -51z" />
    <glyph glyph-name="k.sup" horiz-adv-x="634" 
d="M434 1569l-151 -717h-97l154 717h94zM522 852l-172 301l248 240h125l-270 -250l168 -291h-99z" />
    <glyph glyph-name="m.sup" horiz-adv-x="980" 
d="M850 1405q63 0 101 -40t38 -103q0 -20 -4 -54l-76 -356h-94l74 350q4 20 4 45q0 80 -74 80q-55 0 -99 -47t-56 -113l-68 -315h-96l73 350q6 14 7 45q0 80 -76 80q-55 0 -98 -47t-58 -113l-65 -315h-97l113 539h96l-18 -84q59 98 158 98q55 0 91 -31t46 -82
q61 113 178 113z" />
    <glyph glyph-name="n.sup" horiz-adv-x="688" 
d="M547 1405q69 0 109 -40t40 -86t-6 -71l-74 -356h-94l72 350q6 31 6 45q0 80 -84 80q-63 0 -109 -47t-61 -113l-65 -315h-97l117 539h92l-16 -84q57 98 170 98z" />
    <glyph glyph-name="r.sup" horiz-adv-x="454" 
d="M186 852l115 541h260l-16 -80h-164l-98 -461h-97z" />
    <glyph glyph-name="s.sup" horiz-adv-x="616" 
d="M551 1245q-1 82 -107 82q-106 -1 -106 -85q0 -44 57 -60l82 -25q139 -47 139 -139q0 -78 -66 -128t-160 -50q-95 0 -154 46t-60 126v16h96v-16q0 -47 37 -71q37 -23 88 -23t87 24t36 62q0 47 -88 75l-74 25q-113 35 -112 131q0 76 57 123t145 47t144 -41q55 -41 55 -117
v-16h-96v14z" />
    <glyph glyph-name="t.sup" horiz-adv-x="479" 
d="M416 1313l-82 -381h123l-17 -80h-219l98 461h-88l17 80h88l37 176h96l-37 -176h123l-16 -80h-123z" />
    <glyph glyph-name="v.sup" horiz-adv-x="610" 
d="M336 1393l43 -418h8l225 418h103l-307 -541h-93l-79 541h100z" />
    <glyph glyph-name="w.sup" horiz-adv-x="866" 
d="M657 1393l13 -418h8l182 418h98l-249 -541h-113l-12 424h-9l-184 -424h-112l-37 541h92l18 -418h8l181 418h116z" />
    <glyph glyph-name="x.sup" horiz-adv-x="620" 
d="M125 852l246 287l-119 254h100l82 -187l156 187h112l-221 -258l127 -283h-98l-92 217l-178 -217h-115z" />
    <glyph glyph-name="y.sup" horiz-adv-x="614" 
d="M379 975h8l231 418h103l-414 -717h-192l18 80h127l55 100l-84 537h95z" />
    <glyph glyph-name="z.sup" horiz-adv-x="591" 
d="M287 934h284l-16 -82h-408l17 82l356 377h-264l18 82h385l-16 -82z" />
    <glyph glyph-name="comma.sup" horiz-adv-x="362" 
d="M319 967l-24 -115l-88 -115h-53l86 115h-62l25 115h116z" />
    <glyph glyph-name="period.sup" horiz-adv-x="362" 
d="M319 967l-24 -115h-117l25 115h116z" />
    <glyph glyph-name="o.sup" horiz-adv-x="669" 
d="M606 1221q0 106 -128 106t-152 -110l-35 -168q-2 -10 -2 -25q-1 -106 127 -106t153 110l35 168q2 10 2 25zM414 840q-100 0 -157 53q-56 53 -56 151q0 150 74 255q75 105 206 106q101 0 157 -53t56 -152q0 -150 -74 -255t-206 -105z" />
    <glyph glyph-name="i.sup" horiz-adv-x="360" 
d="M436 1569l-20 -99h-101l21 99h100zM283 852h-97l115 541h96z" />
    <glyph glyph-name="j.sup" horiz-adv-x="360" 
d="M436 1569l-20 -99h-101l21 99h100zM166 756l135 637h96l-151 -717h-221l16 80h125z" />
    <glyph glyph-name="l.sup" horiz-adv-x="360" 
d="M283 852h-97l152 717h96z" />
    <glyph glyph-name="h.sup" horiz-adv-x="690" 
d="M549 1405q69 0 109 -40t40 -86t-6 -71l-74 -356h-94l72 350q6 31 6 45q0 80 -84 80q-63 0 -109 -47t-61 -113l-65 -315h-97l152 717h96l-55 -262q57 98 170 98z" />
    <glyph glyph-name="u.sup" horiz-adv-x="684" 
d="M365 840q-68 0 -109 39t-41 106q0 29 6 53l74 355h94l-72 -351q-6 -31 -6 -45q0 -80 82 -79q63 0 109 46q45 46 59 113l66 316h96l-117 -539h-92l16 84q-57 -98 -165 -98z" />
    <glyph glyph-name="q.sup" horiz-adv-x="706" 
d="M602 1196q0 66 -39 98t-94 31q-55 0 -93 -33t-50 -88l-35 -155q-2 -10 -2 -42t32 -62q31 -30 93 -30t107 40t59 110l16 80q6 29 6 51zM398 840q-198 0 -199 198q0 145 69 255q70 110 193 110q59 0 104 -31t62 -80l20 101h96l-151 -717h-94l53 248q-57 -84 -153 -84z" />
    <glyph glyph-name="p.sup" horiz-adv-x="704" 
d="M532 1403q196 0 197 -199q0 -145 -70 -255t-192 -109q-59 0 -105 29q-45 30 -61 81l-59 -276h-95l154 719h94l-16 -76q57 86 153 86zM328 1047q0 -66 40 -99t94 -33t93 34t49 89l33 156q4 16 4 27q0 45 -33 75q-32 30 -94 29t-106 -39t-58 -110l-16 -78q-6 -29 -6 -51z
" />
    <glyph glyph-name="zero.numslash" horiz-adv-x="802" 
d="M449 741q65 0 109 38t56 102l60 270q4 16 4 44t-12 60l-318 -485q35 -29 101 -29zM532 1327q-64 0 -107 -38q-44 -38 -56 -101l-60 -270q-4 -16 -4 -50t12 -57l318 487q-39 29 -103 29zM442 659q-224 0 -225 245q0 284 138 426q77 79 187 79t166 -61q58 -61 58 -170
q0 -297 -138 -440q-76 -79 -186 -79z" />
    <glyph glyph-name="eacute.sup" horiz-adv-x="649" 
d="M588 1221q0 51 -34 79t-87 27q-53 0 -91 -29t-48 -86l-9 -41h263l4 21q2 10 2 29zM201 1053q0 145 73 249q74 103 186 103t166 -57t54 -146q0 -33 -16 -106h-363l-8 -45q-4 -20 -4 -27q0 -51 35 -79t88 -27q102 0 137 106h94q-57 -184 -237 -184q-205 0 -205 213z
M438 1460l97 127h108l-121 -127h-84z" />
    <glyph glyph-name="egrave.sup" horiz-adv-x="649" 
d="M588 1221q0 51 -34 79t-87 27q-53 0 -91 -29t-48 -86l-9 -41h263l4 21q2 10 2 29zM201 1053q0 145 73 249q74 103 186 103t166 -57t54 -146q0 -33 -16 -106h-363l-8 -45q-4 -20 -4 -27q0 -51 35 -79t88 -27q102 0 137 106h94q-57 -184 -237 -184q-205 0 -205 213z
M453 1587l63 -127h-78l-90 127h105z" />
    <glyph glyph-name="guillemotright.case" horiz-adv-x="911" 
d="M244 1057h94l143 -422l-286 -340h-111l274 358zM551 1057h94l143 -422l-286 -340h-111l275 358z" />
    <glyph glyph-name="guilsinglright.case" horiz-adv-x="604" 
d="M244 1057h94l143 -422l-286 -340h-111l274 358z" />
    <glyph glyph-name="guillemotleft.case" horiz-adv-x="911" 
d="M700 295h-94l-143 422l287 340h110l-274 -359zM393 295h-94l-143 422l286 340h111l-274 -359z" />
    <glyph glyph-name="guilsinglleft.case" horiz-adv-x="604" 
d="M393 295h-94l-143 422l286 340h111l-274 -359z" />
    <glyph glyph-name="bracketleft.case" horiz-adv-x="702" 
d="M434 1604h379l-25 -111h-256l-337 -1593h256l-25 -111h-379z" />
    <glyph glyph-name="braceleft.case" horiz-adv-x="761" 
d="M289 639h-195l25 115h192zM289 639h123l-158 -739h256l-25 -111h-379zM311 754l183 850h378l-24 -111h-256l-156 -739h-125z" />
    <glyph glyph-name="parenleft.case" horiz-adv-x="624" 
d="M240 379q0 -287 133 -590h-103q-139 309 -139 690q0 307 132 601t382 524h123q-359 -363 -420 -639l-92 -428q-16 -82 -16 -158z" />
    <glyph glyph-name="bracketright.case" horiz-adv-x="700" 
d="M317 1604h379l-387 -1815h-377l23 111h256l338 1593h-256z" />
    <glyph glyph-name="braceright.case" horiz-adv-x="761" 
d="M514 754h195l-25 -115h-192zM514 754h-123l158 739h-256l24 111h379zM492 639l-183 -850h-379l25 111h256l156 739h125z" />
    <glyph glyph-name="parenright.case" horiz-adv-x="622" 
d="M426 1016q0 287 -133 590h102q139 -309 140 -691q-1 -307 -133 -601t-382 -523h-122q358 363 419 639l93 428q16 82 16 158z" />
    <glyph glyph-name="endash.case" horiz-adv-x="1312" 
d="M176 621l27 127h962l-26 -127h-963z" />
    <glyph glyph-name="emdash.case" horiz-adv-x="2396" 
d="M233 621l27 127h1925l-26 -127h-1926z" />
    <glyph glyph-name="hyphen.case" horiz-adv-x="923" 
d="M176 621l27 127h573l-26 -127h-574z" />
    <glyph glyph-name="uni00AD.case" horiz-adv-x="923" 
d="M176 621l27 127h573l-26 -127h-574z" />
    <glyph glyph-name="parenleft.sup" horiz-adv-x="409" 
d="M332 1239l-49 -221q-8 -49 -9 -80q0 -143 70 -303h-70q-80 180 -79 356q0 336 264 578h88q-184 -191 -215 -330z" />
    <glyph glyph-name="parenright.sup" horiz-adv-x="407" 
d="M348 1266q0 143 -69 303h69q80 -180 80 -357q0 -336 -264 -577h-88q184 191 215 330l49 221q8 49 8 80z" />
    <glyph glyph-name="zero.sup" horiz-adv-x="735" 
d="M541 1503q-66 0 -110 -38t-56 -101l-60 -270q-4 -16 -4 -43q0 -133 144 -133q65 0 109 38t57 101l59 270q4 16 4 43q0 133 -143 133zM772 1354q0 -297 -138 -440q-76 -78 -186 -78q-224 1 -225 244q0 284 138 426q77 79 187 79t166 -61q58 -61 58 -170z" />
    <glyph glyph-name="one.sup" horiz-adv-x="555" 
d="M608 1569l-151 -717h-101l115 545h-227l18 86h227l19 86h100z" />
    <glyph glyph-name="zero.den" horiz-adv-x="733" 
d="M270 66q139 0 168 137l60 274q4 16 4 60t-40 79t-102 35q-139 0 -167 -137l-60 -274q-6 -25 -6 -43q0 -59 41 -95t102 -36zM590 485q0 -197 -81 -349t-239 -152q-113 0 -171 66t-58 184q0 272 138 419q75 80 185 80q110 -1 168 -65t58 -183z" />
    <glyph glyph-name="one.den" horiz-adv-x="618" 
d="M426 717l-152 -717h-100l115 545h-228l19 86h227l19 86h100z" />
    <glyph glyph-name="zero.sub" horiz-adv-x="735" 
d="M313 434q-65 0 -109 -38t-57 -101l-59 -270q-4 -16 -4 -43q0 -133 143 -134q66 0 110 38t56 102l60 270q4 16 4 43q-1 133 -144 133zM-4 11q0 284 138 426q76 79 186 79q222 0 224 -244q1 -283 -137 -427q-77 -79 -187 -79q-224 2 -224 245z" />
    <glyph glyph-name="one.sub" horiz-adv-x="557" 
d="M383 500l-152 -717h-100l115 545h-228l19 86h227l19 86h100z" />
    <glyph glyph-name="two.sub" horiz-adv-x="690" 
d="M94 -131h340l-20 -86h-486l21 82l364 295q55 45 84 83t29 87t-34 77q-34 27 -93 27t-103 -37t-53 -108h-100q8 99 82 163t182 64q107 0 163 -53t56 -137q0 -111 -141 -224l-291 -229v-4z" />
    <glyph glyph-name="four.sub" horiz-adv-x="698" 
d="M342 336l-276 -295h217l63 295h-4zM330 -217h-101l37 172h-325l18 84l430 461h94l-98 -459h115l-19 -86h-114z" />
    <glyph glyph-name="five.sub" horiz-adv-x="686" 
d="M475 57q0 -135 -75 -213t-191 -78t-182 57q-66 56 -66 157h100q0 -64 40 -98q41 -34 101 -34t100 29t50 80l21 94q2 8 2 23q0 51 -32 80t-89 28q-90 0 -158 -86h-100l113 404h409l-20 -86h-318l-59 -221q61 69 157 69t146 -56q51 -56 51 -149z" />
    <glyph glyph-name="six.sub" horiz-adv-x="720" 
d="M82 -27q0 -65 36 -101t102 -36q64 0 108 32q43 32 53 87l12 59q2 10 2 27q0 55 -38 87t-100 32t-106 -29t-55 -80l-12 -55q-2 -8 -2 -23zM222 -246q-228 0 -228 243q0 281 136 426q76 81 186 81t167 -51t58 -144h-101q-2 113 -129 113q-137 0 -174 -172l-16 -78
q70 70 167 70t153 -56q57 -56 57 -166t-82 -188t-194 -78z" />
    <glyph glyph-name="seven.sub" horiz-adv-x="618" 
d="M514 418l-430 -635h-117l428 631h-362l18 86h479z" />
    <glyph glyph-name="eight.sub" horiz-adv-x="714" 
d="M217 -152q127 0 150 93l14 55q2 8 2 22q0 45 -43 70t-104 25q-131 0 -152 -88l-12 -56q-2 -8 -2 -22q0 -47 43 -73t104 -26zM285 193q51 -1 88 23t45 60l10 46q2 8 2 20q0 45 -36 69q-36 23 -88 23t-89 -24t-45 -62l-10 -47l-2 -20q0 -43 37 -65t88 -23zM212 -233
q-116 0 -180 50t-65 133q0 83 47 139t127 77q-80 51 -80 141q0 89 73 149t173 60q99 0 163 -47t64 -124t-40 -128q-41 -51 -107 -72q96 -57 96 -157t-77 -161q-78 -60 -194 -60z" />
    <glyph glyph-name="nine.sub" horiz-adv-x="720" 
d="M442 297q0 65 -36 101t-102 36q-64 0 -107 -32t-54 -87l-12 -59q-2 -10 -2 -27q0 -55 38 -87t100 -32t107 29q44 29 54 80l12 55q2 8 2 23zM302 516q228 0 228 -242q0 -284 -136 -427q-77 -81 -186 -81t-167 52q-57 51 -57 143h100q2 -113 129 -113q137 0 174 172l16 78
q-70 -70 -167 -70t-153 57q-56 56 -56 166q-1 109 81 187t194 78z" />
    <glyph glyph-name="plus.sub" horiz-adv-x="722" 
d="M186 6h-221l21 94h221l47 224h100l-47 -224h219l-20 -94h-219l-47 -223h-101z" />
    <glyph glyph-name="minus.sub" horiz-adv-x="780" 
d="M555 98l-20 -94h-541l20 94h541z" />
    <glyph glyph-name="equal.sub" horiz-adv-x="780" 
d="M512 -106h-541l21 98h540zM557 111h-541l21 98h541z" />
    <glyph glyph-name="parenleft.sub" horiz-adv-x="411" 
d="M47 -131q0 -143 70 -303h-70q-80 180 -80 356q0 336 264 578h88q-184 -191 -215 -330l-49 -221q-8 -49 -8 -80z" />
    <glyph glyph-name="parenright.sub" horiz-adv-x="409" 
d="M123 197q0 143 -70 303h70q80 -180 80 -357q0 -334 -264 -577h-89q185 191 216 330l49 221q8 49 8 80z" />
    <glyph glyph-name="at.case" horiz-adv-x="1632" 
d="M1423 348h-880l155 729h512l-131 -612h236l172 811h-983l-240 -1126h768l-24 -117h-902l289 1360h1250zM805 961l-105 -496h246l105 496h-246z" />
    <glyph glyph-name="bar.case" horiz-adv-x="636" 
d="M279 -348v2089h122v-2089h-122z" />
    <glyph glyph-name="minus.case" 
d="M1147 723v-107h-1045v107h1045z" />
    <glyph glyph-name="multiply.case" 
d="M713 672l440 -441l-82 -81l-438 438l-440 -441l-82 84l440 441l-440 440l82 82l440 -440l440 440l80 -82z" />
    <glyph glyph-name="plus.case" 
d="M573 614h-464v107h464v469h115v-469h465v-107h-465v-469h-115v469z" />
    <glyph glyph-name="divide.case" 
d="M715 1192v-170h-168v170h168zM715 317v-170h-168v170h168zM1153 723v-107h-1044v107h1044z" />
    <glyph glyph-name="infinity.case" horiz-adv-x="1513" 
d="M264 677q0 -83 47 -131t124 -48t136 46t134 132q-143 184 -261 184q-84 0 -132 -50t-48 -133zM434 399q-123 0 -200 80t-76 201q0 121 79 201t199 80q76 0 141 -34t99 -69t94 -106q59 72 94 106t100 69q65 34 140 34q121 0 200 -80q78 -80 78 -201t-76 -201t-190 -80
q-114 1 -185 49t-161 146q-59 -66 -97 -100t-103 -65q-65 -30 -136 -30zM1276 677q0 83 -48 133t-132 50q-117 0 -260 -184q46 -57 80 -90t84 -61q50 -27 116 -27t113 48t47 131z" />
    <glyph glyph-name="equal.case" 
d="M1145 406h-1045v106h1045v-106zM1145 827h-1045v107h1045v-107z" />
    <glyph glyph-name="less.case" 
d="M1100 1192v-123l-934 -399l934 -400v-123l-1045 449v147z" />
    <glyph glyph-name="greater.case" 
d="M160 1069v123l1044 -449v-147l-1044 -449v123l934 400z" />
    <glyph glyph-name="notequal.case" 
d="M94 406v106h373l180 315h-553v107h615l149 258l90 -51l-119 -207h310v-107h-371l-182 -315h553v-106h-615l-147 -259l-90 52l119 207h-312z" />
    <glyph glyph-name="plusminus.case" 
d="M1114 254v-107h-1044v107h1044zM535 723h-465v106h465v363h114v-363h465v-106h-465v-363h-114v363z" />
    <glyph glyph-name="greaterequal.case" 
d="M106 1071v121l1045 -342v-148l-1045 -342v121l924 295zM106 147v107h1045v-107h-1045z" />
    <glyph glyph-name="lessequal.case" 
d="M1120 1192v-121l-923 -295l923 -295v-121l-1044 342v148zM1120 254v-107h-1044v107h1044z" />
    <glyph glyph-name="approxequal.case" 
d="M1012 532h112q0 -98 -70 -157t-158 -59t-144 20t-144 66q-89 46 -108 57t-40 20q-22 7 -36 13t-28 9t-54 3q-39 0 -75 -32t-36 -85h-112q0 98 70 158q71 59 180 59q66 0 141 -27t231 -116q80 -40 107 -43q26 -2 39 -2q53 0 89 32t36 84zM1012 954h112q0 -98 -70 -157
t-158 -59t-144 20t-144 66q-89 46 -102 54q-83 48 -143 48t-96 -32t-36 -85h-112q0 98 70 158q71 59 180 59q66 0 141 -27t231 -116q80 -40 107 -43q26 -2 39 -2q53 0 89 32t36 84z" />
    <glyph glyph-name="logicalnot.case" 
d="M1026 393v434h-930v107h1045v-541h-115z" />
    <glyph glyph-name="plus.sup" horiz-adv-x="718" 
d="M424 1085h-231l16 74h231l49 234h80l-49 -234h230l-17 -74h-229l-49 -233h-80z" />
    <glyph glyph-name="minus.sup" horiz-adv-x="782" 
d="M780 1157l-16 -74h-541l17 74h540z" />
    <glyph glyph-name="equal.sup" horiz-adv-x="784" 
d="M745 983h-540l16 78h541zM786 1180h-540l16 77h541z" />
    <glyph glyph-name="three.sub" horiz-adv-x="702" 
d="M299 434q-63 0 -103 -34t-49 -89h-100q8 89 81 147t175 58q103 0 163 -48t60 -127q0 -152 -135 -194q76 -47 76 -149t-73 -167t-186 -65t-178 59q-65 58 -65 167h101q0 -72 40 -108t105 -36q121 0 141 101l17 74q2 7 2 29q1 22 -19 40t-51 17h-154l17 86h151q76 0 93 61
l14 61l2 21q0 96 -125 96z" />
    <glyph glyph-name="three.num" horiz-adv-x="702" 
d="M489 1327q-63 0 -103 -34t-48 -89h-100q8 88 80 147q74 58 176 58t162 -48t60 -127t-36 -127q-37 -48 -98 -67q76 -47 76 -149t-74 -167q-72 -65 -186 -65q-114 1 -178 59q-65 58 -64 167h100q0 -72 40 -108t105 -36q119 0 142 101l16 73q2 8 2 30t-19 39t-50 17h-154
l16 86h152q76 0 92 62l14 61l2 21q0 96 -125 96z" />
    <glyph glyph-name="orn.01" horiz-adv-x="1310" 
d="M0 131v131h131v-131h-131zM1311 1311h131v-131h-131v131zM1311 1311h-131v131h131v-131zM131 131h131v-131h-131v131zM393 131h-131v131h131v-131zM393 131h131v-131h-131v131zM131 393h131v-131h-131v131zM131 393h-131v131h131v-131zM1311 1049h-131v131h-131v131h131
v-131h131v-131zM1311 1049h131v-131h-131v131zM1049 1311h-131v131h131v-131zM393 262v131h-131v131h131v-131h131v-131h-131zM524 131v131h131v-131h-131zM655 131h131v-131h-131v131zM131 655h131v-131h-131v131zM131 655h-131v131h131v-131zM1311 786h-131v132h-131v131
h-131v131h-132v131h132v-131h131v-131h131v-131h131v-132zM1311 786h131v-131h-131v131zM786 1311h-131v131h131v-131zM1311 524h-131v131h-131v131h-131v132h-132v131h-131v131h-131v131h131v-131h131v-131h132v-131h131v-132h131v-131h131v-131zM1311 524h131v-131h-131
v131zM524 1311h-131v131h131v-131zM393 524v131h-131v131h131v-131h131v-131h-131zM524 393v131h131v-131h-131zM655 262v131h131v-131h-131zM786 131v131h132v-131h-132zM918 131h131v-131h-131v131zM131 918h131v-132h-131v132zM131 918h-131v131h131v-131zM1311 262h-131
v131h-131v131h-131v131h-132v131h-131v132h-131v131h-131v131h-131v131h131v-131h131v-131h131v-131h131v-132h132v-131h131v-131h131v-131h131v-131zM1311 262h131v-131h-131v131zM262 1311h-131v131h131v-131zM393 786v132h-131v131h131v-131h131v-132h-131zM524 655v131
h131v-131h-131zM655 524v131h131v-131h-131zM786 393v131h132v-131h-132zM918 262v131h131v-131h-131zM1049 131v131h131v-131h-131zM1311 131v-131h-131v131h131zM262 1180v-131h-131v131h131zM131 1311v-131h-131v131h131z" />
    <glyph glyph-name="orn.02" horiz-adv-x="1310" 
d="M0 1311v131h1442v-131h-1442zM0 1049v131h1442v-131h-1442zM0 786v132h1442v-132h-1442zM0 524v131h1442v-131h-1442zM0 262v131h1442v-131h-1442zM0 0v131h1442v-131h-1442z" />
    <glyph glyph-name="orn.03" horiz-adv-x="1572" 
d="M131 0h-131v1442h131v-1442zM393 0h-131v1442h131v-1442zM655 0h-131v1442h131v-1442zM918 0h-132v1442h132v-1442zM1180 0h-131v1442h131v-1442zM1442 0h-131v1442h131v-1442z" />
    <glyph glyph-name="orn.04" horiz-adv-x="1179" 
d="M1180 0v131h131v131h131v-131h-131v-131h-131zM786 0v131h132v-131h-132zM0 0v131h131v-131h-131zM393 0v131h131v131h131v131h131v131h132v131h131v131h131v132h131v131h131v-131h-131v-132h-131v-131h-131v-131h-131v-131h-132v-131h-131v-131h-131v-131h-131zM0 1180
v131h131v131h131v-131h-131v-131h-131zM0 786v132h131v131h131v131h131v131h131v131h131v-131h-131v-131h-131v-131h-131v-131h-131v-132h-131zM0 393v131h131v131h131v131h131v132h131v131h131v131h131v131h132v131h131v-131h-131v-131h-132v-131h-131v-131h-131v-132h-131
v-131h-131v-131h-131v-131h-131zM1311 524v131h131v-131h-131zM1311 524v-131h-131v131h131zM1180 393v-131h-131v131h131zM1049 262v-131h-131v131h131zM1311 1311v131h131v-131h-131zM1311 1311v-131h-131v131h131zM1180 1180v-131h-131v131h131zM1049 1049v-131h-131v131
h131zM918 918v-132h-132v132h132zM786 786v-131h-131v131h131zM655 655v-131h-131v131h131zM524 524v-131h-131v131h131zM393 393v-131h-131v131h131zM262 262v-131h-131v131h131z" />
    <glyph glyph-name="orn.05" horiz-adv-x="1179" 
d="M131 131h-131v131h131v-131zM131 131h131v-131h-131v131zM1311 1311h-131v131h131v-131zM1311 1311h131v-131h-131v131zM131 524h131v-131h131v-131h-131v131h-131v131zM131 524h-131v131h131v-131zM524 131h-131v131h131v-131zM524 131h131v-131h-131v131zM918 1311h131
v-131h131v-131h131v-131h-131v131h-131v131h-131v131zM918 1311h-132v131h132v-131zM1311 918h131v-132h-131v132zM131 918h131v-132h131v-131h131v-131h131v-131h131v-131h132v-131h-132v131h-131v131h-131v131h-131v131h-131v131h-131v132zM131 918h-131v131h131v-131z
M918 131h131v-131h-131v131zM524 1311h131v-131h131v-131h132v-131h131v-132h131v-131h131v-131h-131v131h-131v131h-131v132h-132v131h-131v131h-131v131zM524 1311h-131v131h131v-131zM1311 524h131v-131h-131v131zM131 1311h131v-131h131v-131h131v-131h131v-132h131
v-131h132v-131h131v-131h131v-131h-131v131h-131v131h-132v131h-131v131h-131v132h-131v131h-131v131h-131v131zM131 1311h-131v131h131v-131zM1311 131h-131v131h131v-131zM1311 131h131v-131h-131v131z" />
    <glyph glyph-name="orn.06" horiz-adv-x="1703" 
d="M524 918v-132h-131v132h131zM524 918v131h131v-131h-131zM655 1049v131h131v-131h-131zM655 131h-131v131h-131v131h131v-131h131v-131zM655 131h131v-131h-131v131zM393 786v-131h1180v-131h-1180v-131h-131v131h-131v131h131v131h131z" />
    <glyph glyph-name="orn.07" horiz-adv-x="1703" 
d="M1180 262v131h131v-131h-131zM1180 262v-131h-131v131h131zM1049 131v-131h-131v131h131zM1049 1049h131v-131h131v-132h-131v132h-131v131zM1049 1049h-131v131h131v-131zM1311 393v131h-1180v131h1180v131h131v-131h131v-131h-131v-131h-131z" />
    <glyph glyph-name="orn.08" horiz-adv-x="1310" 
d="M262 918h131v-132h131v-131h131v-131h131v-131h132v-131h-132v131h-131v131h-131v131h-131v131h-131v132zM262 918h-131v131h131v-131zM918 262h131v656h131v-918h-918v131h656v131z" />
    <glyph glyph-name="orn.09" horiz-adv-x="1310" 
d="M1049 0h-918v918h131v-656h131v131h131v-131h-131v-131h656v-131zM524 393v131h131v-131h-131zM655 524v131h131v-131h-131zM786 655v131h132v-131h-132zM918 786v132h131v-132h-131zM1049 918v131h131v-131h-131z" />
    <glyph glyph-name="orn.10" horiz-adv-x="1441" 
d="M1049 393v-131h-131v131h131zM1049 393v131h131v-131h-131zM1180 524v131h131v-131h-131zM262 524h131v-131h131v-131h-131v131h-131v131zM262 524h-131v131h131v-131zM918 262v-131h-132v-131h-131v131h-131v131h131v1180h131v-1180h132z" />
    <glyph glyph-name="orn.11" horiz-adv-x="1441" 
d="M262 918v-132h-131v132h131zM262 918v131h131v131h131v-131h-131v-131h-131zM1180 918h-131v131h-131v131h131v-131h131v-131zM1180 918h131v-132h-131v132zM524 1180v131h131v131h131v-131h132v-131h-132v-1180h-131v1180h-131z" />
    <glyph glyph-name="orn.12" horiz-adv-x="1441" 
d="M1311 1180v-131h-131v-131h-131v131h131v131h131zM131 0v131h131v131h131v131h131v-131h-131v-131h-131v-131h-131zM1049 918v-132h-131v132h131zM918 786v-131h-132v131h132zM524 393v131h131v-131h-131zM786 655v-131h132v-131h131v-131h-131v131h-132v131h-131v131
h131zM262 1049h131v-131h131v-132h131v-131h-131v131h-131v132h-131v131zM262 1049h-131v131h131v-131zM1180 131h-131v131h131v-131zM1180 131h131v-131h-131v131z" />
    <glyph glyph-name="orn.13" horiz-adv-x="1966" 
d="M1573 1180v-131h-131v-131h-131v131h131v131h131zM393 0v131h131v131h131v131h131v-131h-131v-131h-131v-131h-131zM262 1311v-1442h1442v1442h-1442zM131 -262v1704h1704v-1704h-1704zM1311 918v-132h-131v132h131zM1180 786v-131h-131v131h131zM786 393v131h132v-131
h-132zM1049 655v-131h131v-131h131v-131h-131v131h-131v131h-131v131h131zM524 1049h131v-131h131v-132h132v-131h-132v131h-131v132h-131v131zM524 1049h-131v131h131v-131zM1442 131h-131v131h131v-131zM1442 131h131v-131h-131v131z" />
    <glyph glyph-name="orn.14" horiz-adv-x="1966" 
d="M393 0v131h131v-131h-131zM262 1311v-1442h1442v1442h-1442zM131 -262v1704h1704v-1704h-1704zM1442 918h-131v131h131v131h131v-131h-131v-131zM1442 918h131v-132h-131v132zM1311 1049h-131v131h131v-131zM655 131h-131v131h131v-131zM655 131h131v-131h-131v131z
M524 262h-131v131h131v-131zM655 262v131h-131v131h131v-131h131v-131h-131zM786 131v131h132v-131h-132zM918 131h131v-131h-131v131zM524 524h-131v131h131v-131zM1442 655h-131v131h-131v132h-131v131h131v-131h131v-132h131v-131zM1442 655h131v-131h-131v131z
M1049 1049h-131v131h131v-131zM655 524v131h-131v131h131v-131h131v-131h-131zM786 393v131h132v-131h-132zM918 262v131h131v-131h-131zM1049 131v131h131v-131h-131zM1180 131h131v-131h-131v131zM524 786h-131v132h131v-132zM1442 393h-131v131h-131v131h-131v131h-131
v132h-132v131h132v-131h131v-132h131v-131h131v-131h131v-131zM1442 393h131v-131h-131v131zM786 1049h-131v131h131v-131zM655 786v132h-131v131h131v-131h131v-132h-131zM786 655v131h132v-131h-132zM918 524v131h131v-131h-131zM1049 393v131h131v-131h-131zM1180 262
v131h131v-131h-131zM1311 131v131h131v-131h-131zM1442 131h131v-131h-131v131zM524 1049h-131v131h131v-131z" />
    <glyph glyph-name="orn.15" horiz-adv-x="1966" 
d="M524 1049v-918h918v918h-918zM393 0v1180h1180v-1180h-1180zM262 1311v-1442h1442v1442h-1442zM131 -262v1704h1704v-1704h-1704z" />
    <glyph glyph-name="orn.16" horiz-adv-x="1966" 
d="M1835 1442v-131h-131v131h131zM1442 1049v-131h-131v131h131zM1442 1049v131h131v-131h-131zM1180 786v-131h-131v131h131zM1180 786v132h131v-132h-131zM786 393v131h132v-131h-132zM786 393v-131h-131v131h131zM655 262v-131h-131v-131h-131v131h131v131h131zM262 -131
v-131h-131v131h131zM262 -131v131h-131v1180h131v-1180h131v-131h-131zM393 -131h1180v-131h-1180v131zM1049 655v-131h131v-131h131v-131h-131v131h-131v131h-131v131h131zM262 1311h131v-131h131v-131h131v-131h131v-132h132v-131h-132v131h-131v132h-131v131h-131v131
h-131v131zM262 1311h-131v131h131v-131zM1573 -131v131h-131v131h-131v131h131v-131h131v-131h131v-131h-131zM1704 -131h131v-131h-131v131zM1573 1180v131h-1180v131h1180v-131h131v-131h-131zM1704 0v1180h131v-1180h-131z" />
    <glyph glyph-name="orn.17" horiz-adv-x="655" 
d="M131 -262v393h131v-262h262v-131h-393zM131 1049v393h393v-131h-262v-262h-131z" />
    <glyph glyph-name="orn.18" horiz-adv-x="655" 
d="M524 131v-393h-393v131h262v262h131zM524 1442v-393h-131v262h-262v131h393z" />
    <glyph glyph-name="orn.19" horiz-adv-x="655" 
d="M524 1442v-393h-393v131h262v262h131zM524 131v-393h-131v262h-262v131h393z" />
    <glyph glyph-name="orn.20" horiz-adv-x="655" 
d="M131 1049v393h131v-262h262v-131h-393zM131 -262v393h393v-131h-262v-262h-131z" />
    <glyph glyph-name="orn.21" horiz-adv-x="1703" 
d="M262 131v-131h131v131h-131zM1442 1049v131h-131v-131h-131v-131h131v131h131zM131 -131v1442h1442v-1442h-1442zM655 393h-131v-131h131v131zM655 393h131v131h-131v-131zM524 262h-131v-131h131v131zM1049 786h-131v-131h131v131zM1049 786h131v132h-131v-132z
M1311 131v131h-131v-131h131zM1311 131v-131h131v131h-131zM786 524h132v-131h131v-131h131v131h-131v131h-131v131h-132v-131zM393 1049v-131h131v-132h131v-131h131v131h-131v132h-131v131h-131zM393 1049v131h-131v-131h131z" />
    <glyph glyph-name="orn.22" horiz-adv-x="1703" 
d="M786 918v131h-131v-131h131zM131 -131v1442h1442v-1442h-1442zM655 918h-131v-132h131v132zM655 262v131h-131v-131h131zM655 262v-131h131v131h-131zM524 786h-131v-131h-131v-131h131v-131h131v131h918v131h-918v131z" />
    <glyph glyph-name="orn.23" horiz-adv-x="1703" 
d="M918 1049v-131h131v131h-131zM1573 1311v-1442h-1442v1442h1442zM1049 262h131v131h-131v-131zM1049 262h-131v-131h131v131zM1180 393h131v131h131v131h-131v131h-131v132h-131v-132h131v-131h-918v-131h918v-131z" />
    <glyph glyph-name="orn.24" horiz-adv-x="1703" 
d="M524 524h-131v-131h131v131zM1573 -131h-1442v1442h1442v-1442zM1180 393h131v131h-131v-131zM1180 393h-131v-131h131v131zM1049 262h-131v918h-132v-918h-131v131h-131v-131h131v-131h131v-131h132v131h131v131z" />
    <glyph glyph-name="orn.25" horiz-adv-x="1703" 
d="M393 655h131v131h-131v-131zM131 1311h1442v-1442h-1442v1442zM524 786h131v132h-131v-132zM1180 786v132h-131v-132h131zM1180 786v-131h131v131h-131zM655 918h131v-918h132v918h131v131h-131v131h-132v-131h-131v-131z" />
    <glyph glyph-name="orn.26" horiz-adv-x="1441" 
d="M131 0v262h131v262h131v-262h-131v-131h918v131h131v-262h-1180zM524 786v263h131v-263h-131zM524 786v-262h-131v262h131zM655 1049v262h131v-262h132v-263h131v-262h131v-262h-131v262h-131v262h-132v263h-131z" />
    <glyph glyph-name="orn.27" horiz-adv-x="1441" 
d="M1049 786v263h131v-263h-131zM1049 786v-262h-131v262h131zM918 524v-262h-132v262h132zM786 262v-262h-131v262h-131v262h-131v262h131v-262h131v-262h131zM1180 1049v131h-918v-131h131v-263h-131v263h-131v262h1180v-262h-131z" />
    <glyph glyph-name="orn.28" horiz-adv-x="1572" 
d="M918 918v-132h-263v132h263zM918 918v131h262v-131h-262zM655 786v-131h-262v131h262zM393 655v-131h262v-131h263v-131h-263v131h-262v131h-262v131h262zM1180 1049v131h262v-1180h-262v131h-262v131h262v-131h131v918h-131z" />
    <glyph glyph-name="orn.29" horiz-adv-x="1572" 
d="M393 0h-262v1180h262v-131h-131v-918h131v131h262v-131h-262v-131zM918 393v131h262v-131h-262zM918 393v-131h-263v131h263zM1180 524v131h-262v131h-263v132h-262v131h262v-131h263v-132h262v-131h262v-131h-262z" />
    <glyph glyph-name="orn.30" horiz-adv-x="1572" 
d="M262 1180v-1049h1049v1049h-1049zM131 0v1311h1311v-1311h-1311z" />
    <glyph glyph-name="orn.31" horiz-adv-x="1572" 
d="M393 1049v-131h-131v131h131zM393 1049v131h131v-131h-131zM1180 262v131h131v-131h-131zM1180 262v-131h-131v131h131zM1049 131v-131h-525v131h-131v131h131v-131h525zM262 918v-525h131v-131h-131v131h-131v525h131zM524 1180v131h525v-131h131v-131h-131v131h-525z
M1311 393v525h-131v131h131v-131h131v-525h-131z" />
    <glyph glyph-name="orn.32" horiz-adv-x="1179" 
d="M918 918h-263v262h-393v-1049h656v787zM786 1311v-262h263v-1049h-918v1311h655z" />
    <glyph glyph-name="idotaccent" horiz-adv-x="495" 
d="M483 1372l-30 -141h-142l31 141h141zM188 0h-133l221 1044h134z" />
    <glyph glyph-name="diametersign" horiz-adv-x="1380" 
d="M246 536q0 -170 94 -290l625 624q-123 96 -291 96t-298 -130t-130 -300zM1135 506q0 168 -97 291l-624 -625q120 -94 290 -94t301 130q130 130 130 298zM143 536q0 211 161 372t370 161t362 -127l127 127l74 -74l-127 -127q127 -154 127 -362t-161 -370
q-161 -161 -372 -161t-362 125l-125 -125l-74 74l125 125q-125 151 -125 362z" />
    <glyph glyph-name="comma.sub" horiz-adv-x="360" 
d="M92 -102l-24 -115l-88 -115h-54l86 115h-61l24 115h117z" />
    <glyph glyph-name="period.sub" horiz-adv-x="360" 
d="M92 -102l-24 -115h-117l24 115h117z" />
    <glyph glyph-name="a.sub" horiz-adv-x="700" 
d="M168 -229q-94 0 -145 53q-51 52 -51 166t66 230t190 116t169 -94l19 82h96l-117 -541h-92l14 74q-55 -86 -149 -86zM373 145q0 53 -38 83t-92 30q-55 0 -95 -34t-50 -87l-32 -157q-4 -20 -5 -27q0 -45 33 -75t90 -30t103 40q45 40 59 108l21 98q6 29 6 51z" />
    <glyph glyph-name="b.sub" horiz-adv-x="704" 
d="M305 334q197 0 197 -199q0 -145 -70 -255t-192 -109q-59 0 -105 29q-45 30 -61 81l-21 -98h-94l152 717h94l-53 -252q57 86 153 86zM100 -23q0 -67 40 -99t94 -32t94 34q39 34 49 89l33 156q4 16 4 27q0 44 -33 74t-95 30t-105 -39q-44 -39 -58 -111l-17 -77
q-6 -27 -6 -52z" />
    <glyph glyph-name="c.sub" horiz-adv-x="626" 
d="M340 147v5q0 106 -111 106q-45 0 -82 -29t-49 -86l-35 -161q-2 -10 -2 -27q0 -51 31 -79t82 -28q102 0 135 115h97q-51 -193 -236 -192q-94 0 -146 50t-53 152q0 150 73 256t194 107q92 0 145 -51t53 -138h-96z" />
    <glyph glyph-name="d.sub" horiz-adv-x="706" 
d="M375 127q0 65 -39 97t-94 32q-56 0 -94 -33t-50 -88l-35 -155q-2 -10 -2 -42t32 -62q31 -30 93 -30t107 40t59 110l17 80q6 29 6 51zM170 -229q-197 0 -199 198q0 145 70 255t192 110q59 0 105 -31t61 -80l60 277h96l-154 -717h-94l17 72q-58 -84 -154 -84z" />
    <glyph glyph-name="e.sub" horiz-adv-x="645" 
d="M358 152q0 50 -34 78t-86 28q-54 0 -92 -29t-48 -86l-8 -41h262l4 21q2 10 2 29zM-29 -16q0 145 74 248q73 104 185 104t166 -57t55 -146q0 -33 -17 -106h-362l-9 -45q-4 -20 -4 -27q0 -51 35 -79t88 -28q102 0 137 107h95q-57 -184 -238 -184q-205 0 -205 213z" />
    <glyph glyph-name="f.sub" horiz-adv-x="442" 
d="M225 420l-20 -96h110l-16 -80h-111l-98 -461h-96l98 461h-88l16 80h89l36 176h220l-17 -80h-123z" />
    <glyph glyph-name="g.sub" horiz-adv-x="706" 
d="M375 127q0 65 -39 97t-94 32q-54 0 -94 -33t-50 -88l-32 -155q-4 -20 -5 -29q0 -45 32 -75t89 -30q137 0 170 150l17 80q6 29 6 51zM138 -428q-91 0 -148 45t-58 123h97q0 -92 123 -92q53 0 97 36t60 109l15 62q-58 -84 -154 -84q-197 0 -199 198q0 145 70 255t192 110
q59 0 105 -31t63 -80l19 96h96l-115 -540q-23 -104 -97 -156q-75 -51 -166 -51z" />
    <glyph glyph-name="h.sub" horiz-adv-x="688" 
d="M322 336q68 0 108 -40t41 -86q0 -46 -6 -71l-74 -356h-94l72 350q6 31 6 45q0 80 -84 80q-63 0 -109 -47t-61 -113l-66 -315h-96l152 717h96l-55 -262q57 98 170 98z" />
    <glyph glyph-name="i.sub" horiz-adv-x="360" 
d="M209 500l-21 -99h-100l21 99h100zM55 -217h-96l115 541h96z" />
    <glyph glyph-name="j.sub" horiz-adv-x="360" 
d="M209 500l-21 -99h-100l21 99h100zM-61 -313l135 637h96l-152 -717h-221l17 80h125z" />
    <glyph glyph-name="k.sub" horiz-adv-x="628" 
d="M207 500l-152 -717h-96l154 717h94zM295 -217l-172 301l248 240h125l-271 -250l168 -291h-98z" />
    <glyph glyph-name="l.sub" horiz-adv-x="360" 
d="M55 -217h-96l152 717h96z" />
    <glyph glyph-name="m.sub" horiz-adv-x="978" 
d="M623 336q63 0 101 -40t38 -103q0 -20 -4 -54l-76 -356h-94l74 350q4 20 4 45q0 80 -74 80q-55 0 -99 -47t-57 -113l-67 -315h-97l74 350q6 14 6 45q0 80 -76 80q-55 0 -98 -47t-57 -113l-66 -315h-96l113 539h96l-18 -84q59 98 157 98q55 0 91 -31t46 -82q61 113 179 113
z" />
    <glyph glyph-name="n.sub" horiz-adv-x="686" 
d="M319 336q68 0 109 -40t41 -103q0 -29 -6 -54l-74 -356h-94l72 350q6 31 6 45q0 80 -84 80q-63 0 -109 -47t-61 -113l-66 -315h-96l117 539h92l-16 -84q57 98 169 98z" />
    <glyph glyph-name="o.sub" horiz-adv-x="667" 
d="M377 152q0 106 -128 106t-153 -111l-35 -167q-2 -10 -2 -25q0 -107 128 -107t153 111l35 168q2 10 2 25zM184 -229q-100 0 -156 53t-57 151q0 150 75 255t206 106q100 0 156 -53t57 -152q0 -150 -75 -255t-206 -105z" />
    <glyph glyph-name="p.sub" horiz-adv-x="704" 
d="M305 334q197 0 197 -199q0 -145 -70 -255t-192 -109q-59 0 -105 29q-45 30 -61 81l-60 -276h-94l154 719h94l-16 -76q57 86 153 86zM100 -23q0 -67 40 -99t94 -32t94 34q39 34 49 89l33 156q4 16 4 27q0 44 -33 74t-95 30t-105 -39q-44 -39 -58 -111l-17 -77
q-6 -27 -6 -52z" />
    <glyph glyph-name="q.sub" horiz-adv-x="706" 
d="M375 127q0 65 -39 97t-94 32q-56 0 -94 -33t-50 -88l-35 -155q-2 -10 -2 -42t32 -62q31 -30 93 -30t107 40t59 110l17 80q6 29 6 51zM170 -229q-197 0 -199 198q0 145 70 255t192 110q59 0 105 -31t61 -80l21 101h96l-151 -717h-95l54 248q-58 -84 -154 -84z" />
    <glyph glyph-name="r.sub" horiz-adv-x="454" 
d="M-41 -217l115 541h260l-17 -80h-163l-99 -461h-96z" />
    <glyph glyph-name="s.sub" horiz-adv-x="614" 
d="M322 176q0 82 -107 82t-107 -84q0 -44 58 -61l82 -25q139 -47 139 -139q1 -78 -65 -128t-161 -50t-155 46q-59 46 -59 126v16h96v-16q0 -47 37 -71t88 -24t87 25t36 61q0 47 -88 76l-74 25q-113 35 -113 131q0 76 58 123t145 47q88 0 143 -41t56 -117v-16h-96v14z" />
    <glyph glyph-name="t.sub" horiz-adv-x="481" 
d="M188 244l-82 -381h123l-16 -80h-219l98 461h-88l16 80h89l36 176h97l-37 -176h123l-17 -80h-123z" />
    <glyph glyph-name="u.sub" horiz-adv-x="681" 
d="M135 -229q-69 0 -109 39t-40 106q0 29 6 53l74 355h94l-72 -351q-6 -31 -6 -45q0 -80 82 -80q63 0 108 46t60 114l65 316h97l-117 -539h-92l16 84q-57 -98 -166 -98z" />
    <glyph glyph-name="v.sub" horiz-adv-x="606" 
d="M106 324l44 -418h8l225 418h102l-307 -541h-92l-80 541h100z" />
    <glyph glyph-name="w.sub" horiz-adv-x="862" 
d="M428 324l12 -418h9l182 418h98l-250 -541h-112l-13 424h-8l-184 -424h-113l-37 541h92l19 -418h8l180 418h117z" />
    <glyph glyph-name="x.sub" horiz-adv-x="614" 
d="M-104 -217l245 287l-118 254h100l82 -187l155 187h113l-221 -258l127 -283h-98l-93 217l-178 -217h-114z" />
    <glyph glyph-name="y.sub" horiz-adv-x="612" 
d="M152 -94h8l231 418h103l-414 -717h-193l19 80h127l55 100l-84 537h94z" />
    <glyph glyph-name="z.sub" horiz-adv-x="587" 
d="M57 -135h285l-16 -82h-408l16 82l357 377h-264l18 82h385l-16 -82z" />
    <glyph glyph-name="eacute.sub" horiz-adv-x="645" 
d="M358 152q0 50 -34 78t-86 28q-54 0 -92 -29t-48 -86l-8 -41h262l4 21q2 10 2 29zM-29 -16q0 145 74 248q73 104 185 104t166 -57t55 -146q0 -33 -17 -106h-362l-9 -45q-4 -20 -4 -27q0 -51 35 -79t88 -28q102 0 137 107h95q-57 -184 -238 -184q-205 0 -205 213zM209 391
l96 127h109l-121 -127h-84z" />
    <glyph glyph-name="egrave.sub" horiz-adv-x="645" 
d="M358 152q0 50 -34 78t-86 28q-54 0 -92 -29t-48 -86l-8 -41h262l4 21q2 10 2 29zM-29 -16q0 145 74 248q73 104 185 104t166 -57t55 -146q0 -33 -17 -106h-362l-9 -45q-4 -20 -4 -27q0 -51 35 -79t88 -28q102 0 137 107h95q-57 -184 -238 -184q-205 0 -205 213zM223 518
l64 -127h-78l-90 127h104z" />
    <glyph glyph-name="comma.ordn" horiz-adv-x="358" 
d="M281 791l-25 -115l-88 -115h-53l86 115h-62l25 115h117z" />
    <glyph glyph-name="period.ordn" horiz-adv-x="358" 
d="M281 791l-25 -115h-117l25 115h117z" />
    <glyph glyph-name="a.ordn" horiz-adv-x="700" 
d="M356 664q-196 0 -196 220q0 114 66 229q67 116 191 116t169 -94l18 82h96l-116 -541h-92l14 74q-56 -86 -150 -86zM561 1052q0 38 -38 69q-38 30 -92 30t-94 -34t-50 -87l-33 -158q-4 -20 -4 -26q0 -45 33 -75t90 -30t103 40t59 108l20 98q6 27 6 65z" />
    <glyph glyph-name="b.ordn" horiz-adv-x="704" 
d="M496 1227q196 0 196 -199q0 -145 -70 -255t-192 -109q-59 0 -104 30t-62 80l-20 -98h-94l151 717h94l-53 -252q58 86 154 86zM291 870q0 -66 40 -98t94 -33q54 0 93 34t49 89l33 156q4 16 4 26q0 45 -33 75t-95 30t-105 -39q-44 -39 -58 -111l-16 -77q-6 -29 -6 -52z" />
    <glyph glyph-name="c.ordn" horiz-adv-x="626" 
d="M530 1040v4q0 106 -110 107q-45 0 -82 -29t-49 -86l-35 -162q-2 -10 -2 -26q0 -51 31 -79t82 -28q102 0 135 115h96q-51 -193 -236 -192q-94 0 -146 50t-52 176t72 232q73 106 194 107q92 0 145 -51t54 -138h-97z" />
    <glyph glyph-name="d.ordn" horiz-adv-x="706" 
d="M565 1020q0 66 -39 98t-94 31q-55 0 -93 -33t-50 -88l-35 -156q-2 -10 -2 -42t32 -61q32 -30 94 -30t106 40q45 40 59 110l16 80q6 27 6 51zM360 664q-198 0 -198 198q0 145 69 255q70 110 193 110q59 0 104 -31t62 -80l59 277h96l-153 -717h-94l16 72q-58 -84 -154 -84z
" />
    <glyph glyph-name="e.ordn" horiz-adv-x="645" 
d="M549 1044q0 51 -34 79t-87 28t-91 -29t-48 -86l-8 -41h262l4 21q2 10 2 28zM162 877q0 145 74 248t185 103t165 -56q54 -58 55 -146q0 -33 -16 -106h-363l-8 -46q-4 -20 -4 -26q0 -51 35 -79t88 -28q102 0 137 107h94q-57 -184 -237 -184q-205 0 -205 213z" />
    <glyph glyph-name="f.ordn" horiz-adv-x="442" 
d="M416 1313l-21 -96h111l-17 -80h-110l-98 -461h-97l99 461h-88l16 80h88l37 176h219l-16 -80h-123z" />
    <glyph glyph-name="g.ordn" horiz-adv-x="708" 
d="M565 1020q0 66 -39 98t-94 31q-55 0 -94 -33t-49 -88l-33 -156q-4 -20 -4 -28q0 -45 32 -75t89 -30q137 0 170 150l16 80q6 27 6 51zM329 465q-91 0 -149 45q-57 45 -57 123h96q0 -92 123 -92q53 0 97 36t61 109l14 62q-58 -84 -154 -84q-198 0 -198 198q0 145 69 255
q70 110 193 110q59 0 105 -31t63 -80l18 96h97l-115 -540q-23 -104 -97 -156q-75 -51 -166 -51z" />
    <glyph glyph-name="h.ordn" horiz-adv-x="690" 
d="M662 1085q0 -29 -7 -53l-73 -356h-95l72 350q6 31 6 45q0 80 -84 80q-63 0 -109 -47t-61 -113l-65 -315h-96l151 717h96l-55 -263q57 98 170 99q68 0 109 -40t41 -104z" />
    <glyph glyph-name="i.ordn" horiz-adv-x="360" 
d="M399 1393l-20 -99h-100l20 99h100zM246 676h-96l114 541h96z" />
    <glyph glyph-name="j.ordn" horiz-adv-x="360" 
d="M399 1393l-20 -99h-100l20 99h100zM129 580l135 637h96l-151 -717h-221l16 80h125z" />
    <glyph glyph-name="k.ordn" horiz-adv-x="628" 
d="M395 1393l-151 -717h-97l154 717h94zM483 676l-172 301l248 240h125l-270 -250l168 -291h-99z" />
    <glyph glyph-name="l.ordn" horiz-adv-x="360" 
d="M246 676h-96l151 717h96z" />
    <glyph glyph-name="m.ordn" horiz-adv-x="980" 
d="M813 1229q63 0 101 -40t38 -104q0 -20 -4 -53l-76 -356h-94l74 350q4 20 4 45q0 80 -74 80q-55 0 -99 -47t-56 -113l-68 -315h-96l74 350q6 14 6 45q0 80 -76 80q-55 0 -98 -47t-58 -113l-65 -315h-96l112 538h96l-18 -84q59 98 158 99q55 0 91 -31t46 -82
q61 113 178 113z" />
    <glyph glyph-name="n.ordn" horiz-adv-x="688" 
d="M659 1085q0 -29 -6 -53l-73 -356h-95l72 350q6 31 6 45q0 80 -84 80q-63 0 -109 -47t-61 -113l-65 -315h-97l117 538h92l-16 -84q57 98 170 99q68 0 108 -40t41 -104z" />
    <glyph glyph-name="o.ordn" horiz-adv-x="667" 
d="M567 1044q0 106 -128 106t-152 -110l-35 -168q-2 -10 -2 -24q0 -106 128 -106t152 110l35 168q2 10 2 24zM375 664q-100 0 -157 53q-56 53 -56 151q0 150 75 255t190 105t171 -52q56 -53 57 -152q-1 -150 -75 -255t-205 -105z" />
    <glyph glyph-name="p.ordn" horiz-adv-x="704" 
d="M496 1227q196 0 196 -199q0 -145 -70 -255t-192 -109q-59 0 -104 30t-62 80l-59 -276h-94l153 719h94l-16 -76q58 86 154 86zM291 870q0 -66 40 -98t94 -33q54 0 93 34t49 89l33 156q4 16 4 26q0 45 -33 75t-95 30t-105 -39q-44 -39 -58 -111l-16 -77q-6 -29 -6 -52z" />
    <glyph glyph-name="q.ordn" horiz-adv-x="706" 
d="M565 1020q0 66 -39 98t-94 31q-55 0 -93 -33t-50 -88l-35 -156q-2 -10 -2 -42t32 -61q32 -30 94 -30t106 40q45 40 59 110l16 80q6 27 6 51zM360 664q-198 0 -198 198q0 145 69 255q70 110 193 110q59 0 104 -31t62 -80l20 101h97l-152 -717h-94l53 248q-58 -84 -154 -84
z" />
    <glyph glyph-name="r.ordn" horiz-adv-x="456" 
d="M150 676l114 541h260l-16 -80h-164l-98 -461h-96z" />
    <glyph glyph-name="s.ordn" horiz-adv-x="616" 
d="M512 1069q0 82 -106 82t-107 -85q0 -44 57 -60l82 -25q139 -47 140 -139q0 -78 -66 -128t-161 -50t-154 46t-60 126v16h96v-16q0 -47 37 -71t88 -24t87 25t36 61q0 47 -88 76l-74 25q-113 35 -112 131q0 76 57 123q58 47 146 47t143 -41t55 -117v-16h-96v14z" />
    <glyph glyph-name="t.ordn" horiz-adv-x="481" 
d="M379 1137l-82 -381h123l-17 -80h-219l99 461h-88l16 80h88l37 176h96l-37 -176h123l-16 -80h-123z" />
    <glyph glyph-name="u.ordn" horiz-adv-x="684" 
d="M326 664q-68 0 -109 38t-41 107q0 29 6 53l74 355h94l-71 -351q-6 -31 -7 -45q0 -80 82 -80q63 0 109 46q45 46 59 114l66 316h96l-117 -539h-92l17 84q-57 -98 -166 -98z" />
    <glyph glyph-name="v.ordn" horiz-adv-x="606" 
d="M297 1217l43 -418h8l225 418h103l-307 -541h-93l-79 541h100z" />
    <glyph glyph-name="w.ordn" horiz-adv-x="862" 
d="M618 1217l13 -418h8l182 418h99l-250 -541h-113l-12 424h-8l-185 -424h-112l-37 541h92l18 -418h9l180 418h116z" />
    <glyph glyph-name="x.ordn" horiz-adv-x="614" 
d="M86 676l246 287l-119 254h100l82 -187l156 187h113l-222 -259l127 -282h-98l-92 217l-178 -217h-115z" />
    <glyph glyph-name="y.ordn" horiz-adv-x="610" 
d="M340 799h8l232 418h102l-414 -717h-192l18 80h127l55 100l-83 537h94z" />
    <glyph glyph-name="z.ordn" horiz-adv-x="589" 
d="M248 758h284l-16 -82h-407l16 82l356 377h-264l19 82h385l-17 -82z" />
    <glyph glyph-name="eacute.ordn" horiz-adv-x="645" 
d="M549 1044q0 51 -34 79t-87 28t-91 -29t-48 -86l-8 -41h262l4 21q2 10 2 28zM162 877q0 145 74 248t185 103t165 -56q54 -58 55 -146q0 -33 -16 -106h-363l-8 -46q-4 -20 -4 -26q0 -51 35 -79t88 -28q102 0 137 107h94q-57 -184 -237 -184q-205 0 -205 213zM399 1284
l97 127h108l-121 -127h-84z" />
    <glyph glyph-name="egrave.ordn" horiz-adv-x="645" 
d="M549 1044q0 51 -34 79t-87 28t-91 -29t-48 -86l-8 -41h262l4 21q2 10 2 28zM162 877q0 145 74 248t185 103t165 -56q54 -58 55 -146q0 -33 -16 -106h-363l-8 -46q-4 -20 -4 -26q0 -51 35 -79t88 -28q102 0 137 107h94q-57 -184 -237 -184q-205 0 -205 213zM414 1411
l63 -127h-78l-90 127h105z" />
    <glyph glyph-name="plus.ordn" horiz-adv-x="720" 
d="M387 909h-231l16 74h231l50 234h79l-49 -234h230l-17 -74h-229l-49 -233h-80z" />
    <glyph glyph-name="minus.ordn" horiz-adv-x="778" 
d="M741 981l-16 -74h-541l17 74h540z" />
    <glyph glyph-name="equal.ordn" horiz-adv-x="778" 
d="M705 807h-541l16 78h541zM745 1004h-540l16 77h541z" />
    <glyph glyph-name="parenleft.ordn" horiz-adv-x="399" 
d="M287 1063l-49 -221q-8 -49 -9 -80q0 -143 70 -303h-70q-80 180 -79 356q0 336 264 578h88q-184 -191 -215 -330z" />
    <glyph glyph-name="parenright.ordn" horiz-adv-x="401" 
d="M311 1090q0 143 -69 303h69q80 -180 80 -357q0 -336 -264 -577h-88q184 190 215 329l49 222q8 49 8 80z" />
    <glyph glyph-name="zero.subslash" horiz-adv-x="735" 
d="M227 -152q66 0 110 38t56 102l60 270q4 16 4 44t-13 60l-317 -485q34 -29 100 -29zM310 434q-64 0 -106 -38q-44 -38 -57 -101l-59 -270q-4 -16 -4 -49t12 -58l318 488q-40 28 -104 28zM-4 11q0 284 138 426q76 79 186 79q222 0 224 -244q1 -283 -137 -427
q-77 -79 -187 -79q-224 2 -224 245z" />
    <glyph glyph-name="two.den" horiz-adv-x="690" 
d="M141 86h340l-20 -86h-486l21 82l364 295q55 45 84 83t29 87t-34 77t-93 28t-103 -38q-44 -37 -53 -108h-100q8 100 82 164t182 63q108 0 164 -53t55 -137q0 -111 -141 -224l-291 -229v-4z" />
    <glyph glyph-name="three.den" horiz-adv-x="700" 
d="M344 651q-63 0 -103 -34t-48 -89h-101q8 88 81 146t175 59q102 0 162 -48t61 -127q0 -154 -135 -193q76 -47 76 -149t-73 -168q-73 -64 -186 -64t-178 58t-65 167h101q0 -72 40 -108t105 -35q121 0 141 100l17 74q2 8 2 30t-20 38q-20 18 -50 18h-153l16 86h151
q76 0 93 61l14 62l2 20q0 96 -125 96z" />
    <glyph glyph-name="four.den" horiz-adv-x="700" 
d="M389 553l-276 -295h217l63 295h-4zM377 0h-101l37 172h-325l18 84l430 461h94l-98 -459h115l-19 -86h-114z" />
    <glyph glyph-name="five.den" horiz-adv-x="688" 
d="M522 274q0 -135 -75 -213q-75 -77 -191 -77t-182 56t-66 157h101q0 -63 39 -98q40 -33 100 -33t101 28q40 28 50 80l21 94q2 8 2 23q0 51 -32 80t-89 28q-90 0 -158 -86h-100l113 404h409l-20 -86h-318l-59 -221q60 70 156 70t147 -57q51 -56 51 -149z" />
    <glyph glyph-name="six.den" horiz-adv-x="720" 
d="M131 203q1 -65 37 -101t100 -36t109 31q43 32 53 87l12 60q2 10 2 26q0 55 -37 87q-39 32 -101 32t-106 -29t-55 -79l-12 -56q-2 -8 -2 -22zM271 -16q-228 0 -228 242q0 283 136 426q77 81 187 81t166 -51q57 -51 58 -143h-101q-2 113 -129 112q-137 0 -174 -172l-16 -78
q70 70 167 70t153 -56t56 -166q0 -109 -81 -187q-82 -78 -194 -78z" />
    <glyph glyph-name="seven.den" horiz-adv-x="616" 
d="M561 635l-430 -635h-117l428 631h-362l18 86h480z" />
    <glyph glyph-name="eight.den" horiz-adv-x="716" 
d="M264 66q127 0 150 92l14 55q2 8 2 23q0 46 -43 70t-104 24q-131 0 -152 -88l-12 -56q-2 -8 -2 -22q0 -46 43 -72t104 -26zM332 410q51 0 88 24t45 60l10 45q2 8 2 20q0 45 -36 69t-88 24t-89 -26q-37 -24 -45 -61l-10 -47l-2 -20q0 -44 37 -66t88 -22zM259 -16
q-117 0 -181 50t-64 133t47 139t127 77q-80 51 -80 141t73 150q73 59 173 59t164 -47t64 -124t-41 -128t-107 -72q96 -57 96 -157t-77 -161q-78 -60 -194 -60z" />
    <glyph glyph-name="nine.den" horiz-adv-x="720" 
d="M487 514q-1 66 -37 102t-100 35q-64 1 -108 -31q-43 -32 -54 -88l-12 -59q-2 -10 -2 -27q0 -55 38 -87q38 -31 100 -31t107 28q44 29 54 80l12 56q2 8 2 22zM347 733q228 0 228 -242q0 -285 -136 -426q-77 -81 -186 -81t-167 51q-57 51 -57 143h100q2 -113 129 -112
q137 0 174 172l17 77q-70 -69 -167 -69t-154 56q-56 56 -56 166t82 188t193 77z" />
    <glyph glyph-name="zero.denslash" horiz-adv-x="843" 
d="M332 66q66 0 110 38t56 101l59 270q4 16 4 44t-12 61l-318 -486q35 -28 101 -28zM416 651q-64 0 -108 -38t-56 -101l-59 -270q-15 -62 8 -107l317 488q-38 28 -102 28zM425 733q224 0 224 -244q0 -284 -138 -427q-77 -78 -186 -78t-167 61t-58 183q0 285 139 426
q77 79 186 79z" />
    <glyph glyph-name="two.sup" horiz-adv-x="690" 
d="M322 938h340l-21 -86h-485l20 82l365 295q55 45 84 83t29 87t-34 77t-94 28t-103 -38q-44 -37 -52 -108h-101q8 100 82 164t182 63q108 0 164 -53q55 -53 56 -137q0 -111 -142 -224l-290 -229v-4z" />
    <glyph glyph-name="three.sup" horiz-adv-x="702" 
d="M526 1503q-63 0 -103 -34t-48 -89h-101q8 88 81 146t177 59q104 0 162 -48q60 -48 60 -127t-37 -127t-99 -66q76 -47 76 -149t-72 -168q-72 -64 -186 -64t-179 58t-64 167h100q0 -72 40 -108t105 -35q119 0 142 100l16 74q2 8 2 30t-20 38q-20 18 -50 18h-153l16 86h152
q76 0 92 61l14 61l2 21q0 96 -125 96z" />
    <glyph glyph-name="four.sup" horiz-adv-x="698" 
d="M569 1405l-276 -295h217l63 295h-4zM557 852h-100l37 172h-326l18 84l430 461h95l-99 -459h115l-18 -86h-115z" />
    <glyph glyph-name="five.sup" horiz-adv-x="690" 
d="M190 1049h101q0 -63 40 -97t100 -34t100 28t51 80l20 94q2 8 2 23q0 51 -32 80t-89 28q-89 0 -157 -86h-101l113 404h410l-21 -86h-317l-60 -221q60 70 156 70t147 -57q51 -56 52 -149q0 -135 -75 -213q-76 -77 -192 -77t-182 56t-66 157z" />
    <glyph glyph-name="six.sup" horiz-adv-x="718" 
d="M311 1055q0 -65 37 -101q38 -36 102 -36t107 32t53 86l13 60q2 10 2 26q0 55 -38 87q-39 32 -101 32t-106 -29t-54 -79l-13 -56q-2 -8 -2 -22zM517 1323q97 0 153 -56t57 -166q1 -109 -81 -187t-194 -78q-228 0 -228 242q-1 282 135 426q77 81 187 81t166 -51
q58 -51 58 -143h-100q-2 113 -129 112q-137 0 -174 -172l-17 -78q70 70 167 70z" />
    <glyph glyph-name="seven.sup" horiz-adv-x="618" 
d="M745 1487l-430 -635h-116l428 631h-363l19 86h479z" />
    <glyph glyph-name="eight.sup" horiz-adv-x="714" 
d="M444 918q127 0 150 92l14 55q2 8 2 22q0 45 -43 70t-104 25q-131 0 -152 -88l-12 -56q-2 -8 -2 -22q0 -46 43 -72t104 -26zM512 1262q51 0 88 24t45 60l10 45q2 8 2 20q0 45 -35 69q-36 24 -88 24t-90 -26q-37 -24 -45 -61l-10 -47l-2 -20q0 -44 37 -66t88 -22zM439 836
q-117 0 -181 50t-64 133t48 139q47 56 127 77q-80 51 -80 141t72 150q73 59 173 59t164 -47t64 -124t-41 -128t-107 -72q96 -57 96 -157q0 -101 -77 -161q-78 -60 -194 -60z" />
    <glyph glyph-name="nine.sup" horiz-adv-x="718" 
d="M668 1366q0 66 -37 102t-101 35q-64 0 -108 -32q-43 -32 -53 -87l-13 -59q-2 -10 -2 -27q0 -55 38 -87q38 -31 100 -31t107 28q44 28 54 80l13 55q2 8 2 23zM252 1320q0 110 82 188t193 77q229 0 229 -242q1 -281 -136 -427q-76 -80 -186 -80t-168 51q-57 51 -57 143h100
q2 -113 129 -112q137 0 174 172l17 77q-70 -69 -167 -69t-154 56q-56 56 -56 166z" />
    <glyph glyph-name="zero.supslash" horiz-adv-x="735" 
d="M455 918q65 0 109 38t57 101l59 270q4 16 4 44t-12 61l-318 -486q35 -28 101 -28zM538 1503q-64 0 -107 -38q-44 -38 -56 -101l-60 -270q-4 -16 -4 -49t13 -58l317 488q-39 28 -103 28zM772 1354q0 -297 -138 -440q-76 -78 -186 -78q-224 1 -225 244q0 284 138 426
q77 79 187 79t166 -61q58 -61 58 -170z" />
    <glyph glyph-name="orn.33" horiz-adv-x="1310" 
d="M1049 131h-131v131h-132v131h-131v131h-131v131h-131v131h131v-131h131v-131h131v-131h132v-131h131v-131zM1049 131h131v-131h-131v131zM393 786h-131v-655h-131v918h918v-131h-656v-132z" />
    <glyph glyph-name="orn.34" horiz-adv-x="1310" 
d="M262 1049h918v-918h-131v655h-131v-131h-132v131h132v132h-656v131zM786 655v-131h-131v131h131zM655 524v-131h-131v131h131zM524 393v-131h-131v131h131zM393 262v-131h-131v131h131zM262 131v-131h-131v131h131z" />
    <glyph glyph-name="percent.slash" horiz-adv-x="1640" 
d="M1182 66q66 0 110 38t56 101l59 270q4 16 4 44t-12 61l-318 -486q35 -28 101 -28zM1266 651q-64 0 -108 -38t-56 -101l-60 -270q-4 -16 -4 -49t13 -58l317 488q-38 28 -102 28zM1499 502q-1 -297 -139 -440q-76 -78 -186 -78q-224 1 -224 244q0 285 139 426q77 79 186 79
t167 -61t57 -170zM416 741q66 0 110 38t56 102l59 270q4 16 4 44t-12 60l-318 -485q35 -29 101 -29zM500 1327q-64 0 -108 -38t-56 -101l-60 -270q-4 -16 -4 -50t13 -57l317 487q-38 29 -102 29zM733 1178q-1 -297 -139 -440q-76 -79 -185 -79q-109 -1 -167 61t-58 184
q0 285 139 426q77 79 186 79t167 -61t57 -170zM195 0l1167 1393h127l-1167 -1393h-127z" />
    <glyph glyph-name="perthousand.slash" horiz-adv-x="2324" 
d="M1872 66q66 0 110 38t56 101l59 270q4 16 4 44t-12 61l-317 -486q34 -28 100 -28zM1956 651q-64 0 -108 -38t-56 -101l-59 -270q-4 -16 -4 -49t12 -58l317 488q-38 28 -102 28zM1965 733q224 0 224 -244q0 -285 -138 -427q-77 -78 -186 -78t-167 61t-58 183
q0 285 139 426q77 79 186 79zM1182 66q66 0 110 38t56 101l59 270q4 16 4 44t-12 61l-318 -486q35 -28 101 -28zM1266 651q-64 0 -108 -38t-56 -101l-60 -270q-4 -16 -4 -49t13 -58l317 488q-38 28 -102 28zM1499 502q-1 -297 -139 -440q-76 -78 -186 -78q-224 1 -224 244
q0 285 139 426q77 79 186 79t167 -61t57 -170zM416 741q66 0 110 38t56 102l59 270q4 16 4 44t-12 60l-318 -485q35 -29 101 -29zM500 1327q-64 0 -108 -38t-56 -101l-60 -270q-4 -16 -4 -50t13 -57l317 487q-38 29 -102 29zM733 1178q-1 -297 -139 -440q-76 -79 -185 -79
q-109 -1 -167 61t-58 184q0 285 139 426q77 79 186 79t167 -61t57 -170zM195 0l1167 1393h127l-1167 -1393h-127z" />
    </font>
</defs>
</svg>
